*
*
G04 PADS VX.2.13 Build Number: 22185787 generated Gerber (RS-274-X) file*
G04 PC Version=2.1*
*
%IN "CAR-BOARD.pcb"*%
*
%MOIN*%
*
%FSLAX35Y35*%
*
*
*
*
G04 PC Standard Apertures*
*
*
G04 Thermal Relief Aperture macro.*
%AMTER*
1,1,$1,0,0*
1,0,$1-$2,0,0*
21,0,$3,$4,0,0,45*
21,0,$3,$4,0,0,135*
%
*
*
G04 Annular Aperture macro.*
%AMANN*
1,1,$1,0,0*
1,0,$2,0,0*
%
*
*
G04 Odd Aperture macro.*
%AMODD*
1,1,$1,0,0*
1,0,$1-0.005,0,0*
%
*
*
G04 PC Custom Aperture Macros*
*
*
*
*
*
*
G04 PC Aperture Table*
*
%ADD081C,0.00831*%
%ADD087C,0.0831*%
*
*
*
*
G04 PC Circuitry*
G04 Layer Name CAR-BOARD.pcb - circuitry*
%LPD*%
*
*
G04 PC Custom Flashes*
G04 Layer Name CAR-BOARD.pcb - flashes*
%LPD*%
*
*
G04 PC Circuitry*
G04 Layer Name CAR-BOARD.pcb - circuitry*
%LPD*%
*
G54D81*
G01X3799362Y2483667D02*
Y718917D01*
X3535332Y454887D02*
G75*
G03X3799362Y718917I-0J264030D01*
G01X3535332Y454887D02*
X463877D01*
X463877*
X200435Y718328D02*
G03X463877Y454887I263444J3D01*
G01X200435Y718328D02*
Y2504443D01*
X441105Y2745113D02*
G03X200435Y2504443I0J-240670D01*
G01X441105Y2745113D02*
X3558103D01*
X3558103*
X3799362Y2483667D02*
G03X3558103Y2745113I-251352J10094D01*
G01X3799362Y2483667D02*
X3799362D01*
X1204994Y728242D02*
G03X1204994I-98153J0D01*
G01X3024938D02*
G03X3024938I-98152J0D01*
G01X3673138Y2523256D02*
G03X3673138I-98153J0D01*
G01X498622Y2523257D02*
G03X498622I-98152J0D01*
G54D87*
G01X2760581Y661749D02*
Y607213D01*
Y661749D02*
X2747360D01*
X2741694Y659152*
X2737917Y653958*
X2736028Y648764*
X2734139Y640974*
Y627989*
X2736028Y620198*
X2737917Y615004*
X2741694Y609810*
X2747360Y607213*
X2760581*
X2705809Y661749D02*
X2711475Y659152D01*
X2715252Y651361*
X2717141Y638377*
Y630586*
X2715252Y617601*
X2711475Y609810*
X2705809Y607213*
X2702031*
X2696365Y609810*
X2692588Y617601*
X2690699Y630586*
Y638377*
X2692588Y651361*
X2696365Y659152*
X2702031Y661749*
X2705809*
X2632603D02*
Y607213D01*
Y661749D02*
X2619382D01*
X2613716Y659152*
X2609939Y653958*
X2608050Y648764*
X2606161Y640974*
Y627989*
X2608050Y620198*
X2609939Y615004*
X2613716Y609810*
X2619382Y607213*
X2632603*
X2589163Y651361D02*
X2585386Y653958D01*
X2579720Y661749*
Y607213*
X2421523Y661749D02*
Y607213D01*
Y661749D02*
X2408302D01*
X2402636Y659152*
X2398858Y653958*
X2396970Y648764*
X2395081Y640974*
Y627989*
X2396970Y620198*
X2398858Y615004*
X2402636Y609810*
X2408302Y607213*
X2421523*
X2376194Y648764D02*
Y651361D01*
X2374305Y656555*
X2372417Y659152*
X2368639Y661749*
X2361085*
X2357307Y659152*
X2355418Y656555*
X2353530Y651361*
Y646167*
X2355418Y640974*
X2359196Y633183*
X2378083Y607213*
X2351641*
X2296869Y663411D02*
Y608875D01*
Y663411D02*
X2283648D01*
X2277982Y660814*
X2274205Y655620*
X2272316Y650426*
X2270427Y642636*
Y629651*
X2272316Y621860*
X2274205Y616666*
X2277982Y611472*
X2283648Y608875*
X2296869*
X2249652Y663411D02*
X2228876D01*
X2240208Y642636*
X2234542*
X2230765Y640039*
X2228876Y637442*
X2226987Y629651*
Y624457*
X2228876Y616666*
X2232653Y611472*
X2238320Y608875*
X2243986*
X2249652Y611472*
X2251540Y614069*
X2253429Y619263*
X3072375Y2092095D02*
X3149501Y2014969D01*
X3072375Y2092095D02*
X3048336Y2068056D01*
X3043995Y2056370*
X3044997Y2050026*
X3049671Y2040010*
X3057017Y2032665*
X3067033Y2027991*
X3073377Y2026989*
X3085062Y2031329*
X3109101Y2055368*
X3090404Y2036671D02*
X3112106Y1977575D01*
X2992245Y2011964D02*
X3069370Y1934839D01*
X3010942Y2030662D02*
X2973547Y1993267D01*
X2964199Y1954538D02*
X2955184Y1952868D01*
X2936153Y1955873*
X3013279Y1878748*
X2896088Y1915808D02*
X2907774Y1920148D01*
X2924134Y1914472*
X2945168Y1898780*
X2956186Y1887762*
X2971878Y1866728*
X2977554Y1850368*
X2973214Y1838682*
X2967872Y1833340*
X2956186Y1829000*
X2939826Y1834676*
X2918792Y1850368*
X2907774Y1861386*
X2892081Y1882420*
X2886406Y1898780*
X2890746Y1910466*
X2896088Y1915808*
X2829646Y1827331D02*
X2824972Y1837347D01*
X2829313Y1849033*
X2834655Y1854375*
X2846340Y1858715*
X2862700Y1853039*
X2883735Y1837347*
X2902098Y1818984*
X2914117Y1801622*
X2916121Y1788935*
X2911780Y1777249*
X2909109Y1774578*
X2897424Y1770238*
X2897424D02*
X2884736Y1772241D01*
X2871047Y1780588*
X2867375Y1784260*
X2859028Y1797949*
X2857024Y1810637*
X2861365Y1822322*
X2864036Y1824993*
X2875722Y1829334*
X2888409Y1827331*
X2902098Y1818984*
X2765208Y1784928D02*
X2843335Y1760221D01*
X2803270Y1720156*
X2765208Y1784928D02*
X2842334Y1707803D01*
X2771886Y1703462D02*
X2723808Y1655384D01*
X2655697Y1675417D02*
X2732822Y1598291D01*
X2655697Y1675417D02*
X2711454Y1576923D01*
X2612960Y1632680D02*
X2711454Y1576923D01*
X2612960Y1632680D02*
X2690086Y1555555D01*
X2567553Y1587273D02*
X2666047Y1531516D01*
X2567553Y1587273D02*
X2623311Y1488779D01*
X2632325Y1549211D02*
X2605615Y1522501D01*
X2522146Y1541866D02*
X2599271Y1464740D01*
X2498107Y1517827D02*
X2575232Y1440701D01*
X2498107Y1517827D02*
X2537838Y1403307D01*
X2460713Y1480432D02*
X2537838Y1403307D01*
X2436673Y1456393D02*
X2513799Y1379268D01*
X2436673Y1456393D02*
X2412634Y1432354D01*
X2408294Y1420668*
X2409295Y1414325*
X2413970Y1404308*
X2421315Y1396963*
X2431331Y1392289*
X2437675Y1391287*
X2449361Y1395628*
X2473400Y1419667D02*
X2449361Y1395628D01*
X2445020Y1383942*
X2446022Y1377598*
X2450696Y1367582*
X2461714Y1356564*
X2471730Y1351890*
X2478074Y1350888*
X2489760Y1355229*
X2513799Y1379268*
X2359214Y1378934D02*
X2368229Y1380603D01*
X2380916Y1378600*
X2390932Y1373926*
X2404621Y1365579*
X2422984Y1347216*
X2431331Y1333527*
X2436006Y1323510*
X2438009Y1310823*
X2436339Y1301808*
X2425655Y1291124*
X2416641Y1289455*
X2403953Y1291458*
X2393937Y1296132*
X2380248Y1304479*
X2361885Y1322842*
X2361885D02*
X2353538Y1336531D01*
X2348864Y1346548*
X2346860Y1359235*
X2348530Y1368250*
X2359214Y1378934*
X2308465Y1328185D02*
X2385590Y1251059D01*
X2308465Y1328185D02*
X2284425Y1304145D01*
X2280085Y1292460*
X2281087Y1286116*
X2285761Y1276100*
X2293106Y1268754*
X2303123Y1264080*
X2309466Y1263079*
X2321152Y1267419*
X2345191Y1291458*
X2326494Y1272761D02*
X2348196Y1213665D01*
X2225663Y1245383D02*
X2324157Y1189626D01*
X2225663Y1245383D02*
X2281421Y1146889D01*
X2290435Y1207321D02*
X2263725Y1180611D01*
X2180256Y1199976D02*
X2257381Y1122850D01*
X2180256Y1199976D02*
X2161559Y1181279D01*
X2157218Y1169593*
X2159222Y1156906*
X2163896Y1146889*
X2172243Y1133200*
X2190606Y1114837*
X2204295Y1106490*
X2214311Y1101816*
X2226999Y1099813*
X2238684Y1104153*
X2257381Y1122850*
X1513372Y2206776D02*
X1590498Y2129651D01*
X1513372Y2206776D02*
X1489333Y2182737D01*
X1484993Y2171052*
X1485994Y2164708*
X1490669Y2154692*
X1498014Y2147346*
X1508030Y2142672*
X1514374Y2141670*
X1526060Y2146011*
X1550099Y2170050*
X1531402Y2151353D02*
X1553104Y2092257D01*
X1433242Y2126646D02*
X1510367Y2049520D01*
X1451939Y2145343D02*
X1414545Y2107949D01*
X1405196Y2069219D02*
X1396181Y2067550D01*
X1377150Y2070555*
X1454276Y1993429*
X1337085Y2030489D02*
X1348771Y2034830D01*
X1365131Y2029154*
X1386165Y2013462*
X1397183Y2002444*
X1412875Y1981409*
X1418551Y1965049*
X1414211Y1953364*
X1408869Y1948022*
X1397183Y1943681*
X1380823Y1949357*
X1359789Y1965049*
X1348771Y1976067*
X1333079Y1997102*
X1327403Y2013462*
X1331743Y2025147*
X1337085Y2030489*
X1270644Y1942012D02*
X1265969Y1952028D01*
X1270310Y1963714*
X1275652Y1969056*
X1287338Y1973396*
X1303698Y1967720*
X1324732Y1952028*
X1343095Y1933665*
X1355115Y1916303*
X1357118Y1903616*
X1352777Y1891930*
X1350106Y1889259*
X1338421Y1884919*
X1325733Y1886922*
X1312044Y1895269*
X1308372Y1898942*
X1300025Y1912631*
X1298022Y1925318*
X1302362Y1937004*
X1305033Y1939675*
X1316719Y1944015*
X1329406Y1942012*
X1343095Y1933665*
X1206205Y1899610D02*
X1284333Y1874903D01*
X1244267Y1834837*
X1206205Y1899610D02*
X1283331Y1822484D01*
X1212883Y1818144D02*
X1164805Y1770065D01*
X1096694Y1790098D02*
X1173819Y1712972D01*
X1096694Y1790098D02*
X1152451Y1691604D01*
X1053958Y1747362D02*
X1152451Y1691604D01*
X1053958Y1747362D02*
X1131083Y1670236D01*
X1008550Y1701954D02*
X1107044Y1646197D01*
X1008550Y1701954D02*
X1064308Y1603461D01*
X1073322Y1663892D02*
X1046612Y1637182D01*
X963143Y1656547D02*
X1040269Y1579422D01*
X939104Y1632508D02*
X1016230Y1555382D01*
X939104Y1632508D02*
X978835Y1517988D01*
X901710Y1595114D02*
X978835Y1517988D01*
X877671Y1571075D02*
X954796Y1493949D01*
X877671Y1571075D02*
X853631Y1547036D01*
X849291Y1535350*
X850293Y1529006*
X854967Y1518990*
X862312Y1511645*
X872329Y1506970*
X878672Y1505969*
X890358Y1510309*
X914397Y1534348D02*
X890358Y1510309D01*
X886018Y1498623*
X887019Y1492280*
X891693Y1482263*
X902711Y1471246*
X912728Y1466571*
X919071Y1465570*
X930757Y1469910*
X954796Y1493949*
X800211Y1493615D02*
X809226Y1495285D01*
X821913Y1493281*
X831929Y1488607*
X845618Y1480260*
X863982Y1461897*
X872329Y1448208*
X877003Y1438192*
X879006Y1425504*
X877337Y1416490*
X866653Y1405806*
X857638Y1404136*
X844951Y1406140*
X834934Y1410814*
X821245Y1419161*
X802882Y1437524*
X794535Y1451213*
X789861Y1461229*
X787858Y1473917*
X789527Y1482931*
X800211Y1493615*
X749462Y1442866D02*
X826587Y1365740D01*
X749462Y1442866D02*
X725423Y1418827D01*
X721082Y1407141*
X722084Y1400797*
X726758Y1390781*
X734104Y1383436*
X744120Y1378762*
X750463Y1377760*
X762149Y1382100*
X786188Y1406140*
X767491Y1387442D02*
X789193Y1328346D01*
X666660Y1360065D02*
X765154Y1304307D01*
X666660Y1360065D02*
X722418Y1261571D01*
X731433Y1322003D02*
X704722Y1295292D01*
X621253Y1314657D02*
X698379Y1237532D01*
X621253Y1314657D02*
X602556Y1295960D01*
X598216Y1284274*
X600219Y1271587*
X604893Y1261571*
X613240Y1247882*
X631603Y1229519*
X645292Y1221172*
X655309Y1216497*
X667996Y1214494*
X679682Y1218835*
X698379Y1237532*
X3525124Y954997D02*
Y911368D01*
Y954997D02*
X3511525D01*
X3506992Y952919*
X3505481Y950842*
X3503970Y946687*
Y942532*
X3505481Y938377*
X3506992Y936299*
X3511525Y934221*
X3525124D02*
X3511525D01*
X3506992Y932144*
X3505481Y930066*
X3503970Y925911*
Y919678*
X3505481Y915523*
X3506992Y913446*
X3511525Y911368*
X3525124*
X3490372Y946687D02*
X3487350Y948764D01*
X3482817Y954997*
Y911368*
X3461664Y954997D02*
X3466197Y952919D01*
X3467708Y948764*
Y944609*
X3466197Y940454*
X3463175Y938377*
X3457131Y936299*
X3452598Y934221*
X3449576Y930066*
X3448065Y925911*
Y919678*
X3449576Y915523*
X3451087Y913446*
X3455620Y911368*
X3461664*
X3466197Y913446*
X3467708Y915523*
X3469219Y919678*
Y925911*
X3467708Y930066*
X3464686Y934221*
X3460153Y936299*
X3454109Y938377*
X3451087Y940454*
X3449576Y944609*
Y948764*
X3451087Y952919*
X3455620Y954997*
X3461664*
X3526786Y1028127D02*
Y984498D01*
Y1028127D02*
X3513187D01*
X3508654Y1026050*
X3507143Y1023972*
X3505633Y1019817*
Y1015662*
X3507143Y1011507*
X3508654Y1009429*
X3513187Y1007352*
X3526786D02*
X3513187D01*
X3508654Y1005274*
X3507143Y1003196*
X3505633Y999041*
Y992809*
X3507143Y988654*
X3508654Y986576*
X3513187Y984498*
X3526786*
X3492034Y1019817D02*
X3489012Y1021895D01*
X3484479Y1028127*
Y984498*
X3451238Y1013584D02*
X3452749Y1007352D01*
X3455771Y1003196*
X3460304Y1001119*
X3461815*
X3466348Y1003196*
X3469370Y1007352*
X3470881Y1013584*
Y1015662*
X3469370Y1021895*
X3466348Y1026050*
X3461815Y1028127*
X3460304*
X3455771Y1026050*
X3452749Y1021895*
X3451238Y1013584*
Y1003196*
X3452749Y992809*
X3455771Y986576*
X3460304Y984498*
X3463326*
X3467859Y986576*
X3469370Y990731*
X3497473Y582282D02*
X3498984Y586437D01*
X3502006Y590593*
X3505028Y592670*
X3511072*
X3514094Y590593*
X3517116Y586437*
X3518627Y582282*
X3520138Y576050*
Y565662*
X3518627Y559429*
X3517116Y555274*
X3514094Y551119*
X3511072Y549041*
X3505028*
X3502006Y551119*
X3498984Y555274*
X3497473Y559429*
X3480853Y592670D02*
X3464232D01*
X3473298Y576050*
X3468765*
X3465743Y573972*
X3464232Y571895*
X3462721Y565662*
Y561507*
X3464232Y555274*
X3467254Y551119*
X3471787Y549041*
X3476320*
X3480853Y551119*
X3482364Y553196*
X3483875Y557352*
X3495811Y663723D02*
X3497322Y667878D01*
X3500344Y672033*
X3503366Y674111*
X3509410*
X3512432Y672033*
X3515454Y667878*
X3516965Y663723*
X3518476Y657490*
Y647102*
X3516965Y640870*
X3515454Y636714*
X3512432Y632559*
X3509410Y630482*
X3503366*
X3500344Y632559*
X3497322Y636714*
X3495811Y640870*
X3480702Y663723D02*
Y665800D01*
X3479191Y669955*
X3477680Y672033*
X3474658Y674111*
X3468614*
X3465592Y672033*
X3464081Y669955*
X3462570Y665800*
Y661645*
X3464081Y657490*
X3467103Y651257*
X3482213Y630482*
X3461059*
X3427818Y674111D02*
X3442928D01*
X3444439Y655413*
X3442928Y657490*
X3438395Y659568*
X3433862*
X3429329Y657490*
X3426307Y653335*
X3424796Y647102*
X3426307Y642947*
X3427818Y636714*
X3430840Y632559*
X3435373Y630482*
X3439906*
X3444439Y632559*
X3445950Y634637*
X3447461Y638792*
X2066448Y1021064D02*
X2067959Y1025219D01*
X2070981Y1029374*
X2074003Y1031451*
X2080047*
X2083069Y1029374*
X2086091Y1025219*
X2087602Y1021064*
X2089113Y1014831*
Y1004443*
X2087602Y998210*
X2086091Y994055*
X2083069Y989900*
X2080047Y987823*
X2074003*
X2070981Y989900*
X2067959Y994055*
X2066448Y998210*
X2052850Y1023141D02*
X2049828Y1025219D01*
X2045295Y1031451*
Y987823*
X2071435Y944609D02*
X2072946Y948764D01*
X2075967Y952919*
X2078989Y954997*
X2085033*
X2088055Y952919*
X2091077Y948764*
X2092588Y944609*
X2094099Y938377*
Y927989*
X2092588Y921756*
X2091077Y917601*
X2088055Y913446*
X2085033Y911368*
X2078989*
X2075967Y913446*
X2072946Y917601*
X2071435Y921756*
X2048770Y954997D02*
X2053303Y952919D01*
X2056325Y946687*
X2057836Y936299*
Y930066*
X2056325Y919678*
X2053303Y913446*
X2048770Y911368*
X2045748*
X2041216Y913446*
X2038194Y919678*
X2036683Y930066*
Y936299*
X2038194Y946687*
X2041216Y952919*
X2045748Y954997*
X2048770*
X2086393Y675357D02*
X2087904Y679512D01*
X2090926Y683667*
X2093948Y685745*
X2099992*
X2103014Y683667*
X2106035Y679512*
X2107546Y675357*
X2109057Y669124*
Y658737*
X2107546Y652504*
X2106035Y648349*
X2103014Y644194*
X2099992Y642116*
X2093948*
X2090926Y644194*
X2087904Y648349*
X2086393Y652504*
X2071283Y675357D02*
Y677435D01*
X2069773Y681590*
X2068262Y683667*
X2065240Y685745*
X2059196*
X2056174Y683667*
X2054663Y681590*
X2053152Y677435*
Y673280*
X2054663Y669124*
X2057685Y662892*
X2072794Y642116*
X2051641*
X2022933Y685745D02*
X2038042Y656659D01*
X2038042D02*
X2015378D01*
X2022933Y685745D02*
Y642116D01*
X2051490Y587269D02*
X2053001Y591424D01*
X2056023Y595579*
X2059045Y597656*
X2065089*
X2068110Y595579*
X2071132Y591424*
X2072643Y587269*
X2074154Y581036*
Y570648*
X2072643Y564415*
X2071132Y560260*
X2068110Y556105*
X2065089Y554028*
X2059045*
X2056023Y556105*
X2053001Y560260*
X2051490Y564415*
X2036380Y587269D02*
Y589346D01*
X2034869Y593501*
X2033359Y595579*
X2030337Y597656*
X2024293*
X2021271Y595579*
X2019760Y593501*
X2018249Y589346*
Y585191*
X2019760Y581036*
X2022782Y574803*
X2037891Y554028*
X2016738*
G74*
X0Y0D02*
M02*
