*
*
G04 PADS VX.2.13 Build Number: 22185787 generated Gerber (RS-274-X) file*
G04 PC Version=2.1*
*
%IN "CAR-BOARD.pcb"*%
*
%MOIN*%
*
%FSLAX35Y35*%
*
*
*
*
G04 PC Standard Apertures*
*
*
G04 Thermal Relief Aperture macro.*
%AMTER*
1,1,$1,0,0*
1,0,$1-$2,0,0*
21,0,$3,$4,0,0,45*
21,0,$3,$4,0,0,135*
%
*
*
G04 Annular Aperture macro.*
%AMANN*
1,1,$1,0,0*
1,0,$2,0,0*
%
*
*
G04 Odd Aperture macro.*
%AMODD*
1,1,$1,0,0*
1,0,$1-0.005,0,0*
%
*
*
G04 PC Custom Aperture Macros*
*
*
*
*
*
*
G04 PC Aperture Table*
*
%ADD081C,0.00831*%
%ADD119R,0.60658X0.60658*%
%ADD120C,0.60658*%
%ADD121R,0.6393X0.6393*%
%ADD122C,0.6393*%
%ADD124R,0.67202X0.67202*%
%ADD125C,0.67202*%
%ADD129C,0.57387*%
%ADD130R,1.06463X1.06463*%
%ADD131C,1.06463*%
%ADD132R,0.57387X0.57387*%
%ADD137C,1.40816*%
%ADD138C,0.96648*%
%ADD141C,0.86832*%
%ADD142C,0.73745*%
%ADD143R,0.6393X0.6393*%
*
*
*
*
G04 PC Circuitry*
G04 Layer Name CAR-BOARD.pcb - circuitry*
%LPD*%
*
*
G04 PC Custom Flashes*
G04 Layer Name CAR-BOARD.pcb - flashes*
%LPD*%
*
*
G04 PC Circuitry*
G04 Layer Name CAR-BOARD.pcb - circuitry*
%LPD*%
*
G54D81*
G01X3799362Y2483667D02*
Y718917D01*
X3535332Y454887D02*
G75*
G03X3799362Y718917I-0J264030D01*
G01X3535332Y454887D02*
X463877D01*
X463877*
X200435Y718328D02*
G03X463877Y454887I263444J3D01*
G01X200435Y718328D02*
Y2504443D01*
X441105Y2745113D02*
G03X200435Y2504443I0J-240670D01*
G01X441105Y2745113D02*
X3558103D01*
X3558103*
X3799362Y2483667D02*
G03X3558103Y2745113I-251352J10094D01*
G01X3799362Y2483667D02*
X3799362D01*
X1204994Y728242D02*
G03X1204994I-98153J0D01*
G01X3024938D02*
G03X3024938I-98152J0D01*
G01X3673138Y2523256D02*
G03X3673138I-98153J0D01*
G01X498622Y2523257D02*
G03X498622I-98152J0D01*
G54D119*
G01X1817368Y929651D03*
X2881080Y1070925D03*
X3234265Y572310D03*
Y929651D03*
X1817368Y576465D03*
X1858919Y2637407D03*
G54D120*
X1817368Y1012753D03*
X1900470Y929651D03*
Y1012753D03*
X1983573Y929651D03*
Y1012753D03*
X2881080Y987823D03*
X2797977Y1070925D03*
Y987823D03*
X2714875Y1070925D03*
Y987823D03*
X2631772Y1070925D03*
Y987823D03*
X2548670Y1070925D03*
Y987823D03*
X2465567Y1070925D03*
Y987823D03*
X2382465Y1070925D03*
Y987823D03*
X2299362Y1070925D03*
Y987823D03*
X3234265Y655413D03*
X3317368Y572310D03*
Y655413D03*
X3400470Y572310D03*
Y655413D03*
X3234265Y1012753D03*
X3317368Y929651D03*
Y1012753D03*
X3400470Y929651D03*
Y1012753D03*
X1817368Y659568D03*
X1900470Y576465D03*
Y659568D03*
X1983573Y576465D03*
Y659568D03*
X1858919Y2554305D03*
X1775816Y2637407D03*
Y2554305D03*
X1692714Y2637407D03*
Y2554305D03*
X1609611Y2637407D03*
Y2554305D03*
X947638Y2545994D03*
X865844Y2464200D03*
X784050Y2545994D03*
G54D121*
X2286897Y738515D03*
G54D122*
X2369999D03*
X2453102D03*
X2536204D03*
X2619307D03*
X2702409D03*
X3645622Y2009983D03*
Y2259291D03*
X3562520D03*
G54D124*
X2457257Y1958813D03*
G54D125*
Y1795225D03*
G54D129*
X1688559Y1262061D03*
Y1345163D03*
X1771661Y1262061D03*
Y1345163D03*
X1854764Y1262061D03*
Y1345163D03*
X1937866Y1262061D03*
Y1345163D03*
X2020969Y1262061D03*
Y1345163D03*
X2104071Y1262061D03*
Y1345163D03*
X2187174Y1262061D03*
Y1345163D03*
X2270276Y1262061D03*
Y1345163D03*
X2353379Y1262061D03*
Y1345163D03*
X2436481Y1262061D03*
Y1345163D03*
X2519584Y1262061D03*
Y1345163D03*
X2602686Y1262061D03*
Y1345163D03*
X2685789Y1262061D03*
Y1345163D03*
X2768891Y1262061D03*
Y1345163D03*
X2851994Y1262061D03*
Y1345163D03*
X2935096Y1262061D03*
Y1345163D03*
X3018199Y1262061D03*
Y1345163D03*
X3101301Y1262061D03*
Y1345163D03*
X3184404Y1262061D03*
Y1345163D03*
X3267506Y1262061D03*
Y1345163D03*
X3184404Y1428266D03*
X3267506D03*
Y2176188D03*
X3184404D03*
X3267506Y2259291D03*
Y2342393D03*
X3184404Y2259291D03*
Y2342393D03*
X3101301Y2259291D03*
Y2342393D03*
X3018199Y2259291D03*
Y2342393D03*
X2935096Y2259291D03*
Y2342393D03*
X2851994Y2259291D03*
Y2342393D03*
X2768891Y2259291D03*
Y2342393D03*
X2685789Y2259291D03*
Y2342393D03*
X2602686Y2259291D03*
Y2342393D03*
X2519584Y2259291D03*
Y2342393D03*
X2436481Y2259291D03*
Y2342393D03*
X2353379Y2259291D03*
Y2342393D03*
X2270276Y2259291D03*
Y2342393D03*
X2187174Y2259291D03*
Y2342393D03*
X2104071Y2259291D03*
Y2342393D03*
X2020969Y2259291D03*
Y2342393D03*
X1937866Y2259291D03*
Y2342393D03*
X1854764Y2259291D03*
Y2342393D03*
X1771661Y2259291D03*
Y2342393D03*
X1688559Y2259291D03*
Y2342393D03*
X1339528Y2624942D03*
X1274093D03*
G54D130*
X1347839Y605551D03*
G54D131*
X1514044D03*
G54D132*
X1404963Y2624942D03*
G54D137*
X832603Y662283D03*
Y897849D03*
G54D138*
X636298Y1000910D03*
Y559223D03*
G54D141*
X400470Y1172284D03*
Y1584525D03*
G54D142*
Y1280252D03*
Y1378404D03*
Y1476557D03*
G54D143*
X3562520Y2009983D03*
G74*
X0Y0D02*
M02*
