*
*
G04 PADS VX.2.13 Build Number: 22185787 generated Gerber (RS-274-X) file*
G04 PC Version=2.1*
*
%IN "CAR-BOARD.pcb"*%
*
%MOIN*%
*
%FSLAX35Y35*%
*
*
*
*
G04 PC Standard Apertures*
*
*
G04 Thermal Relief Aperture macro.*
%AMTER*
1,1,$1,0,0*
1,0,$1-$2,0,0*
21,0,$3,$4,0,0,45*
21,0,$3,$4,0,0,135*
%
*
*
G04 Annular Aperture macro.*
%AMANN*
1,1,$1,0,0*
1,0,$2,0,0*
%
*
*
G04 Odd Aperture macro.*
%AMODD*
1,1,$1,0,0*
1,0,$1-0.005,0,0*
%
*
*
G04 PC Custom Aperture Macros*
*
*
*
*
*
*
G04 PC Aperture Table*
*
%ADD010C,0.001*%
%ADD048R,0.07299X0.07299*%
%ADD049C,0.07299*%
%ADD050R,0.07693X0.07693*%
%ADD051C,0.07693*%
%ADD053R,0.08087X0.08087*%
%ADD054C,0.08087*%
%ADD058C,0.06906*%
%ADD059R,0.12811X0.12811*%
%ADD060C,0.12811*%
%ADD061R,0.06906X0.06906*%
%ADD066C,0.16945*%
%ADD067C,0.1163*%
%ADD070C,0.10449*%
%ADD071C,0.08874*%
%ADD072R,0.07693X0.07693*%
*
*
*
*
G04 PC Circuitry*
G04 Layer Name CAR-BOARD.pcb - circuitry*
%LPD*%
*
*
G04 PC Custom Flashes*
G04 Layer Name CAR-BOARD.pcb - flashes*
%LPD*%
*
*
G04 PC Circuitry*
G04 Layer Name CAR-BOARD.pcb - circuitry*
%LPD*%
*
G54D10*
G01X999000Y601000D02*
Y388642D01*
X967228Y356870D02*
G75*
G03X999000Y388642I0J31772D01*
G01X967228Y356870D02*
X597630D01*
X597630*
X565929Y388571D02*
G03X597630Y356870I31701J0D01*
G01X565929Y388571D02*
Y603500D01*
X594890Y632461D02*
G03X565929Y603500I-0J-28961D01*
G01X594890Y632461D02*
X969969D01*
X969969*
X999000Y601000D02*
G03X969969Y632461I-30246J1215D01*
G01X999000Y601000D02*
X999000D01*
X682874Y389764D02*
G03X682874I-7874J0D01*
G01X901874D02*
G03X901874I-7874J0D01*
G01X979874Y605764D02*
G03X979874I-7874J0D01*
G01X597874D02*
G03X597874I-7874J0D01*
G54D48*
G01X931000Y414000D03*
X888500Y431000D03*
X760500Y414000D03*
X931000Y371000D03*
X760500Y371500D03*
X765500Y619500D03*
G54D49*
X931000Y424000D03*
X941000Y414000D03*
Y424000D03*
X951000Y414000D03*
Y424000D03*
X888500Y421000D03*
X878500Y431000D03*
Y421000D03*
X868500Y431000D03*
Y421000D03*
X858500Y431000D03*
Y421000D03*
X848500Y431000D03*
Y421000D03*
X838500Y431000D03*
Y421000D03*
X828500Y431000D03*
Y421000D03*
X818500Y431000D03*
Y421000D03*
X760500Y424000D03*
X770500Y414000D03*
Y424000D03*
X780500Y414000D03*
Y424000D03*
X931000Y381000D03*
X941000Y371000D03*
Y381000D03*
X951000Y371000D03*
Y381000D03*
X760500Y381500D03*
X770500Y371500D03*
Y381500D03*
X780500Y371500D03*
Y381500D03*
X765500Y609500D03*
X755500Y619500D03*
Y609500D03*
X745500Y619500D03*
Y609500D03*
X735500Y619500D03*
Y609500D03*
X655843Y608500D03*
X646000Y598657D03*
X636157Y608500D03*
G54D50*
X817000Y391000D03*
G54D51*
X827000D03*
X837000D03*
X847000D03*
X857000D03*
X867000D03*
X980500Y544000D03*
Y574000D03*
X970500D03*
G54D53*
X837500Y537843D03*
G54D54*
Y518157D03*
G54D58*
X745000Y454000D03*
Y464000D03*
X755000Y454000D03*
Y464000D03*
X765000Y454000D03*
Y464000D03*
X775000Y454000D03*
Y464000D03*
X785000Y454000D03*
Y464000D03*
X795000Y454000D03*
Y464000D03*
X805000Y454000D03*
Y464000D03*
X815000Y454000D03*
Y464000D03*
X825000Y454000D03*
Y464000D03*
X835000Y454000D03*
Y464000D03*
X845000Y454000D03*
Y464000D03*
X855000Y454000D03*
Y464000D03*
X865000Y454000D03*
Y464000D03*
X875000Y454000D03*
Y464000D03*
X885000Y454000D03*
Y464000D03*
X895000Y454000D03*
Y464000D03*
X905000Y454000D03*
Y464000D03*
X915000Y454000D03*
Y464000D03*
X925000Y454000D03*
Y464000D03*
X935000Y454000D03*
Y464000D03*
X925000Y474000D03*
X935000D03*
Y564000D03*
X925000D03*
X935000Y574000D03*
Y584000D03*
X925000Y574000D03*
Y584000D03*
X915000Y574000D03*
Y584000D03*
X905000Y574000D03*
Y584000D03*
X895000Y574000D03*
Y584000D03*
X885000Y574000D03*
Y584000D03*
X875000Y574000D03*
Y584000D03*
X865000Y574000D03*
Y584000D03*
X855000Y574000D03*
Y584000D03*
X845000Y574000D03*
Y584000D03*
X835000Y574000D03*
Y584000D03*
X825000Y574000D03*
Y584000D03*
X815000Y574000D03*
Y584000D03*
X805000Y574000D03*
Y584000D03*
X795000Y574000D03*
Y584000D03*
X785000Y574000D03*
Y584000D03*
X775000Y574000D03*
Y584000D03*
X765000Y574000D03*
Y584000D03*
X755000Y574000D03*
Y584000D03*
X745000Y574000D03*
Y584000D03*
X703000Y618000D03*
X695126D03*
G54D59*
X704000Y375000D03*
G54D60*
X724000D03*
G54D61*
X710874Y618000D03*
G54D66*
X642000Y381827D03*
Y410173D03*
G54D67*
X618378Y422575D03*
Y369425D03*
G54D70*
X590400Y443797D03*
Y493403D03*
G54D71*
Y456789D03*
Y468600D03*
Y480411D03*
G54D72*
X970500Y544000D03*
G74*
X0Y0D02*
M02*
