*
*
G04 PADS VX.2.13 Build Number: 22185787 generated Gerber (RS-274-X) file*
G04 PC Version=2.1*
*
%IN "CAR-BOARD.pcb"*%
*
%MOIN*%
*
%FSLAX35Y35*%
*
*
*
*
G04 PC Standard Apertures*
*
*
G04 Thermal Relief Aperture macro.*
%AMTER*
1,1,$1,0,0*
1,0,$1-$2,0,0*
21,0,$3,$4,0,0,45*
21,0,$3,$4,0,0,135*
%
*
*
G04 Annular Aperture macro.*
%AMANN*
1,1,$1,0,0*
1,0,$2,0,0*
%
*
*
G04 Odd Aperture macro.*
%AMODD*
1,1,$1,0,0*
1,0,$1-0.005,0,0*
%
*
*
G04 PC Custom Aperture Macros*
*
*
*
*
*
*
G04 PC Aperture Table*
*
%ADD155C,0.00451*%
%ADD156C,0.04509*%
*
*
*
*
G04 PC Circuitry*
G04 Layer Name CAR-BOARD.pcb - circuitry*
%LPD*%
*
G54D155*
G01X1261651Y1889997D02*
X1258536Y1893501D01*
X1255549Y1890514*
X1255389Y1890448*
X1243666*
X1243440Y1890674*
Y1894281*
X1243565Y1894483*
X1245042Y1895221*
X1243530Y1896355*
X1243440Y1896535*
X1243541Y1896723*
X1248951Y1900330*
X1248967Y1900340*
X1253025Y1902594*
X1253034Y1902599*
X1255739Y1903951*
X1255803Y1903972*
X1258106Y1904356*
X1254929Y1907930*
X1252843Y1905845*
X1252684Y1905779*
X1227527*
X1228419Y1904887*
X1232822Y1905327*
X1232844Y1905328*
X1252684*
X1252909Y1905103*
X1252830Y1904931*
X1243362Y1896815*
X1243114Y1896785*
X1240757Y1897963*
X1241185Y1890687*
X1241186Y1890674*
X1240960Y1890448*
X1221797*
X1222988Y1889555*
X1226957Y1889996*
X1226982Y1889997*
X1240960*
X1241186Y1889772*
Y1874892*
X1241179Y1874837*
X1240728Y1873034*
X1240610Y1872887*
X1239708Y1872436*
X1239608Y1872412*
X1236902*
X1236877Y1872414*
X1233070Y1872837*
Y1872349*
X1235621Y1871499*
X1235650Y1871487*
X1237454Y1870585*
X1237478Y1870571*
X1238831Y1869669*
X1238931Y1869481*
Y1868462*
X1240855Y1869231*
X1242150Y1870095*
X1243006Y1871377*
X1243440Y1873116*
Y1889772*
X1243666Y1889997*
X1261651*
X1217160Y1872603D02*
X1216036Y1873352D01*
X1215947Y1873468*
X1215496Y1874821*
X1215491Y1874837*
X1215040Y1876641*
X1215033Y1876696*
Y1879627*
X1214553*
X1214132Y1876680*
Y1874441*
X1214120Y1874370*
X1213669Y1873017*
X1213556Y1872887*
X1212654Y1872436*
X1212553Y1872412*
X1207143*
X1207071Y1872424*
X1205719Y1872875*
X1205576Y1873017*
X1205125Y1874370*
X1205114Y1874441*
Y1880754*
X1205238Y1880955*
X1213354Y1885014*
X1213455Y1885037*
X1214769*
X1212553Y1887622*
X1210019Y1884665*
X1209977Y1884627*
X1205468Y1881471*
X1205114Y1881656*
Y1887517*
X1205204Y1887698*
X1206700Y1888820*
X1203310Y1890327*
Y1874018*
X1203748Y1872265*
X1204150Y1871462*
X1206284Y1870609*
X1212537*
X1215604Y1871047*
X1217160Y1872603*
X1213948Y1904699D02*
X1211666Y1906601D01*
X1210007Y1904943*
X1209848Y1904877*
X1194968*
X1194827Y1904926*
X1192939Y1906437*
Y1890105*
X1194743Y1890826*
Y1891575*
X1194968Y1891801*
X1210299*
X1210524Y1891575*
Y1890137*
X1212742Y1891245*
X1212335Y1892873*
X1212335D02*
X1212328Y1892928D01*
Y1903750*
X1212453Y1903951*
X1213948Y1904699*
X1210524Y1897888D02*
Y1892477D01*
X1210299Y1892252*
X1194968*
X1194743Y1892477*
Y1897888*
X1194968Y1898114*
X1210299*
X1210524Y1897888*
Y1904201D02*
Y1898790D01*
X1210299Y1898564*
X1194968*
X1194743Y1898790*
Y1904201*
X1194968Y1904426*
X1210299*
X1210524Y1904201*
X1201364Y1876294D02*
X1201220Y1876438D01*
X1194589Y1874227*
X1194292Y1874441*
Y1882107*
X1194517Y1882332*
X1201242*
X1199032Y1884909*
X1197399Y1882868*
X1197399D02*
X1197223Y1882783D01*
X1194517*
X1194292Y1883008*
Y1886165*
X1194358Y1886324*
X1195479Y1887445*
X1192037Y1888974*
Y1874441*
X1192026Y1874370*
X1191610Y1873122*
X1193200Y1870737*
X1194358Y1871895*
X1194382Y1871916*
X1196186Y1873269*
X1196205Y1873282*
X1198460Y1874635*
X1198464Y1874637*
X1201364Y1876294*
X1191106Y1901882D02*
X1190983Y1902006D01*
X1189317Y1898257*
X1187968Y1894210*
X1187956Y1894180*
X1186610Y1891489*
X1185713Y1888799*
X1185709Y1888786*
X1184813Y1886546*
X1184365Y1884757*
X1184348Y1884711*
X1183897Y1883809*
X1183855Y1883751*
X1183420Y1883316*
X1182531Y1881981*
X1182444Y1881905*
X1181542Y1881454*
X1181441Y1881430*
X1180089*
X1180051Y1881433*
X1177609Y1881840*
Y1881390*
X1179682Y1880975*
X1179763Y1880941*
X1181115Y1880040*
X1181209Y1879907*
X1181660Y1878103*
X1181667Y1878048*
X1181664Y1878017*
X1181214Y1874860*
X1181204Y1874821*
X1180765Y1873503*
Y1872674*
X1181187Y1871407*
X1181557Y1871038*
X1183219Y1870622*
X1183921Y1870973*
Y1878499*
X1183924Y1878536*
X1184372Y1881223*
Y1881656*
X1184384Y1881727*
X1184835Y1883080*
X1184847Y1883109*
X1185733Y1884882*
X1186179Y1887554*
X1186200Y1887618*
X1187541Y1890301*
X1188437Y1893885*
X1188445Y1893909*
X1189795Y1897509*
X1191106Y1901882*
X1183007Y1893830D02*
X1182605Y1895038D01*
X1181316Y1895897*
X1181306Y1895904*
X1179507Y1897253*
X1177020Y1898912*
X1176756Y1898384*
X1179346Y1895793*
X1179388Y1895734*
X1180741Y1893029*
X1180753Y1892999*
X1181175Y1891735*
X1181815Y1891415*
X1182590Y1892577*
X1183007Y1893830*
X1187071Y1902848D02*
X1186649Y1904536D01*
X1185366Y1905819*
X1183595Y1906704*
X1183580Y1906713*
X1181691Y1907846*
X1183879Y1904783*
X1183905Y1904735*
X1184798Y1902503*
X1185675Y1901188*
X1185995Y1900868*
X1186659Y1901200*
X1187071Y1902848*
X1171296Y1871591D02*
X1166468Y1873785D01*
X1166421Y1873814*
X1161912Y1877421*
X1161827Y1877598*
X1161857Y1877709*
X1165455Y1884006*
X1168154Y1891204*
X1168206Y1891284*
X1169399Y1892477*
X1167463Y1894413*
X1165819Y1892769*
X1165660Y1892703*
X1161151*
X1160925Y1892928*
X1160949Y1893029*
X1161847Y1894824*
X1162745Y1897070*
X1162761Y1897102*
X1164109Y1899349*
X1165909Y1902949*
X1166010Y1903050*
X1167534Y1903812*
X1165209Y1906136*
X1163565Y1904492*
X1163405Y1904426*
X1147398*
X1148589Y1903533*
X1152559Y1903974*
X1152809Y1903750*
Y1903737*
X1152358Y1896071*
Y1896068*
X1151907Y1889756*
X1151905Y1889738*
X1151003Y1883876*
X1150992Y1883833*
X1149188Y1878873*
X1149170Y1878834*
X1147817Y1876580*
X1147800Y1876555*
X1145996Y1874300*
X1145979Y1874282*
X1143274Y1871576*
X1143259Y1871563*
X1141237Y1869878*
X1146121Y1873259*
X1150141Y1877726*
X1151477Y1880398*
X1152815Y1883519*
X1153261Y1887092*
X1153712Y1891598*
X1154153Y1891639*
X1156400Y1883996*
X1159546Y1878155*
X1159573Y1878048*
X1159499Y1877882*
X1154089Y1872922*
X1154047Y1872892*
X1147091Y1868980*
X1147223Y1868848*
X1154275Y1871933*
X1160569Y1876428*
X1160878Y1876383*
X1164012Y1872354*
X1167885Y1869771*
X1169107Y1870993*
X1169223Y1871055*
X1171296Y1871470*
Y1871591*
X1165885Y1892026D02*
X1165875Y1891959D01*
X1163620Y1884745*
X1163607Y1884711*
X1160901Y1879300*
X1160512Y1879276*
X1158709Y1881981*
X1158695Y1882006*
X1157342Y1884711*
X1157337Y1884720*
X1155534Y1888778*
X1155534D02*
X1155524Y1888805D01*
X1154171Y1893314*
X1154162Y1893379*
Y1893389*
X1154613Y1903760*
X1154838Y1903975*
X1163856*
X1164082Y1903750*
X1164060Y1903654*
X1160904Y1896891*
X1160901Y1896885*
X1159549Y1894180*
X1159482Y1894101*
X1157887Y1892904*
X1159763Y1891028*
X1160512Y1892151*
X1160700Y1892252*
X1165660*
X1165885Y1892026*
X1146947Y1878177D02*
X1142290Y1876484D01*
X1142257Y1876475*
X1137757Y1875575*
X1134609Y1874675*
X1134579Y1874669*
X1131766Y1874267*
X1133687Y1871194*
X1134839Y1872346*
X1134882Y1872380*
X1137137Y1873733*
X1137198Y1873758*
X1138969Y1874201*
X1141195Y1875536*
X1141240Y1875557*
X1143936Y1876456*
X1146947Y1877746*
Y1878177*
X1148913Y1897992D02*
X1145914Y1900241D01*
X1144675Y1897348*
X1144663Y1897325*
X1142859Y1894169*
X1142664Y1894055*
X1134547*
X1134322Y1894281*
X1134367Y1894416*
X1138419Y1899819*
X1142021Y1905672*
X1142112Y1905755*
X1143556Y1906477*
X1140540Y1908362*
X1139272Y1904136*
X1139254Y1904093*
X1136549Y1899133*
X1136544Y1899125*
X1135192Y1896870*
X1135179Y1896851*
X1133826Y1895047*
X1133805Y1895023*
X1132903Y1894121*
X1132744Y1894055*
X1131798*
X1133714Y1890990*
X1134873Y1891763*
X1134915Y1891785*
X1137169Y1892687*
X1137213Y1892699*
X1142172Y1893601*
X1142438Y1893379*
X1142386Y1893235*
X1140133Y1890531*
X1138333Y1888281*
X1136986Y1886485*
X1136088Y1885138*
X1136060Y1885103*
X1134256Y1883300*
X1134151Y1883241*
X1132620Y1882858*
X1134197Y1879704*
X1138505Y1881857*
X1138551Y1881874*
X1147398Y1884086*
Y1884549*
X1135934Y1882786*
X1135675Y1883008*
X1135731Y1883157*
X1142038Y1890365*
X1147443Y1897572*
X1147569Y1897656*
X1148913Y1897992*
X1127108Y1871537D02*
X1123698Y1871963D01*
X1123664Y1871970*
X1120508Y1872872*
X1120469Y1872887*
X1116861Y1874690*
X1116831Y1874709*
X1113675Y1876963*
X1113581Y1877147*
X1113613Y1877263*
X1117671Y1884026*
X1117677Y1884035*
X1119480Y1886741*
X1119508Y1886775*
X1120677Y1887944*
X1117528Y1890306*
X1115373Y1883839*
X1115360Y1883809*
X1112655Y1878398*
X1112294Y1878340*
X1110490Y1880144*
X1110448Y1880202*
X1107743Y1885613*
X1107733Y1885635*
X1106468Y1889007*
X1105972Y1888759*
X1108602Y1881746*
X1109940Y1879069*
X1111281Y1877282*
X1111326Y1877147*
X1111260Y1876987*
X1108555Y1874282*
X1108507Y1874245*
X1105355Y1872444*
X1101751Y1870192*
X1101696Y1870167*
X1097444Y1868891*
X1097686Y1868407*
X1105140Y1871038*
X1112334Y1875534*
X1112596Y1875517*
X1117529Y1871481*
X1124091Y1868857*
X1124891Y1870057*
X1124995Y1870142*
X1127108Y1870987*
Y1871537*
X1124842Y1890658D02*
X1123971Y1892836D01*
X1123558Y1893662*
X1115850Y1897516*
X1119827Y1893538*
X1119827D02*
X1119859Y1893499D01*
X1122100Y1889913*
X1123726Y1888287*
X1124424Y1888985*
X1124842Y1890658*
X1111599Y1896105D02*
X1108489Y1898437D01*
X1107250Y1895545*
X1107226Y1895503*
X1102717Y1889190*
X1102693Y1889162*
X1100598Y1887066*
X1100751Y1886913*
X1104189Y1889492*
X1109588Y1894891*
X1109632Y1894925*
X1111599Y1896105*
X1102494Y1897663D02*
X1100266Y1900262D01*
X1098184Y1898180*
X1098024Y1898114*
X1095770*
X1095544Y1898339*
Y1906004*
X1095635Y1906185*
X1097146Y1907319*
X1093320Y1909232*
X1093740Y1903767*
X1093741Y1903750*
Y1898339*
X1093515Y1898114*
X1086394*
X1087272Y1897236*
X1088952Y1897656*
X1089006Y1897663*
X1093515*
X1093741Y1897437*
X1093731Y1897372*
X1090575Y1887001*
X1090559Y1886961*
X1086103Y1878497*
X1086332Y1878039*
X1090167Y1883577*
X1093317Y1889428*
X1093741Y1889321*
Y1878499*
Y1878490*
X1093305Y1868477*
X1095981Y1869624*
X1095545Y1874421*
X1095544Y1874441*
Y1893379*
X1095946Y1893520*
X1097750Y1891265*
X1097754Y1891260*
X1099107Y1889456*
X1099140Y1889392*
X1099561Y1888128*
X1100053Y1887882*
Y1887968*
X1100120Y1888128*
X1100526Y1888534*
X1100942Y1890197*
X1100101Y1891878*
X1098369Y1893177*
X1095699Y1894067*
X1095544Y1894281*
Y1897437*
X1095770Y1897663*
X1102494*
X1126282Y1900368D02*
X1123285Y1902990D01*
X1121180Y1900885*
X1121020Y1900819*
X1101857*
X1103034Y1899936*
X1104733Y1900361*
X1104788Y1900368*
X1126282*
X1114482Y1905460D02*
X1112315Y1907627D01*
X1109335Y1909330*
X1109127Y1909123*
X1110845Y1906116*
X1110851Y1906105*
X1112204Y1903400*
X1112216Y1903370*
X1112650Y1902068*
X1112998Y1901721*
X1113262*
X1114049Y1902508*
X1114482Y1904674*
Y1905460*
X1086219Y1878266D02*
Y1878716D01*
X1086670Y1878526D02*
Y1879572D01*
Y1897838D02*
Y1898114D01*
X1087121Y1879177D02*
Y1880429D01*
Y1897387D02*
Y1898114D01*
X1087571Y1879829D02*
Y1881286D01*
Y1897311D02*
Y1898114D01*
X1088022Y1880480D02*
Y1882143D01*
Y1897424D02*
Y1898114D01*
X1088473Y1881131D02*
Y1882999D01*
Y1897536D02*
Y1898114D01*
X1088924Y1881783D02*
Y1883856D01*
Y1897649D02*
Y1898114D01*
X1089375Y1882434D02*
Y1884713D01*
Y1897663D02*
Y1898114D01*
X1089826Y1883085D02*
Y1885569D01*
Y1897663D02*
Y1898114D01*
X1090277Y1883782D02*
Y1886426D01*
Y1897663D02*
Y1898114D01*
X1090728Y1884619D02*
Y1887503D01*
Y1897663D02*
Y1898114D01*
X1091179Y1885457D02*
Y1888985D01*
Y1897663D02*
Y1898114D01*
X1091630Y1886294D02*
Y1890466D01*
Y1897663D02*
Y1898114D01*
X1092080Y1887132D02*
Y1891948D01*
Y1897663D02*
Y1898114D01*
X1092531Y1887969D02*
Y1893430D01*
Y1897663D02*
Y1898114D01*
X1092982Y1888806D02*
Y1894911D01*
Y1897663D02*
Y1898114D01*
X1093433Y1868532D02*
Y1871417D01*
Y1889531D02*
Y1896393D01*
Y1897663D02*
Y1898114D01*
Y1907759D02*
Y1909175D01*
X1093884Y1868725D02*
Y1908950D01*
X1094335Y1868918D02*
Y1908724D01*
X1094786Y1869112D02*
Y1908499D01*
X1095237Y1869305D02*
Y1908273D01*
X1095688Y1869498D02*
Y1872856D01*
Y1893589D02*
Y1894071D01*
Y1897647D02*
Y1898129D01*
Y1906224D02*
Y1908048D01*
X1096139Y1893279D02*
Y1893920D01*
Y1897663D02*
Y1898114D01*
Y1906563D02*
Y1907822D01*
X1096589Y1892716D02*
Y1893770D01*
Y1897663D02*
Y1898114D01*
Y1906901D02*
Y1907597D01*
X1097040Y1892152D02*
Y1893620D01*
Y1897663D02*
Y1898114D01*
Y1907239D02*
Y1907372D01*
X1097491Y1868797D02*
Y1868906D01*
Y1891588D02*
Y1893469D01*
Y1897663D02*
Y1898114D01*
X1097942Y1868498D02*
Y1869041D01*
Y1891009D02*
Y1893319D01*
Y1897663D02*
Y1898114D01*
X1098393Y1868657D02*
Y1869176D01*
Y1890408D02*
Y1893159D01*
Y1897663D02*
Y1898389D01*
X1098844Y1868816D02*
Y1869311D01*
Y1889806D02*
Y1892821D01*
Y1897663D02*
Y1898840D01*
X1099295Y1868975D02*
Y1869447D01*
Y1888928D02*
Y1892483D01*
Y1897663D02*
Y1899291D01*
X1099746Y1869134D02*
Y1869582D01*
Y1888036D02*
Y1892144D01*
Y1897663D02*
Y1899741D01*
X1100197Y1869293D02*
Y1869717D01*
Y1888205D02*
Y1891687D01*
Y1897663D02*
Y1900192D01*
X1100648Y1869453D02*
Y1869852D01*
Y1887017D02*
Y1887116D01*
Y1889020D02*
Y1890785D01*
Y1897663D02*
Y1899817D01*
X1101098Y1869612D02*
Y1869988D01*
Y1887174D02*
Y1887567D01*
Y1897663D02*
Y1899291D01*
X1101549Y1869771D02*
Y1870123D01*
Y1887512D02*
Y1888018D01*
Y1897663D02*
Y1898765D01*
X1102000Y1869930D02*
Y1870348D01*
Y1887850D02*
Y1888469D01*
Y1897663D02*
Y1898239D01*
Y1900712D02*
Y1900819D01*
X1102451Y1870089D02*
Y1870629D01*
Y1888188D02*
Y1888920D01*
Y1897663D02*
Y1897713D01*
Y1900373D02*
Y1900819D01*
X1102902Y1870248D02*
Y1870911D01*
Y1888527D02*
Y1889449D01*
Y1900035D02*
Y1900819D01*
X1103353Y1870407D02*
Y1871193D01*
Y1888865D02*
Y1890080D01*
Y1900016D02*
Y1900819D01*
X1103804Y1870567D02*
Y1871475D01*
Y1889203D02*
Y1890712D01*
Y1900129D02*
Y1900819D01*
X1104255Y1870726D02*
Y1871757D01*
Y1889557D02*
Y1891343D01*
Y1900242D02*
Y1900819D01*
X1104706Y1870885D02*
Y1872038D01*
Y1890008D02*
Y1891974D01*
Y1900354D02*
Y1900819D01*
X1105157Y1871048D02*
Y1872320D01*
Y1890459D02*
Y1892605D01*
Y1900368D02*
Y1900819D01*
X1105607Y1871330D02*
Y1872589D01*
Y1890910D02*
Y1893237D01*
Y1900368D02*
Y1900819D01*
X1106058Y1871612D02*
Y1872846D01*
Y1888529D02*
Y1888802D01*
Y1891361D02*
Y1893868D01*
Y1900368D02*
Y1900819D01*
X1106509Y1871894D02*
Y1873104D01*
Y1887327D02*
Y1888898D01*
Y1891812D02*
Y1894499D01*
Y1900368D02*
Y1900819D01*
X1106960Y1872176D02*
Y1873362D01*
Y1886124D02*
Y1887696D01*
Y1892263D02*
Y1895130D01*
Y1900368D02*
Y1900819D01*
X1107411Y1872457D02*
Y1873619D01*
Y1884922D02*
Y1886494D01*
Y1892714D02*
Y1895921D01*
Y1900368D02*
Y1900819D01*
X1107862Y1872739D02*
Y1873877D01*
Y1883720D02*
Y1885374D01*
Y1893165D02*
Y1896973D01*
Y1900368D02*
Y1900819D01*
X1108313Y1873021D02*
Y1874135D01*
Y1882517D02*
Y1884472D01*
Y1893616D02*
Y1898026D01*
Y1900368D02*
Y1900819D01*
X1108764Y1873303D02*
Y1874491D01*
Y1881423D02*
Y1883571D01*
Y1894066D02*
Y1898232D01*
Y1900368D02*
Y1900819D01*
X1109215Y1873585D02*
Y1874942D01*
Y1880521D02*
Y1882669D01*
Y1894517D02*
Y1897893D01*
Y1900368D02*
Y1900819D01*
Y1908970D02*
Y1909210D01*
X1109666Y1873867D02*
Y1875393D01*
Y1879619D02*
Y1881767D01*
Y1894945D02*
Y1897555D01*
Y1900368D02*
Y1900819D01*
Y1908181D02*
Y1909141D01*
X1110116Y1874148D02*
Y1875844D01*
Y1878835D02*
Y1880865D01*
Y1895216D02*
Y1897217D01*
Y1900368D02*
Y1900819D01*
Y1907392D02*
Y1908884D01*
X1110567Y1874430D02*
Y1876295D01*
Y1878233D02*
Y1880066D01*
Y1895486D02*
Y1896879D01*
Y1900368D02*
Y1900819D01*
Y1906603D02*
Y1908626D01*
X1111018Y1874712D02*
Y1876745D01*
Y1877632D02*
Y1879616D01*
Y1895757D02*
Y1896541D01*
Y1900368D02*
Y1900819D01*
Y1905771D02*
Y1908368D01*
X1111469Y1874994D02*
Y1879165D01*
Y1896027D02*
Y1896203D01*
Y1900368D02*
Y1900819D01*
Y1904870D02*
Y1908111D01*
X1111920Y1875276D02*
Y1878714D01*
Y1900368D02*
Y1900819D01*
Y1903968D02*
Y1907853D01*
X1112371Y1875553D02*
Y1878289D01*
Y1900368D02*
Y1900819D01*
Y1902906D02*
Y1907571D01*
X1112822Y1875333D02*
Y1878732D01*
Y1900368D02*
Y1900819D01*
Y1901896D02*
Y1907121D01*
X1113273Y1874964D02*
Y1879634D01*
Y1900368D02*
Y1900819D01*
Y1901732D02*
Y1906670D01*
X1113724Y1874595D02*
Y1876928D01*
Y1877448D02*
Y1880536D01*
Y1900368D02*
Y1900819D01*
Y1902183D02*
Y1906219D01*
X1114175Y1874226D02*
Y1876606D01*
Y1878199D02*
Y1881438D01*
Y1900368D02*
Y1900819D01*
Y1903135D02*
Y1905768D01*
X1114625Y1873857D02*
Y1876284D01*
Y1878951D02*
Y1882340D01*
Y1900368D02*
Y1900819D01*
X1115076Y1873488D02*
Y1875962D01*
Y1879702D02*
Y1883241D01*
Y1900368D02*
Y1900819D01*
X1115527Y1873119D02*
Y1875640D01*
Y1880454D02*
Y1884303D01*
Y1900368D02*
Y1900819D01*
X1115978Y1872750D02*
Y1875318D01*
Y1881205D02*
Y1885656D01*
Y1897387D02*
Y1897452D01*
Y1900368D02*
Y1900819D01*
X1116429Y1872381D02*
Y1874996D01*
Y1881957D02*
Y1887008D01*
Y1896937D02*
Y1897226D01*
Y1900368D02*
Y1900819D01*
X1116880Y1872012D02*
Y1874681D01*
Y1882708D02*
Y1888361D01*
Y1896486D02*
Y1897001D01*
Y1900368D02*
Y1900819D01*
X1117331Y1871644D02*
Y1874456D01*
Y1883460D02*
Y1889714D01*
Y1896035D02*
Y1896775D01*
Y1900368D02*
Y1900819D01*
X1117782Y1871380D02*
Y1874230D01*
Y1884193D02*
Y1890115D01*
Y1895584D02*
Y1896550D01*
Y1900368D02*
Y1900819D01*
X1118233Y1871200D02*
Y1874005D01*
Y1884869D02*
Y1889777D01*
Y1895133D02*
Y1896325D01*
Y1900368D02*
Y1900819D01*
X1118684Y1871020D02*
Y1873779D01*
Y1885546D02*
Y1889439D01*
Y1894682D02*
Y1896099D01*
Y1900368D02*
Y1900819D01*
X1119134Y1870839D02*
Y1873554D01*
Y1886222D02*
Y1889101D01*
Y1894231D02*
Y1895874D01*
Y1900368D02*
Y1900819D01*
X1119585Y1870659D02*
Y1873329D01*
Y1886852D02*
Y1888763D01*
Y1893780D02*
Y1895648D01*
Y1900368D02*
Y1900819D01*
X1120036Y1870478D02*
Y1873103D01*
Y1887303D02*
Y1888425D01*
Y1893215D02*
Y1895423D01*
Y1900368D02*
Y1900819D01*
X1120487Y1870298D02*
Y1872879D01*
Y1887754D02*
Y1888086D01*
Y1892493D02*
Y1895197D01*
Y1900368D02*
Y1900819D01*
X1120938Y1870118D02*
Y1872749D01*
Y1891772D02*
Y1894972D01*
Y1900368D02*
Y1900819D01*
X1121389Y1869937D02*
Y1872620D01*
Y1891050D02*
Y1894746D01*
Y1900368D02*
Y1901094D01*
X1121840Y1869757D02*
Y1872491D01*
Y1890329D02*
Y1894521D01*
Y1900368D02*
Y1901545D01*
X1122291Y1869577D02*
Y1872362D01*
Y1889722D02*
Y1894295D01*
Y1900368D02*
Y1901996D01*
X1122742Y1869396D02*
Y1872233D01*
Y1889271D02*
Y1894070D01*
Y1900368D02*
Y1902447D01*
X1123193Y1869216D02*
Y1872105D01*
Y1888820D02*
Y1893845D01*
Y1900368D02*
Y1902898D01*
X1123643Y1869036D02*
Y1871976D01*
Y1888369D02*
Y1893491D01*
Y1900368D02*
Y1902677D01*
X1124094Y1868862D02*
Y1871913D01*
Y1888656D02*
Y1892527D01*
Y1900368D02*
Y1902282D01*
X1124545Y1869539D02*
Y1871857D01*
Y1889470D02*
Y1891400D01*
Y1900368D02*
Y1901888D01*
X1124996Y1870142D02*
Y1871801D01*
Y1900368D02*
Y1901493D01*
X1125447Y1870322D02*
Y1871744D01*
Y1900368D02*
Y1901099D01*
X1125898Y1870503D02*
Y1871688D01*
Y1900368D02*
Y1900704D01*
X1126349Y1870683D02*
Y1871632D01*
X1126800Y1870863D02*
Y1871575D01*
X1132211Y1873556D02*
Y1874331D01*
Y1893395D02*
Y1894055D01*
X1132661Y1872834D02*
Y1874395D01*
Y1882775D02*
Y1882868D01*
Y1892674D02*
Y1894055D01*
X1133112Y1872113D02*
Y1874459D01*
Y1881874D02*
Y1882981D01*
Y1891952D02*
Y1894331D01*
X1133563Y1871391D02*
Y1874524D01*
Y1880972D02*
Y1883094D01*
Y1891231D02*
Y1894781D01*
X1134014Y1871521D02*
Y1874588D01*
Y1880070D02*
Y1883206D01*
Y1891190D02*
Y1895298D01*
X1134465Y1871972D02*
Y1874653D01*
Y1879837D02*
Y1883509D01*
Y1891491D02*
Y1894071D01*
Y1894547D02*
Y1895899D01*
X1134916Y1872400D02*
Y1874763D01*
Y1880063D02*
Y1883960D01*
Y1891785D02*
Y1894055D01*
Y1895148D02*
Y1896501D01*
X1135367Y1872671D02*
Y1874892D01*
Y1880288D02*
Y1884411D01*
Y1891966D02*
Y1894055D01*
Y1895749D02*
Y1897162D01*
X1135818Y1872941D02*
Y1875021D01*
Y1880514D02*
Y1882798D01*
Y1883257D02*
Y1884862D01*
Y1892146D02*
Y1894055D01*
Y1896350D02*
Y1897914D01*
X1136269Y1873212D02*
Y1875149D01*
Y1880739D02*
Y1882837D01*
Y1883772D02*
Y1885409D01*
Y1892326D02*
Y1894055D01*
Y1896952D02*
Y1898665D01*
X1136720Y1873482D02*
Y1875278D01*
Y1880965D02*
Y1882906D01*
Y1884287D02*
Y1886085D01*
Y1892507D02*
Y1894055D01*
Y1897553D02*
Y1899446D01*
X1137170Y1873749D02*
Y1875407D01*
Y1881190D02*
Y1882976D01*
Y1884802D02*
Y1886731D01*
Y1892687D02*
Y1894055D01*
Y1898154D02*
Y1900272D01*
X1137621Y1873864D02*
Y1875536D01*
Y1881416D02*
Y1883045D01*
Y1885318D02*
Y1887332D01*
Y1892773D02*
Y1894055D01*
Y1898755D02*
Y1901099D01*
X1138072Y1873977D02*
Y1875638D01*
Y1881641D02*
Y1883114D01*
Y1885833D02*
Y1887934D01*
Y1892855D02*
Y1894055D01*
Y1899356D02*
Y1901926D01*
X1138523Y1874089D02*
Y1875728D01*
Y1881865D02*
Y1883184D01*
Y1886348D02*
Y1888519D01*
Y1892937D02*
Y1894055D01*
Y1899988D02*
Y1902752D01*
X1138974Y1874204D02*
Y1875818D01*
Y1881980D02*
Y1883253D01*
Y1886864D02*
Y1889082D01*
Y1893019D02*
Y1894055D01*
Y1900721D02*
Y1903579D01*
X1139425Y1874474D02*
Y1875908D01*
Y1882093D02*
Y1883323D01*
Y1887379D02*
Y1889646D01*
Y1893101D02*
Y1894055D01*
Y1901453D02*
Y1904644D01*
X1139876Y1874745D02*
Y1875998D01*
Y1882206D02*
Y1883392D01*
Y1887894D02*
Y1890210D01*
Y1893183D02*
Y1894055D01*
Y1902186D02*
Y1906147D01*
X1140327Y1875015D02*
Y1876089D01*
Y1882318D02*
Y1883461D01*
Y1888410D02*
Y1890764D01*
Y1893265D02*
Y1894055D01*
Y1902919D02*
Y1907650D01*
X1140778Y1875286D02*
Y1876179D01*
Y1882431D02*
Y1883531D01*
Y1888925D02*
Y1891305D01*
Y1893347D02*
Y1894055D01*
Y1903652D02*
Y1908214D01*
X1141229Y1875553D02*
Y1876269D01*
Y1882544D02*
Y1883600D01*
Y1889440D02*
Y1891846D01*
Y1893429D02*
Y1894055D01*
Y1904384D02*
Y1907932D01*
X1141679Y1870184D02*
Y1870246D01*
Y1875703D02*
Y1876359D01*
Y1882656D02*
Y1883669D01*
Y1889956D02*
Y1892387D01*
Y1893511D02*
Y1894055D01*
Y1905117D02*
Y1907650D01*
X1142130Y1870496D02*
Y1870622D01*
Y1875854D02*
Y1876449D01*
Y1882769D02*
Y1883739D01*
Y1890489D02*
Y1892928D01*
Y1893593D02*
Y1894055D01*
Y1905764D02*
Y1907368D01*
X1142581Y1870808D02*
Y1870998D01*
Y1876004D02*
Y1876590D01*
Y1882882D02*
Y1883808D01*
Y1891090D02*
Y1894055D01*
Y1905990D02*
Y1907086D01*
X1143032Y1871120D02*
Y1871374D01*
Y1876154D02*
Y1876754D01*
Y1882995D02*
Y1883877D01*
Y1891691D02*
Y1894471D01*
Y1906215D02*
Y1906805D01*
X1143483Y1871433D02*
Y1871785D01*
Y1876305D02*
Y1876918D01*
Y1883107D02*
Y1883947D01*
Y1892292D02*
Y1895260D01*
Y1906441D02*
Y1906523D01*
X1143934Y1871745D02*
Y1872236D01*
Y1876455D02*
Y1877082D01*
Y1883220D02*
Y1884016D01*
Y1892893D02*
Y1896049D01*
X1144385Y1872057D02*
Y1872687D01*
Y1876648D02*
Y1877246D01*
Y1883333D02*
Y1884086D01*
Y1893495D02*
Y1896839D01*
X1144836Y1872369D02*
Y1873138D01*
Y1876841D02*
Y1877410D01*
Y1883446D02*
Y1884155D01*
Y1894096D02*
Y1897725D01*
X1145287Y1872681D02*
Y1873589D01*
Y1877034D02*
Y1877574D01*
Y1883558D02*
Y1884224D01*
Y1894697D02*
Y1898777D01*
X1145738Y1872993D02*
Y1874040D01*
Y1877228D02*
Y1877738D01*
Y1883671D02*
Y1884294D01*
Y1895298D02*
Y1899829D01*
X1146188Y1873334D02*
Y1874541D01*
Y1877421D02*
Y1877902D01*
Y1883784D02*
Y1884363D01*
Y1895899D02*
Y1900035D01*
X1146639Y1873835D02*
Y1875105D01*
Y1877614D02*
Y1878065D01*
Y1883896D02*
Y1884432D01*
Y1896501D02*
Y1899697D01*
X1147090Y1874336D02*
Y1875668D01*
Y1884009D02*
Y1884502D01*
Y1897102D02*
Y1899359D01*
X1147541Y1868987D02*
Y1869233D01*
Y1874837D02*
Y1876232D01*
Y1897647D02*
Y1899021D01*
Y1904319D02*
Y1904426D01*
X1147992Y1869184D02*
Y1869486D01*
Y1875338D02*
Y1876872D01*
Y1897762D02*
Y1898683D01*
Y1903981D02*
Y1904426D01*
X1148443Y1869381D02*
Y1869740D01*
Y1875839D02*
Y1877623D01*
Y1897874D02*
Y1898344D01*
Y1903643D02*
Y1904426D01*
X1148894Y1869579D02*
Y1869993D01*
Y1876340D02*
Y1878375D01*
Y1897987D02*
Y1898006D01*
Y1903567D02*
Y1904426D01*
X1149345Y1869776D02*
Y1870247D01*
Y1876841D02*
Y1879304D01*
Y1903617D02*
Y1904426D01*
X1149796Y1869973D02*
Y1870501D01*
Y1877342D02*
Y1880544D01*
Y1903667D02*
Y1904426D01*
X1150247Y1870170D02*
Y1870754D01*
Y1877937D02*
Y1881784D01*
Y1903717D02*
Y1904426D01*
X1150697Y1870368D02*
Y1871008D01*
Y1878839D02*
Y1883024D01*
Y1903767D02*
Y1904426D01*
X1151148Y1870565D02*
Y1871262D01*
Y1879740D02*
Y1884822D01*
Y1903817D02*
Y1904426D01*
X1151599Y1870762D02*
Y1871515D01*
Y1880683D02*
Y1887753D01*
Y1903867D02*
Y1904426D01*
X1152050Y1870959D02*
Y1871769D01*
Y1881735D02*
Y1891766D01*
Y1903917D02*
Y1904426D01*
X1152501Y1871157D02*
Y1872023D01*
Y1882787D02*
Y1898509D01*
Y1903967D02*
Y1904426D01*
X1152952Y1871354D02*
Y1872276D01*
Y1884617D02*
Y1904426D01*
X1153403Y1871551D02*
Y1872530D01*
Y1888507D02*
Y1904426D01*
X1153854Y1871749D02*
Y1872783D01*
Y1891785D02*
Y1904426D01*
X1154305Y1871954D02*
Y1873120D01*
Y1891122D02*
Y1892869D01*
Y1896672D02*
Y1904426D01*
X1154756Y1872276D02*
Y1873534D01*
Y1889589D02*
Y1891366D01*
Y1903960D02*
Y1904426D01*
X1155206Y1872598D02*
Y1873947D01*
Y1888056D02*
Y1889863D01*
Y1903975D02*
Y1904426D01*
X1155657Y1872920D02*
Y1874360D01*
Y1886523D02*
Y1888501D01*
Y1903975D02*
Y1904426D01*
X1156108Y1873242D02*
Y1874774D01*
Y1884990D02*
Y1887486D01*
Y1903975D02*
Y1904426D01*
X1156559Y1873564D02*
Y1875187D01*
Y1883701D02*
Y1886471D01*
Y1903975D02*
Y1904426D01*
X1157010Y1873886D02*
Y1875600D01*
Y1882864D02*
Y1885457D01*
Y1903975D02*
Y1904426D01*
X1157461Y1874208D02*
Y1876014D01*
Y1882027D02*
Y1884473D01*
Y1903975D02*
Y1904426D01*
X1157912Y1874531D02*
Y1876427D01*
Y1881189D02*
Y1883571D01*
Y1892879D02*
Y1892923D01*
Y1903975D02*
Y1904426D01*
X1158363Y1874853D02*
Y1876840D01*
Y1880352D02*
Y1882669D01*
Y1892428D02*
Y1893261D01*
Y1903975D02*
Y1904426D01*
X1158814Y1875175D02*
Y1877254D01*
Y1879515D02*
Y1881824D01*
Y1891977D02*
Y1893599D01*
Y1903975D02*
Y1904426D01*
X1159265Y1875497D02*
Y1877667D01*
Y1878677D02*
Y1881147D01*
Y1891526D02*
Y1893937D01*
Y1903975D02*
Y1904426D01*
X1159715Y1875819D02*
Y1880471D01*
Y1891075D02*
Y1894514D01*
Y1903975D02*
Y1904426D01*
X1160166Y1876141D02*
Y1879795D01*
Y1891633D02*
Y1895415D01*
Y1903975D02*
Y1904426D01*
X1160617Y1876455D02*
Y1879191D01*
Y1892236D02*
Y1896317D01*
Y1903975D02*
Y1904426D01*
X1161068Y1876138D02*
Y1879634D01*
Y1892252D02*
Y1892718D01*
Y1893267D02*
Y1897243D01*
Y1903975D02*
Y1904426D01*
X1161519Y1875559D02*
Y1880536D01*
Y1892252D02*
Y1892703D01*
Y1894169D02*
Y1898209D01*
Y1903975D02*
Y1904426D01*
X1161970Y1874979D02*
Y1877375D01*
Y1877908D02*
Y1881437D01*
Y1892252D02*
Y1892703D01*
Y1895133D02*
Y1899175D01*
Y1903975D02*
Y1904426D01*
X1162421Y1874399D02*
Y1877014D01*
Y1878697D02*
Y1882339D01*
Y1892252D02*
Y1892703D01*
Y1896260D02*
Y1900141D01*
Y1903975D02*
Y1904426D01*
X1162872Y1873819D02*
Y1876653D01*
Y1879486D02*
Y1883241D01*
Y1892252D02*
Y1892703D01*
Y1897287D02*
Y1901107D01*
Y1903975D02*
Y1904426D01*
X1163323Y1873240D02*
Y1876293D01*
Y1880275D02*
Y1884143D01*
Y1892252D02*
Y1892703D01*
Y1898038D02*
Y1902074D01*
Y1903975D02*
Y1904426D01*
X1163774Y1872660D02*
Y1875932D01*
Y1881064D02*
Y1885235D01*
Y1892252D02*
Y1892703D01*
Y1898790D02*
Y1903040D01*
Y1903975D02*
Y1904701D01*
X1164224Y1872212D02*
Y1875571D01*
Y1881853D02*
Y1886678D01*
Y1892252D02*
Y1892703D01*
Y1899580D02*
Y1905152D01*
X1164675Y1871911D02*
Y1875210D01*
Y1882642D02*
Y1888121D01*
Y1892252D02*
Y1892703D01*
Y1900482D02*
Y1905603D01*
X1165126Y1871611D02*
Y1874850D01*
Y1883431D02*
Y1889564D01*
Y1892252D02*
Y1892703D01*
Y1901384D02*
Y1906054D01*
X1165577Y1871310D02*
Y1874489D01*
Y1884332D02*
Y1891006D01*
Y1892252D02*
Y1892703D01*
Y1902285D02*
Y1905768D01*
X1166028Y1871010D02*
Y1874128D01*
Y1885535D02*
Y1892978D01*
Y1903059D02*
Y1905317D01*
X1166479Y1870709D02*
Y1873780D01*
Y1886737D02*
Y1893429D01*
Y1903284D02*
Y1904866D01*
X1166930Y1870408D02*
Y1873575D01*
Y1887939D02*
Y1893880D01*
Y1903510D02*
Y1904415D01*
X1167381Y1870108D02*
Y1873370D01*
Y1889142D02*
Y1894330D01*
Y1903735D02*
Y1903964D01*
X1167832Y1869807D02*
Y1873165D01*
Y1890344D02*
Y1894045D01*
X1168283Y1870168D02*
Y1872960D01*
Y1891361D02*
Y1893594D01*
X1168733Y1870619D02*
Y1872755D01*
Y1891812D02*
Y1893143D01*
X1169184Y1871044D02*
Y1872550D01*
Y1892263D02*
Y1892692D01*
X1169635Y1871138D02*
Y1872345D01*
X1170086Y1871228D02*
Y1872141D01*
X1170537Y1871318D02*
Y1871936D01*
X1170988Y1871408D02*
Y1871731D01*
X1176850Y1898289D02*
Y1898572D01*
X1177301Y1897839D02*
Y1898724D01*
X1177751Y1881361D02*
Y1881817D01*
Y1897388D02*
Y1898424D01*
X1178202Y1881271D02*
Y1881741D01*
Y1896937D02*
Y1898123D01*
X1178653Y1881181D02*
Y1881666D01*
Y1896486D02*
Y1897822D01*
X1179104Y1881090D02*
Y1881591D01*
Y1896035D02*
Y1897522D01*
X1179555Y1881000D02*
Y1881516D01*
Y1895401D02*
Y1897217D01*
X1180006Y1880779D02*
Y1881441D01*
Y1894499D02*
Y1896879D01*
X1180457Y1880479D02*
Y1881430D01*
Y1893597D02*
Y1896541D01*
X1180908Y1872246D02*
Y1873931D01*
Y1880178D02*
Y1881430D01*
Y1892536D02*
Y1896203D01*
X1181359Y1871235D02*
Y1875876D01*
Y1879308D02*
Y1881430D01*
Y1891643D02*
Y1895869D01*
X1181810Y1870974D02*
Y1881588D01*
Y1891418D02*
Y1895568D01*
Y1907680D02*
Y1907775D01*
X1182260Y1870862D02*
Y1881813D01*
Y1892084D02*
Y1895267D01*
Y1907049D02*
Y1907504D01*
X1182711Y1870749D02*
Y1882253D01*
Y1892942D02*
Y1894717D01*
Y1906418D02*
Y1907234D01*
X1183162Y1870636D02*
Y1882929D01*
Y1905786D02*
Y1906963D01*
X1183613Y1870819D02*
Y1883509D01*
Y1905155D02*
Y1906695D01*
X1184064Y1879375D02*
Y1884143D01*
Y1904338D02*
Y1906470D01*
X1184515Y1882121D02*
Y1885356D01*
Y1903211D02*
Y1906244D01*
X1184966Y1883347D02*
Y1886929D01*
Y1902251D02*
Y1906019D01*
X1185417Y1884249D02*
Y1888057D01*
Y1901575D02*
Y1905768D01*
X1185868Y1885688D02*
Y1889262D01*
Y1900995D02*
Y1905317D01*
X1186319Y1887856D02*
Y1890615D01*
Y1901030D02*
Y1904866D01*
X1186769Y1888758D02*
Y1891808D01*
Y1901644D02*
Y1904052D01*
X1187220Y1889660D02*
Y1892710D01*
X1187671Y1890822D02*
Y1893612D01*
X1188122Y1892626D02*
Y1894673D01*
X1188573Y1894252D02*
Y1896026D01*
X1189024Y1895454D02*
Y1897378D01*
X1189475Y1896657D02*
Y1898613D01*
X1189926Y1897946D02*
Y1899627D01*
X1190377Y1899449D02*
Y1900642D01*
X1190828Y1900952D02*
Y1901656D01*
X1191729Y1872942D02*
Y1873480D01*
X1192180Y1872266D02*
Y1888911D01*
X1192631Y1871590D02*
Y1888710D01*
X1193082Y1870913D02*
Y1888510D01*
Y1890162D02*
Y1906323D01*
X1193533Y1871070D02*
Y1888309D01*
Y1890342D02*
Y1905962D01*
X1193984Y1871521D02*
Y1888109D01*
Y1890523D02*
Y1905601D01*
X1194435Y1871956D02*
Y1874231D01*
Y1882316D02*
Y1882799D01*
Y1886401D02*
Y1887909D01*
Y1890703D02*
Y1905241D01*
X1194886Y1872294D02*
Y1874326D01*
Y1882332D02*
Y1882783D01*
Y1886852D02*
Y1887708D01*
Y1891785D02*
Y1892268D01*
Y1898098D02*
Y1898580D01*
Y1904410D02*
Y1904893D01*
X1195337Y1872632D02*
Y1874477D01*
Y1882332D02*
Y1882783D01*
Y1887303D02*
Y1887508D01*
Y1891801D02*
Y1892252D01*
Y1898114D02*
Y1898564D01*
Y1904426D02*
Y1904877D01*
X1195787Y1872970D02*
Y1874627D01*
Y1882332D02*
Y1882783D01*
Y1891801D02*
Y1892252D01*
Y1898114D02*
Y1898564D01*
Y1904426D02*
Y1904877D01*
X1196238Y1873302D02*
Y1874777D01*
Y1882332D02*
Y1882783D01*
Y1891801D02*
Y1892252D01*
Y1898114D02*
Y1898564D01*
Y1904426D02*
Y1904877D01*
X1196689Y1873572D02*
Y1874928D01*
Y1882332D02*
Y1882783D01*
Y1891801D02*
Y1892252D01*
Y1898114D02*
Y1898564D01*
Y1904426D02*
Y1904877D01*
X1197140Y1873843D02*
Y1875078D01*
Y1882332D02*
Y1882783D01*
Y1891801D02*
Y1892252D01*
Y1898114D02*
Y1898564D01*
Y1904426D02*
Y1904877D01*
X1197591Y1874113D02*
Y1875228D01*
Y1882332D02*
Y1883108D01*
Y1891801D02*
Y1892252D01*
Y1898114D02*
Y1898564D01*
Y1904426D02*
Y1904877D01*
X1198042Y1874384D02*
Y1875378D01*
Y1882332D02*
Y1883671D01*
Y1891801D02*
Y1892252D01*
Y1898114D02*
Y1898564D01*
Y1904426D02*
Y1904877D01*
X1198493Y1874654D02*
Y1875529D01*
Y1882332D02*
Y1884235D01*
Y1891801D02*
Y1892252D01*
Y1898114D02*
Y1898564D01*
Y1904426D02*
Y1904877D01*
X1198944Y1874911D02*
Y1875679D01*
Y1882332D02*
Y1884799D01*
Y1891801D02*
Y1892252D01*
Y1898114D02*
Y1898564D01*
Y1904426D02*
Y1904877D01*
X1199395Y1875169D02*
Y1875829D01*
Y1882332D02*
Y1884487D01*
Y1891801D02*
Y1892252D01*
Y1898114D02*
Y1898564D01*
Y1904426D02*
Y1904877D01*
X1199846Y1875427D02*
Y1875980D01*
Y1882332D02*
Y1883961D01*
Y1891801D02*
Y1892252D01*
Y1898114D02*
Y1898564D01*
Y1904426D02*
Y1904877D01*
X1200296Y1875684D02*
Y1876130D01*
Y1882332D02*
Y1883435D01*
Y1891801D02*
Y1892252D01*
Y1898114D02*
Y1898564D01*
Y1904426D02*
Y1904877D01*
X1200747Y1875942D02*
Y1876280D01*
Y1882332D02*
Y1882909D01*
Y1891801D02*
Y1892252D01*
Y1898114D02*
Y1898564D01*
Y1904426D02*
Y1904877D01*
X1201198Y1876200D02*
Y1876431D01*
Y1882332D02*
Y1882383D01*
Y1891801D02*
Y1892252D01*
Y1898114D02*
Y1898564D01*
Y1904426D02*
Y1904877D01*
X1201649Y1891801D02*
Y1892252D01*
Y1898114D02*
Y1898564D01*
Y1904426D02*
Y1904877D01*
X1202100Y1891801D02*
Y1892252D01*
Y1898114D02*
Y1898564D01*
Y1904426D02*
Y1904877D01*
X1202551Y1891801D02*
Y1892252D01*
Y1898114D02*
Y1898564D01*
Y1904426D02*
Y1904877D01*
X1203002Y1891801D02*
Y1892252D01*
Y1898114D02*
Y1898564D01*
Y1904426D02*
Y1904877D01*
X1203453Y1873447D02*
Y1890263D01*
Y1891801D02*
Y1892252D01*
Y1898114D02*
Y1898564D01*
Y1904426D02*
Y1904877D01*
X1203904Y1871954D02*
Y1890063D01*
Y1891801D02*
Y1892252D01*
Y1898114D02*
Y1898564D01*
Y1904426D02*
Y1904877D01*
X1204355Y1871380D02*
Y1889862D01*
Y1891801D02*
Y1892252D01*
Y1898114D02*
Y1898564D01*
Y1904426D02*
Y1904877D01*
X1204806Y1871200D02*
Y1889662D01*
Y1891801D02*
Y1892252D01*
Y1898114D02*
Y1898564D01*
Y1904426D02*
Y1904877D01*
X1205256Y1871020D02*
Y1873976D01*
Y1880965D02*
Y1881446D01*
Y1887737D02*
Y1889462D01*
Y1891801D02*
Y1892252D01*
Y1898114D02*
Y1898564D01*
Y1904426D02*
Y1904877D01*
X1205707Y1870839D02*
Y1872879D01*
Y1881190D02*
Y1881638D01*
Y1888075D02*
Y1889261D01*
Y1891801D02*
Y1892252D01*
Y1898114D02*
Y1898564D01*
Y1904426D02*
Y1904877D01*
X1206158Y1870659D02*
Y1872728D01*
Y1881415D02*
Y1881954D01*
Y1888414D02*
Y1889061D01*
Y1891801D02*
Y1892252D01*
Y1898114D02*
Y1898564D01*
Y1904426D02*
Y1904877D01*
X1206609Y1870609D02*
Y1872578D01*
Y1881641D02*
Y1882269D01*
Y1888752D02*
Y1888860D01*
Y1891801D02*
Y1892252D01*
Y1898114D02*
Y1898564D01*
Y1904426D02*
Y1904877D01*
X1207060Y1870609D02*
Y1872428D01*
Y1881866D02*
Y1882585D01*
Y1891801D02*
Y1892252D01*
Y1898114D02*
Y1898564D01*
Y1904426D02*
Y1904877D01*
X1207511Y1870609D02*
Y1872412D01*
Y1882092D02*
Y1882901D01*
Y1891801D02*
Y1892252D01*
Y1898114D02*
Y1898564D01*
Y1904426D02*
Y1904877D01*
X1207962Y1870609D02*
Y1872412D01*
Y1882317D02*
Y1883216D01*
Y1891801D02*
Y1892252D01*
Y1898114D02*
Y1898564D01*
Y1904426D02*
Y1904877D01*
X1208413Y1870609D02*
Y1872412D01*
Y1882543D02*
Y1883532D01*
Y1891801D02*
Y1892252D01*
Y1898114D02*
Y1898564D01*
Y1904426D02*
Y1904877D01*
X1208864Y1870609D02*
Y1872412D01*
Y1882768D02*
Y1883848D01*
Y1891801D02*
Y1892252D01*
Y1898114D02*
Y1898564D01*
Y1904426D02*
Y1904877D01*
X1209315Y1870609D02*
Y1872412D01*
Y1882994D02*
Y1884163D01*
Y1891801D02*
Y1892252D01*
Y1898114D02*
Y1898564D01*
Y1904426D02*
Y1904877D01*
X1209765Y1870609D02*
Y1872412D01*
Y1883219D02*
Y1884479D01*
Y1891801D02*
Y1892252D01*
Y1898114D02*
Y1898564D01*
Y1904426D02*
Y1904877D01*
X1210216Y1870609D02*
Y1872412D01*
Y1883445D02*
Y1884895D01*
Y1891801D02*
Y1892252D01*
Y1898114D02*
Y1898564D01*
Y1904426D02*
Y1905152D01*
X1210667Y1870609D02*
Y1872412D01*
Y1883670D02*
Y1885421D01*
Y1890208D02*
Y1905603D01*
X1211118Y1870609D02*
Y1872412D01*
Y1883895D02*
Y1885947D01*
Y1890433D02*
Y1906054D01*
X1211569Y1870609D02*
Y1872412D01*
Y1884121D02*
Y1886473D01*
Y1890659D02*
Y1906505D01*
X1212020Y1870609D02*
Y1872412D01*
Y1884346D02*
Y1886999D01*
Y1890884D02*
Y1906306D01*
X1212471Y1870609D02*
Y1872412D01*
Y1884572D02*
Y1887525D01*
Y1891110D02*
Y1892329D01*
Y1903961D02*
Y1905930D01*
X1212922Y1870663D02*
Y1872570D01*
Y1884797D02*
Y1887192D01*
Y1904186D02*
Y1905554D01*
X1213373Y1870728D02*
Y1872795D01*
Y1885022D02*
Y1886666D01*
Y1904411D02*
Y1905179D01*
X1213824Y1870792D02*
Y1873480D01*
Y1885037D02*
Y1886140D01*
Y1904637D02*
Y1904803D01*
X1214274Y1870857D02*
Y1877679D01*
Y1885037D02*
Y1885614D01*
X1214725Y1870921D02*
Y1879627D01*
Y1885037D02*
Y1885088D01*
X1215176Y1870986D02*
Y1876097D01*
X1215627Y1871070D02*
Y1874427D01*
X1216078Y1871521D02*
Y1873324D01*
X1216529Y1871972D02*
Y1873023D01*
X1216980Y1872423D02*
Y1872722D01*
X1221940Y1890341D02*
Y1890448D01*
X1222391Y1890003D02*
Y1890448D01*
X1222842Y1889665D02*
Y1890448D01*
X1223292Y1889589D02*
Y1890448D01*
X1223743Y1889639D02*
Y1890448D01*
X1224194Y1889689D02*
Y1890448D01*
X1224645Y1889739D02*
Y1890448D01*
X1225096Y1889789D02*
Y1890448D01*
X1225547Y1889839D02*
Y1890448D01*
X1225998Y1889889D02*
Y1890448D01*
X1226449Y1889939D02*
Y1890448D01*
X1226900Y1889990D02*
Y1890448D01*
X1227351Y1889997D02*
Y1890448D01*
X1227801Y1889997D02*
Y1890448D01*
Y1905504D02*
Y1905779D01*
X1228252Y1889997D02*
Y1890448D01*
Y1905053D02*
Y1905779D01*
X1228703Y1889997D02*
Y1890448D01*
Y1904915D02*
Y1905779D01*
X1229154Y1889997D02*
Y1890448D01*
Y1904960D02*
Y1905779D01*
X1229605Y1889997D02*
Y1890448D01*
Y1905005D02*
Y1905779D01*
X1230056Y1889997D02*
Y1890448D01*
Y1905050D02*
Y1905779D01*
X1230507Y1889997D02*
Y1890448D01*
Y1905095D02*
Y1905779D01*
X1230958Y1889997D02*
Y1890448D01*
Y1905140D02*
Y1905779D01*
X1231409Y1889997D02*
Y1890448D01*
Y1905186D02*
Y1905779D01*
X1231860Y1889997D02*
Y1890448D01*
Y1905231D02*
Y1905779D01*
X1232310Y1889997D02*
Y1890448D01*
Y1905276D02*
Y1905779D01*
X1232761Y1889997D02*
Y1890448D01*
Y1905321D02*
Y1905779D01*
X1233212Y1872302D02*
Y1872821D01*
Y1889997D02*
Y1890448D01*
Y1905328D02*
Y1905779D01*
X1233663Y1872151D02*
Y1872771D01*
Y1889997D02*
Y1890448D01*
Y1905328D02*
Y1905779D01*
X1234114Y1872001D02*
Y1872721D01*
Y1889997D02*
Y1890448D01*
Y1905328D02*
Y1905779D01*
X1234565Y1871851D02*
Y1872670D01*
Y1889997D02*
Y1890448D01*
Y1905328D02*
Y1905779D01*
X1235016Y1871700D02*
Y1872620D01*
Y1889997D02*
Y1890448D01*
Y1905328D02*
Y1905779D01*
X1235467Y1871550D02*
Y1872570D01*
Y1889997D02*
Y1890448D01*
Y1905328D02*
Y1905779D01*
X1235918Y1871353D02*
Y1872520D01*
Y1889997D02*
Y1890448D01*
Y1905328D02*
Y1905779D01*
X1236369Y1871127D02*
Y1872470D01*
Y1889997D02*
Y1890448D01*
Y1905328D02*
Y1905779D01*
X1236819Y1870902D02*
Y1872420D01*
Y1889997D02*
Y1890448D01*
Y1905328D02*
Y1905779D01*
X1237270Y1870677D02*
Y1872412D01*
Y1889997D02*
Y1890448D01*
Y1905328D02*
Y1905779D01*
X1237721Y1870409D02*
Y1872412D01*
Y1889997D02*
Y1890448D01*
Y1905328D02*
Y1905779D01*
X1238172Y1870108D02*
Y1872412D01*
Y1889997D02*
Y1890448D01*
Y1905328D02*
Y1905779D01*
X1238623Y1869807D02*
Y1872412D01*
Y1889997D02*
Y1890448D01*
Y1905328D02*
Y1905779D01*
X1239074Y1868519D02*
Y1872412D01*
Y1889997D02*
Y1890448D01*
Y1905328D02*
Y1905779D01*
X1239525Y1868699D02*
Y1872412D01*
Y1889997D02*
Y1890448D01*
Y1905328D02*
Y1905779D01*
X1239976Y1868879D02*
Y1872570D01*
Y1889997D02*
Y1890448D01*
Y1905328D02*
Y1905779D01*
X1240427Y1869060D02*
Y1872795D01*
Y1889997D02*
Y1890448D01*
Y1905328D02*
Y1905779D01*
X1240878Y1869246D02*
Y1873631D01*
Y1889997D02*
Y1890448D01*
Y1895920D02*
Y1897903D01*
Y1905328D02*
Y1905779D01*
X1241328Y1869547D02*
Y1897677D01*
Y1905328D02*
Y1905779D01*
X1241779Y1869847D02*
Y1897452D01*
Y1905328D02*
Y1905779D01*
X1242230Y1870214D02*
Y1897227D01*
Y1905328D02*
Y1905779D01*
X1242681Y1870891D02*
Y1897001D01*
Y1905328D02*
Y1905779D01*
X1243132Y1871883D02*
Y1896777D01*
Y1905328D02*
Y1905779D01*
X1243583Y1889982D02*
Y1890464D01*
Y1894492D02*
Y1896316D01*
Y1896751D02*
Y1897005D01*
Y1905328D02*
Y1905779D01*
X1244034Y1889997D02*
Y1890448D01*
Y1894717D02*
Y1895977D01*
Y1897052D02*
Y1897391D01*
Y1905328D02*
Y1905779D01*
X1244485Y1889997D02*
Y1890448D01*
Y1894942D02*
Y1895639D01*
Y1897352D02*
Y1897778D01*
Y1905328D02*
Y1905779D01*
X1244936Y1889997D02*
Y1890448D01*
Y1895168D02*
Y1895301D01*
Y1897653D02*
Y1898164D01*
Y1905328D02*
Y1905779D01*
X1245387Y1889997D02*
Y1890448D01*
Y1897954D02*
Y1898551D01*
Y1905328D02*
Y1905779D01*
X1245837Y1889997D02*
Y1890448D01*
Y1898254D02*
Y1898937D01*
Y1905328D02*
Y1905779D01*
X1246288Y1889997D02*
Y1890448D01*
Y1898555D02*
Y1899324D01*
Y1905328D02*
Y1905779D01*
X1246739Y1889997D02*
Y1890448D01*
Y1898855D02*
Y1899710D01*
Y1905328D02*
Y1905779D01*
X1247190Y1889997D02*
Y1890448D01*
Y1899156D02*
Y1900097D01*
Y1905328D02*
Y1905779D01*
X1247641Y1889997D02*
Y1890448D01*
Y1899457D02*
Y1900483D01*
Y1905328D02*
Y1905779D01*
X1248092Y1889997D02*
Y1890448D01*
Y1899757D02*
Y1900870D01*
Y1905328D02*
Y1905779D01*
X1248543Y1889997D02*
Y1890448D01*
Y1900058D02*
Y1901256D01*
Y1905328D02*
Y1905779D01*
X1248994Y1889997D02*
Y1890448D01*
Y1900355D02*
Y1901643D01*
Y1905328D02*
Y1905779D01*
X1249445Y1889997D02*
Y1890448D01*
Y1900605D02*
Y1902029D01*
Y1905328D02*
Y1905779D01*
X1249896Y1889997D02*
Y1890448D01*
Y1900856D02*
Y1902416D01*
Y1905328D02*
Y1905779D01*
X1250346Y1889997D02*
Y1890448D01*
Y1901106D02*
Y1902802D01*
Y1905328D02*
Y1905779D01*
X1250797Y1889997D02*
Y1890448D01*
Y1901357D02*
Y1903189D01*
Y1905328D02*
Y1905779D01*
X1251248Y1889997D02*
Y1890448D01*
Y1901607D02*
Y1903575D01*
Y1905328D02*
Y1905779D01*
X1251699Y1889997D02*
Y1890448D01*
Y1901858D02*
Y1903962D01*
Y1905328D02*
Y1905779D01*
X1252150Y1889997D02*
Y1890448D01*
Y1902108D02*
Y1904348D01*
Y1905328D02*
Y1905779D01*
X1252601Y1889997D02*
Y1890448D01*
Y1902359D02*
Y1904735D01*
Y1905328D02*
Y1905779D01*
X1253052Y1889997D02*
Y1890448D01*
Y1902608D02*
Y1906054D01*
X1253503Y1889997D02*
Y1890448D01*
Y1902833D02*
Y1906504D01*
X1253954Y1889997D02*
Y1890448D01*
Y1903059D02*
Y1906955D01*
X1254405Y1889997D02*
Y1890448D01*
Y1903284D02*
Y1907406D01*
X1254855Y1889997D02*
Y1890448D01*
Y1903510D02*
Y1907857D01*
X1255306Y1889997D02*
Y1890448D01*
Y1903735D02*
Y1907505D01*
X1255757Y1889997D02*
Y1890723D01*
Y1903960D02*
Y1906998D01*
X1256208Y1889997D02*
Y1891174D01*
Y1904040D02*
Y1906491D01*
X1256659Y1889997D02*
Y1891625D01*
Y1904115D02*
Y1905984D01*
X1257110Y1889997D02*
Y1892076D01*
Y1904190D02*
Y1905476D01*
X1257561Y1889997D02*
Y1892527D01*
Y1904265D02*
Y1904969D01*
X1258012Y1889997D02*
Y1892977D01*
Y1904340D02*
Y1904462D01*
X1258463Y1889997D02*
Y1893428D01*
X1258914Y1889997D02*
Y1893077D01*
X1259364Y1889997D02*
Y1892569D01*
X1259815Y1889997D02*
Y1892062D01*
X1260266Y1889997D02*
Y1891555D01*
X1260717Y1889997D02*
Y1891048D01*
X1261168Y1889997D02*
Y1890540D01*
X1261619Y1889997D02*
Y1890033D01*
*
G04 PC Custom Flashes*
G04 Layer Name CAR-BOARD.pcb - flashes*
%LPD*%
*
*
G04 PC Circuitry*
G04 Layer Name CAR-BOARD.pcb - circuitry*
%LPD*%
*
G54D155*
X2455690Y1989872D02*
Y1032345D01*
X2312431Y889086D02*
G75*
G03X2455690Y1032345I-0J143259D01*
G01X2312431Y889086D02*
X645905D01*
X645905*
X502965Y1032025D02*
G03X645905Y889086I142941J2D01*
G01X502965Y1032025D02*
Y2001145D01*
X633549Y2131729D02*
G03X502965Y2001145I0J-130584D01*
G01X633549Y2131729D02*
X2324786D01*
X2324786*
X2455690Y1989872D02*
G03X2324786Y2131729I-136380J5477D01*
G01X2455690Y1989872D02*
X2455690D01*
X1048024Y1037404D02*
G03X1048024I-53256J0D01*
G01X2035499D02*
G03X2035499I-53256J0D01*
G01X2387202Y2011352D02*
G03X2387202I-53256J0D01*
G01X664757Y2011353D02*
G03X664757I-53256J0D01*
G01X502965Y1996776D02*
X502977D01*
X2455690Y1981156D02*
X2455702D01*
X699497Y889086D02*
X699509D01*
X650686Y2131729D02*
X650698D01*
G54D156*
X1406568Y2290004D02*
X1408618Y2291413D01*
X1411692Y2295640*
Y2266049*
X1420915Y2290004D02*
X1422965Y2291413D01*
X1426039Y2295640*
Y2266049*
X1441411Y2295640D02*
X1438337Y2294231D01*
X1436287Y2290004*
X1435262Y2282958*
Y2278731*
X1436287Y2271686*
X1438337Y2267458*
X1441411Y2266049*
X1443460*
X1446535Y2267458*
X1448584Y2271686*
X1449609Y2278731*
Y2282958*
X1448584Y2290004*
X1446535Y2294231*
X1443460Y2295640*
X1441411*
X1459857Y2268868D02*
X1458832Y2267458D01*
X1459857Y2266049*
X1460882Y2267458*
X1459857Y2268868*
X1476253Y2295640D02*
X1473179Y2294231D01*
X1471129Y2290004*
X1470105Y2282958*
Y2278731*
X1471129Y2271686*
X1473179Y2267458*
X1476253Y2266049*
X1478303*
X1481377Y2267458*
X1483427Y2271686*
X1484452Y2278731*
Y2282958*
X1483427Y2290004*
X1481377Y2294231*
X1478303Y2295640*
X1476253*
X1493674Y2285776D02*
Y2266049D01*
Y2280140D02*
X1496749Y2284367D01*
X1498798Y2285776*
X1501873*
X1503922Y2284367*
X1504947Y2280140*
Y2266049*
Y2280140D02*
X1508021Y2284367D01*
X1510071Y2285776*
X1513145*
X1515195Y2284367*
X1516220Y2280140*
Y2266049*
X1525443Y2285776D02*
Y2266049D01*
Y2280140D02*
X1528517Y2284367D01*
X1530566Y2285776*
X1533641*
X1535690Y2284367*
X1536715Y2280140*
Y2266049*
Y2280140D02*
X1539789Y2284367D01*
X1541839Y2285776*
X1544913*
X1546963Y2284367*
X1547988Y2280140*
Y2266049*
X217475Y1523089D02*
X207227Y1493498D01*
X203128Y1523089D02*
X217475D01*
X232846D02*
X229772Y1521680D01*
X227722Y1517453*
X226698Y1510407*
Y1506180*
X227722Y1499135*
X229772Y1494907*
X232846Y1493498*
X234896*
X237970Y1494907*
X240020Y1499135*
X241045Y1506180*
Y1510407*
X240020Y1517453*
X237970Y1521680*
X234896Y1523089*
X232846*
X251292Y1496317D02*
X250268Y1494907D01*
X251292Y1493498*
X252317Y1494907*
X251292Y1496317*
X267689Y1523089D02*
X264614Y1521680D01*
X262565Y1517453*
X261540Y1510407*
Y1506180*
X262565Y1499135*
X264614Y1494907*
X267689Y1493498*
X269738*
X272813Y1494907*
X274862Y1499135*
X275887Y1506180*
Y1510407*
X274862Y1517453*
X272813Y1521680*
X269738Y1523089*
X267689*
X285110Y1513225D02*
Y1493498D01*
Y1507589D02*
X288184Y1511816D01*
X290234Y1513225*
X293308*
X295358Y1511816*
X296383Y1507589*
Y1493498*
Y1507589D02*
X299457Y1511816D01*
X301506Y1513225*
X304581*
X306630Y1511816*
X307655Y1507589*
Y1493498*
X316878Y1513225D02*
Y1493498D01*
Y1507589D02*
X319952Y1511816D01*
X322002Y1513225*
X325076*
X327126Y1511816*
X328151Y1507589*
Y1493498*
Y1507589D02*
X331225Y1511816D01*
X333274Y1513225*
X336349*
X338398Y1511816*
X339423Y1507589*
Y1493498*
X1126554Y1944782D02*
Y1946191D01*
X1127579Y1949009*
X1128604Y1950418*
X1130653Y1951827*
X1134752*
X1136802Y1950418*
X1137827Y1949009*
X1138852Y1946191*
Y1943373*
X1137827Y1940555*
X1135777Y1936327*
X1125529Y1922237*
X1139876*
X1155248Y1951827D02*
X1152174Y1950418D01*
X1150124Y1946191*
X1149099Y1939146*
Y1934918*
X1150124Y1927873*
X1152174Y1923646*
X1155248Y1922237*
X1157298*
X1160372Y1923646*
X1162421Y1927873*
X1163446Y1934918*
Y1939146*
X1162421Y1946191*
X1160372Y1950418*
X1157298Y1951827*
X1155248*
X1173694Y1944782D02*
Y1946191D01*
X1174719Y1949009*
X1175744Y1950418*
X1175744D02*
X1177793Y1951827D01*
X1181892*
X1183942Y1950418*
X1184966Y1949009*
X1185991Y1946191*
Y1943373*
X1184966Y1940555*
X1182917Y1936327*
X1172669Y1922237*
X1187016*
X1197264Y1944782D02*
Y1946191D01*
X1198289Y1949009*
X1199313Y1950418*
X1201363Y1951827*
X1205462*
X1207512Y1950418*
X1208536Y1949009*
X1209561Y1946191*
Y1943373*
X1208536Y1940555*
X1206487Y1936327*
X1196239Y1922237*
X1210586*
X1292363Y1309010D02*
X1328435Y1345082D01*
Y1309010*
X1292363Y1345082*
Y1309010*
Y1354101D02*
X1328435Y1390173D01*
Y1354101*
X1292363Y1390173*
Y1354101*
X1337453Y1309010D02*
X1373525Y1345082D01*
Y1309010*
X1337453Y1345082*
Y1309010*
Y1354101D02*
X1373525Y1390173D01*
Y1354101*
X1337453Y1390173*
Y1354101*
X1382543Y1309010D02*
X1418616Y1345082D01*
Y1309010*
X1382543Y1345082*
Y1309010*
Y1354101D02*
X1418616Y1390173D01*
Y1354101*
X1382543Y1390173*
Y1354101*
X1427634Y1309010D02*
X1463706Y1345082D01*
Y1309010*
X1427634Y1345082*
Y1309010*
Y1354101D02*
X1463706Y1390173D01*
Y1354101*
X1427634Y1390173*
Y1354101*
X1472724Y1309010D02*
X1508796Y1345082D01*
Y1309010*
X1472724Y1345082*
Y1309010*
Y1354101D02*
X1508796Y1390173D01*
Y1354101*
X1472724Y1390173*
Y1354101*
X1517814Y1309010D02*
X1553886Y1345082D01*
Y1309010*
X1517814Y1345082*
Y1309010*
Y1354101D02*
X1553886Y1390173D01*
Y1354101*
X1517814Y1390173*
Y1354101*
X1562904Y1309010D02*
X1598976Y1345082D01*
Y1309010*
X1562904Y1345082*
Y1309010*
Y1354101D02*
X1598976Y1390173D01*
Y1354101*
X1562904Y1390173*
Y1354101*
X1607994Y1309010D02*
X1644067Y1345082D01*
Y1309010*
X1607994Y1345082*
Y1309010*
Y1354101D02*
X1644067Y1390173D01*
Y1354101*
X1607994Y1390173*
Y1354101*
X1653085Y1309010D02*
X1689157Y1345082D01*
Y1309010*
X1653085Y1345082*
Y1309010*
Y1354101D02*
X1689157Y1390173D01*
Y1354101*
X1653085Y1390173*
Y1354101*
X1698175Y1309010D02*
X1734247Y1345082D01*
Y1309010*
X1698175Y1345082*
Y1309010*
Y1354101D02*
X1734247Y1390173D01*
Y1354101*
X1698175Y1390173*
Y1354101*
X1743265Y1309010D02*
X1779337Y1345082D01*
Y1309010*
X1743265Y1345082*
Y1309010*
Y1354101D02*
X1779337Y1390173D01*
Y1354101*
X1743265Y1390173*
Y1354101*
X1788355Y1309010D02*
X1824427Y1345082D01*
Y1309010*
X1788355Y1345082*
Y1309010*
Y1354101D02*
X1824427Y1390173D01*
Y1354101*
X1788355Y1390173*
Y1354101*
X1833445Y1309010D02*
X1869517Y1345082D01*
Y1309010*
X1833445Y1345082*
Y1309010*
Y1354101D02*
X1869517Y1390173D01*
Y1354101*
X1833445Y1390173*
Y1354101*
X1878535Y1309010D02*
X1914608Y1345082D01*
Y1309010*
X1878535Y1345082*
Y1309010*
Y1354101D02*
X1914608Y1390173D01*
Y1354101*
X1878535Y1390173*
Y1354101*
X1923626Y1309010D02*
X1959698Y1345082D01*
Y1309010*
X1923626Y1345082*
Y1309010*
Y1354101D02*
X1959698Y1390173D01*
Y1354101*
X1923626Y1390173*
Y1354101*
X1968716Y1309010D02*
X2004788Y1345082D01*
Y1309010*
X1968716Y1345082*
Y1309010*
Y1354101D02*
X2004788Y1390173D01*
Y1354101*
X1968716Y1390173*
Y1354101*
X2013806Y1309010D02*
X2049878Y1345082D01*
Y1309010*
X2013806Y1345082*
Y1309010*
Y1354101D02*
X2049878Y1390173D01*
Y1354101*
X2013806Y1390173*
Y1354101*
X2058896Y1309010D02*
X2094968Y1345082D01*
Y1309010*
X2058896Y1345082*
Y1309010*
Y1354101D02*
X2094968Y1390173D01*
Y1354101*
X2058896Y1390173*
Y1354101*
X2103986Y1309010D02*
X2140058Y1345082D01*
Y1309010*
X2103986Y1345082*
Y1309010*
Y1354101D02*
X2140058Y1390173D01*
Y1354101*
X2103986Y1390173*
Y1354101*
X2149077Y1309010D02*
X2185149Y1345082D01*
Y1309010*
X2149077Y1345082*
Y1309010*
Y1354101D02*
X2185149Y1390173D01*
Y1354101*
X2149077Y1390173*
Y1354101*
X2103986Y1399191D02*
X2140058Y1435263D01*
Y1399191*
X2103986Y1435263*
Y1399191*
X2149077D02*
X2185149Y1435263D01*
Y1399191*
X2149077Y1435263*
Y1399191*
Y1805002D02*
X2185149Y1841074D01*
Y1805002*
X2149077Y1841074*
Y1805002*
X2103986D02*
X2140058Y1841074D01*
Y1805002*
X2103986Y1841074*
Y1805002*
X2149077Y1850093D02*
X2185149Y1886165D01*
Y1850093*
X2149077Y1886165*
Y1850093*
Y1895183D02*
X2185149Y1931255D01*
Y1895183*
X2149077Y1931255*
Y1895183*
X2103986Y1850093D02*
X2140058Y1886165D01*
Y1850093*
X2103986Y1886165*
Y1850093*
Y1895183D02*
X2140058Y1931255D01*
Y1895183*
X2103986Y1931255*
Y1895183*
X2058896Y1850093D02*
X2094968Y1886165D01*
Y1850093*
X2058896Y1886165*
Y1850093*
Y1895183D02*
X2094968Y1931255D01*
Y1895183*
X2058896Y1931255*
Y1895183*
X2013806Y1850093D02*
X2049878Y1886165D01*
Y1850093*
X2013806Y1886165*
Y1850093*
Y1895183D02*
X2049878Y1931255D01*
Y1895183*
X2013806Y1931255*
Y1895183*
X1968716Y1850093D02*
X2004788Y1886165D01*
Y1850093*
X1968716Y1886165*
Y1850093*
Y1895183D02*
X2004788Y1931255D01*
Y1895183*
X1968716Y1931255*
Y1895183*
X1923626Y1850093D02*
X1959698Y1886165D01*
Y1850093*
X1923626Y1886165*
Y1850093*
Y1895183D02*
X1959698Y1931255D01*
Y1895183*
X1923626Y1931255*
Y1895183*
X1878535Y1850093D02*
X1914608Y1886165D01*
Y1850093*
X1878535Y1886165*
Y1850093*
Y1895183D02*
X1914608Y1931255D01*
Y1895183*
X1878535Y1931255*
Y1895183*
X1833445Y1850093D02*
X1869517Y1886165D01*
Y1850093*
X1833445Y1886165*
Y1850093*
Y1895183D02*
X1869517Y1931255D01*
Y1895183*
X1833445Y1931255*
Y1895183*
X1788355Y1850093D02*
X1824427Y1886165D01*
Y1850093*
X1788355Y1886165*
Y1850093*
Y1895183D02*
X1824427Y1931255D01*
Y1895183*
X1788355Y1931255*
Y1895183*
X1743265Y1850093D02*
X1779337Y1886165D01*
Y1850093*
X1743265Y1886165*
Y1850093*
Y1895183D02*
X1779337Y1931255D01*
Y1895183*
X1743265Y1931255*
Y1895183*
X1698175Y1850093D02*
X1734247Y1886165D01*
Y1850093*
X1698175Y1886165*
Y1850093*
Y1895183D02*
X1734247Y1931255D01*
Y1895183*
X1698175Y1931255*
Y1895183*
X1653085Y1850093D02*
X1689157Y1886165D01*
Y1850093*
X1653085Y1886165*
Y1850093*
Y1895183D02*
X1689157Y1931255D01*
Y1895183*
X1653085Y1931255*
Y1895183*
X1607994Y1850093D02*
X1644067Y1886165D01*
Y1850093*
X1607994Y1886165*
Y1850093*
Y1895183D02*
X1644067Y1931255D01*
Y1895183*
X1607994Y1931255*
Y1895183*
X1562904Y1850093D02*
X1598976Y1886165D01*
Y1850093*
X1562904Y1886165*
Y1850093*
Y1895183D02*
X1598976Y1931255D01*
Y1895183*
X1562904Y1931255*
Y1895183*
X1517814Y1850093D02*
X1553886Y1886165D01*
Y1850093*
X1517814Y1886165*
Y1850093*
Y1895183D02*
X1553886Y1931255D01*
Y1895183*
X1517814Y1931255*
Y1895183*
X1472724Y1850093D02*
X1508796Y1886165D01*
Y1850093*
X1472724Y1886165*
Y1850093*
Y1895183D02*
X1508796Y1931255D01*
Y1895183*
X1472724Y1931255*
Y1895183*
X1427634Y1850093D02*
X1463706Y1886165D01*
Y1850093*
X1427634Y1886165*
Y1850093*
Y1895183D02*
X1463706Y1931255D01*
Y1895183*
X1427634Y1931255*
Y1895183*
X1382543Y1850093D02*
X1418616Y1886165D01*
Y1850093*
X1382543Y1886165*
Y1850093*
Y1895183D02*
X1418616Y1931255D01*
Y1895183*
X1382543Y1931255*
Y1895183*
X1337453Y1850093D02*
X1373525Y1886165D01*
Y1850093*
X1337453Y1886165*
Y1850093*
Y1895183D02*
X1373525Y1931255D01*
Y1895183*
X1337453Y1931255*
Y1895183*
X1292363Y1850093D02*
X1328435Y1886165D01*
Y1850093*
X1292363Y1886165*
Y1850093*
Y1895183D02*
X1328435Y1931255D01*
Y1895183*
X1292363Y1931255*
Y1895183*
X1380289Y1128650D02*
X1398325Y1146686D01*
X1380289Y1164722*
X1362253Y1146686*
X1380289Y1128650*
Y1146686D02*
Y1164722D01*
Y1173740D02*
X1398325Y1191776D01*
X1380289Y1209812*
X1362253Y1191776*
X1380289Y1173740*
Y1191776D02*
Y1209812D01*
X1425379Y1128650D02*
X1443415Y1146686D01*
X1425379Y1164722*
X1407343Y1146686*
X1425379Y1128650*
Y1146686D02*
Y1164722D01*
Y1173740D02*
X1443415Y1191776D01*
X1425379Y1209812*
X1407343Y1191776*
X1425379Y1173740*
Y1191776D02*
Y1209812D01*
X1470469Y1128650D02*
X1488505Y1146686D01*
X1470469Y1164722*
X1452433Y1146686*
X1470469Y1128650*
Y1146686D02*
Y1164722D01*
Y1173740D02*
X1488505Y1191776D01*
X1470469Y1209812*
X1452433Y1191776*
X1470469Y1173740*
Y1191776D02*
Y1209812D01*
X1617012Y1024942D02*
X1653085Y1061014D01*
Y1024942*
X1617012Y1061014*
Y1024942*
X1662103D02*
X1698175Y1061014D01*
Y1024942*
X1662103Y1061014*
Y1024942*
X1707193D02*
X1743265Y1061014D01*
Y1024942*
X1707193Y1061014*
Y1024942*
X1752283D02*
X1788355Y1061014D01*
Y1024942*
X1752283Y1061014*
Y1024942*
X1797373D02*
X1833445Y1061014D01*
Y1024942*
X1797373Y1061014*
Y1024942*
X1842463D02*
X1878535Y1061014D01*
Y1024942*
X1842463Y1061014*
Y1024942*
X1939407Y1205303D02*
X1975479Y1241375D01*
Y1205303*
X1939407Y1241375*
Y1205303*
Y1160213D02*
X1975479Y1196285D01*
Y1160213*
X1939407Y1196285*
Y1160213*
X1894317Y1205303D02*
X1930389Y1241375D01*
Y1205303*
X1894317Y1241375*
Y1205303*
Y1160213D02*
X1930389Y1196285D01*
Y1160213*
X1894317Y1196285*
Y1160213*
X1849227Y1205303D02*
X1885299Y1241375D01*
Y1205303*
X1849227Y1241375*
Y1205303*
Y1160213D02*
X1885299Y1196285D01*
Y1160213*
X1849227Y1196285*
Y1160213*
X1804137Y1205303D02*
X1840209Y1241375D01*
Y1205303*
X1804137Y1241375*
Y1205303*
Y1160213D02*
X1840209Y1196285D01*
Y1160213*
X1804137Y1196285*
Y1160213*
X1759046Y1205303D02*
X1795119Y1241375D01*
Y1205303*
X1759046Y1241375*
Y1205303*
Y1160213D02*
X1795119Y1196285D01*
Y1160213*
X1759046Y1196285*
Y1160213*
X1713956Y1205303D02*
X1750028Y1241375D01*
Y1205303*
X1713956Y1241375*
Y1205303*
Y1160213D02*
X1750028Y1196285D01*
Y1160213*
X1713956Y1196285*
Y1160213*
X1668866Y1205303D02*
X1704938Y1241375D01*
Y1205303*
X1668866Y1241375*
Y1205303*
Y1160213D02*
X1704938Y1196285D01*
Y1160213*
X1668866Y1196285*
Y1160213*
X1623776Y1205303D02*
X1659848Y1241375D01*
Y1205303*
X1623776Y1241375*
Y1205303*
Y1160213D02*
X1659848Y1196285D01*
Y1160213*
X1623776Y1196285*
Y1160213*
X1709447Y1687058D02*
X1745519Y1723130D01*
Y1687058*
X1709447Y1723130*
Y1687058*
Y1598298D02*
X1745519Y1634370D01*
Y1598298*
X1709447Y1634370*
Y1598298*
X2149077Y934762D02*
X2167113Y952798D01*
X2149077Y970834*
X2131040Y952798*
X2149077Y934762*
Y952798D02*
Y970834D01*
Y979852D02*
X2167113Y997888D01*
X2149077Y1015924*
X2131040Y997888*
X2149077Y979852*
Y997888D02*
Y1015924D01*
X2194167Y934762D02*
X2212203Y952798D01*
X2194167Y970834*
X2176131Y952798*
X2194167Y934762*
Y952798D02*
Y970834D01*
Y979852D02*
X2212203Y997888D01*
X2194167Y1015924*
X2176131Y997888*
X2194167Y979852*
Y997888D02*
Y1015924D01*
X2239257Y934762D02*
X2257293Y952798D01*
X2239257Y970834*
X2221221Y952798*
X2239257Y934762*
Y952798D02*
Y970834D01*
Y979852D02*
X2257293Y997888D01*
X2239257Y1015924*
X2221221Y997888*
X2239257Y979852*
Y997888D02*
Y1015924D01*
X2149077Y1128650D02*
X2167113Y1146686D01*
X2149077Y1164722*
X2131040Y1146686*
X2149077Y1128650*
Y1146686D02*
Y1164722D01*
Y1173740D02*
X2167113Y1191776D01*
X2149077Y1209812*
X2131040Y1191776*
X2149077Y1173740*
Y1191776D02*
Y1209812D01*
X2194167Y1128650D02*
X2212203Y1146686D01*
X2194167Y1164722*
X2176131Y1146686*
X2194167Y1128650*
Y1146686D02*
Y1164722D01*
Y1173740D02*
X2212203Y1191776D01*
X2194167Y1209812*
X2176131Y1191776*
X2194167Y1173740*
Y1191776D02*
Y1209812D01*
X2239257Y1128650D02*
X2257293Y1146686D01*
X2239257Y1164722*
X2221221Y1146686*
X2239257Y1128650*
Y1146686D02*
Y1164722D01*
Y1173740D02*
X2257293Y1191776D01*
X2239257Y1209812*
X2221221Y1191776*
X2239257Y1173740*
Y1191776D02*
Y1209812D01*
X1380289Y937016D02*
X1398325Y955052D01*
X1380289Y973088*
X1380289D02*
X1362253Y955052D01*
X1380289Y937016*
Y955052D02*
Y973088D01*
Y982107D02*
X1398325Y1000143D01*
X1380289Y1018179*
X1362253Y1000143*
X1380289Y982107*
Y1000143D02*
Y1018179D01*
X1425379Y937016D02*
X1443415Y955052D01*
X1425379Y973088*
X1425379D02*
X1407343Y955052D01*
X1425379Y937016*
Y955052D02*
Y973088D01*
Y982107D02*
X1443415Y1000143D01*
X1425379Y1018179*
X1407343Y1000143*
X1425379Y982107*
Y1000143D02*
Y1018179D01*
X1470469Y937016D02*
X1488505Y955052D01*
X1470469Y973088*
X1470469D02*
X1452433Y955052D01*
X1470469Y937016*
Y955052D02*
Y973088D01*
Y982107D02*
X1488505Y1000143D01*
X1470469Y1018179*
X1452433Y1000143*
X1470469Y982107*
Y1000143D02*
Y1018179D01*
X1384798Y2055253D02*
X1420870Y2091325D01*
Y2055253*
X1384798Y2091325*
Y2055253*
Y2010163D02*
X1420870Y2046235D01*
Y2010163*
X1384798Y2046235*
Y2010163*
X1339708Y2055253D02*
X1375780Y2091325D01*
Y2055253*
X1339708Y2091325*
Y2055253*
Y2010163D02*
X1375780Y2046235D01*
Y2010163*
X1339708Y2046235*
Y2010163*
X1294618Y2055253D02*
X1330690Y2091325D01*
Y2055253*
X1294618Y2091325*
Y2055253*
Y2010163D02*
X1330690Y2046235D01*
Y2010163*
X1294618Y2046235*
Y2010163*
X1249527Y2055253D02*
X1285600Y2091325D01*
Y2055253*
X1249527Y2091325*
Y2055253*
Y2010163D02*
X1285600Y2046235D01*
Y2010163*
X1249527Y2046235*
Y2010163*
X1107493Y952798D02*
X1143566Y988870D01*
X1107493D02*
X1143566Y952798D01*
X1197674D02*
X1233746Y988870D01*
X1197674D02*
X1233746Y952798D01*
X1138488Y2066525D02*
X1174561D01*
X1156524Y2048489D02*
Y2084561D01*
X1173228Y2086816D02*
X1172716Y2088225D01*
X1171691Y2089634*
X1170666Y2090339*
X1168617*
X1167592Y2089634*
X1166567Y2088225*
X1166055Y2086816*
X1165543Y2084702*
Y2081180*
X1166055Y2079066*
X1166567Y2077657*
X1167592Y2076248*
X1168617Y2075543*
X1170666*
X1171691Y2076248*
X1172716Y2077657*
X1173228Y2079066*
X1102984Y2066525D02*
X1139056D01*
X1121020Y2048489D02*
Y2084561D01*
X1137724Y2086816D02*
X1137212Y2088225D01*
X1136187Y2089634*
X1135162Y2090339*
X1133113*
X1132088Y2089634*
X1131063Y2088225*
X1130551Y2086816*
X1130038Y2084702*
Y2081180*
X1130551Y2079066*
X1131063Y2077657*
X1132088Y2076248*
X1133113Y2075543*
X1135162*
X1136187Y2076248*
X1137212Y2077657*
X1137724Y2079066*
X1067480Y2066525D02*
X1103552D01*
X1085516Y2048489D02*
Y2084561D01*
X1102220Y2086816D02*
X1101708Y2088225D01*
X1100683Y2089634*
X1099658Y2090339*
X1097609*
X1096584Y2089634*
X1095559Y2088225*
X1095047Y2086816*
X1094534Y2084702*
Y2081180*
X1095047Y2079066*
X1095559Y2077657*
X1096584Y2076248*
X1097609Y2075543*
X1099658*
X1100683Y2076248*
X1101708Y2077657*
X1102220Y2079066*
X890350Y2023690D02*
X926423D01*
X908386Y2005654D02*
Y2041726D01*
X925090Y2043980D02*
X924578Y2045389D01*
X923553Y2046798*
X922528Y2047503*
X920479*
X919454Y2046798*
X918429Y2045389*
X917917Y2043980*
X917405Y2041867*
Y2038344*
X917917Y2036230*
X918429Y2034821*
X919454Y2033412*
X920479Y2032708*
X922528*
X923553Y2033412*
X924578Y2034821*
X925090Y2036230*
X845970Y1979310D02*
X882042D01*
X864006Y1961274D02*
Y1997346D01*
X880710Y1999600D02*
X880198Y2001009D01*
X879173Y2002418*
X878148Y2003123*
X876099*
X875074Y2002418*
X874049Y2001009*
X873537Y1999600*
X873024Y1997487*
Y1993964*
X873537Y1991850*
X874049Y1990441*
X875074Y1989032*
X876099Y1988328*
X878148*
X879173Y1989032*
X880198Y1990441*
X880710Y1991850*
X801590Y2023690D02*
X837662D01*
X819626Y2005654D02*
Y2041726D01*
X836330Y2043980D02*
X835818Y2045389D01*
X834793Y2046798*
X833768Y2047503*
X831719*
X830694Y2046798*
X829669Y2045389*
X829157Y2043980*
X828644Y2041867*
Y2038344*
X829157Y2036230*
X829669Y2034821*
X830694Y2033412*
X831719Y2032708*
X833768*
X834793Y2033412*
X835818Y2034821*
X836330Y2036230*
X827934Y983580D02*
X864006D01*
X827934Y1019652*
X864006*
X827934Y983580*
Y1111395D02*
X864006D01*
X827934Y1147467*
X864006*
X827934Y1111395*
X721422Y1185350D02*
X757494D01*
X739458Y1167314D02*
Y1203386D01*
X721422Y945697D02*
X757494D01*
X739458Y927661D02*
Y963733D01*
X593465Y1278335D02*
X629537D01*
X611501Y1260299D02*
Y1296371D01*
X620519Y1302148D02*
Y1287353D01*
Y1302148D02*
X625131D01*
X626668Y1301444*
X627180Y1300739*
X627693Y1299330*
Y1297921*
X627180Y1296512*
X626668Y1295807*
X625131Y1295103*
X620519D02*
X625131D01*
X626668Y1294398*
X627180Y1293694*
X627693Y1292285*
Y1290171*
X627180Y1288762*
X626668Y1288057*
X625131Y1287353*
X620519*
X593465Y1502011D02*
X629537D01*
X611501Y1483974D02*
Y1520047D01*
X620519Y1525824D02*
Y1511029D01*
Y1525824D02*
X625131D01*
X626668Y1525119*
X627180Y1524415*
X627693Y1523006*
Y1521597*
X627180Y1520187*
X626668Y1519483*
X625131Y1518778*
X620519D02*
X625131D01*
X626668Y1518074*
X627180Y1517369*
X627693Y1515960*
Y1513847*
X627180Y1512438*
X626668Y1511733*
X625131Y1511029*
X620519*
X593465Y1336917D02*
X629537D01*
X611501Y1318880D02*
Y1354953D01*
X624619Y1360730D02*
X620519Y1345935D01*
X624619Y1360730D02*
X628718Y1345935D01*
X622057Y1350866D02*
X627180D01*
X593465Y1390173D02*
X629537D01*
X611501Y1372137D02*
Y1408209D01*
X624619Y1413986D02*
X620519Y1399191D01*
X624619Y1413986D02*
X628718Y1399191D01*
X622057Y1404122D02*
X627180D01*
X593465Y1443429D02*
X629537D01*
X611501Y1425393D02*
Y1461465D01*
X624619Y1467242D02*
X620519Y1452447D01*
X624619Y1467242D02*
X628718Y1452447D01*
X622057Y1457379D02*
X627180D01*
X2309147Y1714822D02*
X2345219Y1750894D01*
Y1714822*
X2309147Y1750894*
Y1714822*
X2354237D02*
X2390309Y1750894D01*
Y1714822*
X2354237Y1750894*
Y1714822*
Y1850093D02*
X2390309Y1886165D01*
Y1850093*
X2354237Y1886165*
Y1850093*
X2309147D02*
X2345219Y1886165D01*
Y1850093*
X2309147Y1886165*
Y1850093*
X613756Y968579D02*
X649828D01*
Y1004652*
X613756*
Y968579*
X631792Y986616D02*
Y1004652D01*
X665610Y968579D02*
X701682D01*
Y1004652*
X665610*
Y968579*
X683646Y986616D02*
Y1004652D01*
X712954Y968579D02*
X749026D01*
Y1004652*
X712954*
Y968579*
X730990Y986616D02*
Y1004652D01*
X895570Y939271D02*
X931642D01*
Y975343*
X895570*
Y939271*
X913606Y957307D02*
Y975343D01*
X896471Y893279D02*
X932543D01*
Y929351*
X896471*
Y893279*
X914507Y911315D02*
Y929351D01*
X965459Y891926D02*
X1001531D01*
Y927998*
X965459*
Y891926*
X983495Y909962D02*
Y927998D01*
X965910Y938369D02*
X1001982D01*
Y974441*
X965910*
Y938369*
X983946Y956405D02*
Y974441D01*
X1330690Y937016D02*
X1366762D01*
Y973088*
X1366762D02*
X1330690D01*
X1330690D02*
Y937016D01*
X1348726Y955052D02*
Y973088D01*
X1704938Y918980D02*
X1741010D01*
Y955052*
X1704938*
Y918980*
X1722974Y937016D02*
Y955052D01*
X1752283Y918980D02*
X1788355D01*
Y955052*
X1752283*
Y918980*
X1770319Y937016D02*
Y955052D01*
X1910099Y893279D02*
X1946171D01*
Y929351*
X1910099*
Y893279*
X1928135Y911315D02*
Y929351D01*
X2028235Y893279D02*
X2064307D01*
Y929351*
X2028235*
Y893279*
X2046271Y911315D02*
Y929351D01*
X2097223Y934762D02*
X2133295D01*
Y970834*
X2097223*
Y934762*
X2115259Y952798D02*
Y970834D01*
X613305Y1015022D02*
X649377D01*
Y1051095*
X613305*
Y1015022*
X631341Y1033058D02*
Y1051095D01*
X712954Y1015924D02*
X749026D01*
Y1051996*
X712954*
Y1015924*
X730990Y1033960D02*
Y1051996D01*
X665610Y1015924D02*
X701682D01*
Y1051996*
X665610*
Y1015924*
X683646Y1033960D02*
Y1051996D01*
X1181892Y1065523D02*
X1217964D01*
Y1101596*
X1181892*
Y1065523*
X1199928Y1083559D02*
Y1101596D01*
X1222473Y1065523D02*
X1258545D01*
Y1101596*
X1222473*
Y1065523*
X1240509Y1083559D02*
Y1101596D01*
X1707193Y988870D02*
X1743265D01*
Y1024942*
X1707193*
Y988870*
X1725229Y1006906D02*
Y1024942D01*
X1752283Y988870D02*
X1788355D01*
Y1024942*
X1752283*
Y988870*
X1770319Y1006906D02*
Y1024942D01*
X2358746Y1065523D02*
X2394818D01*
Y1101596*
X2358746*
Y1065523*
X2376782Y1083559D02*
Y1101596D01*
X2358746Y1036215D02*
X2394818D01*
Y1072287*
X2358746*
Y1036215*
X2376782Y1054251D02*
Y1072287D01*
X2397073Y1036215D02*
X2433145D01*
Y1072287*
X2397073*
Y1036215*
X2415109Y1054251D02*
Y1072287D01*
X2397073Y1065523D02*
X2433145D01*
Y1101596*
X2397073*
Y1065523*
X2415109Y1083559D02*
Y1101596D01*
X965459D02*
X1001531D01*
Y1137668*
X965459*
Y1101596*
X983495Y1119632D02*
Y1137668D01*
X965459Y1144431D02*
X1001531D01*
Y1180503*
X965459*
Y1144431*
X983495Y1162467D02*
Y1180503D01*
X1012804Y1101596D02*
X1048876D01*
Y1137668*
X1012804*
Y1101596*
X1030840Y1119632D02*
Y1137668D01*
X1012804Y1146686D02*
X1048876D01*
Y1182758*
X1012804*
Y1146686*
X1030840Y1164722D02*
Y1182758D01*
X1222473Y1137668D02*
X1258545D01*
Y1173740*
X1222473*
Y1137668*
X1240509Y1155704D02*
Y1173740D01*
X1181892Y1139922D02*
X1217964D01*
Y1175994*
X1181892*
Y1139922*
X1199928Y1157958D02*
Y1175994D01*
X1222473Y1106105D02*
X1258545D01*
Y1142177*
X1222473*
Y1106105*
X1240509Y1124141D02*
Y1142177D01*
X1181892Y1103850D02*
X1217964D01*
Y1139922*
X1181892*
Y1103850*
X1199928Y1121886D02*
Y1139922D01*
X1332944Y1128650D02*
X1369016D01*
Y1164722*
X1332944*
Y1128650*
X1350980Y1146686D02*
Y1164722D01*
X1779337Y1085814D02*
X1815409D01*
Y1121886*
X1779337*
Y1085814*
X1797373Y1103850D02*
Y1121886D01*
X1718465Y1085814D02*
X1754537D01*
Y1121886*
X1718465*
Y1085814*
X1736501Y1103850D02*
Y1121886D01*
X1896572Y1085814D02*
X1932644D01*
Y1121886*
X1896572*
Y1085814*
X1914608Y1103850D02*
Y1121886D01*
X1842463Y1085814D02*
X1878535D01*
Y1121886*
X1842463*
Y1085814*
X1860499Y1103850D02*
Y1121886D01*
X1952934Y1085814D02*
X1989006D01*
Y1121886*
X1952934*
Y1085814*
X1970970Y1103850D02*
Y1121886D01*
X2004788Y1085814D02*
X2040860D01*
Y1121886*
X2004788*
Y1085814*
X2022824Y1103850D02*
Y1121886D01*
X2097223Y1128650D02*
X2133295D01*
Y1164722*
X2097223*
Y1128650*
X2115259Y1146686D02*
Y1164722D01*
X965459Y1191776D02*
X1001531D01*
Y1227848*
X965459*
Y1191776*
X983495Y1209812D02*
Y1227848D01*
X1012804Y1191776D02*
X1048876D01*
Y1227848*
X1012804*
Y1191776*
X1030840Y1209812D02*
Y1227848D01*
X1193165Y1209812D02*
X1229237D01*
Y1245884*
X1193165*
Y1209812*
X1211201Y1227848D02*
Y1245884D01*
X1984497Y1227848D02*
X2020570D01*
Y1263920*
X1984497*
Y1227848*
X2002533Y1245884D02*
Y1263920D01*
X544768Y1318930D02*
X580840D01*
Y1355002*
X544768*
Y1318930*
X562804Y1336966D02*
Y1355002D01*
X1055640Y1336064D02*
X1091712D01*
Y1372137*
X1055640*
Y1336064*
X1073676Y1354101D02*
Y1372137D01*
X1130038Y1333810D02*
X1166111D01*
Y1369882*
X1130038*
Y1333810*
X1148075Y1351846D02*
Y1369882D01*
X1197674Y1333810D02*
X1233746D01*
Y1369882*
X1197674*
Y1333810*
X1215710Y1351846D02*
Y1369882D01*
X1653085Y1248139D02*
X1689157D01*
Y1284211*
X1653085*
Y1248139*
X1671121Y1266175D02*
Y1284211D01*
X1765810Y1252648D02*
X1801882D01*
Y1288720*
X1765810*
Y1252648*
X1783846Y1270684D02*
Y1288720D01*
X1788355Y1252648D02*
X1824427D01*
Y1288720*
X1788355*
Y1252648*
X1806391Y1270684D02*
Y1288720D01*
X2081441Y1266175D02*
X2117513D01*
Y1302247*
X2081441*
Y1266175*
X2099477Y1284211D02*
Y1302247D01*
X2248275Y1311265D02*
X2284347D01*
Y1347337*
X2248275*
Y1311265*
X2266311Y1329301D02*
Y1347337D01*
X2246471Y1257608D02*
X2282543D01*
Y1293680*
X2246471*
Y1257608*
X2264507Y1275644D02*
Y1293680D01*
X2304638Y1311265D02*
X2340710D01*
Y1347337*
X2304638*
Y1311265*
X2322674Y1329301D02*
Y1347337D01*
X2304187Y1258509D02*
X2340259D01*
Y1294581*
X2304187*
Y1258509*
X2322223Y1276545D02*
Y1294581D01*
X749026Y1426245D02*
X785099D01*
Y1462317*
X749026*
Y1426245*
X767063Y1444281D02*
Y1462317D01*
X1055640Y1360864D02*
X1091712D01*
Y1396936*
X1055640*
Y1360864*
X1073676Y1378900D02*
Y1396936D01*
X1055640Y1387918D02*
X1091712D01*
Y1423990*
X1055640*
Y1387918*
X1073676Y1405954D02*
Y1423990D01*
X1030840Y1417227D02*
X1066912D01*
Y1453299*
X1030840*
Y1417227*
X1048876Y1435263D02*
Y1453299D01*
X997022Y1351846D02*
X1033095D01*
Y1387918*
X997022*
Y1351846*
X1015058Y1369882D02*
Y1387918D01*
X1130038Y1360864D02*
X1166111D01*
Y1396936*
X1130038*
Y1360864*
X1148075Y1378900D02*
Y1396936D01*
X1130038Y1387918D02*
X1166111D01*
Y1423990*
X1130038*
Y1387918*
X1148075Y1405954D02*
Y1423990D01*
X1197674Y1360864D02*
X1233746D01*
Y1396936*
X1197674*
Y1360864*
X1215710Y1378900D02*
Y1396936D01*
X1197674Y1387918D02*
X1233746D01*
Y1423990*
X1197674*
Y1387918*
X1215710Y1405954D02*
Y1423990D01*
X1364507Y1421736D02*
X1400580D01*
Y1457808*
X1364507*
Y1421736*
X1382543Y1439772D02*
Y1457808D01*
X656592Y1474040D02*
X692664D01*
Y1510113*
X656592*
Y1474040*
X674628Y1492076D02*
Y1510113D01*
X656592Y1449692D02*
X692664D01*
Y1485764*
X656592*
Y1449692*
X674628Y1467728D02*
Y1485764D01*
X688155Y1451044D02*
X724227D01*
Y1487117*
X688155*
Y1451044*
X706191Y1469080D02*
Y1487117D01*
X688155Y1496135D02*
X724227D01*
Y1532207*
X688155*
Y1496135*
X706191Y1514171D02*
Y1532207D01*
X688155Y1473590D02*
X724227D01*
Y1509662*
X688155*
Y1473590*
X706191Y1491626D02*
Y1509662D01*
X781040Y1466826D02*
X817113D01*
Y1502898*
X781040*
Y1466826*
X799077Y1484862D02*
Y1502898D01*
X856792Y1437968D02*
X892864D01*
Y1474040*
X856792*
Y1437968*
X874828Y1456004D02*
Y1474040D01*
X1051131Y1457808D02*
X1087203D01*
Y1493880*
X1051131*
Y1457808*
X1069167Y1475844D02*
Y1493880D01*
X1029938Y1464121D02*
X1066010D01*
Y1500193*
X1029938*
Y1464121*
X1047974Y1482157D02*
Y1500193D01*
X1069167Y1496135D02*
X1105239D01*
Y1532207*
X1069167*
Y1496135*
X1087203Y1514171D02*
Y1532207D01*
X1084948Y1496135D02*
X1121020D01*
Y1532207*
X1084948*
Y1496135*
X1102984Y1514171D02*
Y1532207D01*
X1134547Y1433008D02*
X1170620D01*
Y1469080*
X1134547*
Y1433008*
X1152584Y1451044D02*
Y1469080D01*
X1106592Y1432557D02*
X1142664D01*
Y1468630*
X1106592*
Y1432557*
X1124628Y1450594D02*
Y1468630D01*
X1154838Y1469080D02*
X1190910D01*
Y1505153*
X1154838*
Y1469080*
X1172874Y1487117D02*
Y1505153D01*
X1238255Y1493880D02*
X1274327D01*
Y1529952*
X1238255*
Y1493880*
X1256291Y1511916D02*
Y1529952D01*
X1204437Y1430754D02*
X1240509D01*
Y1466826*
X1204437*
Y1430754*
X1222473Y1448790D02*
Y1466826D01*
X1236000Y1439772D02*
X1272073D01*
Y1475844*
X1236000*
Y1439772*
X1254036Y1457808D02*
Y1475844D01*
X1387052D02*
X1423125D01*
Y1511916*
X1387052*
Y1475844*
X1405089Y1493880D02*
Y1511916D01*
X1612503Y1460062D02*
X1648576D01*
Y1496135*
X1612503*
Y1460062*
X1630539Y1478099D02*
Y1496135D01*
X1612503Y1509662D02*
X1648576D01*
Y1545734*
X1612503*
Y1509662*
X1630539Y1527698D02*
Y1545734D01*
X1664357Y1509662D02*
X1700429D01*
Y1545734*
X1664357*
Y1509662*
X1682393Y1527698D02*
Y1545734D01*
X1666612Y1460062D02*
X1702684D01*
Y1496135*
X1666612*
Y1460062*
X1684648Y1478099D02*
Y1496135D01*
X1718465Y1460062D02*
X1754537D01*
Y1496135*
X1718465*
Y1460062*
X1736501Y1478099D02*
Y1496135D01*
X1718465Y1509662D02*
X1754537D01*
Y1545734*
X1718465*
Y1509662*
X1736501Y1527698D02*
Y1545734D01*
X1896572Y1469080D02*
X1932644D01*
Y1505153*
X1896572*
Y1469080*
X1914608Y1487117D02*
Y1505153D01*
X1896572Y1511916D02*
X1932644D01*
Y1547988*
X1896572*
Y1511916*
X1914608Y1529952D02*
Y1547988D01*
X1837954Y1469080D02*
X1874026D01*
Y1505153*
X1837954*
Y1469080*
X1855990Y1487117D02*
Y1505153D01*
X1837954Y1511916D02*
X1874026D01*
Y1547988*
X1837954*
Y1511916*
X1855990Y1529952D02*
Y1547988D01*
X2009297Y1498389D02*
X2045369D01*
Y1534461*
X2009297*
Y1498389*
X2027333Y1516425D02*
Y1534461D01*
X2009297Y1444281D02*
X2045369D01*
Y1480353*
X2009297*
Y1444281*
X2027333Y1462317D02*
Y1480353D01*
X2054387Y1437517D02*
X2090459D01*
Y1473590*
X2090459D02*
X2054387D01*
X2054387D02*
Y1437517D01*
X2072423Y1455553D02*
Y1473590D01*
X2108495Y1491626D02*
X2144568D01*
Y1527698*
X2108495*
Y1491626*
X2126531Y1509662D02*
Y1527698D01*
X2399327Y1514171D02*
X2435399D01*
Y1550243*
X2399327*
Y1514171*
X2417363Y1532207D02*
Y1550243D01*
X2399327Y1437517D02*
X2435399D01*
Y1473590*
X2435399D02*
X2399327D01*
X2399327D02*
Y1437517D01*
X2417363Y1455553D02*
Y1473590D01*
X793666Y1578650D02*
X829738D01*
Y1614722*
X793666*
Y1578650*
X811702Y1596686D02*
Y1614722D01*
X871221Y1577748D02*
X907293D01*
Y1613820*
X871221*
Y1577748*
X889257Y1595784D02*
Y1613820D01*
X897824Y1538519D02*
X933896D01*
Y1574592*
X897824*
Y1538519*
X915860Y1556555D02*
Y1574592D01*
X1078185Y1541225D02*
X1114257D01*
Y1577297*
X1078185*
Y1541225*
X1096221Y1559261D02*
Y1577297D01*
X1134547Y1588569D02*
X1170620D01*
Y1624642*
X1134547*
Y1588569*
X1152584Y1606606D02*
Y1624642D01*
X1105239Y1586315D02*
X1141311D01*
Y1622387*
X1105239*
Y1586315*
X1123275Y1604351D02*
Y1622387D01*
X1204437Y1584060D02*
X1240509D01*
Y1620133*
X1204437*
Y1584060*
X1222473Y1602097D02*
Y1620133D01*
X1238255Y1593078D02*
X1274327D01*
Y1629151*
X1238255*
Y1593078*
X1256291Y1611115D02*
Y1629151D01*
X1335199Y1568279D02*
X1371271D01*
Y1604351*
X1335199*
Y1568279*
X1353235Y1586315D02*
Y1604351D01*
X1364507Y1527698D02*
X1400580D01*
Y1563770*
X1364507*
Y1527698*
X1382543Y1545734D02*
Y1563770D01*
X1544868Y1570533D02*
X1580940D01*
Y1606606*
X1544868*
Y1570533*
X1562904Y1588569D02*
Y1606606D01*
X1896572Y1552497D02*
X1932644D01*
Y1588569*
X1896572*
Y1552497*
X1914608Y1570533D02*
Y1588569D01*
X1837954Y1552497D02*
X1874026D01*
Y1588569*
X1837954*
Y1552497*
X1855990Y1570533D02*
Y1588569D01*
X2009297Y1552497D02*
X2045369D01*
Y1588569*
X2009297*
Y1552497*
X2027333Y1570533D02*
Y1588569D01*
X2108495Y1541225D02*
X2144568D01*
Y1577297*
X2108495*
Y1541225*
X2126531Y1559261D02*
Y1577297D01*
X2117513Y1590824D02*
X2153586D01*
Y1626896*
X2117513*
Y1590824*
X2135549Y1608860D02*
Y1626896D01*
X2399327Y1590824D02*
X2435399D01*
Y1626896*
X2399327*
Y1590824*
X2417363Y1608860D02*
Y1626896D01*
X762553D02*
X798626D01*
Y1662968*
X762553*
Y1626896*
X780590Y1644932D02*
Y1662968D01*
X730990Y1626896D02*
X767062D01*
X767062D02*
Y1662968D01*
X767062D02*
X730990D01*
Y1626896*
X749026Y1644932D02*
Y1662968D01*
X730990Y1665223D02*
X767062D01*
X767062D02*
Y1701295D01*
X767062D02*
X730990D01*
Y1665223*
X749026Y1683259D02*
Y1701295D01*
X794117Y1626896D02*
X830189D01*
Y1662968*
X794117*
Y1626896*
X812153Y1644932D02*
Y1662968D01*
X891060Y1626896D02*
X927133D01*
Y1662968*
X891060*
X891060D02*
Y1626896D01*
X909097Y1644932D02*
Y1662968D01*
X861752Y1626896D02*
X897824D01*
Y1662968*
X861752*
Y1626896*
X879788Y1644932D02*
Y1662968D01*
X827934Y1626896D02*
X864006D01*
Y1662968*
X827934*
Y1626896*
X845970Y1644932D02*
Y1662968D01*
X945169Y1626896D02*
X981241D01*
Y1662968*
X945169*
Y1626896*
X963205Y1644932D02*
Y1662968D01*
X918115Y1626896D02*
X954187D01*
Y1662968*
X918115*
Y1626896*
X936151Y1644932D02*
Y1662968D01*
X972223D02*
X1008295D01*
Y1699040*
X972223*
Y1662968*
X990259Y1681004D02*
Y1699040D01*
X972223Y1692277D02*
X1008295D01*
Y1728349*
X972223*
Y1692277*
X990259Y1710313D02*
Y1728349D01*
X1024077Y1662968D02*
X1060149D01*
Y1699040*
X1024077*
Y1662968*
X1042113Y1681004D02*
Y1699040D01*
X999277Y1662968D02*
X1035349D01*
Y1699040*
X999277*
Y1662968*
X1017313Y1681004D02*
Y1699040D01*
X1024077Y1692277D02*
X1060149D01*
Y1728349*
X1024077*
Y1692277*
X1042113Y1710313D02*
Y1728349D01*
X999277Y1692277D02*
X1035349D01*
Y1728349*
X999277*
Y1692277*
X1017313Y1710313D02*
Y1728349D01*
X1051131Y1613369D02*
X1087203D01*
Y1649441*
X1051131*
Y1613369*
X1069167Y1631405D02*
Y1649441D01*
X1082694Y1651696D02*
X1118766D01*
Y1687768*
X1082694*
Y1651696*
X1100730Y1669732D02*
Y1687768D01*
X1154838Y1626896D02*
X1190910D01*
Y1662968*
X1154838*
Y1626896*
X1172874Y1644932D02*
Y1662968D01*
X1236000Y1644932D02*
X1272073D01*
Y1681004*
X1236000*
Y1644932*
X1254036Y1662968D02*
Y1681004D01*
X1287854Y1674241D02*
X1323926D01*
Y1710313*
X1287854*
Y1674241*
X1305890Y1692277D02*
Y1710313D01*
X1319417Y1671986D02*
X1355489D01*
Y1708058*
X1319417*
Y1671986*
X1337453Y1690022D02*
Y1708058D01*
X1610249Y1669732D02*
X1646321D01*
Y1705804*
X1610249*
Y1669732*
X1628285Y1687768D02*
Y1705804D01*
X2009297Y1615624D02*
X2045369D01*
Y1651696*
X2009297*
Y1615624*
X2027333Y1633660D02*
Y1651696D01*
X528085Y1748640D02*
X564157D01*
Y1784712*
X528085*
Y1748640*
X546121Y1766676D02*
Y1784712D01*
X555590Y1748189D02*
X591662D01*
Y1784261*
X555590*
Y1748189*
X573626Y1766225D02*
Y1784261D01*
X997022Y1730604D02*
X1033095D01*
Y1766676*
X997022*
Y1730604*
X1015058Y1748640D02*
Y1766676D01*
X1051131D02*
X1087203D01*
Y1802748*
X1051131*
Y1766676*
X1069167Y1784712D02*
Y1802748D01*
X1134547Y1744131D02*
X1170620D01*
Y1780203*
X1134547*
Y1744131*
X1152584Y1762167D02*
Y1780203D01*
X1154838D02*
X1190910D01*
Y1816275*
X1154838*
Y1780203*
X1172874Y1798239D02*
Y1816275D01*
X1105239Y1737367D02*
X1141311D01*
Y1773439*
X1105239*
Y1737367*
X1123275Y1755403D02*
Y1773439D01*
X1238255Y1750894D02*
X1274327D01*
Y1786966*
X1238255*
Y1750894*
X1256291Y1768930D02*
Y1786966D01*
X1204437Y1741876D02*
X1240509D01*
Y1777948*
X1204437*
Y1741876*
X1222473Y1759912D02*
Y1777948D01*
X1287854Y1748640D02*
X1323926D01*
Y1784712*
X1287854*
Y1748640*
X1305890Y1766676D02*
Y1784712D01*
X1319417Y1746385D02*
X1355489D01*
Y1782457*
X1319417*
Y1746385*
X1337453Y1764421D02*
Y1782457D01*
X1287854Y1708058D02*
X1323926D01*
Y1744131*
X1287854*
Y1708058*
X1305890Y1726095D02*
Y1744131D01*
X1319417Y1705804D02*
X1355489D01*
Y1741876*
X1319417*
Y1705804*
X1337453Y1723840D02*
Y1741876D01*
X1391561Y1784712D02*
X1427634D01*
Y1820784*
X1391561*
X1391561D02*
Y1784712D01*
X1409598Y1802748D02*
Y1820784D01*
X1535850Y1762167D02*
X1571922D01*
Y1798239*
X1535850*
Y1762167*
X1553886Y1780203D02*
Y1798239D01*
X1549377Y1701295D02*
X1585449D01*
Y1737367*
X1549377*
Y1701295*
X1567413Y1719331D02*
Y1737367D01*
X1937153Y1712567D02*
X1973225D01*
Y1748640*
X1937153*
Y1712567*
X1955189Y1730604D02*
Y1748640D01*
X2004788Y1710313D02*
X2040860D01*
Y1746385*
X2004788*
Y1710313*
X2022824Y1728349D02*
Y1746385D01*
X2176131Y1777948D02*
X2212203D01*
Y1814020*
X2176131*
Y1777948*
X2194167Y1795984D02*
Y1814020D01*
X2173876Y1714822D02*
X2209948D01*
Y1750894*
X2173876*
Y1714822*
X2191912Y1732858D02*
Y1750894D01*
X528085Y1818529D02*
X564157D01*
Y1854602*
X528085*
Y1818529*
X546121Y1836565D02*
Y1854602D01*
X521321Y1856405D02*
X557393D01*
Y1892477*
X521321*
Y1856405*
X539357Y1874441D02*
Y1892477D01*
X555590Y1818529D02*
X591662D01*
Y1854602*
X555590*
Y1818529*
X573626Y1836565D02*
Y1854602D01*
X563706Y1857307D02*
X599778D01*
Y1893379*
X563706*
Y1857307*
X581742Y1875343D02*
Y1893379D01*
X683646Y1841074D02*
X719718D01*
Y1877147*
X683646*
Y1841074*
X701682Y1859111D02*
Y1877147D01*
X667864Y1841074D02*
X703936D01*
Y1877147*
X667864*
Y1841074*
X685900Y1859111D02*
Y1877147D01*
X649828Y1841074D02*
X685900D01*
Y1877147*
X649828*
Y1841074*
X667864Y1859111D02*
Y1877147D01*
X649828Y1818529D02*
X685900D01*
Y1854602*
X649828*
Y1818529*
X667864Y1836565D02*
Y1854602D01*
Y1818529D02*
X703936D01*
Y1854602*
X667864*
Y1818529*
X685900Y1836565D02*
Y1854602D01*
X683646Y1818529D02*
X719718D01*
Y1854602*
X683646*
Y1818529*
X701682Y1836565D02*
Y1854602D01*
X749026Y1791475D02*
X785099D01*
Y1827547*
X749026*
Y1791475*
X767063Y1809511D02*
Y1827547D01*
X804487Y1861816D02*
X840559D01*
Y1897888*
X804487*
Y1861816*
X822523Y1879852D02*
Y1897888D01*
X781942Y1833860D02*
X818014D01*
Y1869932*
X781942*
Y1833860*
X799978Y1851896D02*
Y1869932D01*
X821622Y1861816D02*
X857694D01*
Y1897888*
X821622*
Y1861816*
X839658Y1879852D02*
Y1897888D01*
X837854Y1861816D02*
X873926D01*
Y1897888*
X837854*
Y1861816*
X855890Y1879852D02*
Y1897888D01*
X857694Y1805904D02*
X893766D01*
Y1841976*
X857694*
Y1805904*
X875730Y1823940D02*
Y1841976D01*
X1025429Y1856405D02*
X1061501D01*
Y1892477*
X1025429*
Y1856405*
X1043465Y1874441D02*
Y1892477D01*
X1025429Y1876245D02*
X1061501D01*
Y1912317*
X1025429*
Y1876245*
X1043465Y1894281D02*
Y1912317D01*
X1035349Y1795984D02*
X1071421D01*
Y1832056*
X1035349*
Y1795984*
X1053385Y1814020D02*
Y1832056D01*
X1082694Y1805002D02*
X1118766D01*
Y1841074*
X1082694*
Y1805002*
X1100730Y1823038D02*
Y1841074D01*
X1069167Y1805002D02*
X1105239D01*
Y1841074*
X1069167*
Y1805002*
X1087203Y1823038D02*
Y1841074D01*
X1236000Y1805002D02*
X1272073D01*
Y1841074*
X1236000*
Y1805002*
X1254036Y1823038D02*
Y1841074D01*
X1754537Y1795984D02*
X1790610D01*
Y1832056*
X1754537*
Y1795984*
X1772574Y1814020D02*
Y1832056D01*
X1770319Y1795984D02*
X1806391D01*
Y1832056*
X1770319*
Y1795984*
X1788355Y1814020D02*
Y1832056D01*
X1738756Y1814020D02*
X1774828D01*
Y1850093*
X1738756*
Y1814020*
X1756792Y1832056D02*
Y1850093D01*
X1722974Y1814020D02*
X1759046D01*
Y1850093*
X1722974*
Y1814020*
X1741010Y1832056D02*
Y1850093D01*
X519968Y1891125D02*
X556040D01*
Y1927197*
X519968*
Y1891125*
X538004Y1909161D02*
Y1927197D01*
X519968D02*
X556040D01*
Y1963269*
X519968*
Y1927197*
X538004Y1945233D02*
Y1963269D01*
X562804Y1927197D02*
X598876D01*
Y1963269*
X562804*
Y1927197*
X580840Y1945233D02*
Y1963269D01*
X562804Y1892477D02*
X598876D01*
Y1928549*
X562804*
Y1892477*
X580840Y1910513D02*
Y1928549D01*
X793666Y1946585D02*
X829738D01*
Y1982658*
X793666*
Y1946585*
X811702Y1964622D02*
Y1982658D01*
X846872Y1930353D02*
X882944D01*
Y1966425*
X846872*
Y1930353*
X864908Y1948389D02*
Y1966425D01*
X870770Y1945684D02*
X906842D01*
Y1981756*
X870770*
Y1945684*
X888806Y1963720D02*
Y1981756D01*
X1025429Y1893379D02*
X1061501D01*
Y1929451*
X1025429*
Y1893379*
X1043465Y1911415D02*
Y1929451D01*
X1314908Y1944782D02*
X1350980D01*
Y1980854*
X1314908*
Y1944782*
X1332944Y1962818D02*
Y1980854D01*
X1673375Y1965072D02*
X1709447D01*
Y2001145*
X1673375*
Y1965072*
X1691411Y1983109D02*
Y2001145D01*
X1844718Y1962818D02*
X1880790D01*
Y1998890*
X1844718*
Y1962818*
X1862754Y1980854D02*
Y1998890D01*
X1810900Y1960563D02*
X1846972D01*
Y1996636*
X1810900*
Y1960563*
X1828936Y1978600D02*
Y1996636D01*
X2058896Y1962818D02*
X2094968D01*
Y1998890*
X2058896*
Y1962818*
X2076932Y1980854D02*
Y1998890D01*
X2090459Y1951545D02*
X2126531D01*
Y1987618*
X2090459*
Y1951545*
X2108495Y1969581D02*
Y1987618D01*
X2297874Y1922237D02*
X2333946D01*
Y1958309*
X2297874*
Y1922237*
X2315910Y1940273D02*
Y1958309D01*
X2333946Y1922237D02*
X2370018D01*
Y1958309*
X2333946*
Y1922237*
X2351982Y1940273D02*
Y1958309D01*
X699427Y2032708D02*
X735499D01*
Y2068780*
X699427*
Y2032708*
X717463Y2050744D02*
Y2068780D01*
X699427Y2003399D02*
X735499D01*
Y2039471*
X699427*
Y2003399*
X717463Y2021435D02*
Y2039471D01*
X728736Y2034962D02*
X764808D01*
Y2071034*
X728736*
Y2034962*
X746772Y2052998D02*
Y2071034D01*
X728736Y2003399D02*
X764808D01*
Y2039471*
X728736*
Y2003399*
X746772Y2021435D02*
Y2039471D01*
X976732Y2032708D02*
X1012804D01*
Y2068780*
X976732*
Y2032708*
X994768Y2050744D02*
Y2068780D01*
X974477Y2003399D02*
X1010549D01*
Y2039471*
X974477*
Y2003399*
X992513Y2021435D02*
Y2039471D01*
X942914Y2003399D02*
X978986D01*
Y2039471*
X942914*
Y2003399*
X960950Y2021435D02*
Y2039471D01*
X942914Y2032708D02*
X978986D01*
Y2068780*
X942914*
Y2032708*
X960950Y2050744D02*
Y2068780D01*
X1035349Y2048489D02*
X1071421D01*
Y2084561*
X1035349*
Y2048489*
X1053385Y2066525D02*
Y2084561D01*
X1427634Y2010163D02*
X1463706D01*
Y2046235*
X1427634*
Y2010163*
X1445670Y2028199D02*
Y2046235D01*
X1427634Y2034962D02*
X1463706D01*
Y2071034*
X1427634*
Y2034962*
X1445670Y2052998D02*
Y2071034D01*
X1454688Y2034962D02*
X1490760D01*
Y2071034*
X1454688*
Y2034962*
X1472724Y2052998D02*
Y2071034D01*
X1454688Y2010163D02*
X1490760D01*
Y2046235*
X1454688*
Y2010163*
X1472724Y2028199D02*
Y2046235D01*
X1673375Y1980854D02*
X1709447D01*
Y2016926*
X1673375*
Y1980854*
X1691411Y1998890D02*
Y2016926D01*
X1675630Y2032708D02*
X1711702D01*
Y2068780*
X1675630*
Y2032708*
X1693666Y2050744D02*
Y2068780D01*
X1702511Y2053735D02*
X1738583D01*
Y2089807*
X1702511*
Y2053735*
X1720547Y2071771D02*
Y2089807D01*
X1648576Y2023690D02*
X1684648D01*
Y2059762*
X1648576*
Y2023690*
X1666612Y2041726D02*
Y2059762D01*
X1720720Y2029551D02*
X1756792D01*
Y2065624*
X1720720*
Y2029551*
X1738756Y2047587D02*
Y2065624D01*
X1737854Y2027748D02*
X1773926D01*
Y2063820*
X1737854*
Y2027748*
X1755890Y2045784D02*
Y2063820D01*
X1894317Y1998890D02*
X1930389D01*
Y2034962*
X1894317*
Y1998890*
X1912353Y2016926D02*
Y2034962D01*
X1871772Y1998890D02*
X1907844D01*
Y2034962*
X1871772*
Y1998890*
X1889808Y2016926D02*
Y2034962D01*
X1844718Y1998890D02*
X1880790D01*
Y2034962*
X1844718*
Y1998890*
X1862754Y2016926D02*
Y2034962D01*
X1813155Y1998890D02*
X1849227D01*
Y2034962*
X1813155*
Y1998890*
X1831191Y2016926D02*
Y2034962D01*
X1892063Y2057507D02*
X1928135D01*
Y2093579*
X1892063*
X1892063D02*
Y2057507D01*
X1910099Y2075543D02*
Y2093579D01*
X2058896Y1980854D02*
X2094968D01*
Y2016926*
X2058896*
Y1980854*
X2076932Y1998890D02*
Y2016926D01*
X2036351Y2032708D02*
X2072423D01*
Y2068780*
X2036351*
Y2032708*
X2054387Y2050744D02*
Y2068780D01*
Y2023690D02*
X2090459D01*
Y2059762*
X2054387*
Y2023690*
X2072423Y2041726D02*
Y2059762D01*
X2110750Y2030453D02*
X2146822D01*
Y2066525*
X2110750*
Y2030453*
X2128786Y2048489D02*
Y2066525D01*
X2126531Y2042177D02*
X2162604D01*
Y2078249*
X2126531*
Y2042177*
X2144568Y2060213D02*
Y2078249D01*
X2083696Y2030453D02*
X2119768D01*
Y2066525*
X2083696*
Y2030453*
X2101732Y2048489D02*
Y2066525D01*
X2125630Y1979952D02*
X2161702D01*
Y2016024*
X2125630*
Y1979952*
X2143666Y1997988D02*
Y2016024D01*
X2140058Y2034962D02*
X2176131D01*
Y2071034*
X2140058*
Y2034962*
X2158095Y2052998D02*
Y2071034D01*
X2152684Y1979952D02*
X2188756D01*
Y2016024*
X2152684*
Y1979952*
X2170720Y1997988D02*
Y2016024D01*
X2149077Y2025944D02*
X2185149D01*
Y2062016*
X2149077*
Y2025944*
X2167113Y2043980D02*
Y2062016D01*
X2234748Y2034962D02*
X2270820D01*
Y2071034*
X2234748*
Y2034962*
X2252784Y2052998D02*
Y2071034D01*
X2234748Y2003399D02*
X2270820D01*
Y2039471*
X2234748*
Y2003399*
X2252784Y2021435D02*
Y2039471D01*
X699427Y2062016D02*
X735499D01*
Y2098088*
X735499D02*
X699427D01*
X699427D02*
Y2062016D01*
X717463Y2080052D02*
Y2098088D01*
X728736Y2062016D02*
X764808D01*
Y2098088*
X764808D02*
X728736D01*
X728736D02*
Y2062016D01*
X746772Y2080052D02*
Y2098088D01*
X942914Y2066525D02*
X978986D01*
Y2102598*
X942914*
Y2066525*
X960950Y2084561D02*
Y2102598D01*
X976732Y2066525D02*
X1012804D01*
Y2102598*
X976732*
Y2066525*
X994768Y2084561D02*
Y2102598D01*
X1427634Y2059762D02*
X1463706D01*
Y2095834*
X1427634*
Y2059762*
X1445670Y2077798D02*
Y2095834D01*
X1454688Y2059762D02*
X1490760D01*
Y2095834*
X1454688*
Y2059762*
X1472724Y2077798D02*
Y2095834D01*
X1486251Y2059762D02*
X1522323D01*
Y2095834*
X1486251*
Y2059762*
X1504287Y2077798D02*
Y2095834D01*
X1556141Y2064271D02*
X1592213D01*
Y2100343*
X1556141*
Y2064271*
X1574177Y2082307D02*
Y2100343D01*
X1963305Y2062016D02*
X1999377D01*
Y2098088*
X1999377D02*
X1963305D01*
X1963305D02*
Y2062016D01*
X1981341Y2080052D02*
Y2098088D01*
X502965Y2282958D02*
X1393041D01*
X502965D02*
X548056Y2294231D01*
Y2271686*
X502965Y2282958*
X2455690D02*
X1565614D01*
X2455690D02*
X2410600Y2271686D01*
Y2294231*
X2455690Y2282958*
X502965Y2019321D02*
Y2305503D01*
X2455690Y2003701D02*
Y2305503D01*
X273325Y889086D02*
Y1479971D01*
Y889086D02*
X262052Y934176D01*
X284598*
X273325Y889086*
Y2131729D02*
Y1540843D01*
Y2131729D02*
X284598Y2086638D01*
X262052*
X273325Y2131729*
X676952Y889086D02*
X250780D01*
X628141Y2131729D02*
X250780D01*
X2633546Y1971025D02*
X3796872D01*
X2633546Y1862808D02*
X3796872D01*
X2633546Y1754592D02*
X3796872D01*
X2633546Y1646375D02*
X3796872D01*
X2633546Y1538159D02*
X3796872D01*
X2633546Y1429943D02*
X3796872D01*
X2633546Y1321726D02*
X3796872D01*
X2633546Y1213510D02*
X3796872D01*
X2633546Y1105293D02*
X3796872D01*
X2633546Y997077D02*
X3796872D01*
X2633546Y888860D02*
X3796872D01*
X2633546Y1971025D02*
Y888860D01*
X3012303Y1971025D02*
Y888860D01*
X3174628Y1971025D02*
Y888860D01*
X3336952Y1971025D02*
Y888860D01*
X3580439Y1971025D02*
Y888860D01*
X3796872Y1971025D02*
Y888860D01*
X2763487Y1889862D02*
X2770456Y1900571D01*
X2772095Y1909589*
Y1924244*
X2773735Y1925371*
X2805708*
X2807348Y1924244*
Y1912407*
X2805708Y1911280*
X2772095*
X2790541D02*
X2793821Y1903389D01*
X2802429Y1894935*
X2812677Y1889862*
X2838911Y1901699D02*
X2835632Y1907335D01*
X2830713Y1911280*
X2823744Y1919171D02*
X2869244D01*
X2859406Y1927062D02*
Y1889862D01*
X2857767Y1888735*
X2845879Y1890990*
X3034028Y1903389D02*
X3057803D01*
X3054524D02*
X3050835Y1896626D01*
X3045916Y1892681*
X3035668Y1888735*
X3054524D02*
X3045916Y1893808D01*
X3037308Y1896626*
Y1897753*
X3042636Y1901699*
X3045916Y1907335*
Y1908462D02*
Y1927062D01*
X3035668D02*
X3038947Y1921426D01*
X3050835D02*
X3054524Y1927062D01*
X3057803Y1919171D02*
X3035668D01*
X3034028Y1909589D02*
X3040997Y1913535D01*
X3045916Y1919171*
X3056164Y1912407*
X3059443D02*
X3062722Y1920298D01*
Y1927062*
Y1920298D02*
X3084857D01*
X3081578D02*
X3077889Y1908462D01*
X3069691Y1894935*
X3061082Y1888735*
X3083218D02*
X3076249Y1894935D01*
X3068051Y1908462*
X3064362Y1920298*
X3094285Y1889862D02*
X3143474D01*
X3139785Y1894935D02*
X3097564D01*
X3101254Y1901699D02*
Y1909589D01*
X3102893Y1911280*
X3136506*
X3138146Y1909589*
Y1901699*
X3136506Y1900571*
X3102893*
X3101254Y1901699*
Y1905644D02*
X3138146D01*
X3119700Y1911280D02*
Y1889862D01*
X3095925Y1915226D02*
X3145114D01*
X3101254Y1920298D02*
Y1925371D01*
X3102893Y1927062*
X3136506*
X3138146Y1925371*
Y1920298*
X3136506Y1919171*
X3102893*
X3101254Y1920298*
Y1923116D02*
X3138146D01*
X3199632Y1905644D02*
X3206601Y1911280D01*
X3211520Y1917480*
X3206601Y1911280D02*
Y1888735D01*
X3226686Y1897753D02*
X3220128Y1904517D01*
X3216849Y1911280D02*
X3247182D01*
X3240213Y1916353D02*
Y1889862D01*
X3238574Y1888735*
X3232015Y1889862*
X3226686Y1897753D02*
X3220128Y1904517D01*
X3196353Y1920298D02*
X3203321Y1924244D01*
X3204961Y1928189*
X3203321Y1924244D02*
X3221767D01*
X3214799Y1919171D02*
X3208240Y1924244D01*
X3230376Y1928189D02*
X3228326Y1924244D01*
X3223407Y1920298*
X3228326Y1924244D02*
X3247182D01*
X3240213Y1919171D02*
X3235294Y1924244D01*
X3256610Y1908462D02*
X3304159D01*
X3270137D02*
X3266858Y1901699D01*
X3268497Y1900571*
X3295551*
X3297191Y1899444*
X3295551Y1889862*
X3293912Y1888735*
X3280385Y1889862*
X3265218Y1916353D02*
Y1924244D01*
X3266858Y1925371*
X3295551*
X3297191Y1924244*
Y1916353*
X3295551Y1915226*
X3266858*
X3265218Y1916353*
X3469968Y1916917D02*
Y1918607D01*
X3471198Y1921989*
X3472428Y1923680*
X3474887Y1925371*
X3479806*
X3482266Y1923680*
X3483495Y1921989*
X3484725Y1918607*
Y1915226*
X3483495Y1911844*
X3482266Y1910153*
X3477347Y1906771*
Y1901699*
Y1893244D02*
X3476117Y1891553D01*
X3477347Y1889862*
X3478577Y1891553*
X3477347Y1893244*
X3495793Y1916917D02*
Y1918607D01*
X3497022Y1921989*
X3498252Y1923680*
X3500712Y1925371*
X3505631*
X3508090Y1923680*
X3509320Y1921989*
X3510550Y1918607*
Y1915226*
X3509320Y1911844*
X3508090Y1910153*
X3503171Y1906771*
Y1901699*
Y1893244D02*
X3501941Y1891553D01*
X3503171Y1889862*
X3504401Y1891553*
X3503171Y1893244*
X3655658Y1925371D02*
Y1889862D01*
X3647050Y1925371D02*
X3664266D01*
X3682712D02*
X3680253Y1923680D01*
X3677793Y1920298*
X3676563Y1916917*
X3675334Y1911844*
Y1903389*
X3676563Y1898317*
X3677793Y1894935*
X3680253Y1891553*
X3682712Y1889862*
X3687631*
X3690090Y1891553*
X3692550Y1894935*
X3693780Y1898317*
X3695009Y1903389*
Y1911844*
X3693780Y1916917*
X3692550Y1920298*
X3690090Y1923680*
X3687631Y1925371*
X3682712*
X3706077D02*
Y1889862D01*
X3720834*
X2677816Y1817154D02*
X2665519Y1781646D01*
X2660600Y1817154D02*
X2677816D01*
X2696262D02*
X2692573Y1815464D01*
X2690113Y1810391*
X2688883Y1801937*
Y1796864*
X2690113Y1788409*
X2692573Y1783337*
X2696262Y1781646*
X2698721*
X2702411Y1783337*
X2704870Y1788409*
X2706100Y1796864*
Y1801937*
X2704870Y1810391*
X2702411Y1815464*
X2698721Y1817154*
X2696262*
X2718397Y1785028D02*
X2717167Y1783337D01*
X2718397Y1781646*
X2719627Y1783337*
X2718397Y1785028*
X2736843Y1817154D02*
X2733154Y1815464D01*
X2731924Y1812082*
Y1808700*
X2733154Y1805318*
X2735613Y1803627*
X2740532Y1801937*
X2744221Y1800246*
X2746681Y1796864*
X2747911Y1793482*
Y1788409*
X2746681Y1785028*
X2745451Y1783337*
X2741762Y1781646*
X2736843*
X2733154Y1783337*
X2731924Y1785028*
X2730694Y1788409*
Y1793482*
X2731924Y1796864*
X2734384Y1800246*
X2738073Y1801937*
X2742992Y1803627*
X2745451Y1805318*
X2746681Y1808700*
Y1812082*
X2745451Y1815464*
X2741762Y1817154*
X2736843*
X2776194D02*
X2763897Y1781646D01*
X2758978Y1817154D02*
X2776194D01*
X3081373Y1808700D02*
Y1810391D01*
X3082603Y1813773*
X3083832Y1815464*
X3086292Y1817154*
X3091211*
X3093670Y1815464*
X3094900Y1813773*
X3096130Y1810391*
Y1807009*
X3094900Y1803627*
X3092441Y1798555*
X3080143Y1781646*
X3097360*
X3228736Y1808700D02*
X3282844D01*
X3255790Y1781646D02*
Y1835754D01*
X3375894Y1817154D02*
X3385732Y1800246D01*
Y1781646*
X3395570Y1817154D02*
X3385732Y1800246D01*
X3406637Y1817154D02*
Y1781646D01*
Y1817154D02*
X3422624D01*
X3406637Y1800246D02*
X3416475D01*
X3406637Y1781646D02*
X3422624D01*
X3450908Y1812082D02*
X3448448Y1815464D01*
X3444759Y1817154*
X3439840*
X3436151Y1815464*
X3433691Y1812082*
Y1808700*
X3434921Y1805318*
X3436151Y1803627*
X3438610Y1801937*
X3445989Y1798555*
X3448448Y1796864*
X3449678Y1795173*
X3450908Y1791791*
Y1786719*
X3448448Y1783337*
X3444759Y1781646*
X3439840*
X3436151Y1783337*
X3433691Y1786719*
X3615692Y1812082D02*
Y1781646D01*
X3604624Y1796864D02*
X3626759D01*
X3659962Y1823918D02*
X3637827Y1769810D01*
X3671030Y1796864D02*
X3693165D01*
X3711611Y1817154D02*
X3707922Y1815464D01*
X3705462Y1810391*
X3704232Y1801937*
Y1796864*
X3705462Y1788409*
X3707922Y1783337*
X3711611Y1781646*
X3714070*
X3717759Y1783337*
X3720219Y1788409*
X3721449Y1796864*
Y1801937*
X3720219Y1810391*
X3717759Y1815464*
X3714070Y1817154*
X3711611*
X3733746Y1785028D02*
X3732516Y1783337D01*
X3733746Y1781646*
X3734976Y1783337*
X3733746Y1785028*
X3753422Y1817154D02*
X3749732Y1815464D01*
X3747273Y1810391*
X3746043Y1801937*
Y1796864*
X3747273Y1788409*
X3749732Y1783337*
X3753422Y1781646*
X3755881*
X3759570Y1783337*
X3762030Y1788409*
X3763260Y1796864*
Y1801937*
X3762030Y1810391*
X3759570Y1815464*
X3755881Y1817154*
X3753422*
X2676586Y1708938D02*
X2664289D01*
X2663059Y1693720*
X2664289Y1695411*
X2667978Y1697102*
X2671667*
X2675356Y1695411*
X2677816Y1692029*
X2679046Y1686957*
X2677816Y1683575*
X2676586Y1678502*
X2674127Y1675120*
X2670437Y1673430*
X2666748*
X2663059Y1675120*
X2661829Y1676811*
X2660600Y1680193*
X2706100Y1697102D02*
X2704870Y1692029D01*
X2702411Y1688647*
X2698721Y1686957*
X2697492*
X2693802Y1688647*
X2691343Y1692029*
X2690113Y1697102*
Y1698793*
X2691343Y1703865*
X2693802Y1707247*
X2697492Y1708938*
X2698721*
X2702411Y1707247*
X2704870Y1703865*
X2706100Y1697102*
Y1688647*
X2704870Y1680193*
X2702411Y1675120*
X2698721Y1673430*
X2696262*
X2692573Y1675120*
X2691343Y1678502*
X2718397Y1676811D02*
X2717167Y1675120D01*
X2718397Y1673430*
X2719627Y1675120*
X2718397Y1676811*
X2738073Y1708938D02*
X2734384Y1707247D01*
X2731924Y1702175*
X2730694Y1693720*
Y1688647*
X2731924Y1680193*
X2734384Y1675120*
X2738073Y1673430*
X2740532*
X2744221Y1675120*
X2746681Y1680193*
X2747911Y1688647*
Y1693720*
X2746681Y1702175*
X2744221Y1707247*
X2740532Y1708938*
X2738073*
X2773735Y1703865D02*
X2772505Y1707247D01*
X2768816Y1708938*
X2766357*
X2762667Y1707247*
X2760208Y1702175*
X2758978Y1693720*
Y1685266*
X2760208Y1678502*
X2762667Y1675120*
X2766357Y1673430*
X2767586*
X2771276Y1675120*
X2773735Y1678502*
X2774965Y1683575*
Y1685266*
X2773735Y1690338*
X2771276Y1693720*
X2767586Y1695411*
X2766357*
X2762667Y1693720*
X2760208Y1690338*
X2758978Y1685266*
X3081373Y1700484D02*
Y1702175D01*
X3082603Y1705556*
X3083832Y1707247*
X3086292Y1708938*
X3091211*
X3093670Y1707247*
X3094900Y1705556*
X3096130Y1702175*
Y1698793*
X3094900Y1695411*
X3092441Y1690338*
X3080143Y1673430*
X3097360*
X3228736D02*
X3282844Y1727538D01*
X3228736D02*
X3282844Y1673430D01*
X3375894Y1708938D02*
X3385732Y1692029D01*
Y1673430*
X3395570Y1708938D02*
X3385732Y1692029D01*
X3406637Y1708938D02*
Y1673430D01*
Y1708938D02*
X3422624D01*
X3406637Y1692029D02*
X3416475D01*
X3406637Y1673430D02*
X3422624D01*
X3450908Y1703865D02*
X3448448Y1707247D01*
X3444759Y1708938*
X3439840*
X3436151Y1707247*
X3433691Y1703865*
Y1700484*
X3434921Y1697102*
X3436151Y1695411*
X3438610Y1693720*
X3445989Y1690338*
X3448448Y1688647*
X3449678Y1686957*
X3450908Y1683575*
Y1678502*
X3448448Y1675120*
X3444759Y1673430*
X3439840*
X3436151Y1675120*
X3433691Y1678502*
X3615692Y1703865D02*
Y1673430D01*
X3604624Y1688647D02*
X3626759D01*
X3659962Y1715702D02*
X3637827Y1661593D01*
X3671030Y1688647D02*
X3693165D01*
X3711611Y1708938D02*
X3707922Y1707247D01*
X3705462Y1702175*
X3704232Y1693720*
Y1688647*
X3705462Y1680193*
X3707922Y1675120*
X3711611Y1673430*
X3714070*
X3717759Y1675120*
X3720219Y1680193*
X3721449Y1688647*
Y1693720*
X3720219Y1702175*
X3717759Y1707247*
X3714070Y1708938*
X3711611*
X3733746Y1676811D02*
X3732516Y1675120D01*
X3733746Y1673430*
X3734976Y1675120*
X3733746Y1676811*
X3753422Y1708938D02*
X3749732Y1707247D01*
X3747273Y1702175*
X3746043Y1693720*
Y1688647*
X3747273Y1680193*
X3749732Y1675120*
X3753422Y1673430*
X3755881*
X3759570Y1675120*
X3762030Y1680193*
X3763260Y1688647*
Y1693720*
X3762030Y1702175*
X3759570Y1707247*
X3755881Y1708938*
X3753422*
X2660600Y1593958D02*
X2663059Y1595649D01*
X2666748Y1600722*
Y1565213*
X2685194Y1600722D02*
X2681505Y1599031D01*
X2679046Y1593958*
X2677816Y1585504*
Y1580431*
X2679046Y1571977*
X2681505Y1566904*
X2685194Y1565213*
X2687654*
X2691343Y1566904*
X2693802Y1571977*
X2695032Y1580431*
Y1585504*
X2693802Y1593958*
X2691343Y1599031*
X2687654Y1600722*
X2685194*
X3052474Y1592267D02*
Y1593958D01*
X3053704Y1597340*
X3054934Y1599031*
X3057393Y1600722*
X3062312*
X3064772Y1599031*
X3066001Y1597340*
X3067231Y1593958*
Y1590576*
X3066001Y1587195*
X3063542Y1582122*
X3051245Y1565213*
X3068461*
X3091826Y1600722D02*
X3079528Y1577049D01*
X3097974*
X3091826Y1600722D02*
Y1565213D01*
X3126258Y1600722D02*
X3113961Y1565213D01*
X3109042Y1600722D02*
X3126258D01*
X3228736Y1565213D02*
X3282844D01*
Y1619321*
X3228736*
Y1565213*
X3255790Y1592267D02*
Y1619321D01*
X3375894Y1600722D02*
X3385732Y1583813D01*
Y1565213*
X3395570Y1600722D02*
X3385732Y1583813D01*
X3406637Y1600722D02*
Y1565213D01*
Y1600722D02*
X3422624D01*
X3406637Y1583813D02*
X3416475D01*
X3406637Y1565213D02*
X3422624D01*
X3450908Y1595649D02*
X3448448Y1599031D01*
X3444759Y1600722*
X3439840*
X3436151Y1599031*
X3433691Y1595649*
Y1592267*
X3434921Y1588885*
X3436151Y1587195*
X3438610Y1585504*
X3445989Y1582122*
X3448448Y1580431*
X3449678Y1578740*
X3450908Y1575358*
Y1570286*
X3448448Y1566904*
X3444759Y1565213*
X3439840*
X3436151Y1566904*
X3433691Y1570286*
X3615692Y1595649D02*
Y1565213D01*
X3604624Y1580431D02*
X3626759D01*
X3659962Y1607485D02*
X3637827Y1553377D01*
X3671030Y1580431D02*
X3693165D01*
X3711611Y1600722D02*
X3707922Y1599031D01*
X3705462Y1593958*
X3704232Y1585504*
Y1580431*
X3705462Y1571977*
X3707922Y1566904*
X3711611Y1565213*
X3714070*
X3717759Y1566904*
X3720219Y1571977*
X3721449Y1580431*
Y1585504*
X3720219Y1593958*
X3717759Y1599031*
X3714070Y1600722*
X3711611*
X3733746Y1568595D02*
X3732516Y1566904D01*
X3733746Y1565213*
X3734976Y1566904*
X3733746Y1568595*
X3753422Y1600722D02*
X3749732Y1599031D01*
X3747273Y1593958*
X3746043Y1585504*
Y1580431*
X3747273Y1571977*
X3749732Y1566904*
X3753422Y1565213*
X3755881*
X3759570Y1566904*
X3762030Y1571977*
X3763260Y1580431*
Y1585504*
X3762030Y1593958*
X3759570Y1599031*
X3755881Y1600722*
X3753422*
X2672897Y1492505D02*
X2660600Y1468833D01*
X2679046*
X2672897Y1492505D02*
Y1456997D01*
X2697492Y1492505D02*
X2693802Y1490814D01*
X2691343Y1485742*
X2690113Y1477287*
Y1472215*
X2691343Y1463760*
X2693802Y1458688*
X2697492Y1456997*
X2699951*
X2703640Y1458688*
X2706100Y1463760*
X2707329Y1472215*
Y1477287*
X2706100Y1485742*
X2703640Y1490814*
X2699951Y1492505*
X2697492*
X2719627Y1460378D02*
X2718397Y1458688D01*
X2719627Y1456997*
X2720857Y1458688*
X2719627Y1460378*
X2731924Y1485742D02*
X2734384Y1487433D01*
X2738073Y1492505*
Y1456997*
X2763897Y1487433D02*
X2762667Y1490814D01*
X2758978Y1492505*
X2756519*
X2752830Y1490814*
X2750370Y1485742*
X2749140Y1477287*
Y1468833*
X2750370Y1462069*
X2752830Y1458688*
X2756519Y1456997*
X2757748*
X2761438Y1458688*
X2763897Y1462069*
X2765127Y1467142*
Y1468833*
X2763897Y1473905*
X2761438Y1477287*
X2757748Y1478978*
X2756519*
X2752830Y1477287*
X2750370Y1473905*
X2749140Y1468833*
X3066616Y1484051D02*
Y1485742D01*
X3067846Y1489123*
X3069076Y1490814*
X3071535Y1492505*
X3076454*
X3078914Y1490814*
X3080143Y1489123*
X3081373Y1485742*
Y1482360*
X3080143Y1478978*
X3077684Y1473905*
X3065386Y1456997*
X3082603*
X3105968Y1492505D02*
X3093670Y1468833D01*
X3112116*
X3105968Y1492505D02*
Y1456997D01*
X3255790D02*
X3282844Y1484051D01*
X3255790Y1511105*
X3228736Y1484051*
X3255790Y1456997*
Y1484051D02*
Y1511105D01*
X3375894Y1492505D02*
X3385732Y1475596D01*
Y1456997*
X3395570Y1492505D02*
X3385732Y1475596D01*
X3406637Y1492505D02*
Y1456997D01*
Y1492505D02*
X3422624D01*
X3406637Y1475596D02*
X3416475D01*
X3406637Y1456997D02*
X3422624D01*
X3450908Y1487433D02*
X3448448Y1490814D01*
X3444759Y1492505*
X3439840*
X3436151Y1490814*
X3433691Y1487433*
Y1484051*
X3434921Y1480669*
X3436151Y1478978*
X3438610Y1477287*
X3445989Y1473905*
X3448448Y1472215*
X3449678Y1470524*
X3450908Y1467142*
Y1462069*
X3448448Y1458688*
X3444759Y1456997*
X3439840*
X3436151Y1458688*
X3433691Y1462069*
X3615692Y1487433D02*
Y1456997D01*
X3604624Y1472215D02*
X3626759D01*
X3659962Y1499269D02*
X3637827Y1445160D01*
X3671030Y1472215D02*
X3693165D01*
X3711611Y1492505D02*
X3707922Y1490814D01*
X3705462Y1485742*
X3704232Y1477287*
Y1472215*
X3705462Y1463760*
X3707922Y1458688*
X3711611Y1456997*
X3714070*
X3717759Y1458688*
X3720219Y1463760*
X3721449Y1472215*
Y1477287*
X3720219Y1485742*
X3717759Y1490814*
X3714070Y1492505*
X3711611*
X3733746Y1460378D02*
X3732516Y1458688D01*
X3733746Y1456997*
X3734976Y1458688*
X3733746Y1460378*
X3753422Y1492505D02*
X3749732Y1490814D01*
X3747273Y1485742*
X3746043Y1477287*
Y1472215*
X3747273Y1463760*
X3749732Y1458688*
X3753422Y1456997*
X3755881*
X3759570Y1458688*
X3762030Y1463760*
X3763260Y1472215*
Y1477287*
X3762030Y1485742*
X3759570Y1490814*
X3755881Y1492505*
X3753422*
X2660600Y1377525D02*
X2663059Y1379216D01*
X2666748Y1384289*
Y1348780*
X2685194Y1384289D02*
X2681505Y1382598D01*
X2679046Y1377525*
X2677816Y1369071*
Y1363998*
X2679046Y1355544*
X2681505Y1350471*
X2685194Y1348780*
X2687654*
X2691343Y1350471*
X2693802Y1355544*
X2695032Y1363998*
Y1369071*
X2693802Y1377525*
X2691343Y1382598*
X2687654Y1384289*
X2685194*
X2720857Y1379216D02*
X2719627Y1382598D01*
X2715938Y1384289*
X2713478*
X2709789Y1382598*
X2707329Y1377525*
X2706100Y1369071*
Y1360616*
X2707329Y1353853*
X2709789Y1350471*
X2713478Y1348780*
X2714708*
X2718397Y1350471*
X2720857Y1353853*
X2722086Y1358926*
Y1360616*
X2720857Y1365689*
X2718397Y1369071*
X2714708Y1370762*
X2713478*
X2709789Y1369071*
X2707329Y1365689*
X2706100Y1360616*
X2734384Y1352162D02*
X2733154Y1350471D01*
X2734384Y1348780*
X2735613Y1350471*
X2734384Y1352162*
X2749140Y1384289D02*
X2762667D01*
X2755289Y1370762*
X2758978*
X2761438Y1369071*
X2762667Y1367380*
X2763897Y1362307*
Y1358926*
X2762667Y1353853*
X2760208Y1350471*
X2756519Y1348780*
X2752830*
X2749140Y1350471*
X2747911Y1352162*
X2746681Y1355544*
X3081373Y1375834D02*
Y1377525D01*
X3082603Y1380907*
X3083832Y1382598*
X3086292Y1384289*
X3091211*
X3093670Y1382598*
X3094900Y1380907*
X3096130Y1377525*
Y1374143*
X3094900Y1370762*
X3092441Y1365689*
X3080143Y1348780*
X3097360*
X3228736D02*
X3282844D01*
X3228736Y1402888*
X3282844*
X3228736Y1348780*
X3375894Y1384289D02*
X3385732Y1367380D01*
Y1348780*
X3395570Y1384289D02*
X3385732Y1367380D01*
X3406637Y1384289D02*
Y1348780D01*
Y1384289D02*
X3422624D01*
X3406637Y1367380D02*
X3416475D01*
X3406637Y1348780D02*
X3422624D01*
X3450908Y1379216D02*
X3448448Y1382598D01*
X3444759Y1384289*
X3439840*
X3436151Y1382598*
X3433691Y1379216*
Y1375834*
X3434921Y1372453*
X3436151Y1370762*
X3438610Y1369071*
X3445989Y1365689*
X3448448Y1363998*
X3449678Y1362307*
X3450908Y1358926*
Y1353853*
X3448448Y1350471*
X3444759Y1348780*
X3439840*
X3436151Y1350471*
X3433691Y1353853*
X3615692Y1379216D02*
Y1348780D01*
X3604624Y1363998D02*
X3626759D01*
X3659962Y1391052D02*
X3637827Y1336944D01*
X3671030Y1363998D02*
X3693165D01*
X3711611Y1384289D02*
X3707922Y1382598D01*
X3705462Y1377525*
X3704232Y1369071*
Y1363998*
X3705462Y1355544*
X3707922Y1350471*
X3711611Y1348780*
X3714070*
X3717759Y1350471*
X3720219Y1355544*
X3721449Y1363998*
Y1369071*
X3720219Y1377525*
X3717759Y1382598*
X3714070Y1384289*
X3711611*
X3733746Y1352162D02*
X3732516Y1350471D01*
X3733746Y1348780*
X3734976Y1350471*
X3733746Y1352162*
X3753422Y1384289D02*
X3749732Y1382598D01*
X3747273Y1377525*
X3746043Y1369071*
Y1363998*
X3747273Y1355544*
X3749732Y1350471*
X3753422Y1348780*
X3755881*
X3759570Y1350471*
X3762030Y1355544*
X3763260Y1363998*
Y1369071*
X3762030Y1377525*
X3759570Y1382598*
X3755881Y1384289*
X3753422*
X2663059Y1276072D02*
X2676586D01*
X2669208Y1262545*
X2672897*
X2675356Y1260854*
X2676586Y1259164*
X2677816Y1254091*
Y1250709*
X2676586Y1245636*
X2674127Y1242255*
X2670437Y1240564*
X2666748*
X2663059Y1242255*
X2661829Y1243946*
X2660600Y1247327*
X2704870Y1276072D02*
X2692573D01*
X2691343Y1260854*
X2692573Y1262545*
X2696262Y1264236*
X2699951*
X2703640Y1262545*
X2706100Y1259164*
X2707329Y1254091*
X2706100Y1250709*
X2704870Y1245636*
X2702411Y1242255*
X2698721Y1240564*
X2695032*
X2691343Y1242255*
X2690113Y1243946*
X2688883Y1247327*
X2719627Y1243946D02*
X2718397Y1242255D01*
X2719627Y1240564*
X2720857Y1242255*
X2719627Y1243946*
X2744221Y1276072D02*
X2731924Y1252400D01*
X2750370*
X2744221Y1276072D02*
Y1240564D01*
X2763897Y1276072D02*
X2777424D01*
X2770046Y1262545*
X2773735*
X2776194Y1260854*
X2777424Y1259164*
X2778654Y1254091*
Y1250709*
X2777424Y1245636*
X2774965Y1242255*
X2771276Y1240564*
X2767586*
X2763897Y1242255*
X2762667Y1243946*
X2761438Y1247327*
X3057393Y1269309D02*
X3059853Y1271000D01*
X3063542Y1276072*
Y1240564*
X3075839Y1267618D02*
Y1269309D01*
X3077069Y1272691*
X3078299Y1274381*
X3080758Y1276072*
X3085677*
X3088137Y1274381*
X3089366Y1272691*
X3090596Y1269309*
Y1265927*
X3089366Y1262545*
X3086907Y1257473*
X3074609Y1240564*
X3091826*
X3110272Y1276072D02*
X3106583Y1274381D01*
X3104123Y1269309*
X3102893Y1260854*
Y1255782*
X3104123Y1247327*
X3106583Y1242255*
X3110272Y1240564*
X3112731*
X3116420Y1242255*
X3118880Y1247327*
X3120110Y1255782*
Y1260854*
X3118880Y1269309*
X3116420Y1274381*
X3112731Y1276072*
X3110272*
X3228736Y1240564D02*
X3282844Y1294672D01*
Y1240564*
X3228736Y1294672*
Y1240564*
X3375894Y1276072D02*
X3385732Y1259164D01*
Y1240564*
X3395570Y1276072D02*
X3385732Y1259164D01*
X3406637Y1276072D02*
Y1240564D01*
Y1276072D02*
X3422624D01*
X3406637Y1259164D02*
X3416475D01*
X3406637Y1240564D02*
X3422624D01*
X3450908Y1271000D02*
X3448448Y1274381D01*
X3444759Y1276072*
X3439840*
X3436151Y1274381*
X3433691Y1271000*
Y1267618*
X3434921Y1264236*
X3436151Y1262545*
X3438610Y1260854*
X3445989Y1257473*
X3448448Y1255782*
X3449678Y1254091*
X3450908Y1250709*
Y1245636*
X3448448Y1242255*
X3444759Y1240564*
X3439840*
X3436151Y1242255*
X3433691Y1245636*
X3615692Y1271000D02*
Y1240564D01*
X3604624Y1255782D02*
X3626759D01*
X3659962Y1282836D02*
X3637827Y1228728D01*
X3671030Y1255782D02*
X3693165D01*
X3711611Y1276072D02*
X3707922Y1274381D01*
X3705462Y1269309*
X3704232Y1260854*
Y1255782*
X3705462Y1247327*
X3707922Y1242255*
X3711611Y1240564*
X3714070*
X3717759Y1242255*
X3720219Y1247327*
X3721449Y1255782*
Y1260854*
X3720219Y1269309*
X3717759Y1274381*
X3714070Y1276072*
X3711611*
X3733746Y1243946D02*
X3732516Y1242255D01*
X3733746Y1240564*
X3734976Y1242255*
X3733746Y1243946*
X3753422Y1276072D02*
X3749732Y1274381D01*
X3747273Y1269309*
X3746043Y1260854*
Y1255782*
X3747273Y1247327*
X3749732Y1242255*
X3753422Y1240564*
X3755881*
X3759570Y1242255*
X3762030Y1247327*
X3763260Y1255782*
Y1260854*
X3762030Y1269309*
X3759570Y1274381*
X3755881Y1276072*
X3753422*
X2672897Y1167856D02*
X2660600Y1144184D01*
X2679046*
X2672897Y1167856D02*
Y1132347D01*
X2707329Y1167856D02*
X2695032Y1132347D01*
X2690113Y1167856D02*
X2707329D01*
X2719627Y1135729D02*
X2718397Y1134038D01*
X2719627Y1132347*
X2720857Y1134038*
X2719627Y1135729*
X2733154Y1159401D02*
Y1161092D01*
X2734384Y1164474*
X2735613Y1166165*
X2738073Y1167856*
X2742992*
X2745451Y1166165*
X2746681Y1164474*
X2747911Y1161092*
Y1157711*
X2746681Y1154329*
X2744221Y1149256*
X2731924Y1132347*
X2749140*
X2772505Y1167856D02*
X2760208Y1144184D01*
X2778654*
X2772505Y1167856D02*
Y1132347D01*
X3082603Y1167856D02*
X3096130D01*
X3088751Y1154329*
X3092441*
X3094900Y1152638*
X3096130Y1150947*
X3097360Y1145874*
Y1142493*
X3096130Y1137420*
X3093670Y1134038*
X3089981Y1132347*
X3086292*
X3082603Y1134038*
X3081373Y1135729*
X3080143Y1139111*
X3228736Y1159401D02*
X3282844D01*
X3255790Y1132347D02*
Y1186456D01*
X3277187Y1201335D02*
X3269317Y1172929D01*
X3277187Y1201335D02*
X3285058Y1172929D01*
X3272268Y1182397D02*
X3282106D01*
X3375894Y1167856D02*
X3385732Y1150947D01*
Y1132347*
X3395570Y1167856D02*
X3385732Y1150947D01*
X3406637Y1167856D02*
Y1132347D01*
Y1167856D02*
X3422624D01*
X3406637Y1150947D02*
X3416475D01*
X3406637Y1132347D02*
X3422624D01*
X3450908Y1162783D02*
X3448448Y1166165D01*
X3444759Y1167856*
X3439840*
X3436151Y1166165*
X3433691Y1162783*
Y1159401*
X3434921Y1156020*
X3436151Y1154329*
X3438610Y1152638*
X3445989Y1149256*
X3448448Y1147565*
X3449678Y1145874*
X3450908Y1142493*
Y1137420*
X3448448Y1134038*
X3444759Y1132347*
X3439840*
X3436151Y1134038*
X3433691Y1137420*
X3615692Y1162783D02*
Y1132347D01*
X3604624Y1147565D02*
X3626759D01*
X3659962Y1174619D02*
X3637827Y1120511D01*
X3671030Y1147565D02*
X3693165D01*
X3711611Y1167856D02*
X3707922Y1166165D01*
X3705462Y1161092*
X3704232Y1152638*
Y1147565*
X3705462Y1139111*
X3707922Y1134038*
X3711611Y1132347*
X3714070*
X3717759Y1134038*
X3720219Y1139111*
X3721449Y1147565*
Y1152638*
X3720219Y1161092*
X3717759Y1166165*
X3714070Y1167856*
X3711611*
X3733746Y1135729D02*
X3732516Y1134038D01*
X3733746Y1132347*
X3734976Y1134038*
X3733746Y1135729*
X3753422Y1167856D02*
X3749732Y1166165D01*
X3747273Y1161092*
X3746043Y1152638*
Y1147565*
X3747273Y1139111*
X3749732Y1134038*
X3753422Y1132347*
X3755881*
X3759570Y1134038*
X3762030Y1139111*
X3763260Y1147565*
Y1152638*
X3762030Y1161092*
X3759570Y1166165*
X3755881Y1167856*
X3753422*
X2675356Y1054567D02*
X2674127Y1057949D01*
X2670437Y1059639*
X2667978*
X2664289Y1057949*
X2661829Y1052876*
X2660600Y1044422*
Y1035967*
X2661829Y1029204*
X2664289Y1025822*
X2667978Y1024131*
X2669208*
X2672897Y1025822*
X2675356Y1029204*
X2676586Y1034276*
Y1035967*
X2675356Y1041040*
X2672897Y1044422*
X2669208Y1046112*
X2667978*
X2664289Y1044422*
X2661829Y1041040*
X2660600Y1035967*
X2688883Y1051185D02*
Y1052876D01*
X2690113Y1056258*
X2691343Y1057949*
X2693802Y1059639*
X2698721*
X2701181Y1057949*
X2702411Y1056258*
X2703640Y1052876*
Y1049494*
X2702411Y1046112*
X2699951Y1041040*
X2687654Y1024131*
X2704870*
X2717167Y1027513D02*
X2715938Y1025822D01*
X2717167Y1024131*
X2718397Y1025822*
X2717167Y1027513*
X2745451Y1047803D02*
X2744221Y1042731D01*
X2741762Y1039349*
X2738073Y1037658*
X2736843*
X2733154Y1039349*
X2730694Y1042731*
X2729465Y1047803*
Y1049494*
X2730694Y1054567*
X2733154Y1057949*
X2736843Y1059639*
X2738073*
X2741762Y1057949*
X2744221Y1054567*
X2745451Y1047803*
Y1039349*
X2744221Y1030894*
X2741762Y1025822*
X2738073Y1024131*
X2735613*
X2731924Y1025822*
X2730694Y1029204*
X2772505Y1047803D02*
X2771276Y1042731D01*
X2768816Y1039349*
X2765127Y1037658*
X2763897*
X2760208Y1039349*
X2757748Y1042731*
X2756519Y1047803*
Y1049494*
X2757748Y1054567*
X2760208Y1057949*
X2763897Y1059639*
X2765127*
X2768816Y1057949*
X2771276Y1054567*
X2772505Y1047803*
Y1039349*
X2771276Y1030894*
X2768816Y1025822*
X2765127Y1024131*
X2762667*
X2758978Y1025822*
X2757748Y1029204*
X3081373Y1051185D02*
Y1052876D01*
X3082603Y1056258*
X3083832Y1057949*
X3086292Y1059639*
X3091211*
X3093670Y1057949*
X3094900Y1056258*
X3096130Y1052876*
Y1049494*
X3094900Y1046112*
X3092441Y1041040*
X3080143Y1024131*
X3097360*
X3228736Y1051185D02*
X3282844D01*
X3255790Y1024131D02*
Y1078239D01*
X3269317Y1093119D02*
Y1064712D01*
Y1093119D02*
X3278171D01*
X3281122Y1091766*
X3281122D02*
X3282106Y1090414D01*
X3282106D02*
X3283090Y1087708D01*
Y1085003*
X3282106Y1082297*
X3281122Y1080945*
X3281122D02*
X3278171Y1079592D01*
X3269317D02*
X3278171D01*
X3281122Y1078239*
X3281122D02*
X3282106Y1076886D01*
X3283090Y1074181*
Y1070123*
X3282106Y1067418*
X3281122Y1066065*
X3281122D02*
X3278171Y1064712D01*
X3269317*
X3375894Y1059639D02*
X3385732Y1042731D01*
Y1024131*
X3395570Y1059639D02*
X3385732Y1042731D01*
X3406637Y1059639D02*
Y1024131D01*
Y1059639D02*
X3422624D01*
X3406637Y1042731D02*
X3416475D01*
X3406637Y1024131D02*
X3422624D01*
X3450908Y1054567D02*
X3448448Y1057949D01*
X3444759Y1059639*
X3439840*
X3436151Y1057949*
X3433691Y1054567*
Y1051185*
X3434921Y1047803*
X3436151Y1046112*
X3438610Y1044422*
X3445989Y1041040*
X3448448Y1039349*
X3449678Y1037658*
X3450908Y1034276*
Y1029204*
X3448448Y1025822*
X3444759Y1024131*
X3439840*
X3436151Y1025822*
X3433691Y1029204*
X3615692Y1054567D02*
Y1024131D01*
X3604624Y1039349D02*
X3626759D01*
X3659962Y1066403D02*
X3637827Y1012295D01*
X3671030Y1039349D02*
X3693165D01*
X3711611Y1059639D02*
X3707922Y1057949D01*
X3705462Y1052876*
X3704232Y1044422*
Y1039349*
X3705462Y1030894*
X3707922Y1025822*
X3711611Y1024131*
X3714070*
X3717759Y1025822*
X3720219Y1030894*
X3721449Y1039349*
Y1044422*
X3720219Y1052876*
X3717759Y1057949*
X3714070Y1059639*
X3711611*
X3733746Y1027513D02*
X3732516Y1025822D01*
X3733746Y1024131*
X3734976Y1025822*
X3733746Y1027513*
X3753422Y1059639D02*
X3749732Y1057949D01*
X3747273Y1052876*
X3746043Y1044422*
Y1039349*
X3747273Y1030894*
X3749732Y1025822*
X3753422Y1024131*
X3755881*
X3759570Y1025822*
X3762030Y1030894*
X3763260Y1039349*
Y1044422*
X3762030Y1052876*
X3759570Y1057949*
X3755881Y1059639*
X3753422*
X2663059Y951423D02*
X2676586D01*
X2669208Y937896*
X2672897*
X2675356Y936205*
X2676586Y934514*
X2677816Y929442*
Y926060*
X2676586Y920987*
X2674127Y917605*
X2670437Y915915*
X2666748*
X2663059Y917605*
X2661829Y919296*
X2660600Y922678*
X2688883Y944659D02*
X2691343Y946350D01*
X2695032Y951423*
Y915915*
X2707329Y919296D02*
X2706100Y917605D01*
X2707329Y915915*
X2708559Y917605*
X2707329Y919296*
X2735613Y951423D02*
X2723316D01*
X2722086Y936205*
X2723316Y937896*
X2727005Y939587*
X2730694*
X2734384Y937896*
X2736843Y934514*
X2738073Y929442*
X2736843Y926060*
X2735613Y920987*
X2733154Y917605*
X2729465Y915915*
X2725775*
X2722086Y917605*
X2720857Y919296*
X2719627Y922678*
X3095515Y946350D02*
X3094285Y949732D01*
X3090596Y951423*
X3088137*
X3084447Y949732*
X3081988Y944659*
X3080758Y936205*
Y927751*
X3081988Y920987*
X3084447Y917605*
X3088137Y915915*
X3089366*
X3093055Y917605*
X3095515Y920987*
X3096745Y926060*
Y927751*
X3095515Y932823*
X3093055Y936205*
X3089366Y937896*
X3088137*
X3084447Y936205*
X3081988Y932823*
X3080758Y927751*
X3228736Y942969D02*
X3282844D01*
X3255790Y915915D02*
Y970023D01*
X3284074Y978139D02*
X3283090Y980844D01*
X3281122Y983550*
X3281122D02*
X3279155Y984902D01*
X3275220*
X3273252Y983550*
X3271285Y980844*
X3270301Y978139*
X3269317Y974081*
Y967317*
X3270301Y963259*
X3271285Y960554*
X3273252Y957848*
X3275220Y956496*
X3279155*
X3281122Y957848*
X3281122D02*
X3283090Y960554D01*
X3284074Y963259*
X3375894Y951423D02*
X3385732Y934514D01*
Y915915*
X3395570Y951423D02*
X3385732Y934514D01*
X3406637Y951423D02*
Y915915D01*
Y951423D02*
X3422624D01*
X3406637Y934514D02*
X3416475D01*
X3406637Y915915D02*
X3422624D01*
X3450908Y946350D02*
X3448448Y949732D01*
X3444759Y951423*
X3439840*
X3436151Y949732*
X3433691Y946350*
Y942969*
X3434921Y939587*
X3436151Y937896*
X3438610Y936205*
X3445989Y932823*
X3448448Y931132*
X3449678Y929442*
X3450908Y926060*
Y920987*
X3448448Y917605*
X3444759Y915915*
X3439840*
X3436151Y917605*
X3433691Y920987*
X3615692Y946350D02*
Y915915D01*
X3604624Y931132D02*
X3626759D01*
X3659962Y958187D02*
X3637827Y904078D01*
X3671030Y931132D02*
X3693165D01*
X3711611Y951423D02*
X3707922Y949732D01*
X3705462Y944659*
X3704232Y936205*
Y931132*
X3705462Y922678*
X3707922Y917605*
X3711611Y915915*
X3714070*
X3717759Y917605*
X3720219Y922678*
X3721449Y931132*
Y936205*
X3720219Y944659*
X3717759Y949732*
X3714070Y951423*
X3711611*
X3733746Y919296D02*
X3732516Y917605D01*
X3733746Y915915*
X3734976Y917605*
X3733746Y919296*
X3753422Y951423D02*
X3749732Y949732D01*
X3747273Y944659*
X3746043Y936205*
Y931132*
X3747273Y922678*
X3749732Y917605*
X3753422Y915915*
X3755881*
X3759570Y917605*
X3762030Y922678*
X3763260Y931132*
Y936205*
X3762030Y944659*
X3759570Y949732*
X3755881Y951423*
X3753422*
G74*
X0Y0D02*
M02*
