*
*
G04 PADS VX.2.13 Build Number: 22185787 generated Gerber (RS-274-X) file*
G04 PC Version=2.1*
*
%IN "CAR-BOARD.pcb"*%
*
%MOIN*%
*
%FSLAX35Y35*%
*
*
*
*
G04 PC Standard Apertures*
*
*
G04 Thermal Relief Aperture macro.*
%AMTER*
1,1,$1,0,0*
1,0,$1-$2,0,0*
21,0,$3,$4,0,0,45*
21,0,$3,$4,0,0,135*
%
*
*
G04 Annular Aperture macro.*
%AMANN*
1,1,$1,0,0*
1,0,$2,0,0*
%
*
*
G04 Odd Aperture macro.*
%AMODD*
1,1,$1,0,0*
1,0,$1-0.005,0,0*
%
*
*
G04 PC Custom Aperture Macros*
*
*
*
*
*
*
G04 PC Aperture Table*
*
%ADD010C,0.001*%
%ADD016C,0.01*%
*
*
*
*
G04 PC Circuitry*
G04 Layer Name CAR-BOARD.pcb - circuitry*
%LPD*%
*
G54D10*
G01X734189Y578850D02*
X733498Y579627D01*
X732835Y578965*
X732800Y578950*
X730200*
X730150Y579000*
Y579800*
X730178Y579845*
X730505Y580009*
X730170Y580260*
X730150Y580300*
X730172Y580342*
X731372Y581142*
X731376Y581144*
X732276Y581644*
X732278Y581645*
X732878Y581945*
X732892Y581949*
X733402Y582034*
X732698Y582827*
X732235Y582365*
X732200Y582350*
X726621*
X726819Y582152*
X727795Y582250*
X727800*
X732200*
X732250Y582200*
X732233Y582162*
X730133Y580362*
X730078Y580355*
X729555Y580617*
X729650Y579003*
Y579000*
X729600Y578950*
X725350*
X725614Y578752*
X726494Y578850*
X726500*
X729600*
X729650Y578800*
Y575500*
X729649Y575488*
X729549Y575088*
X729522Y575055*
X729322Y574955*
X729300Y574950*
X728700*
X728694*
X727850Y575044*
Y574936*
X728416Y574747*
X728422Y574745*
X728822Y574545*
X728828Y574542*
X729128Y574342*
X729150Y574300*
Y574074*
X729577Y574244*
X729864Y574436*
X730054Y574721*
X730150Y575106*
Y578800*
X730200Y578850*
X734189*
X724322Y574992D02*
X724072Y575158D01*
X724053Y575184*
X723953Y575484*
X723951Y575488*
X723851Y575888*
X723850Y575900*
Y576550*
X723743*
X723650Y575896*
Y575400*
X723647Y575384*
X723547Y575084*
X723522Y575055*
X723322Y574955*
X723300Y574950*
X722100*
X722084Y574953*
X721784Y575053*
X721753Y575084*
X721653Y575384*
X721650Y575400*
Y576800*
X721678Y576845*
X723478Y577745*
X723500Y577750*
X723791*
X723300Y578323*
X722738Y577667*
X722729Y577659*
X721729Y576959*
X721650Y577000*
Y578300*
X721670Y578340*
X722002Y578589*
X721250Y578923*
Y575306*
X721347Y574917*
X721436Y574739*
X721910Y574550*
X723296*
X723976Y574647*
X724322Y574992*
X723609Y582111D02*
X723103Y582532D01*
X722735Y582165*
X722700Y582150*
X719400*
X719369Y582161*
X718950Y582496*
Y578874*
X719350Y579034*
Y579200*
X719400Y579250*
X722800*
X722850Y579200*
Y578881*
X723342Y579127*
X723251Y579488*
X723250Y579500*
Y581900*
X723278Y581945*
X723609Y582111*
X722850Y580600D02*
Y579400D01*
X722800Y579350*
X719400*
X719350Y579400*
Y580600*
X719400Y580650*
X722800*
X722850Y580600*
Y582000D02*
Y580800D01*
X722800Y580750*
X719400*
X719350Y580800*
Y582000*
X719400Y582050*
X722800*
X722850Y582000*
X720818Y575811D02*
X720786Y575843D01*
X719316Y575353*
X719250Y575400*
Y577100*
X719300Y577150*
X720791*
X720301Y577722*
X719939Y577269*
X719900Y577250*
X719300*
X719250Y577300*
Y578000*
X719265Y578035*
X719513Y578284*
X718750Y578623*
Y575400*
X718747Y575384*
X718655Y575107*
X719008Y574578*
X719265Y574835*
X719270Y574840*
X719670Y575140*
X719674Y575143*
X720174Y575443*
X720175*
X720818Y575811*
X718544Y581486D02*
X718516Y581513D01*
X718147Y580682*
X717847Y579784*
X717845Y579778*
X717546Y579181*
X717347Y578584*
X717346Y578581*
X717148Y578085*
X717049Y577688*
X717045Y577678*
X716945Y577478*
X716935Y577465*
X716839Y577368*
X716642Y577072*
X716622Y577055*
X716422Y576955*
X716400Y576950*
X716100*
X716092Y576951*
X715550Y577041*
Y576941*
X716010Y576849*
X716028Y576842*
X716328Y576642*
X716349Y576612*
X716449Y576212*
X716450Y576200*
X716449Y576193*
X716449D02*
X716349Y575493D01*
X716349D02*
X716347Y575484D01*
X716250Y575192*
Y575008*
X716344Y574727*
X716426Y574645*
X716794Y574553*
X716950Y574631*
Y576300*
X716951Y576308*
X717050Y576904*
Y577000*
X717053Y577016*
X717153Y577316*
X717155Y577322*
X717352Y577716*
X717451Y578308*
X717455Y578322*
X717753Y578917*
X717951Y579712*
X717953Y579718*
X718253Y580516*
X718544Y581486*
X716747Y579700D02*
X716658Y579968D01*
X716372Y580158*
X716370Y580160*
X715971Y580459*
X715419Y580827*
X715361Y580710*
X715935Y580135*
X715945Y580122*
X716245Y579522*
X716247Y579516*
X716341Y579235*
X716483Y579164*
X716655Y579422*
X716747Y579700*
X717648Y581700D02*
X717555Y582074D01*
X717270Y582359*
X716878Y582555*
X716874Y582557*
X716455Y582808*
X716941Y582129*
X716946Y582119*
X717144Y581623*
X717339Y581332*
X717410Y581261*
X717557Y581334*
X717648Y581700*
X714150Y574768D02*
X713079Y575254D01*
X713069Y575261*
X712069Y576061*
X712050Y576100*
X712057Y576125*
X712855Y577521*
X713453Y579118*
X713465Y579135*
X713729Y579400*
X713300Y579829*
X712935Y579465*
X712900Y579450*
X711900*
X711850Y579500*
X711855Y579522*
X712054Y579921*
X712054D02*
X712254Y580419D01*
X712257Y580426*
X712556Y580924*
X712955Y581722*
X712978Y581745*
X713316Y581914*
X712800Y582429*
X712435Y582065*
X712400Y582050*
X708850*
X709114Y581852*
X709994Y581950*
X710050Y581900*
Y581897*
X709950Y580196*
X709850Y578796*
X709849Y578792*
X709649Y577492*
X709647Y577483*
X709247Y576383*
X709243Y576374*
X708943Y575874*
X708939Y575869*
X708539Y575369*
X708535Y575365*
X707935Y574765*
X707932Y574762*
X707484Y574388*
X708567Y575138*
X709458Y576128*
X709755Y576721*
X710051Y577413*
X710150Y578206*
X710250Y579205*
X710348Y579214*
X710846Y577519*
X711544Y576224*
X711550Y576200*
X711534Y576163*
X710334Y575063*
X710325Y575056*
X708782Y574189*
X708811Y574159*
X710375Y574844*
X711771Y575841*
X711839Y575831*
X712534Y574937*
X713394Y574364*
X713665Y574635*
X713690Y574649*
X714150Y574741*
Y574768*
X712950Y579300D02*
X712948Y579285D01*
X712448Y577685*
X712445Y577678*
X711845Y576478*
X711758Y576472*
X711358Y577072*
X711355Y577078*
X711055Y577678*
X711054Y577680*
X710654Y578580*
X710652Y578586*
X710352Y579586*
X710350Y579600*
Y579602*
X710450Y581902*
X710500Y581950*
X712500*
X712550Y581900*
X712545Y581879*
X711845Y580379*
Y580378*
X711545Y579778*
X711530Y579760*
X711176Y579495*
X711592Y579078*
X711758Y579328*
X711800Y579350*
X712900*
X712950Y579300*
X708750Y576229D02*
X707717Y575853D01*
X707710Y575851*
X706712Y575651*
X706014Y575452*
X706007Y575451*
X706007D02*
X705383Y575361D01*
X705809Y574680*
X706065Y574935*
X706074Y574943*
X706574Y575243*
X706588Y575249*
X706981Y575347*
X707474Y575643*
X707484Y575647*
X708082Y575847*
X708750Y576133*
Y576229*
X709186Y580623D02*
X708521Y581122D01*
X708246Y580480*
X708243Y580475*
X707843Y579775*
X707800Y579750*
X706000*
X705950Y579800*
X705960Y579830*
X706859Y581028*
X707657Y582326*
X707678Y582345*
X707998Y582505*
X707329Y582923*
X707048Y581986*
X707044Y581976*
X706444Y580876*
X706443Y580874*
X706143Y580374*
X706140Y580370*
X705840Y579970*
X705835Y579965*
X705635Y579765*
X705600Y579750*
X705390*
X705815Y579070*
X706072Y579242*
X706081Y579246*
X706581Y579446*
X706591Y579449*
X707691Y579649*
X707750Y579600*
X707738Y579568*
X707239Y578968*
X706840Y578469*
X706541Y578071*
X706342Y577772*
X706335Y577765*
X705935Y577365*
X705912Y577351*
X705573Y577267*
X705922Y576567*
X706878Y577045*
X706888Y577049*
X708850Y577539*
Y577642*
X706308Y577251*
X706250Y577300*
X706262Y577333*
X707661Y578932*
X708860Y580530*
X708888Y580549*
X709186Y580623*
X704350Y574756D02*
X703594Y574850D01*
X703586Y574852*
X702886Y575052*
X702878Y575055*
X702078Y575455*
X702071Y575459*
X701371Y575959*
X701350Y576000*
X701357Y576026*
X702257Y577526*
X702258Y577528*
X702658Y578128*
X702665Y578135*
X702924Y578395*
X702225Y578918*
X701747Y577484*
X701745Y577478*
X701145Y576278*
X701065Y576265*
X700665Y576665*
X700655Y576678*
X700055Y577878*
X700053Y577882*
X699773Y578630*
X699663Y578575*
X700246Y577020*
X700543Y576426*
X700840Y576030*
X700850Y576000*
X700835Y575965*
X700235Y575365*
X700225Y575357*
X699526Y574957*
X698726Y574458*
X698726D02*
X698714Y574452D01*
X697771Y574169*
X697825Y574062*
X699478Y574645*
X701074Y575642*
X701074D02*
X701132Y575639D01*
X702226Y574744*
X703681Y574161*
X703858Y574428*
X703881Y574446*
X704350Y574634*
Y574756*
X703848Y578996D02*
X703654Y579479D01*
X703654D02*
X703563Y579663D01*
X701853Y580517*
X702735Y579635*
X702742Y579626*
X702742D02*
X703239Y578831D01*
X703600Y578471*
X703755Y578626*
X703848Y578996*
X700911Y580205D02*
X700221Y580722D01*
X699946Y580080*
X699941Y580071*
X698941Y578671*
X698935Y578665*
X698471Y578200*
X698505Y578166*
X699267Y578738*
X700465Y579935*
X700474Y579943*
X700911Y580205*
X698891Y580550D02*
X698397Y581126D01*
X697935Y580665*
X697900Y580650*
X697400*
X697350Y580700*
Y582400*
X697370Y582440*
X697705Y582691*
X696857Y583116*
X696950Y581904*
Y581900*
Y580700*
X696900Y580650*
X695321*
X695515Y580455*
X695888Y580549*
X695900Y580550*
X696900*
X696950Y580500*
X696948Y580485*
X696248Y578185*
X696244Y578177*
X695256Y576299*
X695307Y576198*
X696157Y577426*
X696856Y578724*
X696950Y578700*
Y576300*
Y576298*
X696853Y574077*
X697447Y574332*
X697350Y575395*
Y575400*
Y579600*
X697439Y579631*
X697839Y579131*
X697840Y579130*
X698140Y578730*
X698147Y578716*
X698241Y578435*
X698350Y578381*
Y578400*
X698365Y578435*
X698455Y578526*
X698547Y578894*
X698361Y579267*
X697976Y579555*
X697384Y579753*
X697350Y579800*
Y580500*
X697400Y580550*
X698891*
X704167Y581150D02*
X703502Y581732D01*
X703035Y581265*
X703000Y581250*
X698750*
X699011Y581054*
X699388Y581149*
X699400Y581150*
X704167*
X701550Y582279D02*
X701069Y582760D01*
X700408Y583138*
X700362Y583092*
X700743Y582425*
X700745Y582422*
X701045Y581822*
X701047Y581816*
X701144Y581527*
X701221Y581450*
X701279*
X701454Y581625*
X701550Y582105*
Y582279*
X695300Y576212D02*
Y576383D01*
X695400Y576332D02*
Y576573D01*
Y580571D02*
Y580650D01*
X695500Y576477D02*
Y576763D01*
Y580471D02*
Y580650D01*
X695600Y576621D02*
Y576953D01*
Y580477D02*
Y580650D01*
X695700Y576766D02*
Y577143D01*
Y580502D02*
Y580650D01*
X695800Y576910D02*
Y577333D01*
Y580527D02*
Y580650D01*
X695900Y577055D02*
Y577523D01*
Y580550D02*
Y580650D01*
X696000Y577199D02*
Y577713D01*
Y580550D02*
Y580650D01*
X696100Y577343D02*
Y577903D01*
Y580550D02*
Y580650D01*
X696200Y577505D02*
Y578093D01*
Y580550D02*
Y580650D01*
X696300Y577691D02*
Y578357D01*
Y580550D02*
Y580650D01*
X696400Y577877D02*
Y578685D01*
Y580550D02*
Y580650D01*
X696500Y578063D02*
Y579014D01*
Y580550D02*
Y580650D01*
X696600Y578248D02*
Y579343D01*
Y580550D02*
Y580650D01*
X696700Y578434D02*
Y579671D01*
Y580550D02*
Y580650D01*
X696800Y578620D02*
Y580000D01*
Y580550D02*
Y580650D01*
X696900Y574097D02*
Y575149D01*
Y578750D02*
Y580328D01*
Y580550D02*
Y580650D01*
Y582552D02*
Y583094D01*
X697000Y574140D02*
Y583044D01*
X697100Y574183D02*
Y582994D01*
X697200Y574226D02*
Y582944D01*
X697300Y574269D02*
Y582894D01*
X697400Y574312D02*
Y574848D01*
Y579650D02*
Y579747D01*
Y580550D02*
Y580650D01*
Y582463D02*
Y582844D01*
X697500Y579555D02*
Y579714D01*
Y580550D02*
Y580650D01*
Y582538D02*
Y582794D01*
X697600Y579430D02*
Y579681D01*
Y580550D02*
Y580650D01*
Y582613D02*
Y582744D01*
X697700Y579305D02*
Y579647D01*
Y580550D02*
Y580650D01*
Y582688D02*
Y582694D01*
X697800Y574112D02*
Y574178D01*
Y579180D02*
Y579614D01*
Y580550D02*
Y580650D01*
X697900Y574088D02*
Y574208D01*
Y579050D02*
Y579581D01*
Y580550D02*
Y580650D01*
X698000Y574124D02*
Y574238D01*
Y578917D02*
Y579537D01*
Y580550D02*
Y580729D01*
X698100Y574159D02*
Y574268D01*
Y578783D02*
Y579462D01*
Y580550D02*
Y580829D01*
X698200Y574194D02*
Y574298D01*
Y578558D02*
Y579387D01*
Y580550D02*
Y580929D01*
X698300Y574229D02*
Y574328D01*
Y578406D02*
Y579312D01*
Y580550D02*
Y581029D01*
X698400Y574265D02*
Y574358D01*
Y578471D02*
Y579188D01*
Y580550D02*
Y581123D01*
X698500Y574300D02*
Y574388D01*
Y578171D02*
Y578229D01*
Y578706D02*
Y578988D01*
Y580550D02*
Y581007D01*
X698600Y574335D02*
Y574418D01*
Y578237D02*
Y578329D01*
Y580550D02*
Y580890D01*
X698700Y574371D02*
Y574448D01*
Y578312D02*
Y578429D01*
Y580550D02*
Y580773D01*
X698800Y574406D02*
Y574504D01*
Y578387D02*
Y578529D01*
Y580550D02*
Y580657D01*
Y581212D02*
Y581250D01*
X698900Y574441D02*
Y574566D01*
Y578462D02*
Y578629D01*
Y581137D02*
Y581250D01*
X699000Y574477D02*
Y574629D01*
Y578537D02*
Y578754D01*
Y581062D02*
Y581250D01*
X699100Y574512D02*
Y574691D01*
Y578613D02*
Y578894D01*
Y581077D02*
Y581250D01*
X699200Y574547D02*
Y574754D01*
Y578688D02*
Y579034D01*
Y581102D02*
Y581250D01*
X699300Y574582D02*
Y574816D01*
Y578771D02*
Y579174D01*
Y581127D02*
Y581250D01*
X699400Y574618D02*
Y574879D01*
Y578871D02*
Y579314D01*
Y581150D02*
Y581250D01*
X699500Y574659D02*
Y574941D01*
Y578971D02*
Y579454D01*
Y581150D02*
Y581250D01*
X699600Y574721D02*
Y575000D01*
Y579071D02*
Y579594D01*
Y581150D02*
Y581250D01*
X699700Y574784D02*
Y575057D01*
Y578476D02*
Y578594D01*
Y579171D02*
Y579734D01*
Y581150D02*
Y581250D01*
X699800Y574846D02*
Y575114D01*
Y578209D02*
Y578558D01*
Y579271D02*
Y579874D01*
Y581150D02*
Y581250D01*
X699900Y574909D02*
Y575171D01*
Y577942D02*
Y578291D01*
Y579371D02*
Y580014D01*
Y581150D02*
Y581250D01*
X700000Y574971D02*
Y575228D01*
Y577676D02*
Y578024D01*
Y579471D02*
Y580206D01*
Y581150D02*
Y581250D01*
X700100Y575034D02*
Y575285D01*
Y577409D02*
Y577788D01*
Y579571D02*
Y580440D01*
Y581150D02*
Y581250D01*
X700200Y575096D02*
Y575342D01*
Y577142D02*
Y577588D01*
Y579671D02*
Y580673D01*
Y581150D02*
Y581250D01*
X700300Y575159D02*
Y575429D01*
Y576912D02*
Y577388D01*
Y579771D02*
Y580662D01*
Y581150D02*
Y581250D01*
X700400Y575221D02*
Y575529D01*
Y576712D02*
Y577188D01*
Y579871D02*
Y580587D01*
Y581150D02*
Y581250D01*
Y583026D02*
Y583129D01*
X700500Y575284D02*
Y575629D01*
Y576512D02*
Y576988D01*
Y579958D02*
Y580512D01*
Y581150D02*
Y581250D01*
Y582851D02*
Y583085D01*
X700600Y575346D02*
Y575729D01*
Y576350D02*
Y576788D01*
Y580018D02*
Y580437D01*
Y581150D02*
Y581250D01*
Y582676D02*
Y583028D01*
X700700Y575409D02*
Y575829D01*
Y576217D02*
Y576629D01*
Y580078D02*
Y580362D01*
Y581150D02*
Y581250D01*
Y582501D02*
Y582971D01*
X700800Y575471D02*
Y575929D01*
Y576083D02*
Y576529D01*
Y580138D02*
Y580288D01*
Y581150D02*
Y581250D01*
Y582312D02*
Y582914D01*
X700900Y575534D02*
Y576429D01*
Y580198D02*
Y580213D01*
Y581150D02*
Y581250D01*
Y582112D02*
Y582857D01*
X701000Y575596D02*
Y576329D01*
Y581150D02*
Y581250D01*
Y581912D02*
Y582800D01*
X701100Y575650D02*
Y576250D01*
Y581150D02*
Y581250D01*
Y581658D02*
Y582729D01*
X701200Y575583D02*
Y576388D01*
Y581150D02*
Y581250D01*
Y581471D02*
Y582629D01*
X701300Y575501D02*
Y576588D01*
Y581150D02*
Y581250D01*
Y581471D02*
Y582529D01*
X701400Y575419D02*
Y575939D01*
Y576097D02*
Y576788D01*
Y581150D02*
Y581250D01*
Y581571D02*
Y582429D01*
X701500Y575337D02*
Y575867D01*
Y576264D02*
Y576988D01*
Y581150D02*
Y581250D01*
Y581855D02*
Y582329D01*
X701600Y575256D02*
Y575796D01*
Y576431D02*
Y577188D01*
Y581150D02*
Y581250D01*
X701700Y575174D02*
Y575724D01*
Y576597D02*
Y577388D01*
Y581150D02*
Y581250D01*
X701800Y575092D02*
Y575653D01*
Y576764D02*
Y577642D01*
Y581150D02*
Y581250D01*
X701900Y575010D02*
Y575581D01*
Y576931D02*
Y577942D01*
Y580471D02*
Y580494D01*
Y581150D02*
Y581250D01*
X702000Y574928D02*
Y575510D01*
Y577097D02*
Y578242D01*
Y580371D02*
Y580444D01*
Y581150D02*
Y581250D01*
X702100Y574846D02*
Y575444D01*
Y577264D02*
Y578542D01*
Y580271D02*
Y580394D01*
Y581150D02*
Y581250D01*
X702200Y574765D02*
Y575394D01*
Y577431D02*
Y578842D01*
Y580171D02*
Y580344D01*
Y581150D02*
Y581250D01*
X702300Y574714D02*
Y575344D01*
Y577590D02*
Y578863D01*
Y580071D02*
Y580294D01*
Y581150D02*
Y581250D01*
X702400Y574674D02*
Y575294D01*
Y577740D02*
Y578788D01*
Y579971D02*
Y580244D01*
Y581150D02*
Y581250D01*
X702500Y574634D02*
Y575244D01*
Y577890D02*
Y578713D01*
Y579871D02*
Y580194D01*
Y581150D02*
Y581250D01*
X702600Y574594D02*
Y575194D01*
Y578040D02*
Y578638D01*
Y579771D02*
Y580144D01*
Y581150D02*
Y581250D01*
X702700Y574554D02*
Y575144D01*
Y578171D02*
Y578563D01*
Y579671D02*
Y580094D01*
Y581150D02*
Y581250D01*
X702800Y574514D02*
Y575094D01*
Y578271D02*
Y578488D01*
Y579534D02*
Y580044D01*
Y581150D02*
Y581250D01*
X702900Y574474D02*
Y575048D01*
Y578371D02*
Y578413D01*
Y579374D02*
Y579994D01*
Y581150D02*
Y581250D01*
X703000Y574434D02*
Y575019D01*
Y579214D02*
Y579944D01*
Y581150D02*
Y581250D01*
X703100Y574394D02*
Y574991D01*
Y579054D02*
Y579894D01*
Y581150D02*
Y581329D01*
X703200Y574354D02*
Y574962D01*
Y578894D02*
Y579844D01*
Y581150D02*
Y581429D01*
X703300Y574314D02*
Y574934D01*
Y578771D02*
Y579794D01*
Y581150D02*
Y581529D01*
X703400Y574274D02*
Y574905D01*
Y578671D02*
Y579744D01*
Y581150D02*
Y581629D01*
X703500Y574234D02*
Y574877D01*
Y578571D02*
Y579694D01*
Y581150D02*
Y581729D01*
X703600Y574194D02*
Y574850D01*
Y578471D02*
Y579588D01*
Y581150D02*
Y581646D01*
X703700Y574190D02*
Y574837D01*
Y578571D02*
Y579365D01*
Y581150D02*
Y581559D01*
X703800Y574340D02*
Y574825D01*
Y578806D02*
Y579115D01*
Y581150D02*
Y581471D01*
X703900Y574454D02*
Y574812D01*
Y581150D02*
Y581384D01*
X704000Y574494D02*
Y574800D01*
Y581150D02*
Y581296D01*
X704100Y574534D02*
Y574787D01*
Y581150D02*
Y581209D01*
X704200Y574574D02*
Y574775D01*
X704300Y574614D02*
Y574762D01*
X705400Y575334D02*
Y575364D01*
Y579734D02*
Y579750D01*
X705500Y575174D02*
Y575378D01*
Y579574D02*
Y579750D01*
X705600Y575014D02*
Y575392D01*
Y577212D02*
Y577273D01*
Y579414D02*
Y579750D01*
X705700Y574854D02*
Y575407D01*
Y577012D02*
Y577298D01*
Y579254D02*
Y579829D01*
X705800Y574694D02*
Y575421D01*
Y576812D02*
Y577323D01*
Y579094D02*
Y579929D01*
X705900Y574771D02*
Y575435D01*
Y576612D02*
Y577348D01*
Y579127D02*
Y580050D01*
X706000Y574871D02*
Y575449D01*
Y576606D02*
Y577429D01*
Y579193D02*
Y579750D01*
Y579883D02*
Y580183D01*
X706100Y574958D02*
Y575477D01*
Y576656D02*
Y577529D01*
Y579254D02*
Y579750D01*
Y580017D02*
Y580317D01*
X706200Y575018D02*
Y575505D01*
Y576706D02*
Y577629D01*
Y579294D02*
Y579750D01*
Y580150D02*
Y580469D01*
X706300Y575078D02*
Y575534D01*
Y576756D02*
Y577250D01*
Y577376D02*
Y577729D01*
Y579334D02*
Y579750D01*
Y580283D02*
Y580636D01*
X706400Y575138D02*
Y575562D01*
Y576806D02*
Y577265D01*
Y577490D02*
Y577860D01*
Y579374D02*
Y579750D01*
Y580417D02*
Y580803D01*
X706500Y575198D02*
Y575591D01*
Y576856D02*
Y577280D01*
Y577605D02*
Y578010D01*
Y579414D02*
Y579750D01*
Y580550D02*
Y580979D01*
X706600Y575252D02*
Y575619D01*
Y576906D02*
Y577296D01*
Y577719D02*
Y578150D01*
Y579451D02*
Y579750D01*
Y580683D02*
Y581162D01*
X706700Y575277D02*
Y575648D01*
Y576956D02*
Y577311D01*
Y577833D02*
Y578283D01*
Y579469D02*
Y579750D01*
Y580817D02*
Y581346D01*
X706800Y575302D02*
Y575669D01*
Y577006D02*
Y577326D01*
Y577947D02*
Y578417D01*
Y579487D02*
Y579750D01*
Y580950D02*
Y581529D01*
X706900Y575327D02*
Y575689D01*
Y577052D02*
Y577342D01*
Y578062D02*
Y578545D01*
Y579505D02*
Y579750D01*
Y581095D02*
Y581712D01*
X707000Y575358D02*
Y575709D01*
Y577077D02*
Y577357D01*
Y578176D02*
Y578670D01*
Y579524D02*
Y579750D01*
Y581258D02*
Y581896D01*
X707100Y575418D02*
Y575729D01*
Y577102D02*
Y577372D01*
Y578290D02*
Y578795D01*
Y579542D02*
Y579750D01*
Y581420D02*
Y582159D01*
X707200Y575478D02*
Y575749D01*
Y577127D02*
Y577388D01*
Y578405D02*
Y578920D01*
Y579560D02*
Y579750D01*
Y581583D02*
Y582493D01*
X707300Y575538D02*
Y575769D01*
Y577152D02*
Y577403D01*
Y578519D02*
Y579042D01*
Y579578D02*
Y579750D01*
Y581745D02*
Y582826D01*
X707400Y575598D02*
Y575789D01*
Y577177D02*
Y577419D01*
Y578633D02*
Y579162D01*
Y579596D02*
Y579750D01*
Y581908D02*
Y582879D01*
X707500Y574399D02*
Y574402D01*
Y575653D02*
Y575809D01*
Y577202D02*
Y577434D01*
Y578747D02*
Y579282D01*
Y579614D02*
Y579750D01*
Y582070D02*
Y582816D01*
X707600Y574469D02*
Y574485D01*
Y575686D02*
Y575829D01*
Y577227D02*
Y577449D01*
Y578862D02*
Y579402D01*
Y579633D02*
Y579750D01*
Y582233D02*
Y582754D01*
X707700Y574538D02*
Y574568D01*
Y575719D02*
Y575849D01*
Y577252D02*
Y577465D01*
Y578983D02*
Y579522D01*
Y579650D02*
Y579750D01*
Y582356D02*
Y582691D01*
X707800Y574607D02*
Y574652D01*
Y575753D02*
Y575883D01*
Y577277D02*
Y577480D01*
Y579117D02*
Y579750D01*
Y582406D02*
Y582629D01*
X707900Y574676D02*
Y574735D01*
Y575786D02*
Y575920D01*
Y577302D02*
Y577496D01*
Y579250D02*
Y579874D01*
Y582456D02*
Y582566D01*
X708000Y574745D02*
Y574829D01*
Y575819D02*
Y575956D01*
Y577327D02*
Y577511D01*
Y579383D02*
Y580049D01*
X708100Y574815D02*
Y574929D01*
Y575854D02*
Y575992D01*
Y577352D02*
Y577526D01*
Y579517D02*
Y580224D01*
X708200Y574884D02*
Y575029D01*
Y575897D02*
Y576029D01*
Y577377D02*
Y577542D01*
Y579650D02*
Y580399D01*
X708300Y574953D02*
Y575129D01*
Y575940D02*
Y576065D01*
Y577402D02*
Y577557D01*
Y579783D02*
Y580606D01*
X708400Y575022D02*
Y575229D01*
Y575983D02*
Y576101D01*
Y577427D02*
Y577572D01*
Y579917D02*
Y580840D01*
X708500Y575092D02*
Y575329D01*
Y576026D02*
Y576138D01*
Y577452D02*
Y577588D01*
Y580050D02*
Y581073D01*
X708600Y575175D02*
Y575445D01*
Y576069D02*
Y576174D01*
Y577477D02*
Y577603D01*
Y580183D02*
Y581062D01*
X708700Y575286D02*
Y575570D01*
Y576112D02*
Y576210D01*
Y577502D02*
Y577619D01*
Y580317D02*
Y580987D01*
X708800Y574171D02*
Y574199D01*
Y575397D02*
Y575695D01*
Y577527D02*
Y577634D01*
Y580450D02*
Y580912D01*
X708900Y574198D02*
Y574255D01*
Y575508D02*
Y575820D01*
Y580552D02*
Y580837D01*
Y582013D02*
Y582050D01*
X709000Y574242D02*
Y574311D01*
Y575619D02*
Y575969D01*
Y580577D02*
Y580762D01*
Y581938D02*
Y582050D01*
X709100Y574286D02*
Y574368D01*
Y575730D02*
Y576136D01*
Y580602D02*
Y580687D01*
Y581863D02*
Y582050D01*
X709200Y574330D02*
Y574424D01*
Y575841D02*
Y576303D01*
Y581861D02*
Y582050D01*
X709300Y574373D02*
Y574480D01*
Y575953D02*
Y576529D01*
Y581873D02*
Y582050D01*
X709400Y574417D02*
Y574536D01*
Y576064D02*
Y576804D01*
Y581884D02*
Y582050D01*
X709500Y574461D02*
Y574593D01*
Y576212D02*
Y577079D01*
Y581895D02*
Y582050D01*
X709600Y574505D02*
Y574649D01*
Y576412D02*
Y577354D01*
Y581906D02*
Y582050D01*
X709700Y574548D02*
Y574705D01*
Y576612D02*
Y577821D01*
Y581917D02*
Y582050D01*
X709800Y574592D02*
Y574761D01*
Y576827D02*
Y578471D01*
Y581928D02*
Y582050D01*
X709900Y574636D02*
Y574818D01*
Y577060D02*
Y579498D01*
Y581939D02*
Y582050D01*
X710000Y574680D02*
Y574874D01*
Y577294D02*
Y581049D01*
Y581950D02*
Y582050D01*
X710100Y574723D02*
Y574930D01*
Y577803D02*
Y582050D01*
X710200Y574767D02*
Y574986D01*
Y578702D02*
Y582050D01*
X710300Y574811D02*
Y575043D01*
Y579250D02*
Y582050D01*
X710400Y574861D02*
Y575124D01*
Y579037D02*
Y579426D01*
Y580751D02*
Y582050D01*
X710500Y574933D02*
Y575216D01*
Y578697D02*
Y579093D01*
Y581950D02*
Y582050D01*
X710600Y575004D02*
Y575307D01*
Y578357D02*
Y578759D01*
Y581950D02*
Y582050D01*
X710700Y575076D02*
Y575399D01*
Y578017D02*
Y578477D01*
Y581950D02*
Y582050D01*
X710800Y575147D02*
Y575491D01*
Y577677D02*
Y578252D01*
Y581950D02*
Y582050D01*
X710900Y575219D02*
Y575582D01*
Y577420D02*
Y578027D01*
Y581950D02*
Y582050D01*
X711000Y575290D02*
Y575674D01*
Y577234D02*
Y577802D01*
Y581950D02*
Y582050D01*
X711100Y575361D02*
Y575766D01*
Y577048D02*
Y577588D01*
Y581950D02*
Y582050D01*
X711200Y575433D02*
Y575857D01*
Y576863D02*
Y577388D01*
Y579471D02*
Y579513D01*
Y581950D02*
Y582050D01*
X711300Y575504D02*
Y575949D01*
Y576677D02*
Y577188D01*
Y579371D02*
Y579588D01*
Y581950D02*
Y582050D01*
X711400Y575576D02*
Y576041D01*
Y576491D02*
Y577010D01*
Y579271D02*
Y579663D01*
Y581950D02*
Y582050D01*
X711500Y575647D02*
Y576132D01*
Y576305D02*
Y576860D01*
Y579171D02*
Y579738D01*
Y581950D02*
Y582050D01*
X711600Y575719D02*
Y576710D01*
Y579090D02*
Y579888D01*
Y581950D02*
Y582050D01*
X711700Y575790D02*
Y576560D01*
Y579240D02*
Y580088D01*
Y581950D02*
Y582050D01*
X711800Y575850D02*
Y576450D01*
Y579350D02*
Y580288D01*
Y581950D02*
Y582050D01*
X711900Y575753D02*
Y576588D01*
Y579350D02*
Y579450D01*
Y579612D02*
Y580496D01*
Y581950D02*
Y582050D01*
X712000Y575624D02*
Y576788D01*
Y579350D02*
Y579450D01*
Y579812D02*
Y580710D01*
Y581950D02*
Y582050D01*
X712100Y575496D02*
Y576036D01*
Y576201D02*
Y576988D01*
Y579350D02*
Y579450D01*
Y580035D02*
Y580925D01*
Y581950D02*
Y582050D01*
X712200Y575367D02*
Y575956D01*
Y576376D02*
Y577188D01*
Y579350D02*
Y579450D01*
Y580285D02*
Y581139D01*
Y581950D02*
Y582050D01*
X712300Y575239D02*
Y575876D01*
Y576551D02*
Y577388D01*
Y579350D02*
Y579450D01*
Y580497D02*
Y581353D01*
Y581950D02*
Y582050D01*
X712400Y575110D02*
Y575796D01*
Y576726D02*
Y577588D01*
Y579350D02*
Y579450D01*
Y580664D02*
Y581567D01*
Y581950D02*
Y582050D01*
X712500Y574981D02*
Y575716D01*
Y576901D02*
Y577852D01*
Y579350D02*
Y579450D01*
Y580831D02*
Y581782D01*
Y581950D02*
Y582129D01*
X712600Y574893D02*
Y575636D01*
Y577076D02*
Y578172D01*
Y579350D02*
Y579450D01*
Y581012D02*
Y582229D01*
X712700Y574827D02*
Y575556D01*
Y577251D02*
Y578492D01*
Y579350D02*
Y579450D01*
Y581212D02*
Y582329D01*
X712800Y574760D02*
Y575476D01*
Y577426D02*
Y578812D01*
Y579350D02*
Y579450D01*
Y581412D02*
Y582429D01*
X712900Y574693D02*
Y575396D01*
Y577642D02*
Y579132D01*
Y579350D02*
Y579450D01*
Y581612D02*
Y582329D01*
X713000Y574627D02*
Y575316D01*
Y577909D02*
Y579529D01*
Y581756D02*
Y582229D01*
X713100Y574560D02*
Y575245D01*
Y578176D02*
Y579629D01*
Y581806D02*
Y582129D01*
X713200Y574493D02*
Y575200D01*
Y578442D02*
Y579729D01*
Y581856D02*
Y582029D01*
X713300Y574427D02*
Y575154D01*
Y578709D02*
Y579829D01*
Y581906D02*
Y581929D01*
X713400Y574371D02*
Y575109D01*
Y578976D02*
Y579729D01*
X713500Y574471D02*
Y575063D01*
Y579171D02*
Y579629D01*
X713600Y574571D02*
Y575018D01*
Y579271D02*
Y579529D01*
X713700Y574651D02*
Y574972D01*
Y579371D02*
Y579429D01*
X713800Y574671D02*
Y574927D01*
X713900Y574691D02*
Y574881D01*
X714000Y574711D02*
Y574836D01*
X714100Y574731D02*
Y574791D01*
X715400Y580671D02*
Y580788D01*
X715500Y580571D02*
Y580773D01*
X715600Y576931D02*
Y577033D01*
Y580471D02*
Y580707D01*
X715700Y576911D02*
Y577016D01*
Y580371D02*
Y580640D01*
X715800Y576891D02*
Y576999D01*
Y580271D02*
Y580573D01*
X715900Y576871D02*
Y576983D01*
Y580171D02*
Y580507D01*
X716000Y576851D02*
Y576966D01*
Y580012D02*
Y580438D01*
X716100Y576793D02*
Y576950D01*
Y579812D02*
Y580363D01*
X716200Y576727D02*
Y576950D01*
Y579612D02*
Y580288D01*
X716300Y574858D02*
Y575342D01*
Y576660D02*
Y576950D01*
Y579358D02*
Y580213D01*
X716400Y574671D02*
Y575846D01*
Y576406D02*
Y576950D01*
Y579206D02*
Y580140D01*
X716500Y574627D02*
Y576994D01*
Y579190D02*
Y580073D01*
Y582746D02*
Y582782D01*
X716600Y574602D02*
Y577044D01*
Y579340D02*
Y580007D01*
Y582606D02*
Y582722D01*
X716700Y574577D02*
Y577160D01*
Y579558D02*
Y579842D01*
Y582466D02*
Y582662D01*
X716800Y574556D02*
Y577310D01*
Y582326D02*
Y582602D01*
X716900Y574606D02*
Y577429D01*
Y582186D02*
Y582544D01*
X717000Y576604D02*
Y577588D01*
Y581985D02*
Y582494D01*
X717100Y577158D02*
Y577894D01*
Y581735D02*
Y582444D01*
X717200Y577412D02*
Y578215D01*
Y581540D02*
Y582394D01*
X717300Y577612D02*
Y578465D01*
Y581390D02*
Y582329D01*
X717400Y578004D02*
Y578742D01*
Y581271D02*
Y582229D01*
X717500Y578412D02*
Y579042D01*
Y581306D02*
Y582129D01*
X717600Y578612D02*
Y579288D01*
Y581506D02*
Y581894D01*
X717700Y578812D02*
Y579488D01*
X717800Y579106D02*
Y579688D01*
X717900Y579506D02*
Y579942D01*
X718000Y579842D02*
Y580242D01*
X718100Y580109D02*
Y580542D01*
X718200Y580376D02*
Y580802D01*
X718300Y580674D02*
Y581027D01*
X718400Y581007D02*
Y581252D01*
X718500Y581341D02*
Y581477D01*
X718700Y575040D02*
Y575242D01*
X718800Y574890D02*
Y578601D01*
X718900Y574740D02*
Y578556D01*
X719000Y574590D02*
Y578512D01*
Y578894D02*
Y582456D01*
X719100Y574671D02*
Y578468D01*
Y578934D02*
Y582376D01*
X719200Y574771D02*
Y578423D01*
Y578974D02*
Y582296D01*
X719300Y574863D02*
Y575350D01*
Y577150D02*
Y577250D01*
Y578071D02*
Y578379D01*
Y579014D02*
Y582216D01*
X719400Y574938D02*
Y575381D01*
Y577150D02*
Y577250D01*
Y578171D02*
Y578334D01*
Y579250D02*
Y579350D01*
Y580650D02*
Y580750D01*
Y582050D02*
Y582150D01*
X719500Y575013D02*
Y575414D01*
Y577150D02*
Y577250D01*
Y578271D02*
Y578290D01*
Y579250D02*
Y579350D01*
Y580650D02*
Y580750D01*
Y582050D02*
Y582150D01*
X719600Y575088D02*
Y575447D01*
Y577150D02*
Y577250D01*
Y579250D02*
Y579350D01*
Y580650D02*
Y580750D01*
Y582050D02*
Y582150D01*
X719700Y575158D02*
Y575481D01*
Y577150D02*
Y577250D01*
Y579250D02*
Y579350D01*
Y580650D02*
Y580750D01*
Y582050D02*
Y582150D01*
X719800Y575218D02*
Y575514D01*
Y577150D02*
Y577250D01*
Y579250D02*
Y579350D01*
Y580650D02*
Y580750D01*
Y582050D02*
Y582150D01*
X719900Y575278D02*
Y575547D01*
Y577150D02*
Y577250D01*
Y579250D02*
Y579350D01*
Y580650D02*
Y580750D01*
Y582050D02*
Y582150D01*
X720000Y575338D02*
Y575581D01*
Y577150D02*
Y577345D01*
Y579250D02*
Y579350D01*
Y580650D02*
Y580750D01*
Y582050D02*
Y582150D01*
X720100Y575398D02*
Y575614D01*
Y577150D02*
Y577470D01*
Y579250D02*
Y579350D01*
Y580650D02*
Y580750D01*
Y582050D02*
Y582150D01*
X720200Y575458D02*
Y575647D01*
Y577150D02*
Y577595D01*
Y579250D02*
Y579350D01*
Y580650D02*
Y580750D01*
Y582050D02*
Y582150D01*
X720300Y575515D02*
Y575681D01*
Y577150D02*
Y577720D01*
Y579250D02*
Y579350D01*
Y580650D02*
Y580750D01*
Y582050D02*
Y582150D01*
X720400Y575572D02*
Y575714D01*
Y577150D02*
Y577607D01*
Y579250D02*
Y579350D01*
Y580650D02*
Y580750D01*
Y582050D02*
Y582150D01*
X720500Y575629D02*
Y575747D01*
Y577150D02*
Y577490D01*
Y579250D02*
Y579350D01*
Y580650D02*
Y580750D01*
Y582050D02*
Y582150D01*
X720600Y575686D02*
Y575781D01*
Y577150D02*
Y577373D01*
Y579250D02*
Y579350D01*
Y580650D02*
Y580750D01*
Y582050D02*
Y582150D01*
X720700Y575743D02*
Y575814D01*
Y577150D02*
Y577257D01*
Y579250D02*
Y579350D01*
Y580650D02*
Y580750D01*
Y582050D02*
Y582150D01*
X720800Y575800D02*
Y575829D01*
Y579250D02*
Y579350D01*
Y580650D02*
Y580750D01*
Y582050D02*
Y582150D01*
X720900Y579250D02*
Y579350D01*
Y580650D02*
Y580750D01*
Y582050D02*
Y582150D01*
X721000Y579250D02*
Y579350D01*
Y580650D02*
Y580750D01*
Y582050D02*
Y582150D01*
X721100Y579250D02*
Y579350D01*
Y580650D02*
Y580750D01*
Y582050D02*
Y582150D01*
X721200Y579250D02*
Y579350D01*
Y580650D02*
Y580750D01*
Y582050D02*
Y582150D01*
X721300Y575106D02*
Y578901D01*
Y579250D02*
Y579350D01*
Y580650D02*
Y580750D01*
Y582050D02*
Y582150D01*
X721400Y574812D02*
Y578856D01*
Y579250D02*
Y579350D01*
Y580650D02*
Y580750D01*
Y582050D02*
Y582150D01*
X721500Y574714D02*
Y578812D01*
Y579250D02*
Y579350D01*
Y580650D02*
Y580750D01*
Y582050D02*
Y582150D01*
X721600Y574674D02*
Y578768D01*
Y579250D02*
Y579350D01*
Y580650D02*
Y580750D01*
Y582050D02*
Y582150D01*
X721700Y574634D02*
Y575242D01*
Y576856D02*
Y576950D01*
Y578363D02*
Y578723D01*
Y579250D02*
Y579350D01*
Y580650D02*
Y580750D01*
Y582050D02*
Y582150D01*
X721800Y574594D02*
Y575047D01*
Y576906D02*
Y577009D01*
Y578438D02*
Y578679D01*
Y579250D02*
Y579350D01*
Y580650D02*
Y580750D01*
Y582050D02*
Y582150D01*
X721900Y574554D02*
Y575014D01*
Y576956D02*
Y577079D01*
Y578513D02*
Y578634D01*
Y579250D02*
Y579350D01*
Y580650D02*
Y580750D01*
Y582050D02*
Y582150D01*
X722000Y574550D02*
Y574981D01*
Y577006D02*
Y577149D01*
Y578588D02*
Y578590D01*
Y579250D02*
Y579350D01*
Y580650D02*
Y580750D01*
Y582050D02*
Y582150D01*
X722100Y574550D02*
Y574950D01*
Y577056D02*
Y577219D01*
Y579250D02*
Y579350D01*
Y580650D02*
Y580750D01*
Y582050D02*
Y582150D01*
X722200Y574550D02*
Y574950D01*
Y577106D02*
Y577289D01*
Y579250D02*
Y579350D01*
Y580650D02*
Y580750D01*
Y582050D02*
Y582150D01*
X722300Y574550D02*
Y574950D01*
Y577156D02*
Y577359D01*
Y579250D02*
Y579350D01*
Y580650D02*
Y580750D01*
Y582050D02*
Y582150D01*
X722400Y574550D02*
Y574950D01*
Y577206D02*
Y577429D01*
Y579250D02*
Y579350D01*
Y580650D02*
Y580750D01*
Y582050D02*
Y582150D01*
X722500Y574550D02*
Y574950D01*
Y577256D02*
Y577499D01*
Y579250D02*
Y579350D01*
Y580650D02*
Y580750D01*
Y582050D02*
Y582150D01*
X722600Y574550D02*
Y574950D01*
Y577306D02*
Y577569D01*
Y579250D02*
Y579350D01*
Y580650D02*
Y580750D01*
Y582050D02*
Y582150D01*
X722700Y574550D02*
Y574950D01*
Y577356D02*
Y577639D01*
Y579250D02*
Y579350D01*
Y580650D02*
Y580750D01*
Y582050D02*
Y582150D01*
X722800Y574550D02*
Y574950D01*
Y577406D02*
Y577740D01*
Y579250D02*
Y579350D01*
Y580650D02*
Y580750D01*
Y582050D02*
Y582229D01*
X722900Y574550D02*
Y574950D01*
Y577456D02*
Y577857D01*
Y578906D02*
Y582329D01*
X723000Y574550D02*
Y574950D01*
Y577506D02*
Y577973D01*
Y578956D02*
Y582429D01*
X723100Y574550D02*
Y574950D01*
Y577556D02*
Y578090D01*
Y579006D02*
Y582529D01*
X723200Y574550D02*
Y574950D01*
Y577606D02*
Y578207D01*
Y579056D02*
Y582452D01*
X723300Y574551D02*
Y574950D01*
Y577656D02*
Y578323D01*
Y579106D02*
Y579294D01*
Y581956D02*
Y582368D01*
X723400Y574565D02*
Y574994D01*
Y577706D02*
Y578207D01*
Y582006D02*
Y582285D01*
X723500Y574579D02*
Y575044D01*
Y577750D02*
Y578090D01*
Y582056D02*
Y582202D01*
X723600Y574593D02*
Y575242D01*
Y577750D02*
Y577973D01*
Y582106D02*
Y582118D01*
X723700Y574608D02*
Y576246D01*
Y577750D02*
Y577857D01*
X723800Y574622D02*
Y576550D01*
X723900Y574636D02*
Y575694D01*
X724000Y574671D02*
Y575342D01*
X724100Y574771D02*
Y575140D01*
X724200Y574871D02*
Y575073D01*
X724300Y574971D02*
Y575007D01*
X725400Y578913D02*
Y578950D01*
X725500Y578838D02*
Y578950D01*
X725600Y578763D02*
Y578950D01*
X725700Y578761D02*
Y578950D01*
X725800Y578773D02*
Y578950D01*
X725900Y578784D02*
Y578950D01*
X726000Y578795D02*
Y578950D01*
X726100Y578806D02*
Y578950D01*
X726200Y578817D02*
Y578950D01*
X726300Y578828D02*
Y578950D01*
X726400Y578839D02*
Y578950D01*
X726500Y578850D02*
Y578950D01*
X726600Y578850D02*
Y578950D01*
X726700Y578850D02*
Y578950D01*
Y582271D02*
Y582350D01*
X726800Y578850D02*
Y578950D01*
Y582171D02*
Y582350D01*
X726900Y578850D02*
Y578950D01*
Y582160D02*
Y582350D01*
X727000Y578850D02*
Y578950D01*
Y582170D02*
Y582350D01*
X727100Y578850D02*
Y578950D01*
Y582180D02*
Y582350D01*
X727200Y578850D02*
Y578950D01*
Y582190D02*
Y582350D01*
X727300Y578850D02*
Y578950D01*
Y582200D02*
Y582350D01*
X727400Y578850D02*
Y578950D01*
Y582210D02*
Y582350D01*
X727500Y578850D02*
Y578950D01*
Y582220D02*
Y582350D01*
X727600Y578850D02*
Y578950D01*
Y582230D02*
Y582350D01*
X727700Y578850D02*
Y578950D01*
Y582240D02*
Y582350D01*
X727800Y578850D02*
Y578950D01*
Y582250D02*
Y582350D01*
X727900Y574919D02*
Y575039D01*
Y578850D02*
Y578950D01*
Y582250D02*
Y582350D01*
X728000Y574886D02*
Y575027D01*
Y578850D02*
Y578950D01*
Y582250D02*
Y582350D01*
X728100Y574853D02*
Y575016D01*
Y578850D02*
Y578950D01*
Y582250D02*
Y582350D01*
X728200Y574819D02*
Y575005D01*
Y578850D02*
Y578950D01*
Y582250D02*
Y582350D01*
X728300Y574786D02*
Y574994D01*
Y578850D02*
Y578950D01*
Y582250D02*
Y582350D01*
X728400Y574753D02*
Y574983D01*
Y578850D02*
Y578950D01*
Y582250D02*
Y582350D01*
X728500Y574706D02*
Y574972D01*
Y578850D02*
Y578950D01*
Y582250D02*
Y582350D01*
X728600Y574656D02*
Y574961D01*
Y578850D02*
Y578950D01*
Y582250D02*
Y582350D01*
X728700Y574606D02*
Y574950D01*
Y578850D02*
Y578950D01*
Y582250D02*
Y582350D01*
X728800Y574556D02*
Y574950D01*
Y578850D02*
Y578950D01*
Y582250D02*
Y582350D01*
X728900Y574493D02*
Y574950D01*
Y578850D02*
Y578950D01*
Y582250D02*
Y582350D01*
X729000Y574427D02*
Y574950D01*
Y578850D02*
Y578950D01*
Y582250D02*
Y582350D01*
X729100Y574360D02*
Y574950D01*
Y578850D02*
Y578950D01*
Y582250D02*
Y582350D01*
X729200Y574094D02*
Y574950D01*
Y578850D02*
Y578950D01*
Y582250D02*
Y582350D01*
X729300Y574134D02*
Y574950D01*
Y578850D02*
Y578950D01*
Y582250D02*
Y582350D01*
X729400Y574174D02*
Y574994D01*
Y578850D02*
Y578950D01*
Y582250D02*
Y582350D01*
X729500Y574214D02*
Y575044D01*
Y578850D02*
Y578950D01*
Y582250D02*
Y582350D01*
X729600Y574260D02*
Y575294D01*
Y578850D02*
Y578950D01*
Y579851D02*
Y580594D01*
Y582250D02*
Y582350D01*
X729700Y574327D02*
Y580544D01*
Y582250D02*
Y582350D01*
X729800Y574393D02*
Y580494D01*
Y582250D02*
Y582350D01*
X729900Y574490D02*
Y580444D01*
Y582250D02*
Y582350D01*
X730000Y574640D02*
Y580394D01*
Y582250D02*
Y582350D01*
X730100Y574906D02*
Y580350D01*
Y582250D02*
Y582350D01*
X730200Y578850D02*
Y578950D01*
Y579856D02*
Y580237D01*
Y580360D02*
Y580420D01*
Y582250D02*
Y582350D01*
X730300Y578850D02*
Y578950D01*
Y579906D02*
Y580162D01*
Y580427D02*
Y580506D01*
Y582250D02*
Y582350D01*
X730400Y578850D02*
Y578950D01*
Y579956D02*
Y580087D01*
Y580493D02*
Y580591D01*
Y582250D02*
Y582350D01*
X730500Y578850D02*
Y578950D01*
Y580006D02*
Y580012D01*
Y580560D02*
Y580677D01*
Y582250D02*
Y582350D01*
X730600Y578850D02*
Y578950D01*
Y580627D02*
Y580763D01*
Y582250D02*
Y582350D01*
X730700Y578850D02*
Y578950D01*
Y580693D02*
Y580848D01*
Y582250D02*
Y582350D01*
X730800Y578850D02*
Y578950D01*
Y580760D02*
Y580934D01*
Y582250D02*
Y582350D01*
X730900Y578850D02*
Y578950D01*
Y580827D02*
Y581020D01*
Y582250D02*
Y582350D01*
X731000Y578850D02*
Y578950D01*
Y580893D02*
Y581106D01*
Y582250D02*
Y582350D01*
X731100Y578850D02*
Y578950D01*
Y580960D02*
Y581191D01*
Y582250D02*
Y582350D01*
X731200Y578850D02*
Y578950D01*
Y581027D02*
Y581277D01*
Y582250D02*
Y582350D01*
X731300Y578850D02*
Y578950D01*
Y581093D02*
Y581363D01*
Y582250D02*
Y582350D01*
X731400Y578850D02*
Y578950D01*
Y581157D02*
Y581448D01*
Y582250D02*
Y582350D01*
X731500Y578850D02*
Y578950D01*
Y581213D02*
Y581534D01*
Y582250D02*
Y582350D01*
X731600Y578850D02*
Y578950D01*
Y581268D02*
Y581620D01*
Y582250D02*
Y582350D01*
X731700Y578850D02*
Y578950D01*
Y581324D02*
Y581706D01*
Y582250D02*
Y582350D01*
X731800Y578850D02*
Y578950D01*
Y581379D02*
Y581791D01*
Y582250D02*
Y582350D01*
X731900Y578850D02*
Y578950D01*
Y581435D02*
Y581877D01*
Y582250D02*
Y582350D01*
X732000Y578850D02*
Y578950D01*
Y581491D02*
Y581963D01*
Y582250D02*
Y582350D01*
X732100Y578850D02*
Y578950D01*
Y581546D02*
Y582048D01*
Y582250D02*
Y582350D01*
X732200Y578850D02*
Y578950D01*
Y581602D02*
Y582134D01*
Y582250D02*
Y582350D01*
X732300Y578850D02*
Y578950D01*
Y581656D02*
Y582429D01*
X732400Y578850D02*
Y578950D01*
Y581706D02*
Y582529D01*
X732500Y578850D02*
Y578950D01*
Y581756D02*
Y582629D01*
X732600Y578850D02*
Y578950D01*
Y581806D02*
Y582729D01*
X732700Y578850D02*
Y578950D01*
Y581856D02*
Y582825D01*
X732800Y578850D02*
Y578950D01*
Y581906D02*
Y582712D01*
X732900Y578850D02*
Y579029D01*
Y581951D02*
Y582600D01*
X733000Y578850D02*
Y579129D01*
Y581967D02*
Y582487D01*
X733100Y578850D02*
Y579229D01*
Y581984D02*
Y582375D01*
X733200Y578850D02*
Y579329D01*
Y582001D02*
Y582262D01*
X733300Y578850D02*
Y579429D01*
Y582017D02*
Y582150D01*
X733400Y578850D02*
Y579529D01*
Y582034D02*
Y582037D01*
X733500Y578850D02*
Y579625D01*
X733600Y578850D02*
Y579512D01*
X733700Y578850D02*
Y579400D01*
X733800Y578850D02*
Y579287D01*
X733900Y578850D02*
Y579175D01*
X734000Y578850D02*
Y579062D01*
X734100Y578850D02*
Y578950D01*
*
G04 PC Custom Flashes*
G04 Layer Name CAR-BOARD.pcb - flashes*
%LPD*%
*
*
G04 PC Circuitry*
G04 Layer Name CAR-BOARD.pcb - circuitry*
%LPD*%
*
G54D10*
X999000Y601000D02*
Y388642D01*
X967228Y356870D02*
G75*
G03X999000Y388642I0J31772D01*
G01X967228Y356870D02*
X597630D01*
X597630*
X565929Y388571D02*
G03X597630Y356870I31701J0D01*
G01X565929Y388571D02*
Y603500D01*
X594890Y632461D02*
G03X565929Y603500I-0J-28961D01*
G01X594890Y632461D02*
X969969D01*
X969969*
X999000Y601000D02*
G03X969969Y632461I-30246J1215D01*
G01X999000Y601000D02*
X999000D01*
X682874Y389764D02*
G03X682874I-7874J0D01*
G01X901874D02*
G03X901874I-7874J0D01*
G01X979874Y605764D02*
G03X979874I-7874J0D01*
G01X597874D02*
G03X597874I-7874J0D01*
G01X565929Y602531D02*
X565932D01*
X999000Y599067D02*
X999003D01*
X609515Y356870D02*
X609518D01*
X598690Y632461D02*
X598693D01*
G54D16*
X766328Y667563D02*
X766783Y667875D01*
X767465Y668813*
X767465D02*
Y662250D01*
X769510Y667563D02*
X769965Y667875D01*
X770646Y668813*
X770646D02*
Y662250D01*
X774055Y668813D02*
X773374Y668500D01*
X772919Y667563*
X772919D02*
X772692Y666000D01*
Y665063*
X772692D02*
X772919Y663500D01*
X773374Y662563*
X773374D02*
X774055Y662250D01*
X774510*
X775192Y662563*
X775192D02*
X775646Y663500D01*
X775874Y665063*
X775874D02*
Y666000D01*
X775646Y667563*
X775646D02*
X775192Y668500D01*
X774510Y668813*
X774510D02*
X774055D01*
X778146Y662875D02*
X777919Y662563D01*
X777919D02*
X778146Y662250D01*
X778374Y662563*
X778374D02*
X778146Y662875D01*
X781783Y668813D02*
X781101Y668500D01*
X780646Y667563*
X780646D02*
X780419Y666000D01*
Y665063*
X780419D02*
X780646Y663500D01*
X781101Y662563*
X781101D02*
X781783Y662250D01*
X782237*
X782919Y662563*
X782919D02*
X783374Y663500D01*
X783601Y665063*
X783601D02*
Y666000D01*
X783374Y667563*
X783374D02*
X782919Y668500D01*
X782237Y668813*
X782237D02*
X781783D01*
X785646Y666625D02*
Y662250D01*
Y665375D02*
X786328Y666313D01*
X786328D02*
X786783Y666625D01*
X787465*
X787919Y666313*
X787919D02*
X788146Y665375D01*
Y662250*
Y665375D02*
X788828Y666313D01*
X788828D02*
X789283Y666625D01*
X789965*
X790419Y666313*
X790419D02*
X790646Y665375D01*
Y662250*
X792692Y666625D02*
Y662250D01*
Y665375D02*
X793374Y666313D01*
X793374D02*
X793828Y666625D01*
X794510*
X794965Y666313*
X794965D02*
X795192Y665375D01*
Y662250*
Y665375D02*
X795874Y666313D01*
X795874D02*
X796328Y666625D01*
X797010*
X797465Y666313*
X797465D02*
X797692Y665375D01*
Y662250*
X502614Y497478D02*
X500341Y490915D01*
X499432Y497478D02*
X502614D01*
X506023D02*
X505341Y497165D01*
X504886Y496228*
X504659Y494665*
Y493728*
X504886Y492165*
X505341Y491228*
X506023Y490915*
X506477*
X507159Y491228*
X507614Y492165*
X507841Y493728*
Y494665*
X507614Y496228*
X507159Y497165*
X506477Y497478*
X506023*
X510114Y491540D02*
X509886Y491228D01*
X510114Y490915*
X510341Y491228*
X510114Y491540*
X513750Y497478D02*
X513068Y497165D01*
X512614Y496228*
X512386Y494665*
Y493728*
X512614Y492165*
X513068Y491228*
X513750Y490915*
X514205*
X514886Y491228*
X515341Y492165*
X515568Y493728*
Y494665*
X515341Y496228*
X514886Y497165*
X514205Y497478*
X513750*
X517614Y495290D02*
Y490915D01*
Y494040D02*
X518295Y494978D01*
X518750Y495290*
X519432*
X519886Y494978*
X520114Y494040*
Y490915*
Y494040D02*
X520795Y494978D01*
X521250Y495290*
X521932*
X522386Y494978*
X522614Y494040*
Y490915*
X524659Y495290D02*
Y490915D01*
Y494040D02*
X525341Y494978D01*
X525795Y495290*
X526477*
X526932Y494978*
X527159Y494040*
Y490915*
Y494040D02*
X527841Y494978D01*
X528295Y495290*
X528977*
X529432Y494978*
X529659Y494040*
Y490915*
X704227Y591000D02*
Y591313D01*
X704227D02*
X704455Y591938D01*
X704455D02*
X704682Y592250D01*
X705136Y592563*
X705136D02*
X706045D01*
X706045D02*
X706500Y592250D01*
X706727Y591938*
X706727D02*
X706955Y591313D01*
X706955D02*
Y590688D01*
X706955D02*
X706727Y590063D01*
X706727D02*
X706273Y589125D01*
X704000Y586000*
X707182*
X710591Y592563D02*
X709909Y592250D01*
X709455Y591313*
X709455D02*
X709227Y589750D01*
Y588813*
X709227D02*
X709455Y587250D01*
X709909Y586313*
X709909D02*
X710591Y586000D01*
X711045*
X711727Y586313*
X711727D02*
X712182Y587250D01*
X712409Y588813*
X712409D02*
Y589750D01*
X712182Y591313*
X712182D02*
X711727Y592250D01*
X711045Y592563*
X711045D02*
X710591D01*
X714682Y591000D02*
Y591313D01*
X714682D02*
X714909Y591938D01*
X714909D02*
X715136Y592250D01*
X715591Y592563*
X715591D02*
X716500D01*
X716500D02*
X716955Y592250D01*
X717182Y591938*
X717182D02*
X717409Y591313D01*
X717409D02*
Y590688D01*
X717409D02*
X717182Y590063D01*
X717182D02*
X716727Y589125D01*
X714455Y586000*
X717636*
X719909Y591000D02*
Y591313D01*
X719909D02*
X720136Y591938D01*
X720136D02*
X720364Y592250D01*
X720818Y592563*
X720818D02*
X721727D01*
X721727D02*
X722182Y592250D01*
X722409Y591938*
X722409D02*
X722636Y591313D01*
X722636D02*
Y590688D01*
X722636D02*
X722409Y590063D01*
X722409D02*
X721955Y589125D01*
X719682Y586000*
X722864*
X586000Y443197D02*
X594000D01*
X590000Y439197D02*
Y447197D01*
X592000Y448478D02*
Y445197D01*
Y448478D02*
X593023D01*
X593364Y448322*
X593477Y448166*
X593591Y447853*
Y447541*
X593477Y447228*
X593364Y447072*
X593023Y446916*
X592000D02*
X593023D01*
X593364Y446759*
X593477Y446603*
X593591Y446291*
Y445822*
X593477Y445509*
X593364Y445353*
X593023Y445197*
X592000*
X586000Y492803D02*
X594000D01*
X590000Y488803D02*
Y496803D01*
X592000Y498084D02*
Y494803D01*
Y498084D02*
X593023D01*
X593364Y497928*
X593477Y497772*
X593591Y497459*
Y497147*
X593477Y496834*
X593364Y496678*
X593023Y496522*
X592000D02*
X593023D01*
X593364Y496366*
X593477Y496209*
X593591Y495897*
Y495428*
X593477Y495116*
X593364Y494959*
X593023Y494803*
X592000*
X586000Y456189D02*
X594000D01*
X590000Y452189D02*
Y460189D01*
X592909Y461470D02*
X592000Y458189D01*
X592909Y461470D02*
X593818Y458189D01*
X592341Y459283D02*
X593477D01*
X586000Y468000D02*
X594000D01*
X590000Y464000D02*
Y472000D01*
X592909Y473281D02*
X592000Y470000D01*
X592909Y473281D02*
X593818Y470000D01*
X592341Y471094D02*
X593477D01*
X586000Y479811D02*
X594000D01*
X590000Y475811D02*
Y483811D01*
X592909Y485092D02*
X592000Y481811D01*
X592909Y485092D02*
X593818Y481811D01*
X592341Y482905D02*
X593477D01*
X931000Y410000D02*
X935000Y414000D01*
X931000Y418000*
X927000Y414000*
X931000Y410000*
Y414000D02*
Y418000D01*
Y420000D02*
X935000Y424000D01*
X931000Y428000*
X927000Y424000*
X931000Y420000*
Y424000D02*
Y428000D01*
X941000Y410000D02*
X945000Y414000D01*
X941000Y418000*
X937000Y414000*
X941000Y410000*
Y414000D02*
Y418000D01*
Y420000D02*
X945000Y424000D01*
X941000Y428000*
X937000Y424000*
X941000Y420000*
Y424000D02*
Y428000D01*
X951000Y410000D02*
X955000Y414000D01*
X951000Y418000*
X947000Y414000*
X951000Y410000*
Y414000D02*
Y418000D01*
Y420000D02*
X955000Y424000D01*
X951000Y428000*
X947000Y424000*
X951000Y420000*
Y424000D02*
Y428000D01*
X884500Y427000D02*
X892500Y435000D01*
Y427000*
X884500Y435000*
Y427000*
Y417000D02*
X892500Y425000D01*
Y417000*
X884500Y425000*
Y417000*
X874500Y427000D02*
X882500Y435000D01*
Y427000*
X874500Y435000*
Y427000*
Y417000D02*
X882500Y425000D01*
Y417000*
X874500Y425000*
Y417000*
X864500Y427000D02*
X872500Y435000D01*
Y427000*
X864500Y435000*
Y427000*
Y417000D02*
X872500Y425000D01*
Y417000*
X864500Y425000*
Y417000*
X854500Y427000D02*
X862500Y435000D01*
Y427000*
X854500Y435000*
Y427000*
Y417000D02*
X862500Y425000D01*
Y417000*
X854500Y425000*
Y417000*
X844500Y427000D02*
X852500Y435000D01*
Y427000*
X844500Y435000*
Y427000*
Y417000D02*
X852500Y425000D01*
Y417000*
X844500Y425000*
Y417000*
X834500Y427000D02*
X842500Y435000D01*
Y427000*
X834500Y435000*
Y427000*
Y417000D02*
X842500Y425000D01*
Y417000*
X834500Y425000*
Y417000*
X824500Y427000D02*
X832500Y435000D01*
Y427000*
X824500Y435000*
Y427000*
Y417000D02*
X832500Y425000D01*
Y417000*
X824500Y425000*
Y417000*
X814500Y427000D02*
X822500Y435000D01*
Y427000*
X814500Y435000*
Y427000*
Y417000D02*
X822500Y425000D01*
Y417000*
X814500Y425000*
Y417000*
X741000Y450000D02*
X749000Y458000D01*
Y450000*
X741000Y458000*
Y450000*
Y460000D02*
X749000Y468000D01*
Y460000*
X741000Y468000*
Y460000*
X751000Y450000D02*
X759000Y458000D01*
Y450000*
X751000Y458000*
Y450000*
Y460000D02*
X759000Y468000D01*
Y460000*
X751000Y468000*
Y460000*
X761000Y450000D02*
X769000Y458000D01*
Y450000*
X761000Y458000*
Y450000*
Y460000D02*
X769000Y468000D01*
Y460000*
X761000Y468000*
Y460000*
X771000Y450000D02*
X779000Y458000D01*
Y450000*
X771000Y458000*
Y450000*
Y460000D02*
X779000Y468000D01*
Y460000*
X771000Y468000*
Y460000*
X781000Y450000D02*
X789000Y458000D01*
Y450000*
X781000Y458000*
Y450000*
Y460000D02*
X789000Y468000D01*
Y460000*
X781000Y468000*
Y460000*
X791000Y450000D02*
X799000Y458000D01*
Y450000*
X791000Y458000*
Y450000*
Y460000D02*
X799000Y468000D01*
Y460000*
X791000Y468000*
Y460000*
X801000Y450000D02*
X809000Y458000D01*
Y450000*
X801000Y458000*
Y450000*
Y460000D02*
X809000Y468000D01*
Y460000*
X801000Y468000*
Y460000*
X811000Y450000D02*
X819000Y458000D01*
Y450000*
X811000Y458000*
Y450000*
Y460000D02*
X819000Y468000D01*
Y460000*
X811000Y468000*
Y460000*
X821000Y450000D02*
X829000Y458000D01*
Y450000*
X821000Y458000*
Y450000*
Y460000D02*
X829000Y468000D01*
Y460000*
X821000Y468000*
Y460000*
X831000Y450000D02*
X839000Y458000D01*
Y450000*
X831000Y458000*
Y450000*
Y460000D02*
X839000Y468000D01*
Y460000*
X831000Y468000*
Y460000*
X841000Y450000D02*
X849000Y458000D01*
Y450000*
X841000Y458000*
Y450000*
Y460000D02*
X849000Y468000D01*
Y460000*
X841000Y468000*
Y460000*
X851000Y450000D02*
X859000Y458000D01*
Y450000*
X851000Y458000*
Y450000*
Y460000D02*
X859000Y468000D01*
Y460000*
X851000Y468000*
Y460000*
X861000Y450000D02*
X869000Y458000D01*
Y450000*
X861000Y458000*
Y450000*
Y460000D02*
X869000Y468000D01*
Y460000*
X861000Y468000*
Y460000*
X871000Y450000D02*
X879000Y458000D01*
Y450000*
X871000Y458000*
Y450000*
Y460000D02*
X879000Y468000D01*
Y460000*
X871000Y468000*
Y460000*
X881000Y450000D02*
X889000Y458000D01*
Y450000*
X881000Y458000*
Y450000*
Y460000D02*
X889000Y468000D01*
Y460000*
X881000Y468000*
Y460000*
X891000Y450000D02*
X899000Y458000D01*
Y450000*
X891000Y458000*
Y450000*
Y460000D02*
X899000Y468000D01*
Y460000*
X891000Y468000*
Y460000*
X901000Y450000D02*
X909000Y458000D01*
Y450000*
X901000Y458000*
Y450000*
Y460000D02*
X909000Y468000D01*
Y460000*
X901000Y468000*
Y460000*
X911000Y450000D02*
X919000Y458000D01*
Y450000*
X911000Y458000*
Y450000*
Y460000D02*
X919000Y468000D01*
Y460000*
X911000Y468000*
Y460000*
X921000Y450000D02*
X929000Y458000D01*
Y450000*
X921000Y458000*
Y450000*
Y460000D02*
X929000Y468000D01*
Y460000*
X921000Y468000*
Y460000*
X931000Y450000D02*
X939000Y458000D01*
Y450000*
X931000Y458000*
Y450000*
Y460000D02*
X939000Y468000D01*
Y460000*
X931000Y468000*
Y460000*
X921000Y470000D02*
X929000Y478000D01*
Y470000*
X921000Y478000*
Y470000*
X931000D02*
X939000Y478000D01*
Y470000*
X931000Y478000*
Y470000*
Y560000D02*
X939000Y568000D01*
Y560000*
X931000Y568000*
Y560000*
X921000D02*
X929000Y568000D01*
Y560000*
X921000Y568000*
Y560000*
X931000Y570000D02*
X939000Y578000D01*
Y570000*
X931000Y578000*
Y570000*
Y580000D02*
X939000Y588000D01*
Y580000*
X931000Y588000*
Y580000*
X921000Y570000D02*
X929000Y578000D01*
Y570000*
X921000Y578000*
Y570000*
Y580000D02*
X929000Y588000D01*
Y580000*
X921000Y588000*
Y580000*
X911000Y570000D02*
X919000Y578000D01*
Y570000*
X911000Y578000*
Y570000*
Y580000D02*
X919000Y588000D01*
Y580000*
X911000Y588000*
Y580000*
X901000Y570000D02*
X909000Y578000D01*
Y570000*
X901000Y578000*
Y570000*
Y580000D02*
X909000Y588000D01*
Y580000*
X901000Y588000*
Y580000*
X891000Y570000D02*
X899000Y578000D01*
Y570000*
X891000Y578000*
Y570000*
Y580000D02*
X899000Y588000D01*
Y580000*
X891000Y588000*
Y580000*
X881000Y570000D02*
X889000Y578000D01*
Y570000*
X881000Y578000*
Y570000*
Y580000D02*
X889000Y588000D01*
Y580000*
X881000Y588000*
Y580000*
X871000Y570000D02*
X879000Y578000D01*
Y570000*
X871000Y578000*
Y570000*
Y580000D02*
X879000Y588000D01*
Y580000*
X871000Y588000*
Y580000*
X861000Y570000D02*
X869000Y578000D01*
Y570000*
X861000Y578000*
Y570000*
Y580000D02*
X869000Y588000D01*
Y580000*
X861000Y588000*
Y580000*
X851000Y570000D02*
X859000Y578000D01*
Y570000*
X851000Y578000*
Y570000*
Y580000D02*
X859000Y588000D01*
Y580000*
X851000Y588000*
Y580000*
X841000Y570000D02*
X849000Y578000D01*
Y570000*
X841000Y578000*
Y570000*
Y580000D02*
X849000Y588000D01*
Y580000*
X841000Y588000*
Y580000*
X831000Y570000D02*
X839000Y578000D01*
Y570000*
X831000Y578000*
Y570000*
Y580000D02*
X839000Y588000D01*
Y580000*
X831000Y588000*
Y580000*
X821000Y570000D02*
X829000Y578000D01*
Y570000*
X821000Y578000*
Y570000*
Y580000D02*
X829000Y588000D01*
Y580000*
X821000Y588000*
Y580000*
X811000Y570000D02*
X819000Y578000D01*
Y570000*
X811000Y578000*
Y570000*
Y580000D02*
X819000Y588000D01*
Y580000*
X811000Y588000*
Y580000*
X801000Y570000D02*
X809000Y578000D01*
Y570000*
X801000Y578000*
Y570000*
Y580000D02*
X809000Y588000D01*
Y580000*
X801000Y588000*
Y580000*
X791000Y570000D02*
X799000Y578000D01*
Y570000*
X791000Y578000*
Y570000*
Y580000D02*
X799000Y588000D01*
Y580000*
X791000Y588000*
Y580000*
X781000Y570000D02*
X789000Y578000D01*
Y570000*
X781000Y578000*
Y570000*
Y580000D02*
X789000Y588000D01*
Y580000*
X781000Y588000*
Y580000*
X771000Y570000D02*
X779000Y578000D01*
Y570000*
X771000Y578000*
Y570000*
Y580000D02*
X779000Y588000D01*
Y580000*
X771000Y588000*
Y580000*
X761000Y570000D02*
X769000Y578000D01*
Y570000*
X761000Y578000*
Y570000*
Y580000D02*
X769000Y588000D01*
Y580000*
X761000Y588000*
Y580000*
X751000Y570000D02*
X759000Y578000D01*
Y570000*
X751000Y578000*
Y570000*
Y580000D02*
X759000Y588000D01*
Y580000*
X751000Y588000*
Y580000*
X741000Y570000D02*
X749000Y578000D01*
Y570000*
X741000Y578000*
Y570000*
Y580000D02*
X749000Y588000D01*
Y580000*
X741000Y588000*
Y580000*
X760500Y410000D02*
X764500Y414000D01*
X760500Y418000*
X756500Y414000*
X760500Y410000*
Y414000D02*
Y418000D01*
Y420000D02*
X764500Y424000D01*
X760500Y428000*
X756500Y424000*
X760500Y420000*
Y424000D02*
Y428000D01*
X770500Y410000D02*
X774500Y414000D01*
X770500Y418000*
X766500Y414000*
X770500Y410000*
Y414000D02*
Y418000D01*
Y420000D02*
X774500Y424000D01*
X770500Y428000*
X766500Y424000*
X770500Y420000*
Y424000D02*
Y428000D01*
X780500Y410000D02*
X784500Y414000D01*
X780500Y418000*
X776500Y414000*
X780500Y410000*
Y414000D02*
Y418000D01*
Y420000D02*
X784500Y424000D01*
X780500Y428000*
X776500Y424000*
X780500Y420000*
Y424000D02*
Y428000D01*
X813000Y387000D02*
X821000Y395000D01*
Y387000*
X813000Y395000*
Y387000*
X823000D02*
X831000Y395000D01*
Y387000*
X823000Y395000*
Y387000*
X833000D02*
X841000Y395000D01*
Y387000*
X833000Y395000*
Y387000*
X843000D02*
X851000Y395000D01*
Y387000*
X843000Y395000*
Y387000*
X853000D02*
X861000Y395000D01*
Y387000*
X853000Y395000*
Y387000*
X863000D02*
X871000Y395000D01*
Y387000*
X863000Y395000*
Y387000*
X833500Y533843D02*
X841500Y541843D01*
Y533843*
X833500Y541843*
Y533843*
Y514157D02*
X841500Y522157D01*
Y514157*
X833500Y522157*
Y514157*
X931000Y367000D02*
X935000Y371000D01*
X931000Y375000*
X927000Y371000*
X931000Y367000*
Y371000D02*
Y375000D01*
Y377000D02*
X935000Y381000D01*
X931000Y385000*
X927000Y381000*
X931000Y377000*
Y381000D02*
Y385000D01*
X941000Y367000D02*
X945000Y371000D01*
X941000Y375000*
X937000Y371000*
X941000Y367000*
Y371000D02*
Y375000D01*
Y377000D02*
X945000Y381000D01*
X941000Y385000*
X937000Y381000*
X941000Y377000*
Y381000D02*
Y385000D01*
X951000Y367000D02*
X955000Y371000D01*
X951000Y375000*
X947000Y371000*
X951000Y367000*
Y371000D02*
Y375000D01*
Y377000D02*
X955000Y381000D01*
X951000Y385000*
X947000Y381000*
X951000Y377000*
Y381000D02*
Y385000D01*
X760500Y367500D02*
X764500Y371500D01*
X760500Y375500*
X756500Y371500*
X760500Y367500*
Y371500D02*
Y375500D01*
Y377500D02*
X764500Y381500D01*
X760500Y385500*
X756500Y381500*
X760500Y377500*
Y381500D02*
Y385500D01*
X770500Y367500D02*
X774500Y371500D01*
X770500Y375500*
X766500Y371500*
X770500Y367500*
Y371500D02*
Y375500D01*
Y377500D02*
X774500Y381500D01*
X770500Y385500*
X766500Y381500*
X770500Y377500*
Y381500D02*
Y385500D01*
X780500Y367500D02*
X784500Y371500D01*
X780500Y375500*
X776500Y371500*
X780500Y367500*
Y371500D02*
Y375500D01*
Y377500D02*
X784500Y381500D01*
X780500Y385500*
X776500Y381500*
X780500Y377500*
Y381500D02*
Y385500D01*
X761500Y615500D02*
X769500Y623500D01*
Y615500*
X761500Y623500*
Y615500*
Y605500D02*
X769500Y613500D01*
Y605500*
X761500Y613500*
Y605500*
X751500Y615500D02*
X759500Y623500D01*
Y615500*
X751500Y623500*
Y615500*
Y605500D02*
X759500Y613500D01*
Y605500*
X751500Y613500*
Y605500*
X741500Y615500D02*
X749500Y623500D01*
Y615500*
X741500Y623500*
Y615500*
Y605500D02*
X749500Y613500D01*
Y605500*
X741500Y613500*
Y605500*
X731500Y615500D02*
X739500Y623500D01*
Y615500*
X731500Y623500*
Y615500*
Y605500D02*
X739500Y613500D01*
Y605500*
X731500Y613500*
Y605500*
X700000Y371000D02*
X708000Y379000D01*
X700000D02*
X708000Y371000D01*
X720000D02*
X728000Y379000D01*
X720000D02*
X728000Y371000D01*
X706874Y618000D02*
X714874D01*
X710874Y614000D02*
Y622000D01*
X714579Y622500D02*
X714465Y622813D01*
X714465D02*
X714238Y623125D01*
X714010Y623281*
X713556*
X713329Y623125*
X713101Y622813*
X713101D02*
X712988Y622500D01*
X712874Y622031*
Y621250*
X712988Y620781*
X713101Y620469*
X713329Y620156*
X713556Y620000*
X714010*
X714238Y620156*
X714465Y620469*
X714579Y620781*
X699000Y618000D02*
X707000D01*
X703000Y614000D02*
Y622000D01*
X706705Y622500D02*
X706591Y622813D01*
X706591D02*
X706364Y623125D01*
X706136Y623281*
X705682*
X705455Y623125*
X705227Y622813*
X705227D02*
X705114Y622500D01*
X705000Y622031*
Y621250*
X705114Y620781*
X705227Y620469*
X705455Y620156*
X705682Y620000*
X706136*
X706364Y620156*
X706591Y620469*
X706705Y620781*
X691126Y618000D02*
X699126D01*
X695126Y614000D02*
Y622000D01*
X698831Y622500D02*
X698717Y622813D01*
X698717D02*
X698490Y623125D01*
X698262Y623281*
X697808*
X697581Y623125*
X697353Y622813*
X697353D02*
X697240Y622500D01*
X697126Y622031*
Y621250*
X697240Y620781*
X697353Y620469*
X697581Y620156*
X697808Y620000*
X698262*
X698490Y620156*
X698717Y620469*
X698831Y620781*
X651843Y608500D02*
X659843D01*
X655843Y604500D02*
Y612500D01*
X659547Y613000D02*
X659433Y613313D01*
X659433D02*
X659206Y613625D01*
X658979Y613781*
X658524*
X658297Y613625*
X658070Y613313*
X658070D02*
X657956Y613000D01*
X657843Y612531*
Y611750*
X657956Y611281*
X658070Y610969*
X658297Y610656*
X658524Y610500*
X658979*
X659206Y610656*
X659433Y610969*
X659547Y611281*
X642000Y598657D02*
X650000D01*
X646000Y594657D02*
Y602657D01*
X649705Y603157D02*
X649591Y603470D01*
X649364Y603782*
X649136Y603939*
X648682*
X648455Y603782*
X648227Y603470*
X648114Y603157*
X648000Y602689*
Y601907*
X648114Y601439*
X648227Y601126*
X648455Y600814*
X648682Y600657*
X649136*
X649364Y600814*
X649591Y601126*
X649705Y601439*
X632157Y608500D02*
X640157D01*
X636157Y604500D02*
Y612500D01*
X639862Y613000D02*
X639748Y613313D01*
X639748D02*
X639521Y613625D01*
X639294Y613781*
X638839*
X638612Y613625*
X638385Y613313*
X638385D02*
X638271Y613000D01*
X638157Y612531*
Y611750*
X638271Y611281*
X638385Y610969*
X638612Y610656*
X638839Y610500*
X639294*
X639521Y610656*
X639748Y610969*
X639862Y611281*
X638000Y377827D02*
X646000D01*
X638000Y385827*
X646000*
X638000Y377827*
Y406173D02*
X646000D01*
X638000Y414173*
X646000*
X638000Y406173*
X614378Y422575D02*
X622378D01*
X618378Y418575D02*
Y426575D01*
X614378Y369425D02*
X622378D01*
X618378Y365425D02*
Y373425D01*
X966500Y540000D02*
X974500Y548000D01*
Y540000*
X966500Y548000*
Y540000*
X976500D02*
X984500Y548000D01*
Y540000*
X976500Y548000*
Y540000*
Y570000D02*
X984500Y578000D01*
Y570000*
X976500Y578000*
Y570000*
X966500D02*
X974500Y578000D01*
Y570000*
X966500Y578000*
Y570000*
X653200Y357800D02*
X661200D01*
Y365800*
X653200*
Y357800*
X657200Y361800D02*
Y365800D01*
X668500Y357500D02*
X676500D01*
Y365500*
X668500*
Y357500*
X672500Y361500D02*
Y365500D01*
X832500Y363500D02*
X840500D01*
Y371500*
X832500*
Y363500*
X836500Y367500D02*
Y371500D01*
X843000Y363500D02*
X851000D01*
Y371500*
X843000*
Y363500*
X847000Y367500D02*
Y371500D01*
X878000Y357800D02*
X886000D01*
Y365800*
X878000*
Y357800*
X882000Y361800D02*
Y365800D01*
X904200Y357800D02*
X912200D01*
Y365800*
X904200*
Y357800*
X908200Y361800D02*
Y365800D01*
X919500Y367000D02*
X927500D01*
Y375000*
X919500*
Y367000*
X923500Y371000D02*
Y375000D01*
X590500Y374500D02*
X598500D01*
Y382500*
X590500*
Y374500*
X594500Y378500D02*
Y382500D01*
X590400Y384800D02*
X598400D01*
Y392800*
X590400*
Y384800*
X594400Y388800D02*
Y392800D01*
X602000Y374500D02*
X610000D01*
Y382500*
X602000*
Y374500*
X606000Y378500D02*
Y382500D01*
X602000Y385000D02*
X610000D01*
Y393000*
X602000*
Y385000*
X606000Y389000D02*
Y393000D01*
X612500Y385000D02*
X620500D01*
Y393000*
X612500*
Y385000*
X616500Y389000D02*
Y393000D01*
X612500Y374500D02*
X620500D01*
Y382500*
X612500*
Y374500*
X616500Y378500D02*
Y382500D01*
X653000Y368000D02*
X661000D01*
Y376000*
X653000*
Y368000*
X657000Y372000D02*
Y376000D01*
X668600Y367800D02*
X676600D01*
Y375800*
X668600*
Y367800*
X672600Y371800D02*
Y375800D01*
X749500Y367500D02*
X757500D01*
Y375500*
X749500*
Y367500*
X753500Y371500D02*
Y375500D01*
X833000Y379000D02*
X841000D01*
Y387000*
X833000*
Y379000*
X837000Y383000D02*
Y387000D01*
X843000Y379000D02*
X851000D01*
Y387000*
X843000*
Y379000*
X847000Y383000D02*
Y387000D01*
X668500Y404000D02*
X676500D01*
Y412000*
X668500*
Y404000*
X672500Y408000D02*
Y412000D01*
X679000Y404000D02*
X687000D01*
Y412000*
X679000*
Y404000*
X683000Y408000D02*
Y412000D01*
X725500Y405000D02*
X733500D01*
Y413000*
X725500*
Y405000*
X729500Y409000D02*
Y413000D01*
X716500Y404500D02*
X724500D01*
Y412500*
X716500*
Y404500*
X720500Y408500D02*
Y412500D01*
X716500Y396000D02*
X724500D01*
Y404000*
X716500*
Y396000*
X720500Y400000D02*
Y404000D01*
X725500Y396000D02*
X733500D01*
Y404000*
X725500*
Y396000*
X729500Y400000D02*
Y404000D01*
X835500Y400500D02*
X843500D01*
Y408500*
X835500*
Y400500*
X839500Y404500D02*
Y408500D01*
X849000Y400500D02*
X857000D01*
Y408500*
X849000*
Y400500*
X853000Y404500D02*
Y408500D01*
X875000Y400500D02*
X883000D01*
Y408500*
X875000*
Y400500*
X879000Y404500D02*
Y408500D01*
X863000Y400500D02*
X871000D01*
Y408500*
X863000*
Y400500*
X867000Y404500D02*
Y408500D01*
X887500Y400500D02*
X895500D01*
Y408500*
X887500*
Y400500*
X891500Y404500D02*
Y408500D01*
X899000Y400500D02*
X907000D01*
Y408500*
X899000*
Y400500*
X903000Y404500D02*
Y408500D01*
X977500Y396000D02*
X985500D01*
Y404000*
X977500*
Y396000*
X981500Y400000D02*
Y404000D01*
X977500Y389500D02*
X985500D01*
Y397500*
X977500*
Y389500*
X981500Y393500D02*
Y397500D01*
X986000Y389500D02*
X994000D01*
Y397500*
X986000*
Y389500*
X990000Y393500D02*
Y397500D01*
X986000Y396000D02*
X994000D01*
Y404000*
X986000*
Y396000*
X990000Y400000D02*
Y404000D01*
X668500Y413500D02*
X676500D01*
Y421500*
X668500*
Y413500*
X672500Y417500D02*
Y421500D01*
X668500Y424000D02*
X676500D01*
Y432000*
X668500*
Y424000*
X672500Y428000D02*
Y432000D01*
X679000Y414000D02*
X687000D01*
Y422000*
X679000*
Y414000*
X683000Y418000D02*
Y422000D01*
X679000Y424000D02*
X687000D01*
Y432000*
X679000*
Y424000*
X683000Y428000D02*
Y432000D01*
X716500Y412500D02*
X724500D01*
Y420500*
X716500*
Y412500*
X720500Y416500D02*
Y420500D01*
X725500Y412000D02*
X733500D01*
Y420000*
X725500*
Y412000*
X729500Y416000D02*
Y420000D01*
X750000Y410000D02*
X758000D01*
Y418000*
X750000*
Y410000*
X754000Y414000D02*
Y418000D01*
X919500Y410000D02*
X927500D01*
Y418000*
X919500*
Y410000*
X923500Y414000D02*
Y418000D01*
X719000Y428000D02*
X727000D01*
Y436000*
X719000*
Y428000*
X723000Y432000D02*
Y436000D01*
X821000Y436500D02*
X829000D01*
Y444500*
X821000*
Y436500*
X825000Y440500D02*
Y444500D01*
X846000Y437500D02*
X854000D01*
Y445500*
X846000*
Y437500*
X850000Y441500D02*
Y445500D01*
X851000Y437500D02*
X859000D01*
Y445500*
X851000*
Y437500*
X855000Y441500D02*
Y445500D01*
X893200Y429000D02*
X901200D01*
Y437000*
X893200*
Y429000*
X897200Y433000D02*
Y437000D01*
X916000Y440500D02*
X924000D01*
Y448500*
X916000*
Y440500*
X920000Y444500D02*
Y448500D01*
X952600Y438600D02*
X960600D01*
Y446600*
X952600*
Y438600*
X956600Y442600D02*
Y446600D01*
X965400Y438800D02*
X973400D01*
Y446800*
X965400*
Y438800*
X969400Y442800D02*
Y446800D01*
X599000Y457300D02*
X607000D01*
Y465300*
X599000*
Y457300*
X603000Y461300D02*
Y465300D01*
X675500Y459500D02*
X683500D01*
Y467500*
X675500*
Y459500*
X679500Y463500D02*
Y467500D01*
X688500Y456000D02*
X696500D01*
Y464000*
X688500*
Y456000*
X692500Y460000D02*
Y464000D01*
X688500Y461500D02*
X696500D01*
Y469500*
X688500*
Y461500*
X692500Y465500D02*
Y469500D01*
X705000Y461500D02*
X713000D01*
Y469500*
X705000*
Y461500*
X709000Y465500D02*
Y469500D01*
X705000Y455500D02*
X713000D01*
Y463500*
X705000*
Y455500*
X709000Y459500D02*
Y463500D01*
X720000Y461500D02*
X728000D01*
Y469500*
X720000*
Y461500*
X724000Y465500D02*
Y469500D01*
X720000Y455500D02*
X728000D01*
Y463500*
X720000*
Y455500*
X724000Y459500D02*
Y463500D01*
X953000Y450500D02*
X961000D01*
Y458500*
X953000*
Y450500*
X957000Y454500D02*
Y458500D01*
X965500Y450500D02*
X973500D01*
Y458500*
X965500*
Y450500*
X969500Y454500D02*
Y458500D01*
X576500Y476000D02*
X584500D01*
Y484000*
X576500*
Y476000*
X580500Y480000D02*
Y484000D01*
X607000Y481500D02*
X615000D01*
Y489500*
X607000*
Y481500*
X611000Y485500D02*
Y489500D01*
X607000Y486500D02*
X615000D01*
Y494500*
X607000*
Y486500*
X611000Y490500D02*
Y494500D01*
X620200Y474800D02*
X628200D01*
Y482800*
X620200*
Y474800*
X624200Y478800D02*
Y482800D01*
X628000Y484300D02*
X636000D01*
Y492300*
X628000*
Y484300*
X632000Y488300D02*
Y492300D01*
X647500Y475000D02*
X655500D01*
Y483000*
X647500*
Y475000*
X651500Y479000D02*
Y483000D01*
X683000Y474000D02*
X691000D01*
Y482000*
X683000*
Y474000*
X687000Y478000D02*
Y482000D01*
X687500Y483000D02*
X695500D01*
Y491000*
X687500*
Y483000*
X691500Y487000D02*
Y491000D01*
X688500Y467500D02*
X696500D01*
Y475500*
X688500*
Y467500*
X692500Y471500D02*
Y475500D01*
X682800Y484400D02*
X690800D01*
Y492400*
X682800*
Y484400*
X686800Y488400D02*
Y492400D01*
X706000Y477500D02*
X714000D01*
Y485500*
X706000*
Y477500*
X710000Y481500D02*
Y485500D01*
X699800Y477400D02*
X707800D01*
Y485400*
X699800*
Y477400*
X703800Y481400D02*
Y485400D01*
X710500Y485500D02*
X718500D01*
Y493500*
X710500*
Y485500*
X714500Y489500D02*
Y493500D01*
X705000Y467500D02*
X713000D01*
Y475500*
X705000*
Y467500*
X709000Y471500D02*
Y475500D01*
X721500Y477000D02*
X729500D01*
Y485000*
X721500*
Y477000*
X725500Y481000D02*
Y485000D01*
X720000Y467500D02*
X728000D01*
Y475500*
X720000*
Y467500*
X724000Y471500D02*
Y475500D01*
X728500Y479000D02*
X736500D01*
Y487000*
X728500*
Y479000*
X732500Y483000D02*
Y487000D01*
X762000D02*
X770000D01*
Y495000*
X762000*
Y487000*
X766000Y491000D02*
Y495000D01*
X757000Y475000D02*
X765000D01*
Y483000*
X757000*
Y475000*
X761000Y479000D02*
Y483000D01*
X812000Y483500D02*
X820000D01*
Y491500*
X812000*
Y483500*
X816000Y487500D02*
Y491500D01*
X824000Y483500D02*
X832000D01*
Y491500*
X824000*
Y483500*
X828000Y487500D02*
Y491500D01*
X835500Y483500D02*
X843500D01*
Y491500*
X835500*
Y483500*
X839500Y487500D02*
Y491500D01*
X862000Y485500D02*
X870000D01*
Y493500*
X862000*
Y485500*
X866000Y489500D02*
Y493500D01*
X875000Y485500D02*
X883000D01*
Y493500*
X875000*
Y485500*
X879000Y489500D02*
Y493500D01*
X910000Y478500D02*
X918000D01*
Y486500*
X910000*
Y478500*
X914000Y482500D02*
Y486500D01*
X900000Y480000D02*
X908000D01*
Y488000*
X900000*
Y480000*
X904000Y484000D02*
Y488000D01*
X986500Y478500D02*
X994500D01*
Y486500*
X986500*
Y478500*
X990500Y482500D02*
Y486500D01*
X607000Y491500D02*
X615000D01*
Y499500*
X607000*
Y491500*
X611000Y495500D02*
Y499500D01*
X653500Y500900D02*
X661500D01*
Y508900*
X653500*
Y500900*
X657500Y504900D02*
Y508900D01*
X695000Y491500D02*
X703000D01*
Y499500*
X695000*
Y491500*
X699000Y495500D02*
Y499500D01*
X691500Y491500D02*
X699500D01*
Y499500*
X691500*
Y491500*
X695500Y495500D02*
Y499500D01*
X693500Y501500D02*
X701500D01*
Y509500*
X693500*
Y501500*
X697500Y505500D02*
Y509500D01*
X729000Y491000D02*
X737000D01*
Y499000*
X729000*
Y491000*
X733000Y495000D02*
Y499000D01*
X757000Y498500D02*
X765000D01*
Y506500*
X757000*
Y498500*
X761000Y502500D02*
Y506500D01*
X812000Y494500D02*
X820000D01*
Y502500*
X812000*
Y494500*
X816000Y498500D02*
Y502500D01*
X823500Y494500D02*
X831500D01*
Y502500*
X823500*
Y494500*
X827500Y498500D02*
Y502500D01*
X835500Y494500D02*
X843500D01*
Y502500*
X835500*
Y494500*
X839500Y498500D02*
Y502500D01*
X862000Y495000D02*
X870000D01*
Y503000*
X862000*
Y495000*
X866000Y499000D02*
Y503000D01*
X862000Y504000D02*
X870000D01*
Y512000*
X862000*
Y504000*
X866000Y508000D02*
Y512000D01*
X875000Y504000D02*
X883000D01*
Y512000*
X875000*
Y504000*
X879000Y508000D02*
Y512000D01*
X875000Y495000D02*
X883000D01*
Y503000*
X875000*
Y495000*
X879000Y499000D02*
Y503000D01*
X900000Y504000D02*
X908000D01*
Y512000*
X900000*
Y504000*
X904000Y508000D02*
Y512000D01*
X900000Y492000D02*
X908000D01*
Y500000*
X900000*
Y492000*
X904000Y496000D02*
Y500000D01*
X922000Y490500D02*
X930000D01*
Y498500*
X922000*
Y490500*
X926000Y494500D02*
Y498500D01*
X922000Y501500D02*
X930000D01*
Y509500*
X922000*
Y501500*
X926000Y505500D02*
Y509500D01*
X986500Y495500D02*
X994500D01*
Y503500*
X986500*
Y495500*
X990500Y499500D02*
Y503500D01*
X594600Y512800D02*
X602600D01*
Y520800*
X594600*
Y512800*
X598600Y516800D02*
Y520800D01*
X589800Y512800D02*
X597800D01*
Y520800*
X589800*
Y512800*
X593800Y516800D02*
Y520800D01*
X599400Y512800D02*
X607400D01*
Y520800*
X599400*
Y512800*
X603400Y516800D02*
Y520800D01*
X630400Y509800D02*
X638400D01*
Y517800*
X630400*
Y509800*
X634400Y513800D02*
Y517800D01*
X620500Y513000D02*
X628500D01*
Y521000*
X620500*
Y513000*
X624500Y517000D02*
Y521000D01*
X626500Y513000D02*
X634500D01*
Y521000*
X626500*
Y513000*
X630500Y517000D02*
Y521000D01*
X623500Y520500D02*
X631500D01*
Y528500*
X623500*
Y520500*
X627500Y524500D02*
Y528500D01*
X630500Y520500D02*
X638500D01*
Y528500*
X630500*
Y520500*
X634500Y524500D02*
Y528500D01*
X647600Y509600D02*
X655600D01*
Y517600*
X647600*
Y509600*
X651600Y513600D02*
Y517600D01*
X641000Y513000D02*
X649000D01*
Y521000*
X641000*
Y513000*
X645000Y517000D02*
Y521000D01*
X635500Y513000D02*
X643500D01*
Y521000*
X635500*
Y513000*
X639500Y517000D02*
Y521000D01*
X650500Y513000D02*
X658500D01*
Y521000*
X650500*
Y513000*
X654500Y517000D02*
Y521000D01*
X645500Y520500D02*
X653500D01*
Y528500*
X645500*
Y520500*
X649500Y524500D02*
Y528500D01*
X638000Y520500D02*
X646000D01*
Y528500*
X638000*
Y520500*
X642000Y524500D02*
Y528500D01*
X652000Y520500D02*
X660000D01*
Y528500*
X652000*
Y520500*
X656000Y524500D02*
Y528500D01*
X661200Y512800D02*
X669200D01*
Y520800*
X661200*
Y512800*
X665200Y516800D02*
Y520800D01*
X656000Y513000D02*
X664000D01*
Y521000*
X656000*
Y513000*
X660000Y517000D02*
Y521000D01*
X658000Y520500D02*
X666000D01*
Y528500*
X658000*
Y520500*
X662000Y524500D02*
Y528500D01*
X664000Y520500D02*
X672000D01*
Y528500*
X664000*
Y520500*
X668000Y524500D02*
Y528500D01*
X687500Y517500D02*
X695500D01*
Y525500*
X687500*
Y517500*
X691500Y521500D02*
Y525500D01*
X691000Y526000D02*
X699000D01*
Y534000*
X691000*
Y526000*
X695000Y530000D02*
Y534000D01*
X694500Y526000D02*
X702500D01*
Y534000*
X694500*
Y526000*
X698500Y530000D02*
Y534000D01*
X706000Y512000D02*
X714000D01*
Y520000*
X706000*
Y512000*
X710000Y516000D02*
Y520000D01*
X710500Y520500D02*
X718500D01*
Y528500*
X710500*
Y520500*
X714500Y524500D02*
Y528500D01*
X699500Y511500D02*
X707500D01*
Y519500*
X699500*
Y511500*
X703500Y515500D02*
Y519500D01*
X728500Y524500D02*
X736500D01*
Y532500*
X728500*
Y524500*
X732500Y528500D02*
Y532500D01*
X721500Y511000D02*
X729500D01*
Y519000*
X721500*
Y511000*
X725500Y515000D02*
Y519000D01*
X729000Y513000D02*
X737000D01*
Y521000*
X729000*
Y513000*
X733000Y517000D02*
Y521000D01*
X750500Y507500D02*
X758500D01*
Y515500*
X750500*
Y507500*
X754500Y511500D02*
Y515500D01*
X797000Y508000D02*
X805000D01*
Y516000*
X797000*
Y508000*
X801000Y512000D02*
Y516000D01*
X900000Y518000D02*
X908000D01*
Y526000*
X900000*
Y518000*
X904000Y522000D02*
Y526000D01*
X924000Y512500D02*
X932000D01*
Y520500*
X924000*
Y512500*
X928000Y516500D02*
Y520500D01*
X986500Y512500D02*
X994500D01*
Y520500*
X986500*
Y512500*
X990500Y516500D02*
Y520500D01*
X590200Y530200D02*
X598200D01*
Y538200*
X590200*
Y530200*
X594200Y534200D02*
Y538200D01*
X595000Y530200D02*
X603000D01*
Y538200*
X595000*
Y530200*
X599000Y534200D02*
Y538200D01*
X599600Y530200D02*
X607600D01*
Y538200*
X599600*
Y530200*
X603600Y534200D02*
Y538200D01*
X623400Y529000D02*
X631400D01*
Y537000*
X623400*
Y529000*
X627400Y533000D02*
Y537000D01*
X670000Y535000D02*
X678000D01*
Y543000*
X670000*
Y535000*
X674000Y539000D02*
Y543000D01*
X670000Y528500D02*
X678000D01*
Y536500*
X670000*
Y528500*
X674000Y532500D02*
Y536500D01*
X675500Y543500D02*
X683500D01*
Y551500*
X675500*
Y543500*
X679500Y547500D02*
Y551500D01*
X681500Y535000D02*
X689500D01*
Y543000*
X681500*
Y535000*
X685500Y539000D02*
Y543000D01*
X676000Y535000D02*
X684000D01*
Y543000*
X676000*
Y535000*
X680000Y539000D02*
Y543000D01*
X676000Y528500D02*
X684000D01*
Y536500*
X676000*
Y528500*
X680000Y532500D02*
Y536500D01*
X681500Y528500D02*
X689500D01*
Y536500*
X681500*
Y528500*
X685500Y532500D02*
Y536500D01*
X706000Y546500D02*
X714000D01*
Y554500*
X706000*
Y546500*
X710000Y550500D02*
Y554500D01*
X699500Y545000D02*
X707500D01*
Y553000*
X699500*
Y545000*
X703500Y549000D02*
Y553000D01*
X721500Y546000D02*
X729500D01*
Y554000*
X721500*
Y546000*
X725500Y550000D02*
Y554000D01*
X747000Y530500D02*
X755000D01*
Y538500*
X747000*
Y530500*
X751000Y534500D02*
Y538500D01*
X740000Y531000D02*
X748000D01*
Y539000*
X740000*
Y531000*
X744000Y535000D02*
Y539000D01*
X740000Y538500D02*
X748000D01*
Y546500*
X740000*
Y538500*
X744000Y542500D02*
Y546500D01*
X747000Y547000D02*
X755000D01*
Y555000*
X747000*
Y547000*
X751000Y551000D02*
Y555000D01*
X747000Y538000D02*
X755000D01*
Y546000*
X747000*
Y538000*
X751000Y542000D02*
Y546000D01*
X798000Y537000D02*
X806000D01*
Y545000*
X798000*
Y537000*
X802000Y541000D02*
Y545000D01*
X811500Y530000D02*
X819500D01*
Y538000*
X811500*
Y530000*
X815500Y534000D02*
Y538000D01*
X884000Y539500D02*
X892000D01*
Y547500*
X884000*
Y539500*
X888000Y543500D02*
Y547500D01*
X899000Y539000D02*
X907000D01*
Y547000*
X899000*
Y539000*
X903000Y543000D02*
Y547000D01*
X936500Y540000D02*
X944500D01*
Y548000*
X936500*
Y540000*
X940500Y544000D02*
Y548000D01*
X602000Y563000D02*
X610000D01*
Y571000*
X602000*
Y563000*
X606000Y567000D02*
Y571000D01*
X606400Y563000D02*
X614400D01*
Y571000*
X606400*
Y563000*
X610400Y567000D02*
Y571000D01*
X620400Y557000D02*
X628400D01*
Y565000*
X620400*
Y557000*
X624400Y561000D02*
Y565000D01*
X625800Y567200D02*
X633800D01*
Y575200*
X625800*
Y567200*
X629800Y571200D02*
Y575200D01*
X647800Y556100D02*
X655800D01*
Y564100*
X647800*
Y556100*
X651800Y560100D02*
Y564100D01*
X684000Y558000D02*
X692000D01*
Y566000*
X684000*
Y558000*
X688000Y562000D02*
Y566000D01*
X687500Y551500D02*
X695500D01*
Y559500*
X687500*
Y551500*
X691500Y555500D02*
Y559500D01*
Y560000D02*
X699500D01*
Y568000*
X691500*
Y560000*
X695500Y564000D02*
Y568000D01*
X694500Y560000D02*
X702500D01*
Y568000*
X694500*
Y560000*
X698500Y564000D02*
Y568000D01*
X710500Y554500D02*
X718500D01*
Y562500*
X710500*
Y554500*
X714500Y558500D02*
Y562500D01*
X728500Y560000D02*
X736500D01*
Y568000*
X728500*
Y560000*
X732500Y564000D02*
Y568000D01*
X729000Y548000D02*
X737000D01*
Y556000*
X729000*
Y548000*
X733000Y552000D02*
Y556000D01*
X740000Y547500D02*
X748000D01*
Y555500*
X740000*
Y547500*
X744000Y551500D02*
Y555500D01*
X763000D02*
X771000D01*
Y563500*
X763000*
Y555500*
X767000Y559500D02*
Y563500D01*
X795000Y550500D02*
X803000D01*
Y558500*
X795000*
Y550500*
X799000Y554500D02*
Y558500D01*
X843500Y558000D02*
X851500D01*
Y566000*
X843500*
Y558000*
X847500Y562000D02*
Y566000D01*
X847000Y558000D02*
X855000D01*
Y566000*
X847000*
Y558000*
X851000Y562000D02*
Y566000D01*
X840000Y562000D02*
X848000D01*
Y570000*
X840000*
Y562000*
X844000Y566000D02*
Y570000D01*
X836500Y562000D02*
X844500D01*
Y570000*
X836500*
Y562000*
X840500Y566000D02*
Y570000D01*
X937000Y554000D02*
X945000D01*
Y562000*
X937000*
Y554000*
X941000Y558000D02*
Y562000D01*
X569000Y574600D02*
X577000D01*
Y582600*
X569000*
Y574600*
X573000Y578600D02*
Y582600D01*
X568700Y582300D02*
X576700D01*
Y590300*
X568700*
Y582300*
X572700Y586300D02*
Y590300D01*
X578200Y582600D02*
X586200D01*
Y590600*
X578200*
Y582600*
X582200Y586600D02*
Y590600D01*
X578400Y574800D02*
X586400D01*
Y582800*
X578400*
Y574800*
X582400Y578800D02*
Y582800D01*
X597800Y571400D02*
X605800D01*
Y579400*
X597800*
Y571400*
X601800Y575400D02*
Y579400D01*
X602000Y571400D02*
X610000D01*
Y579400*
X602000*
Y571400*
X606000Y575400D02*
Y579400D01*
X606200Y571400D02*
X614200D01*
Y579400*
X606200*
Y571400*
X610200Y575400D02*
Y579400D01*
X632800Y572600D02*
X640800D01*
Y580600*
X632800*
Y572600*
X636800Y576600D02*
Y580600D01*
X636600Y572600D02*
X644600D01*
Y580600*
X636600*
Y572600*
X640600Y576600D02*
Y580600D01*
X640200Y572600D02*
X648200D01*
Y580600*
X640200*
Y572600*
X644200Y576600D02*
Y580600D01*
X681800Y575800D02*
X689800D01*
Y583800*
X681800*
Y575800*
X685800Y579800D02*
Y583800D01*
X681800Y571400D02*
X689800D01*
Y579400*
X681800*
Y571400*
X685800Y575400D02*
Y579400D01*
X681800Y579600D02*
X689800D01*
Y587600*
X681800*
Y579600*
X685800Y583600D02*
Y587600D01*
X964000Y586000D02*
X972000D01*
Y594000*
X964000*
Y586000*
X968000Y590000D02*
Y594000D01*
X972000Y586000D02*
X980000D01*
Y594000*
X972000*
Y586000*
X976000Y590000D02*
Y594000D01*
X568700Y590300D02*
X576700D01*
Y598300*
X568700*
Y590300*
X572700Y594300D02*
Y598300D01*
X578200Y590300D02*
X586200D01*
Y598300*
X578200*
Y590300*
X582200Y594300D02*
Y598300D01*
X614500Y588000D02*
X622500D01*
Y596000*
X614500*
Y588000*
X618500Y592000D02*
Y596000D01*
X608000Y588000D02*
X616000D01*
Y596000*
X608000*
Y588000*
X612000Y592000D02*
Y596000D01*
X609500Y604000D02*
X617500D01*
Y612000*
X609500*
Y604000*
X613500Y608000D02*
Y612000D01*
X630400Y591400D02*
X638400D01*
Y599400*
X630400*
Y591400*
X634400Y595400D02*
Y599400D01*
X620500Y594000D02*
X628500D01*
Y602000*
X620500*
Y594000*
X624500Y598000D02*
Y602000D01*
X616000Y604000D02*
X624000D01*
Y612000*
X616000*
Y604000*
X620000Y608000D02*
Y612000D01*
X642200Y587800D02*
X650200D01*
Y595800*
X642200*
Y587800*
X646200Y591800D02*
Y595800D01*
X647500Y591200D02*
X655500D01*
Y599200*
X647500*
Y591200*
X651500Y595200D02*
Y599200D01*
X653000Y594000D02*
X661000D01*
Y602000*
X653000*
Y594000*
X657000Y598000D02*
Y602000D01*
X665500Y594000D02*
X673500D01*
Y602000*
X665500*
Y594000*
X669500Y598000D02*
Y602000D01*
X663500Y604000D02*
X671500D01*
Y612000*
X663500*
Y604000*
X667500Y608000D02*
Y612000D01*
X670500Y604000D02*
X678500D01*
Y612000*
X670500*
Y604000*
X674500Y608000D02*
Y612000D01*
X746000Y591000D02*
X754000D01*
Y599000*
X746000*
Y591000*
X750000Y595000D02*
Y599000D01*
X771000Y605500D02*
X779000D01*
Y613500*
X771000*
Y605500*
X775000Y609500D02*
Y613500D01*
X777000Y605500D02*
X785000D01*
Y613500*
X777000*
Y605500*
X781000Y609500D02*
Y613500D01*
X825500Y599000D02*
X833500D01*
Y607000*
X825500*
Y599000*
X829500Y603000D02*
Y607000D01*
X825500Y595500D02*
X833500D01*
Y603500*
X825500*
Y595500*
X829500Y599500D02*
Y603500D01*
X856000Y594500D02*
X864000D01*
Y602500*
X856000*
Y594500*
X860000Y598500D02*
Y602500D01*
X863500Y595000D02*
X871500D01*
Y603000*
X863500*
Y595000*
X867500Y599000D02*
Y603000D01*
X869500D02*
X877500D01*
Y611000*
X869500*
Y603000*
X873500Y607000D02*
Y611000D01*
X874500Y603000D02*
X882500D01*
Y611000*
X874500*
Y603000*
X878500Y607000D02*
Y611000D01*
X863500Y603000D02*
X871500D01*
Y611000*
X863500*
Y603000*
X867500Y607000D02*
Y611000D01*
X856500Y603000D02*
X864500D01*
Y611000*
X856500*
Y603000*
X860500Y607000D02*
Y611000D01*
X911000Y595000D02*
X919000D01*
Y603000*
X911000*
Y595000*
X915000Y599000D02*
Y603000D01*
X911000Y599000D02*
X919000D01*
Y607000*
X911000*
Y599000*
X915000Y603000D02*
Y607000D01*
X925800Y598800D02*
X933800D01*
Y606800*
X925800*
Y598800*
X929800Y602800D02*
Y606800D01*
X931800Y598800D02*
X939800D01*
Y606800*
X931800*
Y598800*
X935800Y602800D02*
Y606800D01*
X918000Y592500D02*
X926000D01*
Y600500*
X918000*
Y592500*
X922000Y596500D02*
Y600500D01*
X950000Y604000D02*
X958000D01*
Y612000*
X950000*
Y604000*
X954000Y608000D02*
Y612000D01*
X609500Y617000D02*
X617500D01*
Y625000*
X609500*
Y617000*
X613500Y621000D02*
Y625000D01*
X609500Y610500D02*
X617500D01*
Y618500*
X609500*
Y610500*
X613500Y614500D02*
Y618500D01*
X616000Y617000D02*
X624000D01*
Y625000*
X616000*
Y617000*
X620000Y621000D02*
Y625000D01*
X616000Y611000D02*
X624000D01*
Y619000*
X616000*
Y611000*
X620000Y615000D02*
Y619000D01*
X671000Y610500D02*
X679000D01*
Y618500*
X671000*
Y610500*
X675000Y614500D02*
Y618500D01*
X663500Y610500D02*
X671500D01*
Y618500*
X663500*
Y610500*
X667500Y614500D02*
Y618500D01*
X663500Y618000D02*
X671500D01*
Y626000*
X663500*
Y618000*
X667500Y622000D02*
Y626000D01*
X671000Y618000D02*
X679000D01*
Y626000*
X671000*
Y618000*
X675000Y622000D02*
Y626000D01*
X684000Y614000D02*
X692000D01*
Y622000*
X684000*
Y614000*
X688000Y618000D02*
Y622000D01*
X771000Y616500D02*
X779000D01*
Y624500*
X771000*
Y616500*
X775000Y620500D02*
Y624500D01*
X771000Y611000D02*
X779000D01*
Y619000*
X771000*
Y611000*
X775000Y615000D02*
Y619000D01*
X784000Y616500D02*
X792000D01*
Y624500*
X784000*
Y616500*
X788000Y620500D02*
Y624500D01*
X777000Y616500D02*
X785000D01*
Y624500*
X777000*
Y616500*
X781000Y620500D02*
Y624500D01*
X777000Y611000D02*
X785000D01*
Y619000*
X777000*
Y611000*
X781000Y615000D02*
Y619000D01*
X799500Y617500D02*
X807500D01*
Y625500*
X799500*
Y617500*
X803500Y621500D02*
Y625500D01*
X826000Y610500D02*
X834000D01*
Y618500*
X826000*
Y610500*
X830000Y614500D02*
Y618500D01*
X831962Y615163D02*
X839962D01*
Y623163*
X831962*
Y615163*
X835962Y619163D02*
Y623163D01*
X820000Y608500D02*
X828000D01*
Y616500*
X820000*
Y608500*
X824000Y612500D02*
Y616500D01*
X836000Y609800D02*
X844000D01*
Y617800*
X836000*
Y609800*
X840000Y613800D02*
Y617800D01*
X839800Y609400D02*
X847800D01*
Y617400*
X839800*
Y609400*
X843800Y613400D02*
Y617400D01*
X874000Y616000D02*
X882000D01*
Y624000*
X874000*
Y616000*
X878000Y620000D02*
Y624000D01*
X889800Y617000D02*
X897800D01*
Y625000*
X889800*
Y617000*
X893800Y621000D02*
Y625000D01*
X906000Y610500D02*
X914000D01*
Y618500*
X906000*
Y610500*
X910000Y614500D02*
Y618500D01*
Y608500D02*
X918000D01*
Y616500*
X910000*
Y608500*
X914000Y612500D02*
Y616500D01*
X922500Y610000D02*
X930500D01*
Y618000*
X922500*
Y610000*
X926500Y614000D02*
Y618000D01*
X926000Y612600D02*
X934000D01*
Y620600*
X926000*
Y612600*
X930000Y616600D02*
Y620600D01*
X916500Y610000D02*
X924500D01*
Y618000*
X916500*
Y610000*
X920500Y614000D02*
Y618000D01*
X929000Y611000D02*
X937000D01*
Y619000*
X929000*
Y611000*
X933000Y615000D02*
Y619000D01*
X931000Y609000D02*
X939000D01*
Y617000*
X931000*
Y609000*
X935000Y613000D02*
Y617000D01*
X950000Y611000D02*
X958000D01*
Y619000*
X950000*
Y611000*
X954000Y615000D02*
Y619000D01*
X565929Y666000D02*
X763328D01*
X565929D02*
X575929Y668500D01*
Y663500*
X565929Y666000*
X999000D02*
X801601D01*
X999000D02*
X989000Y663500D01*
Y668500*
X999000Y666000*
X565929Y607531D02*
Y671000D01*
X999000Y604067D02*
Y671000D01*
X515000Y356870D02*
Y487915D01*
Y356870D02*
X512500Y366870D01*
X517500*
X515000Y356870*
Y632461D02*
Y501415D01*
Y632461D02*
X517500Y622461D01*
X512500*
X515000Y632461*
X604515Y356870D02*
X510000D01*
X593690Y632461D02*
X510000D01*
X1038444Y596820D02*
X1296444D01*
X1038444Y572820D02*
X1296444D01*
X1038444Y548820D02*
X1296444D01*
X1038444Y524820D02*
X1296444D01*
X1038444Y500820D02*
X1296444D01*
X1038444Y476820D02*
X1296444D01*
X1038444Y452820D02*
X1296444D01*
X1038444Y428820D02*
X1296444D01*
X1038444Y404820D02*
X1296444D01*
X1038444Y380820D02*
X1296444D01*
X1038444Y356820D02*
X1296444D01*
X1038444Y596820D02*
Y356820D01*
X1122444Y596820D02*
Y356820D01*
X1158444Y596820D02*
Y356820D01*
X1194444Y596820D02*
Y356820D01*
X1248444Y596820D02*
Y356820D01*
X1296444Y596820D02*
Y356820D01*
X1067263Y578820D02*
X1068808Y581195D01*
X1069172Y583195*
Y586445*
X1069535Y586695*
X1076626*
X1076990Y586445*
Y583820*
X1076626Y583570*
X1069172*
X1073263D02*
X1073990Y581820D01*
X1075899Y579945*
X1078172Y578820*
X1083990Y581445D02*
X1083263Y582695D01*
X1082172Y583570*
X1080626Y585320D02*
X1090717D01*
X1088535Y587070D02*
Y578820D01*
X1088172Y578570*
X1085535Y579070*
X1127263Y581820D02*
X1132535D01*
X1131808D02*
X1130990Y580320D01*
X1129899Y579445*
X1127626Y578570*
X1131808D02*
X1129899Y579695D01*
X1127990Y580320*
Y580570*
X1129172Y581445*
X1129899Y582695*
Y582945D02*
Y587070D01*
X1127626D02*
X1128354Y585820D01*
X1130990D02*
X1131808Y587070D01*
X1132535Y585320D02*
X1127626D01*
X1127263Y583195D02*
X1128808Y584070D01*
X1129899Y585320*
X1132172Y583820*
X1132899D02*
X1133626Y585570D01*
Y587070*
Y585570D02*
X1138535D01*
X1137808D02*
X1136990Y582945D01*
X1135172Y579945*
X1133263Y578570*
X1138172D02*
X1136626Y579945D01*
X1134808Y582945*
X1133990Y585570*
X1140626Y578820D02*
X1151535D01*
X1150717Y579945D02*
X1141354D01*
X1142172Y581445D02*
Y583195D01*
X1142535Y583570*
X1149990*
X1150354Y583195*
Y581445*
X1149990Y581195*
X1142535*
X1142172Y581445*
Y582320D02*
X1150354D01*
X1146263Y583570D02*
Y578820D01*
X1140990Y584445D02*
X1151899D01*
X1142172Y585570D02*
Y586695D01*
X1142535Y587070*
X1149990*
X1150354Y586695*
Y585570*
X1149990Y585320*
X1142535*
X1142172Y585570*
Y586195D02*
X1150354D01*
X1163990Y582320D02*
X1165535Y583570D01*
X1166626Y584945*
X1165535Y583570D02*
Y578570D01*
X1169990Y580570D02*
X1168535Y582070D01*
X1167808Y583570D02*
X1174535D01*
X1172990Y584695D02*
Y578820D01*
X1172626Y578570*
X1171172Y578820*
X1169990Y580570D02*
X1168535Y582070D01*
X1163263Y585570D02*
X1164808Y586445D01*
X1165172Y587320*
X1164808Y586445D02*
X1168899D01*
X1167354Y585320D02*
X1165899Y586445D01*
X1170808Y587320D02*
X1170354Y586445D01*
X1169263Y585570*
X1170354Y586445D02*
X1174535D01*
X1172990Y585320D02*
X1171899Y586445D01*
X1176626Y582945D02*
X1187172D01*
X1179626D02*
X1178899Y581445D01*
X1179263Y581195*
X1185263*
X1185626Y580945*
X1185263Y578820*
X1184899Y578570*
X1181899Y578820*
X1178535Y584695D02*
Y586445D01*
X1178899Y586695*
X1185263*
X1185626Y586445*
Y584695*
X1185263Y584445*
X1178899*
X1178535Y584695*
X1223944Y584820D02*
Y585195D01*
X1224217Y585945*
X1224490Y586320*
X1225035Y586695*
X1226126*
X1226672Y586320*
X1226944Y585945*
X1227217Y585195*
Y584445*
X1226944Y583695*
X1226672Y583320*
X1225581Y582570*
Y581445*
Y579570D02*
X1225308Y579195D01*
X1225581Y578820*
X1225854Y579195*
X1225581Y579570*
X1229672Y584820D02*
Y585195D01*
X1229944Y585945*
X1230217Y586320*
X1230763Y586695*
X1231854*
X1232399Y586320*
X1232672Y585945*
X1232944Y585195*
Y584445*
X1232672Y583695*
X1232399Y583320*
X1231308Y582570*
Y581445*
Y579570D02*
X1231035Y579195D01*
X1231308Y578820*
X1231581Y579195*
X1231308Y579570*
X1265126Y586695D02*
Y578820D01*
X1263217Y586695D02*
X1267035D01*
X1271126D02*
X1270581Y586320D01*
X1270035Y585570*
X1269763Y584820*
X1269490Y583695*
Y581820*
X1269763Y580695*
X1270035Y579945*
X1270581Y579195*
X1271126Y578820*
X1272217*
X1272763Y579195*
X1273308Y579945*
X1273581Y580695*
X1273854Y581820*
Y583695*
X1273581Y584820*
X1273308Y585570*
X1272763Y586320*
X1272217Y586695*
X1271126*
X1276308D02*
Y578820D01*
X1279581*
X1048263Y562695D02*
X1045535Y554820D01*
X1044444Y562695D02*
X1048263D01*
X1052354D02*
X1051535Y562320D01*
X1050990Y561195*
X1050717Y559320*
Y558195*
X1050990Y556320*
X1051535Y555195*
X1052354Y554820*
X1052899*
X1053717Y555195*
X1054263Y556320*
X1054535Y558195*
Y559320*
X1054263Y561195*
X1053717Y562320*
X1052899Y562695*
X1052354*
X1057263Y555570D02*
X1056990Y555195D01*
X1057263Y554820*
X1057535Y555195*
X1057263Y555570*
X1061354Y562695D02*
X1060535Y562320D01*
X1060263Y561570*
Y560820*
X1060535Y560070*
X1061081Y559695*
X1062172Y559320*
X1062990Y558945*
X1063535Y558195*
X1063808Y557445*
Y556320*
X1063535Y555570*
X1063263Y555195*
X1062444Y554820*
X1061354*
X1060535Y555195*
X1060263Y555570*
X1059990Y556320*
Y557445*
X1060263Y558195*
X1060808Y558945*
X1061626Y559320*
X1062717Y559695*
X1063263Y560070*
X1063535Y560820*
Y561570*
X1063263Y562320*
X1062444Y562695*
X1061354*
X1070081D02*
X1067354Y554820D01*
X1066263Y562695D02*
X1070081D01*
X1137763Y560820D02*
Y561195D01*
X1138035Y561945*
X1138308Y562320*
X1138854Y562695*
X1139944*
X1140490Y562320*
X1140763Y561945*
X1141035Y561195*
Y560445*
X1140763Y559695*
X1140217Y558570*
X1137490Y554820*
X1141308*
X1170444Y560820D02*
X1182444D01*
X1176444Y554820D02*
Y566820D01*
X1203081Y562695D02*
X1205263Y558945D01*
Y554820*
X1207444Y562695D02*
X1205263Y558945D01*
X1209899Y562695D02*
Y554820D01*
Y562695D02*
X1213444D01*
X1209899Y558945D02*
X1212081D01*
X1209899Y554820D02*
X1213444D01*
X1219717Y561570D02*
X1219172Y562320D01*
X1218354Y562695*
X1217263*
X1216444Y562320*
X1215899Y561570*
Y560820*
X1216172Y560070*
X1216444Y559695*
X1216990Y559320*
X1218626Y558570*
X1219172Y558195*
X1219444Y557820*
X1219717Y557070*
Y555945*
X1219172Y555195*
X1218354Y554820*
X1217263*
X1216444Y555195*
X1215899Y555945*
X1256263Y561570D02*
Y554820D01*
X1253808Y558195D02*
X1258717D01*
X1266081Y564195D02*
X1261172Y552195D01*
X1268535Y558195D02*
X1273444D01*
X1277535Y562695D02*
X1276717Y562320D01*
X1276172Y561195*
X1275899Y559320*
Y558195*
X1276172Y556320*
X1276717Y555195*
X1277535Y554820*
X1278081*
X1278899Y555195*
X1279444Y556320*
X1279717Y558195*
Y559320*
X1279444Y561195*
X1278899Y562320*
X1278081Y562695*
X1277535*
X1282444Y555570D02*
X1282172Y555195D01*
X1282444Y554820*
X1282717Y555195*
X1282444Y555570*
X1286808Y562695D02*
X1285990Y562320D01*
X1285444Y561195*
X1285172Y559320*
Y558195*
X1285444Y556320*
X1285990Y555195*
X1286808Y554820*
X1287354*
X1288172Y555195*
X1288717Y556320*
X1288990Y558195*
Y559320*
X1288717Y561195*
X1288172Y562320*
X1287354Y562695*
X1286808*
X1047990Y538695D02*
X1045263D01*
X1044990Y535320*
X1045263Y535695*
X1046081Y536070*
X1046899*
X1047717Y535695*
X1048263Y534945*
X1048535Y533820*
X1048263Y533070*
X1047990Y531945*
X1047444Y531195*
X1046626Y530820*
X1045808*
X1044990Y531195*
X1044717Y531570*
X1044444Y532320*
X1054535Y536070D02*
X1054263Y534945D01*
X1053717Y534195*
X1052899Y533820*
X1052626*
X1051808Y534195*
X1051263Y534945*
X1050990Y536070*
Y536445*
X1051263Y537570*
X1051808Y538320*
X1052626Y538695*
X1052899*
X1053717Y538320*
X1054263Y537570*
X1054535Y536070*
Y534195*
X1054263Y532320*
X1053717Y531195*
X1052899Y530820*
X1052354*
X1051535Y531195*
X1051263Y531945*
X1057263Y531570D02*
X1056990Y531195D01*
X1057263Y530820*
X1057535Y531195*
X1057263Y531570*
X1061626Y538695D02*
X1060808Y538320D01*
X1060263Y537195*
X1059990Y535320*
Y534195*
X1060263Y532320*
X1060808Y531195*
X1061626Y530820*
X1062172*
X1062990Y531195*
X1063535Y532320*
X1063808Y534195*
Y535320*
X1063535Y537195*
X1062990Y538320*
X1062172Y538695*
X1061626*
X1069535Y537570D02*
X1069263Y538320D01*
X1068444Y538695*
X1067899*
X1067081Y538320*
X1066535Y537195*
X1066263Y535320*
Y533445*
X1066535Y531945*
X1067081Y531195*
X1067899Y530820*
X1068172*
X1068990Y531195*
X1069535Y531945*
X1069808Y533070*
Y533445*
X1069535Y534570*
X1068990Y535320*
X1068172Y535695*
X1067899*
X1067081Y535320*
X1066535Y534570*
X1066263Y533445*
X1137763Y536820D02*
Y537195D01*
X1138035Y537945*
X1138308Y538320*
X1138854Y538695*
X1139944*
X1140490Y538320*
X1140763Y537945*
X1141035Y537195*
Y536445*
X1140763Y535695*
X1140217Y534570*
X1137490Y530820*
X1141308*
X1170444D02*
X1182444Y542820D01*
X1170444D02*
X1182444Y530820D01*
X1203081Y538695D02*
X1205263Y534945D01*
Y530820*
X1207444Y538695D02*
X1205263Y534945D01*
X1209899Y538695D02*
Y530820D01*
Y538695D02*
X1213444D01*
X1209899Y534945D02*
X1212081D01*
X1209899Y530820D02*
X1213444D01*
X1219717Y537570D02*
X1219172Y538320D01*
X1218354Y538695*
X1217263*
X1216444Y538320*
X1215899Y537570*
Y536820*
X1216172Y536070*
X1216444Y535695*
X1216990Y535320*
X1218626Y534570*
X1219172Y534195*
X1219444Y533820*
X1219717Y533070*
Y531945*
X1219172Y531195*
X1218354Y530820*
X1217263*
X1216444Y531195*
X1215899Y531945*
X1256263Y537570D02*
Y530820D01*
X1253808Y534195D02*
X1258717D01*
X1266081Y540195D02*
X1261172Y528195D01*
X1268535Y534195D02*
X1273444D01*
X1277535Y538695D02*
X1276717Y538320D01*
X1276172Y537195*
X1275899Y535320*
Y534195*
X1276172Y532320*
X1276717Y531195*
X1277535Y530820*
X1278081*
X1278899Y531195*
X1279444Y532320*
X1279717Y534195*
Y535320*
X1279444Y537195*
X1278899Y538320*
X1278081Y538695*
X1277535*
X1282444Y531570D02*
X1282172Y531195D01*
X1282444Y530820*
X1282717Y531195*
X1282444Y531570*
X1286808Y538695D02*
X1285990Y538320D01*
X1285444Y537195*
X1285172Y535320*
Y534195*
X1285444Y532320*
X1285990Y531195*
X1286808Y530820*
X1287354*
X1288172Y531195*
X1288717Y532320*
X1288990Y534195*
Y535320*
X1288717Y537195*
X1288172Y538320*
X1287354Y538695*
X1286808*
X1044444Y513195D02*
X1044990Y513570D01*
X1045808Y514695*
Y506820*
X1049899Y514695D02*
X1049081Y514320D01*
X1048535Y513195*
X1048263Y511320*
Y510195*
X1048535Y508320*
X1049081Y507195*
X1049899Y506820*
X1050444*
X1051263Y507195*
X1051808Y508320*
X1052081Y510195*
Y511320*
X1051808Y513195*
X1051263Y514320*
X1050444Y514695*
X1049899*
X1131490Y512820D02*
Y513195D01*
X1131763Y513945*
X1132035Y514320*
X1132581Y514695*
X1133672*
X1134217Y514320*
X1134490Y513945*
X1134763Y513195*
Y512445*
X1134490Y511695*
X1133944Y510570*
X1131217Y506820*
X1135035*
X1141035Y514695D02*
X1138308D01*
X1138035Y511320*
X1138308Y511695*
X1139126Y512070*
X1139944*
X1140763Y511695*
X1141308Y510945*
X1141581Y509820*
X1141308Y509070*
X1141035Y507945*
X1140490Y507195*
X1139672Y506820*
X1138854*
X1138035Y507195*
X1137763Y507570*
X1137490Y508320*
X1147581Y512070D02*
X1147308Y510945D01*
X1146763Y510195*
X1145944Y509820*
X1145672*
X1144854Y510195*
X1144308Y510945*
X1144035Y512070*
Y512445*
X1144308Y513570*
X1144854Y514320*
X1145672Y514695*
X1145944*
X1146763Y514320*
X1147308Y513570*
X1147581Y512070*
Y510195*
X1147308Y508320*
X1146763Y507195*
X1145944Y506820*
X1145399*
X1144581Y507195*
X1144308Y507945*
X1170444Y506820D02*
X1182444D01*
Y518820*
X1170444*
Y506820*
X1176444Y512820D02*
Y518820D01*
X1203081Y514695D02*
X1205263Y510945D01*
Y506820*
X1207444Y514695D02*
X1205263Y510945D01*
X1209899Y514695D02*
Y506820D01*
Y514695D02*
X1213444D01*
X1209899Y510945D02*
X1212081D01*
X1209899Y506820D02*
X1213444D01*
X1219717Y513570D02*
X1219172Y514320D01*
X1218354Y514695*
X1217263*
X1216444Y514320*
X1215899Y513570*
Y512820*
X1216172Y512070*
X1216444Y511695*
X1216990Y511320*
X1218626Y510570*
X1219172Y510195*
X1219444Y509820*
X1219717Y509070*
Y507945*
X1219172Y507195*
X1218354Y506820*
X1217263*
X1216444Y507195*
X1215899Y507945*
X1256263Y513570D02*
Y506820D01*
X1253808Y510195D02*
X1258717D01*
X1266081Y516195D02*
X1261172Y504195D01*
X1268535Y510195D02*
X1273444D01*
X1277535Y514695D02*
X1276717Y514320D01*
X1276172Y513195*
X1275899Y511320*
Y510195*
X1276172Y508320*
X1276717Y507195*
X1277535Y506820*
X1278081*
X1278899Y507195*
X1279444Y508320*
X1279717Y510195*
Y511320*
X1279444Y513195*
X1278899Y514320*
X1278081Y514695*
X1277535*
X1282444Y507570D02*
X1282172Y507195D01*
X1282444Y506820*
X1282717Y507195*
X1282444Y507570*
X1286808Y514695D02*
X1285990Y514320D01*
X1285444Y513195*
X1285172Y511320*
Y510195*
X1285444Y508320*
X1285990Y507195*
X1286808Y506820*
X1287354*
X1288172Y507195*
X1288717Y508320*
X1288990Y510195*
Y511320*
X1288717Y513195*
X1288172Y514320*
X1287354Y514695*
X1286808*
X1047172Y490695D02*
X1044444Y485445D01*
X1048535*
X1047172Y490695D02*
Y482820D01*
X1052626Y490695D02*
X1051808Y490320D01*
X1051263Y489195*
X1050990Y487320*
Y486195*
X1051263Y484320*
X1051808Y483195*
X1052626Y482820*
X1053172*
X1053990Y483195*
X1054535Y484320*
X1054808Y486195*
Y487320*
X1054535Y489195*
X1053990Y490320*
X1053172Y490695*
X1052626*
X1057535Y483570D02*
X1057263Y483195D01*
X1057535Y482820*
X1057808Y483195*
X1057535Y483570*
X1060263Y489195D02*
X1060808Y489570D01*
X1061626Y490695*
Y482820*
X1067354Y489570D02*
X1067081Y490320D01*
X1066263Y490695*
X1065717*
X1064899Y490320*
X1064354Y489195*
X1064081Y487320*
Y485445*
X1064354Y483945*
X1064899Y483195*
X1065717Y482820*
X1065990*
X1066808Y483195*
X1067354Y483945*
X1067626Y485070*
Y485445*
X1067354Y486570*
X1066808Y487320*
X1065990Y487695*
X1065717*
X1064899Y487320*
X1064354Y486570*
X1064081Y485445*
X1134490Y488820D02*
Y489195D01*
X1134763Y489945*
X1135035Y490320*
X1135581Y490695*
X1136672*
X1137217Y490320*
X1137490Y489945*
X1137763Y489195*
Y488445*
X1137490Y487695*
X1136944Y486570*
X1134217Y482820*
X1138035*
X1143217Y490695D02*
X1140490Y485445D01*
X1144581*
X1143217Y490695D02*
Y482820D01*
X1176444D02*
X1182444Y488820D01*
X1176444Y494820*
X1170444Y488820*
X1176444Y482820*
Y488820D02*
Y494820D01*
X1203081Y490695D02*
X1205263Y486945D01*
Y482820*
X1207444Y490695D02*
X1205263Y486945D01*
X1209899Y490695D02*
Y482820D01*
Y490695D02*
X1213444D01*
X1209899Y486945D02*
X1212081D01*
X1209899Y482820D02*
X1213444D01*
X1219717Y489570D02*
X1219172Y490320D01*
X1218354Y490695*
X1217263*
X1216444Y490320*
X1215899Y489570*
Y488820*
X1216172Y488070*
X1216444Y487695*
X1216990Y487320*
X1218626Y486570*
X1219172Y486195*
X1219444Y485820*
X1219717Y485070*
Y483945*
X1219172Y483195*
X1218354Y482820*
X1217263*
X1216444Y483195*
X1215899Y483945*
X1256263Y489570D02*
Y482820D01*
X1253808Y486195D02*
X1258717D01*
X1266081Y492195D02*
X1261172Y480195D01*
X1268535Y486195D02*
X1273444D01*
X1277535Y490695D02*
X1276717Y490320D01*
X1276172Y489195*
X1275899Y487320*
Y486195*
X1276172Y484320*
X1276717Y483195*
X1277535Y482820*
X1278081*
X1278899Y483195*
X1279444Y484320*
X1279717Y486195*
Y487320*
X1279444Y489195*
X1278899Y490320*
X1278081Y490695*
X1277535*
X1282444Y483570D02*
X1282172Y483195D01*
X1282444Y482820*
X1282717Y483195*
X1282444Y483570*
X1286808Y490695D02*
X1285990Y490320D01*
X1285444Y489195*
X1285172Y487320*
Y486195*
X1285444Y484320*
X1285990Y483195*
X1286808Y482820*
X1287354*
X1288172Y483195*
X1288717Y484320*
X1288990Y486195*
Y487320*
X1288717Y489195*
X1288172Y490320*
X1287354Y490695*
X1286808*
X1044444Y465195D02*
X1044990Y465570D01*
X1045808Y466695*
Y458820*
X1049899Y466695D02*
X1049081Y466320D01*
X1048535Y465195*
X1048263Y463320*
Y462195*
X1048535Y460320*
X1049081Y459195*
X1049899Y458820*
X1050444*
X1051263Y459195*
X1051808Y460320*
X1052081Y462195*
Y463320*
X1051808Y465195*
X1051263Y466320*
X1050444Y466695*
X1049899*
X1057808Y465570D02*
X1057535Y466320D01*
X1056717Y466695*
X1056172*
X1055354Y466320*
X1054808Y465195*
X1054535Y463320*
Y461445*
X1054808Y459945*
X1055354Y459195*
X1056172Y458820*
X1056444*
X1057263Y459195*
X1057808Y459945*
X1058081Y461070*
Y461445*
X1057808Y462570*
X1057263Y463320*
X1056444Y463695*
X1056172*
X1055354Y463320*
X1054808Y462570*
X1054535Y461445*
X1060808Y459570D02*
X1060535Y459195D01*
X1060808Y458820*
X1061081Y459195*
X1060808Y459570*
X1064081Y466695D02*
X1067081D01*
X1065444Y463695*
X1066263*
X1066808Y463320*
X1067081Y462945*
X1067354Y461820*
Y461070*
X1067081Y459945*
X1066535Y459195*
X1065717Y458820*
X1064899*
X1064081Y459195*
X1063808Y459570*
X1063535Y460320*
X1137763Y464820D02*
Y465195D01*
X1138035Y465945*
X1138308Y466320*
X1138854Y466695*
X1139944*
X1140490Y466320*
X1140763Y465945*
X1141035Y465195*
Y464445*
X1140763Y463695*
X1140217Y462570*
X1137490Y458820*
X1141308*
X1170444D02*
X1182444D01*
X1170444Y470820*
X1182444*
X1170444Y458820*
X1203081Y466695D02*
X1205263Y462945D01*
Y458820*
X1207444Y466695D02*
X1205263Y462945D01*
X1209899Y466695D02*
Y458820D01*
Y466695D02*
X1213444D01*
X1209899Y462945D02*
X1212081D01*
X1209899Y458820D02*
X1213444D01*
X1219717Y465570D02*
X1219172Y466320D01*
X1218354Y466695*
X1217263*
X1216444Y466320*
X1215899Y465570*
Y464820*
X1216172Y464070*
X1216444Y463695*
X1216990Y463320*
X1218626Y462570*
X1219172Y462195*
X1219444Y461820*
X1219717Y461070*
Y459945*
X1219172Y459195*
X1218354Y458820*
X1217263*
X1216444Y459195*
X1215899Y459945*
X1256263Y465570D02*
Y458820D01*
X1253808Y462195D02*
X1258717D01*
X1266081Y468195D02*
X1261172Y456195D01*
X1268535Y462195D02*
X1273444D01*
X1277535Y466695D02*
X1276717Y466320D01*
X1276172Y465195*
X1275899Y463320*
Y462195*
X1276172Y460320*
X1276717Y459195*
X1277535Y458820*
X1278081*
X1278899Y459195*
X1279444Y460320*
X1279717Y462195*
Y463320*
X1279444Y465195*
X1278899Y466320*
X1278081Y466695*
X1277535*
X1282444Y459570D02*
X1282172Y459195D01*
X1282444Y458820*
X1282717Y459195*
X1282444Y459570*
X1286808Y466695D02*
X1285990Y466320D01*
X1285444Y465195*
X1285172Y463320*
Y462195*
X1285444Y460320*
X1285990Y459195*
X1286808Y458820*
X1287354*
X1288172Y459195*
X1288717Y460320*
X1288990Y462195*
Y463320*
X1288717Y465195*
X1288172Y466320*
X1287354Y466695*
X1286808*
X1044990Y442695D02*
X1047990D01*
X1046354Y439695*
X1047172*
X1047717Y439320*
X1047990Y438945*
X1048263Y437820*
Y437070*
X1047990Y435945*
X1047444Y435195*
X1046626Y434820*
X1045808*
X1044990Y435195*
X1044717Y435570*
X1044444Y436320*
X1054263Y442695D02*
X1051535D01*
X1051263Y439320*
X1051535Y439695*
X1052354Y440070*
X1053172*
X1053990Y439695*
X1054535Y438945*
X1054808Y437820*
X1054535Y437070*
X1054263Y435945*
X1053717Y435195*
X1052899Y434820*
X1052081*
X1051263Y435195*
X1050990Y435570*
X1050717Y436320*
X1057535Y435570D02*
X1057263Y435195D01*
X1057535Y434820*
X1057808Y435195*
X1057535Y435570*
X1062990Y442695D02*
X1060263Y437445D01*
X1064354*
X1062990Y442695D02*
Y434820D01*
X1067354Y442695D02*
X1070354D01*
X1068717Y439695*
X1069535*
X1070081Y439320*
X1070354Y438945*
X1070626Y437820*
Y437070*
X1070354Y435945*
X1069808Y435195*
X1068990Y434820*
X1068172*
X1067354Y435195*
X1067081Y435570*
X1066808Y436320*
X1132444Y441195D02*
X1132990Y441570D01*
X1133808Y442695*
Y434820*
X1136535Y440820D02*
Y441195D01*
X1136808Y441945*
X1137081Y442320*
X1137626Y442695*
X1138717*
X1139263Y442320*
X1139535Y441945*
X1139808Y441195*
Y440445*
X1139535Y439695*
X1138990Y438570*
X1136263Y434820*
X1140081*
X1144172Y442695D02*
X1143354Y442320D01*
X1142808Y441195*
X1142535Y439320*
Y438195*
X1142808Y436320*
X1143354Y435195*
X1144172Y434820*
X1144717*
X1145535Y435195*
X1146081Y436320*
X1146354Y438195*
Y439320*
X1146081Y441195*
X1145535Y442320*
X1144717Y442695*
X1144172*
X1170444Y434820D02*
X1182444Y446820D01*
Y434820*
X1170444Y446820*
Y434820*
X1203081Y442695D02*
X1205263Y438945D01*
Y434820*
X1207444Y442695D02*
X1205263Y438945D01*
X1209899Y442695D02*
Y434820D01*
Y442695D02*
X1213444D01*
X1209899Y438945D02*
X1212081D01*
X1209899Y434820D02*
X1213444D01*
X1219717Y441570D02*
X1219172Y442320D01*
X1218354Y442695*
X1217263*
X1216444Y442320*
X1215899Y441570*
Y440820*
X1216172Y440070*
X1216444Y439695*
X1216990Y439320*
X1218626Y438570*
X1219172Y438195*
X1219444Y437820*
X1219717Y437070*
Y435945*
X1219172Y435195*
X1218354Y434820*
X1217263*
X1216444Y435195*
X1215899Y435945*
X1256263Y441570D02*
Y434820D01*
X1253808Y438195D02*
X1258717D01*
X1266081Y444195D02*
X1261172Y432195D01*
X1268535Y438195D02*
X1273444D01*
X1277535Y442695D02*
X1276717Y442320D01*
X1276172Y441195*
X1275899Y439320*
Y438195*
X1276172Y436320*
X1276717Y435195*
X1277535Y434820*
X1278081*
X1278899Y435195*
X1279444Y436320*
X1279717Y438195*
Y439320*
X1279444Y441195*
X1278899Y442320*
X1278081Y442695*
X1277535*
X1282444Y435570D02*
X1282172Y435195D01*
X1282444Y434820*
X1282717Y435195*
X1282444Y435570*
X1286808Y442695D02*
X1285990Y442320D01*
X1285444Y441195*
X1285172Y439320*
Y438195*
X1285444Y436320*
X1285990Y435195*
X1286808Y434820*
X1287354*
X1288172Y435195*
X1288717Y436320*
X1288990Y438195*
Y439320*
X1288717Y441195*
X1288172Y442320*
X1287354Y442695*
X1286808*
X1047172Y418695D02*
X1044444Y413445D01*
X1048535*
X1047172Y418695D02*
Y410820D01*
X1054808Y418695D02*
X1052081Y410820D01*
X1050990Y418695D02*
X1054808D01*
X1057535Y411570D02*
X1057263Y411195D01*
X1057535Y410820*
X1057808Y411195*
X1057535Y411570*
X1060535Y416820D02*
Y417195D01*
X1060808Y417945*
X1061081Y418320*
X1061626Y418695*
X1062717*
X1063263Y418320*
X1063535Y417945*
X1063808Y417195*
Y416445*
X1063535Y415695*
X1062990Y414570*
X1060263Y410820*
X1064081*
X1069263Y418695D02*
X1066535Y413445D01*
X1070626*
X1069263Y418695D02*
Y410820D01*
X1138035Y418695D02*
X1141035D01*
X1139399Y415695*
X1140217*
X1140763Y415320*
X1141035Y414945*
X1141308Y413820*
Y413070*
X1141035Y411945*
X1140490Y411195*
X1139672Y410820*
X1138854*
X1138035Y411195*
X1137763Y411570*
X1137490Y412320*
X1170444Y416820D02*
X1182444D01*
X1176444Y410820D02*
Y422820D01*
X1181190Y426120D02*
X1179444Y419820D01*
X1181190Y426120D02*
X1182935Y419820D01*
X1180099Y421920D02*
X1182281D01*
X1203081Y418695D02*
X1205263Y414945D01*
Y410820*
X1207444Y418695D02*
X1205263Y414945D01*
X1209899Y418695D02*
Y410820D01*
Y418695D02*
X1213444D01*
X1209899Y414945D02*
X1212081D01*
X1209899Y410820D02*
X1213444D01*
X1219717Y417570D02*
X1219172Y418320D01*
X1218354Y418695*
X1217263*
X1216444Y418320*
X1215899Y417570*
Y416820*
X1216172Y416070*
X1216444Y415695*
X1216990Y415320*
X1218626Y414570*
X1219172Y414195*
X1219444Y413820*
X1219717Y413070*
Y411945*
X1219172Y411195*
X1218354Y410820*
X1217263*
X1216444Y411195*
X1215899Y411945*
X1256263Y417570D02*
Y410820D01*
X1253808Y414195D02*
X1258717D01*
X1266081Y420195D02*
X1261172Y408195D01*
X1268535Y414195D02*
X1273444D01*
X1277535Y418695D02*
X1276717Y418320D01*
X1276172Y417195*
X1275899Y415320*
Y414195*
X1276172Y412320*
X1276717Y411195*
X1277535Y410820*
X1278081*
X1278899Y411195*
X1279444Y412320*
X1279717Y414195*
Y415320*
X1279444Y417195*
X1278899Y418320*
X1278081Y418695*
X1277535*
X1282444Y411570D02*
X1282172Y411195D01*
X1282444Y410820*
X1282717Y411195*
X1282444Y411570*
X1286808Y418695D02*
X1285990Y418320D01*
X1285444Y417195*
X1285172Y415320*
Y414195*
X1285444Y412320*
X1285990Y411195*
X1286808Y410820*
X1287354*
X1288172Y411195*
X1288717Y412320*
X1288990Y414195*
Y415320*
X1288717Y417195*
X1288172Y418320*
X1287354Y418695*
X1286808*
X1047717Y393570D02*
X1047444Y394320D01*
X1046626Y394695*
X1046081*
X1045263Y394320*
X1044717Y393195*
X1044444Y391320*
Y389445*
X1044717Y387945*
X1045263Y387195*
X1046081Y386820*
X1046354*
X1047172Y387195*
X1047717Y387945*
X1047990Y389070*
Y389445*
X1047717Y390570*
X1047172Y391320*
X1046354Y391695*
X1046081*
X1045263Y391320*
X1044717Y390570*
X1044444Y389445*
X1050717Y392820D02*
Y393195D01*
X1050990Y393945*
X1051263Y394320*
X1051808Y394695*
X1052899*
X1053444Y394320*
X1053717Y393945*
X1053990Y393195*
Y392445*
X1053717Y391695*
X1053172Y390570*
X1050444Y386820*
X1054263*
X1056990Y387570D02*
X1056717Y387195D01*
X1056990Y386820*
X1057263Y387195*
X1056990Y387570*
X1063263Y392070D02*
X1062990Y390945D01*
X1062444Y390195*
X1061626Y389820*
X1061354*
X1060535Y390195*
X1059990Y390945*
X1059717Y392070*
Y392445*
X1059990Y393570*
X1060535Y394320*
X1061354Y394695*
X1061626*
X1062444Y394320*
X1062990Y393570*
X1063263Y392070*
Y390195*
X1062990Y388320*
X1062444Y387195*
X1061626Y386820*
X1061081*
X1060263Y387195*
X1059990Y387945*
X1069263Y392070D02*
X1068990Y390945D01*
X1068444Y390195*
X1067626Y389820*
X1067354*
X1066535Y390195*
X1065990Y390945*
X1065717Y392070*
Y392445*
X1065990Y393570*
X1066535Y394320*
X1067354Y394695*
X1067626*
X1068444Y394320*
X1068990Y393570*
X1069263Y392070*
Y390195*
X1068990Y388320*
X1068444Y387195*
X1067626Y386820*
X1067081*
X1066263Y387195*
X1065990Y387945*
X1137763Y392820D02*
Y393195D01*
X1138035Y393945*
X1138308Y394320*
X1138854Y394695*
X1139944*
X1140490Y394320*
X1140763Y393945*
X1141035Y393195*
Y392445*
X1140763Y391695*
X1140217Y390570*
X1137490Y386820*
X1141308*
X1170444Y392820D02*
X1182444D01*
X1176444Y386820D02*
Y398820D01*
X1179444Y402120D02*
Y395820D01*
Y402120D02*
X1181408D01*
X1182063Y401820*
X1182281Y401520*
X1182499Y400920*
Y400320*
X1182281Y399720*
X1182063Y399420*
X1181408Y399120*
X1179444D02*
X1181408D01*
X1182063Y398820*
X1182281Y398520*
X1182499Y397920*
Y397020*
X1182281Y396420*
X1182063Y396120*
X1181408Y395820*
X1179444*
X1203081Y394695D02*
X1205263Y390945D01*
Y386820*
X1207444Y394695D02*
X1205263Y390945D01*
X1209899Y394695D02*
Y386820D01*
Y394695D02*
X1213444D01*
X1209899Y390945D02*
X1212081D01*
X1209899Y386820D02*
X1213444D01*
X1219717Y393570D02*
X1219172Y394320D01*
X1218354Y394695*
X1217263*
X1216444Y394320*
X1215899Y393570*
Y392820*
X1216172Y392070*
X1216444Y391695*
X1216990Y391320*
X1218626Y390570*
X1219172Y390195*
X1219444Y389820*
X1219717Y389070*
Y387945*
X1219172Y387195*
X1218354Y386820*
X1217263*
X1216444Y387195*
X1215899Y387945*
X1256263Y393570D02*
Y386820D01*
X1253808Y390195D02*
X1258717D01*
X1266081Y396195D02*
X1261172Y384195D01*
X1268535Y390195D02*
X1273444D01*
X1277535Y394695D02*
X1276717Y394320D01*
X1276172Y393195*
X1275899Y391320*
Y390195*
X1276172Y388320*
X1276717Y387195*
X1277535Y386820*
X1278081*
X1278899Y387195*
X1279444Y388320*
X1279717Y390195*
Y391320*
X1279444Y393195*
X1278899Y394320*
X1278081Y394695*
X1277535*
X1282444Y387570D02*
X1282172Y387195D01*
X1282444Y386820*
X1282717Y387195*
X1282444Y387570*
X1286808Y394695D02*
X1285990Y394320D01*
X1285444Y393195*
X1285172Y391320*
Y390195*
X1285444Y388320*
X1285990Y387195*
X1286808Y386820*
X1287354*
X1288172Y387195*
X1288717Y388320*
X1288990Y390195*
Y391320*
X1288717Y393195*
X1288172Y394320*
X1287354Y394695*
X1286808*
X1044990Y370695D02*
X1047990D01*
X1046354Y367695*
X1047172*
X1047717Y367320*
X1047990Y366945*
X1048263Y365820*
Y365070*
X1047990Y363945*
X1047444Y363195*
X1046626Y362820*
X1045808*
X1044990Y363195*
X1044717Y363570*
X1044444Y364320*
X1050717Y369195D02*
X1051263Y369570D01*
X1052081Y370695*
Y362820*
X1054808Y363570D02*
X1054535Y363195D01*
X1054808Y362820*
X1055081Y363195*
X1054808Y363570*
X1061081Y370695D02*
X1058354D01*
X1058081Y367320*
X1058354Y367695*
X1059172Y368070*
X1059990*
X1060808Y367695*
X1061354Y366945*
X1061626Y365820*
X1061354Y365070*
X1061081Y363945*
X1060535Y363195*
X1059717Y362820*
X1058899*
X1058081Y363195*
X1057808Y363570*
X1057535Y364320*
X1140899Y369570D02*
X1140626Y370320D01*
X1139808Y370695*
X1139263*
X1138444Y370320*
X1137899Y369195*
X1137626Y367320*
Y365445*
X1137899Y363945*
X1138444Y363195*
X1139263Y362820*
X1139535*
X1140354Y363195*
X1140899Y363945*
X1141172Y365070*
Y365445*
X1140899Y366570*
X1140354Y367320*
X1139535Y367695*
X1139263*
X1138444Y367320*
X1137899Y366570*
X1137626Y365445*
X1170444Y368820D02*
X1182444D01*
X1176444Y362820D02*
Y374820D01*
X1182717Y376620D02*
X1182499Y377220D01*
X1182063Y377820*
X1181626Y378120*
X1180754*
X1180317Y377820*
X1179881Y377220*
X1179663Y376620*
X1179444Y375720*
Y374220*
X1179663Y373320*
X1179881Y372720*
X1180317Y372120*
X1180754Y371820*
X1181626*
X1182063Y372120*
X1182499Y372720*
X1182717Y373320*
X1203081Y370695D02*
X1205263Y366945D01*
Y362820*
X1207444Y370695D02*
X1205263Y366945D01*
X1209899Y370695D02*
Y362820D01*
Y370695D02*
X1213444D01*
X1209899Y366945D02*
X1212081D01*
X1209899Y362820D02*
X1213444D01*
X1219717Y369570D02*
X1219172Y370320D01*
X1218354Y370695*
X1217263*
X1216444Y370320*
X1215899Y369570*
Y368820*
X1216172Y368070*
X1216444Y367695*
X1216990Y367320*
X1218626Y366570*
X1219172Y366195*
X1219444Y365820*
X1219717Y365070*
Y363945*
X1219172Y363195*
X1218354Y362820*
X1217263*
X1216444Y363195*
X1215899Y363945*
X1256263Y369570D02*
Y362820D01*
X1253808Y366195D02*
X1258717D01*
X1266081Y372195D02*
X1261172Y360195D01*
X1268535Y366195D02*
X1273444D01*
X1277535Y370695D02*
X1276717Y370320D01*
X1276172Y369195*
X1275899Y367320*
Y366195*
X1276172Y364320*
X1276717Y363195*
X1277535Y362820*
X1278081*
X1278899Y363195*
X1279444Y364320*
X1279717Y366195*
Y367320*
X1279444Y369195*
X1278899Y370320*
X1278081Y370695*
X1277535*
X1282444Y363570D02*
X1282172Y363195D01*
X1282444Y362820*
X1282717Y363195*
X1282444Y363570*
X1286808Y370695D02*
X1285990Y370320D01*
X1285444Y369195*
X1285172Y367320*
Y366195*
X1285444Y364320*
X1285990Y363195*
X1286808Y362820*
X1287354*
X1288172Y363195*
X1288717Y364320*
X1288990Y366195*
Y367320*
X1288717Y369195*
X1288172Y370320*
X1287354Y370695*
X1286808*
G74*
X0Y0D02*
M02*
