M48
;FILE_FORMAT=2:4
INCH,LZ
FMAT,2
ICI,OFF
;TYPE=PLATED
T1C.01
T2C.0315
T3C.03543
T4C.04016
T5C.04724
T6C.05906
T7C.06299
T8C.07087
T9C.1063
%
M72
G90
G93X0Y0
T1C.01F0S0
X05944Y03888
X05945Y03785
X0606Y03785
X0606Y0389
X06165Y03785
X06165Y0389
X0657Y0372
X06572Y03618
X06725Y03615
X06725Y0408
X06726Y03718
X0683Y0408
X07205Y04085
X07205Y04
X07295Y0409
X07295Y04
X07535Y03715
X08365Y03675
X0837Y0383
X08395Y04045
X0847Y0383
X0847Y03675
X0853Y04045
X0867Y04045
X0879Y04045
X0882Y03618
X08915Y04045
X0903Y04045
X09082Y03618
X09235Y0371
X09815Y04
X09815Y03935
X099Y03935
X099Y04
X09695Y04545
X09694Y04428
X0957Y04545
X09566Y04426
X09235Y0414
X092Y04445
X08972Y0433
X0855Y04415
X085Y04415
X0825Y04405
X0754Y0414
X07295Y0416
X0724Y04595
X0723Y0432
X07205Y04165
X0709Y04595
X06925Y046
X0683Y0428
X0683Y0418
X06725Y0428
X06725Y04175
X0603Y04613
X05805Y048
X0611Y04855
X06242Y04788
X06515Y0479
X06795Y04635
X0687Y0478
X06925Y04655
X06925Y04715
X07038Y04814
X0709Y04655
X0709Y04715
X071Y04815
X0724Y04655
X0724Y04715
X07255Y0481
X07325Y0483
X0761Y0479
X0904Y0484
X0914Y04825
X09905Y04825
X09905Y04995
X0926Y04945
X0926Y05055
X0904Y0508
X0904Y0496
X0879Y04895
X0879Y0508
X0879Y0499
X0866Y0499
X0866Y0508
X0866Y04895
X08395Y04985
X08395Y04875
X0828Y04875
X08275Y04985
X0816Y04985
X0816Y04875
X0766Y0491
X0761Y05025
X0733Y0495
X07145Y04895
X0699Y04955
X06975Y05055
X06955Y04955
X06915Y0487
X06868Y04884
X06575Y05049
X0632Y04883
X0611Y04955
X0611Y04905
X05938Y05168
X05942Y05342
X05986Y05168
X0599Y05342
X06034Y05168
X06036Y05342
X06245Y0517
X06274Y0533
X06275Y05245
X06305Y0517
X06344Y05138
X06345Y05245
X06395Y0517
X0642Y05245
X0645Y0517
X06495Y05245
X06516Y05136
X06545Y0517
X0656Y05245
X066Y0517
X0662Y05245
X06652Y05168
X0668Y05245
X0674Y05325
X068Y05325
X06855Y05325
X06915Y05215
X0695Y053
X06985Y053
X07035Y05155
X071Y0516
X07145Y05245
X07255Y0515
X07325Y05285
X0733Y0517
X0744Y0535
X0751Y05345
X07545Y05115
X0801Y0512
X08155Y0534
X0904Y0522
X0928Y05165
X09905Y05165
X0941Y0558
X09405Y0544
X0903Y0543
X0888Y05435
X0802Y0541
X0799Y05545
X0767Y05595
X0751Y0551
X0751Y0542
X0744Y05515
X0744Y05425
X0733Y0552
X07255Y055
X07145Y05585
X071Y05505
X07035Y0549
X06915Y05555
X06855Y0539
X068Y0539
X06795Y05475
X0674Y0539
X06518Y05601
X06244Y0561
X05727Y05863
X0573Y05786
X05824Y05788
X06018Y05754
X0606Y0567
X0606Y05754
X06102Y05754
X06104Y0567
X06298Y05712
X06368Y05766
X06406Y05766
X06442Y05766
X06858Y05798
X06858Y05754
X06858Y05836
X0688Y0562
X06955Y0564
X06985Y0564
X07325Y0564
X08405Y0566
X0844Y0566
X08475Y0562
X0851Y0562
X0976Y059
X0968Y059
X0954Y0608
X09358Y06028
X09298Y06028
X0922Y05965
X0915Y0599
X0915Y0603
X08785Y0607
X08735Y0607
X08675Y0599
X08675Y0607
X08605Y0607
X086Y05985
X08295Y0603
X08295Y05995
X0781Y06095
X0775Y06095
X075Y0595
X06745Y0608
X06695Y0598
X06675Y0608
X0657Y0598
X06515Y05952
X06462Y05918
X06344Y05954
X06245Y0598
X062Y0608
X06185Y0592
X06135Y0608
X0612Y0592
X05822Y05943
X05822Y05866
X05727Y05943
X06135Y0621
X06135Y06145
X062Y0621
X062Y0615
X06675Y06145
X06675Y0622
X0675Y06145
X0675Y0622
X0688Y0618
X0775Y06205
X0775Y0615
X0781Y06205
X0781Y0615
X0788Y06205
X08035Y06215
X0824Y06125
X083Y06145
X083596Y061916
X084Y06138
X08438Y06134
X0878Y062
X08938Y0621
X091Y06145
X0914Y06125
X09205Y0614
X09265Y0614
X093Y06166
X0933Y0615
X0935Y0613
X0954Y0615
T2C.0315F0S0
X063616Y06085
X0646Y059866
X065584Y06085
X071087Y0618
X0703Y0618
X069513Y0618
T3C.03543F0S0
X0817Y0391
X08185Y0431
X08185Y0421
X0827Y0391
X08285Y0431
X08285Y0421
X0837Y0391
X08385Y0431
X08385Y0421
X0847Y0391
X08485Y0431
X08485Y0421
X0857Y0391
X08585Y0421
X08585Y0431
X0867Y0391
X08685Y0431
X08685Y0421
X08785Y0431
X08785Y0421
X08885Y0431
X08885Y0421
X0935Y0454
X0925Y0454
X0915Y0454
X0905Y0454
X0895Y0454
X0885Y0454
X0875Y0454
X0865Y0454
X0855Y0454
X0845Y0454
X0835Y0454
X0825Y0454
X0815Y0454
X0805Y0454
X0795Y0454
X0785Y0454
X0775Y0454
X0765Y0454
X0755Y0454
X0745Y0454
X0745Y0464
X0755Y0464
X0765Y0464
X0775Y0464
X0785Y0464
X0795Y0464
X0805Y0464
X0815Y0464
X0825Y0464
X0835Y0464
X0845Y0464
X0855Y0464
X0865Y0464
X0875Y0464
X0885Y0464
X0895Y0464
X0905Y0464
X0915Y0464
X0925Y0464
X0925Y0474
X0935Y0464
X0935Y0474
X09805Y0544
X09805Y0574
X09705Y0544
X09705Y0574
X0935Y0564
X0935Y0574
X0935Y0584
X0925Y0564
X0925Y0574
X0925Y0584
X0915Y0584
X0915Y0574
X0905Y0574
X0905Y0584
X0895Y0574
X0895Y0584
X0885Y0584
X0885Y0574
X0875Y0574
X0875Y0584
X0865Y0574
X0865Y0584
X0855Y0574
X0855Y0584
X0845Y0574
X0845Y0584
X08375Y053784
X08375Y051816
X0835Y0574
X0835Y0584
X0825Y0574
X0825Y0584
X0815Y0574
X0815Y0584
X0805Y0574
X0805Y0584
X0795Y0574
X0795Y0584
X0785Y0574
X0785Y0584
X0775Y0574
X0775Y0584
X0765Y0574
X0765Y0584
X0755Y0574
X0755Y0584
X0745Y0574
X0745Y0584
X07355Y06095
X07355Y06195
X07455Y06095
X07455Y06195
X07555Y06195
X07555Y06095
X07655Y06195
X07655Y06095
T4C.04016F0S0
X07605Y03715
X07605Y03815
X07705Y03715
X07705Y03815
X07805Y03715
X07805Y03815
X0931Y0371
X0931Y0381
X0941Y0371
X0941Y0381
X0951Y0371
X0951Y0381
X0951Y0414
X0951Y0424
X0941Y0414
X0941Y0424
X0931Y0414
X0931Y0424
X07805Y0414
X07805Y0424
X07705Y0414
X07705Y0424
X07605Y0414
X07605Y0424
T5C.04724F0S0
X059Y045619
X059Y0468
X059Y047981
T6C.05906F0S0
X0704Y0375
X0724Y0375
T7C.06299F0S0
X059Y04432
X059Y04928
T8C.07087F0S0
X061838Y036943
X061838Y042257
T9C.1063F0S0
X0642Y038183
X0642Y041017
M30
