M48
;FILE_FORMAT=2:4
INCH,LZ
FMAT,2
ICI,OFF
;TYPE=PLATED
T1C.01
T2C.0315
T3C.03543
T4C.04016
T5C.04724
T6C.05906
T7C.06299
T8C.07087
T9C.1063
%
M72
G90
G93X0Y0
T1C.01F0S0
X-03056Y-05112
X-03055Y-05215
X-0294Y-05215
X-0294Y-0511
X-02835Y-05215
X-02835Y-0511
X-0243Y-0528
X-02428Y-05382
X-02275Y-05385
X-02274Y-05282
X-01465Y-05285
X-0063Y-0517
X-00605Y-04955
X-0053Y-0517
X-0047Y-04955
X-0033Y-04955
X-0021Y-04955
X-0018Y-05382
X-00085Y-04955
X0003Y-04955
X00082Y-05382
X00235Y-0529
X00815Y-05065
X00815Y-05
X009Y-05065
X009Y-05
X00695Y-04455
X00694Y-04572
X0057Y-04455
X00566Y-04574
X00235Y-0486
X-00015Y-0464
X-0045Y-04585
X-005Y-04585
X-0075Y-04595
X-0146Y-0486
X-0177Y-0468
X-0321Y-0444
X-03025Y-04235
X-0296Y-04148
X-0296Y-04094
X-0289Y-04145
X-0289Y-04045
X-0289Y-04095
X-02755Y-042
X-02684Y-0411
X-02516Y-04174
X-02425Y-03951
X-02205Y-04355
X-02132Y-04116
X-0213Y-0421
X-02085Y-0413
X-02045Y-04045
X-02025Y-03945
X-0201Y-04045
X-01962Y-04186
X-019Y-04185
X-01855Y-04105
X-01745Y-0419
X-01675Y-0417
X-0167Y-0405
X-0139Y-0421
X-0139Y-03975
X-0134Y-0409
X00905Y-04175
X00905Y-04005
X00905Y-03835
X0041Y-0342
X00405Y-0356
X-00845Y-0366
X-0098Y-0359
X-0099Y-0388
X-0101Y-03455
X-0133Y-03405
X-0149Y-03655
X-0149Y-0349
X-0149Y-0358
X-0156Y-0365
X-0156Y-03575
X-0156Y-03485
X-0167Y-0383
X-0167Y-0348
X-01675Y-03715
X-01745Y-035
X-01745Y-0385
X-01855Y-03415
X-01855Y-03755
X-019Y-03495
X-019Y-0384
X-01965Y-0351
X-01965Y-03845
X-02015Y-037
X-02085Y-03785
X-02085Y-03445
X-02205Y-03525
X-02484Y-03864
X-02656Y-03862
X-02755Y-0339
X-03175Y-03485
X-03245Y-03485
X-03245Y-0333
X-03245Y-03195
X-03242Y-03272
X-03175Y-0333
X-0315Y-03192
X-03148Y-0327
X-02975Y-0328
X-02975Y-0333
X-02935Y-0328
X-02935Y-0333
X-029Y-0328
X-029Y-0333
X-02682Y-03296
X-02632Y-03234
X-02594Y-03234
X-02558Y-03234
X-02514Y-03358
X-02142Y-03202
X-02142Y-03246
X-02142Y-03164
X-0212Y-0338
X-02045Y-0336
X-02015Y-0336
X-01675Y-0336
X-00595Y-0334
X-0056Y-0334
X-00525Y-0338
X-0049Y-03385
X0076Y-031
X0068Y-031
X0054Y-0292
X00358Y-02972
X00298Y-02972
X0022Y-03035
X0015Y-0301
X0015Y-0297
X-00705Y-0297
X-00705Y-03005
X-015Y-0305
X-02255Y-0292
X-02325Y-0292
X-02485Y-03048
X-02538Y-03082
X-02656Y-03046
X-028Y-0292
X-02865Y-0292
X-0315Y-03115
X-03245Y-03115
X-02865Y-02855
X-02865Y-0279
X-028Y-0285
X-028Y-0279
X-02325Y-02855
X-02325Y-0278
X-0225Y-02855
X-0225Y-0278
X-0212Y-0282
X-0112Y-02795
X-00965Y-02785
X-0076Y-02875
X-007Y-02855
X-006404Y-028084
X-006Y-02862
X-00562Y-02866
X-0022Y-028
X-00062Y-0279
X001Y-02855
X0014Y-02875
X00205Y-0286
X00265Y-0286
X003Y-02834
X0033Y-0285
X0035Y-0287
X0054Y-0285
T2C.0315F0S0
X-026384Y-02915
X-0254Y-030134
X-024416Y-02915
X-018913Y-0282
X-0197Y-0282
X-020487Y-0282
T3C.03543F0S0
X-0083Y-0509
X-00815Y-0469
X-00815Y-0479
X-0073Y-0509
X-00715Y-0469
X-00715Y-0479
X-0063Y-0509
X-00615Y-0469
X-00615Y-0479
X-0053Y-0509
X-00515Y-0469
X-00515Y-0479
X-0043Y-0509
X-00415Y-0479
X-00415Y-0469
X-0033Y-0509
X-00315Y-0469
X-00315Y-0479
X-00215Y-0469
X-00215Y-0479
X-00115Y-0479
X-00115Y-0469
X0035Y-0446
X0025Y-0446
X0015Y-0446
X0005Y-0446
X-0005Y-0446
X-0015Y-0446
X-0025Y-0446
X-0035Y-0446
X-0045Y-0446
X-0055Y-0446
X-0065Y-0446
X-0075Y-0446
X-0085Y-0446
X-0095Y-0446
X-0105Y-0446
X-0115Y-0446
X-0125Y-0446
X-0135Y-0446
X-0145Y-0446
X-0155Y-0446
X-0155Y-0436
X-0145Y-0436
X-0135Y-0436
X-0125Y-0436
X-0115Y-0436
X-0105Y-0436
X-0095Y-0436
X-0085Y-0436
X-0075Y-0436
X-0065Y-0436
X-0055Y-0436
X-0045Y-0436
X-0035Y-0436
X-0025Y-0436
X-0015Y-0436
X-0005Y-0436
X0005Y-0436
X0015Y-0436
X0025Y-0436
X0025Y-0426
X0035Y-0436
X0035Y-0426
X00805Y-0356
X00805Y-0326
X00705Y-0356
X00705Y-0326
X0035Y-0326
X0035Y-0316
X0035Y-0336
X0025Y-0316
X0025Y-0326
X0025Y-0336
X0015Y-0326
X0015Y-0316
X0005Y-0326
X0005Y-0316
X-0005Y-0326
X-0005Y-0316
X-0015Y-0326
X-0015Y-0316
X-0025Y-0326
X-0025Y-0316
X-0035Y-0326
X-0035Y-0316
X-0045Y-0326
X-0045Y-0316
X-0055Y-0326
X-0055Y-0316
X-00625Y-036216
X-00625Y-038184
X-0065Y-0326
X-0065Y-0316
X-0075Y-0326
X-0075Y-0316
X-0085Y-0326
X-0085Y-0316
X-0095Y-0326
X-0095Y-0316
X-0105Y-0326
X-0105Y-0316
X-0115Y-0326
X-0115Y-0316
X-0125Y-0326
X-0125Y-0316
X-0135Y-0326
X-0135Y-0316
X-0145Y-0326
X-0145Y-0316
X-0155Y-0326
X-0155Y-0316
X-01645Y-02905
X-01645Y-02805
X-01545Y-02905
X-01545Y-02805
X-01445Y-02805
X-01445Y-02905
X-01345Y-02805
X-01345Y-02905
T4C.04016F0S0
X-01395Y-05285
X-01395Y-05185
X-01295Y-05285
X-01295Y-05185
X-01195Y-05285
X-01195Y-05185
X0031Y-0529
X0031Y-0519
X0041Y-0529
X0041Y-0519
X0051Y-0529
X0051Y-0519
X0051Y-0486
X0051Y-0476
X0041Y-0486
X0041Y-0476
X0031Y-0486
X0031Y-0476
X-01195Y-0486
X-01195Y-0476
X-01295Y-0486
X-01295Y-0476
X-01395Y-0486
X-01395Y-0476
T5C.04724F0S0
X-031Y-044381
X-031Y-0432
X-031Y-042019
T6C.05906F0S0
X-0196Y-0525
X-0176Y-0525
T7C.06299F0S0
X-031Y-04568
X-031Y-04072
T8C.07087F0S0
X-028162Y-053057
X-028162Y-047743
T9C.1063F0S0
X-0258Y-051817
X-0258Y-048983
M30
