*
*
G04 PADS VX.2.13 Build Number: 22185787 generated Gerber (RS-274-X) file*
G04 PC Version=2.1*
*
%IN "CAR-BOARD.pcb"*%
*
%MOIN*%
*
%FSLAX35Y35*%
*
*
*
*
G04 PC Standard Apertures*
*
*
G04 Thermal Relief Aperture macro.*
%AMTER*
1,1,$1,0,0*
1,0,$1-$2,0,0*
21,0,$3,$4,0,0,45*
21,0,$3,$4,0,0,135*
%
*
*
G04 Annular Aperture macro.*
%AMANN*
1,1,$1,0,0*
1,0,$2,0,0*
%
*
*
G04 Odd Aperture macro.*
%AMODD*
1,1,$1,0,0*
1,0,$1-0.005,0,0*
%
*
*
G04 PC Custom Aperture Macros*
*
*
*
*
*
*
G04 PC Aperture Table*
*
%ADD144C,0.00781*%
%ADD145C,0.07812*%
%ADD146C,0.0625*%
%ADD147C,0.07689*%
%ADD148C,0.06152*%
%ADD149C,0.04617*%
%ADD150C,0.04687*%
%ADD151C,0.15379*%
%ADD152C,0.03076*%
%ADD153C,0.06148*%
%ADD154C,0.03906*%
*
*
*
*
G04 PC Circuitry*
G04 Layer Name CAR-BOARD.pcb - circuitry*
%LPD*%
*
*
G04 PC Custom Flashes*
G04 Layer Name CAR-BOARD.pcb - flashes*
%LPD*%
*
*
G04 PC Circuitry*
G04 Layer Name CAR-BOARD.pcb - circuitry*
%LPD*%
*
G54D144*
G01X3799245Y2430739D02*
Y771690D01*
X3551029Y523474D02*
G75*
G03X3799245Y771690I0J248216D01*
G01X3551029Y523474D02*
X663541D01*
X663541*
X415879Y771137D02*
G03X663541Y523474I247665J2D01*
G01X415879Y771137D02*
Y2450271D01*
X642134Y2676526D02*
G03X415879Y2450271I-0J-226255D01*
G01X642134Y2676526D02*
X3572437D01*
X3572437*
X3799245Y2430739D02*
G03X3572437Y2676526I-236297J9489D01*
G01X3799245Y2430739D02*
X3799245D01*
X1360269Y780456D02*
G03X1360269I-92274J0D01*
G01X3071206D02*
G03X3071206I-92274J0D01*
G01X3680581Y2467956D02*
G03X3680581I-92274J0D01*
G01X696206Y2467958D02*
G03X696206I-92274J0D01*
G54D145*
G01X3706738Y1402614D02*
Y1380112D01*
X3512963*
Y1402614*
X3706738Y1471364D02*
Y1496992D01*
X3512963*
Y1471364*
X3666432Y1454958D02*
Y1477614D01*
X3557057*
Y1454958*
X3588307Y1407302D02*
X3634401D01*
X3611745Y1422927D02*
Y1443239D01*
Y1457302D02*
Y1477614D01*
X3369557Y2301833D02*
G03X3310964Y2360427I-58593J0D01*
G01X1803151*
G03X1744557Y2301833I0J-58594*
G01Y1278396*
X1744557D02*
G03X1803151Y1219802I58594J-0D01*
G01X3310964*
G03X3369557Y1278396I-0J58594*
G01Y2301833*
X2092214Y873530D02*
Y891677D01*
X1935964*
Y873530*
X1779252D02*
Y1144199D01*
X2248925*
Y873530*
X1779252*
X2658620Y758864D02*
X2721120D01*
Y790114*
X2736745*
Y758864*
X2799245*
Y790114*
X2846120*
Y559738*
X2752370*
Y636141*
X2689870*
Y559369*
X2455495*
Y634541*
X2392995*
Y558569*
X2294631*
X2293832Y559369*
Y760402*
X2305643Y772213*
X2323544Y790114*
X2347412*
Y759910*
X2347842Y759480*
X2408005*
X2407574Y759910*
Y790114*
X2425168*
Y759295*
X2482562*
X2482993Y759726*
X2483362Y790114*
X2502185*
X2502801Y759480*
X2563947*
X2564132Y759664*
Y790114*
X2581356*
Y759295*
X2642995*
Y790114*
X2658620*
Y758864*
X2678305Y1856521D02*
G03X2678305I-141486J0D01*
G01X2576589Y1852614D02*
X2498466D01*
X2498462Y1868239*
X2576589*
Y1852614*
Y1839353D02*
X2498464D01*
X2576589Y1882229D02*
X2498464D01*
X2537526Y1835446D02*
Y1817458D01*
Y1903396D02*
Y1882229D01*
X2467214Y1958083D02*
Y1919021D01*
X2486745Y1938552D02*
X2447682D01*
X3424245Y537592D02*
Y555739D01*
X3267995*
Y537592*
X3111284D02*
Y808262D01*
X3580956*
Y537592*
X3111284*
X3424245Y873530D02*
Y891677D01*
X3267995*
Y873530*
X3111284D02*
Y1144199D01*
X3580956*
Y873530*
X3111284*
X3706738Y1535427D02*
Y1512924D01*
X3512963*
Y1535427*
X3706738Y1604177D02*
Y1629804D01*
X3512963*
Y1604177*
X3666432Y1587771D02*
Y1610427D01*
X3557057*
Y1587771*
X3588307Y1540114D02*
X3634401D01*
X3611745Y1555739D02*
Y1576052D01*
Y1590114D02*
Y1610427D01*
X3706738Y1668239D02*
Y1645737D01*
X3512963*
Y1668239*
X3706738Y1736989D02*
Y1762617D01*
X3512963*
Y1736989*
X3666432Y1720583D02*
Y1743239D01*
X3557057*
Y1720583*
X3588307Y1672927D02*
X3634401D01*
X3611745Y1688552D02*
Y1708864D01*
Y1722927D02*
Y1743239D01*
X3706738Y1801052D02*
Y1778549D01*
X3512963*
Y1801052*
X3706738Y1869802D02*
Y1895429D01*
X3512963*
Y1869802*
X3666432Y1853396D02*
Y1876052D01*
X3557057*
Y1853396*
X3588307Y1805739D02*
X3634401D01*
X3611745Y1821364D02*
Y1841677D01*
Y1855739D02*
Y1876052D01*
X2092214Y541499D02*
Y559646D01*
X1935964*
Y541499*
X1779252D02*
Y812168D01*
X2248925*
Y541499*
X1779252*
X1571452Y600523D02*
G03X1726472I77510J77510D01*
G01X1416433D02*
G03X1571452I77509J77510D01*
G01X1416432Y763540D02*
X1728317D01*
X1416432Y794297D02*
X1728932D01*
Y535931*
X1416432*
Y794297*
X1385120Y2430677D02*
Y2275349D01*
X1337448Y2227677*
X1226722*
X1182120Y2272278*
Y2430677*
X1385120*
Y1770521D02*
Y1615193D01*
X1337448Y1567521*
X1226722*
X1182120Y1612122*
Y1770521*
X1385120*
X1084401Y2489333D02*
G03X1084401I-42969J0D01*
G01X1150807Y2598708D02*
Y2379958D01*
X932057*
Y2598708*
X1150807*
X1127370Y2036208D02*
G03X971120I-78125J-47128D01*
G01X1166432Y2028396D02*
Y2083083D01*
G03X1142995Y2106521I-23437J0*
G01X955495*
G03X932057Y2083083I-0J-23438*
G01Y2028396*
Y1950271D02*
Y1895583D01*
X932057D02*
G03X955495Y1872146I23438J0D01*
G01X1142995*
G03X1166432Y1895583I-0J23437*
G01Y1950271*
X971120Y1942458D02*
G03X1127370I78125J47128D01*
G01Y1989333D02*
X1096120D01*
G03X1064870I-15625J0*
X1033620I-15625J0*
X1002370I-15625J0*
G01X971120*
X1127370Y1395583D02*
G03X971120I-78125J-47128D01*
G01X1166432Y1387771D02*
Y1442458D01*
G03X1142995Y1465896I-23437J0*
G01X955495*
G03X932057Y1442458I-0J-23438*
G01Y1387771*
Y1309646D02*
Y1254958D01*
X932057D02*
G03X955495Y1231521I23438J0D01*
G01X1142995*
G03X1166432Y1254958I-0J23437*
G01Y1309646*
X971120Y1301833D02*
G03X1127370I78125J47128D01*
G01Y1348708D02*
X1096120D01*
G03X1064870I-15625J0*
X1033620I-15625J0*
X1002370I-15625J0*
G01X971120*
X904651Y2430677D02*
Y2275349D01*
X856979Y2227677*
X746253*
X701651Y2272278*
Y2430677*
X904651*
X900745Y1770521D02*
Y1615193D01*
X853073Y1567521*
X742347*
X697745Y1612122*
Y1770521*
X900745*
X419385Y1299403D02*
X204080D01*
Y1391677*
X419385*
X603932Y1199440D02*
X419385D01*
Y1583914*
X603932*
X657759*
Y1199440*
X650069*
X603932*
X3590793Y2188064D02*
X3588663Y2186599D01*
X3586532Y2183669*
X3585467Y2180739*
X3584401Y2176345*
Y2169021*
X3585467Y2164626*
X3586532Y2161696*
X3588663Y2158767*
X3590793Y2157302*
X3595055*
X3597185Y2158767*
X3599316Y2161696*
X3600381Y2164626*
X3601447Y2169021*
Y2176345*
X3600381Y2180739*
X3599316Y2183669*
X3597185Y2186599*
X3595055Y2188064*
X3590793*
X3611035D02*
Y2157302D01*
Y2188064D02*
X3625950Y2157302D01*
Y2188064D02*
Y2157302D01*
X2818989Y2427614D02*
X2817569Y2431521D01*
X2814728Y2435427*
X2811887Y2437380*
X2806205*
X2803364Y2435427*
X2800523Y2431521*
X2799103Y2427614*
X2797682Y2421755*
Y2411989*
X2799103Y2406130*
X2800523Y2402224*
X2803364Y2398318*
X2806205Y2396364*
X2811887*
X2814728Y2398318*
X2817569Y2402224*
X2818989Y2406130*
X2851660Y2431521D02*
X2848819Y2435427D01*
X2844557Y2437380*
X2838876*
X2834614Y2435427*
X2831773Y2431521*
Y2427614*
X2833194Y2423708*
X2834614Y2421755*
X2837455Y2419802*
X2845978Y2415896*
X2848819Y2413943*
X2850239Y2411989*
X2851660Y2408083*
Y2402224*
X2848819Y2398318*
X2844557Y2396364*
X2838876*
X2834614Y2398318*
X2831773Y2402224*
X2864444Y2437380D02*
Y2396364D01*
X2877228Y2413943D02*
X2902796D01*
X2936887Y2427614D02*
X2935467Y2431521D01*
X2932626Y2435427*
X2929785Y2437380*
X2924103*
X2921262Y2435427*
X2918421Y2431521*
X2917001Y2427614*
X2915580Y2421755*
Y2411989*
X2917001Y2406130*
X2918421Y2402224*
X2921262Y2398318*
X2924103Y2396364*
X2929785*
X2932626Y2398318*
X2935467Y2402224*
X2936887Y2406130*
X2961035Y2437380D02*
X2949671Y2396364D01*
X2961035Y2437380D02*
X2972398Y2396364D01*
X2953932Y2410036D02*
X2968137D01*
X2985182Y2437380D02*
Y2396364D01*
Y2437380D02*
X2996546Y2396364D01*
X3007910Y2437380D02*
X2996546Y2396364D01*
X3007910Y2437380D02*
Y2396364D01*
X3020694Y2437380D02*
Y2396364D01*
Y2437380D02*
X3039160D01*
X3020694Y2417849D02*
X3032057D01*
X3020694Y2396364D02*
X3039160D01*
X3051944Y2437380D02*
Y2396364D01*
Y2437380D02*
X3064728D01*
X3068989Y2435427*
X3070410Y2433474*
X3071830Y2429568*
Y2425661*
X3070410Y2421755*
X3068989Y2419802*
X3064728Y2417849*
X3051944*
X3061887D02*
X3071830Y2396364D01*
X3095978Y2437380D02*
X3084614Y2396364D01*
X3095978Y2437380D02*
X3107342Y2396364D01*
X3088876Y2410036D02*
X3103080D01*
X2091432Y2440505D02*
Y2399489D01*
Y2440505D02*
X2109898D01*
X2091432Y2420974D02*
X2102796D01*
X2122682Y2440505D02*
Y2399489D01*
X2139728*
X2152512Y2440505D02*
Y2399489D01*
Y2440505D02*
X2170978D01*
X2152512Y2420974D02*
X2163876D01*
X2152512Y2399489D02*
X2170978D01*
X2183762Y2440505D02*
X2203648Y2399489D01*
Y2440505D02*
X2183762Y2399489D01*
X2216432Y2440505D02*
Y2399489D01*
X2237739Y2440505D02*
X2234898Y2438552D01*
X2232057Y2434646*
X2230637Y2430739*
X2229217Y2424880*
Y2415114*
X2230637Y2409255*
X2232057Y2405349*
X2234898Y2401443*
X2237739Y2399489*
X2243421*
X2246262Y2401443*
X2249103Y2405349*
X2250523Y2409255*
X2251944Y2415114*
Y2424880*
X2250523Y2430739*
X2249103Y2434646*
X2246262Y2438552*
X2243421Y2440505*
X2237739*
X2264728Y2417068D02*
X2290296D01*
X2324387Y2430739D02*
X2322967Y2434646D01*
X2320126Y2438552*
X2317285Y2440505*
X2311603*
X2308762Y2438552*
X2305921Y2434646*
X2304501Y2430739*
X2303080Y2424880*
Y2415114*
X2304501Y2409255*
X2305921Y2405349*
X2308762Y2401443*
X2311603Y2399489*
X2317285*
X2320126Y2401443*
X2322967Y2405349*
X2324387Y2409255*
X2348535Y2440505D02*
X2337171Y2399489D01*
X2348535Y2440505D02*
X2359898Y2399489D01*
X2341432Y2413161D02*
X2355637D01*
X2372682Y2440505D02*
Y2399489D01*
Y2440505D02*
X2384046Y2399489D01*
X2395410Y2440505D02*
X2384046Y2399489D01*
X2395410Y2440505D02*
Y2399489D01*
X2408194Y2440505D02*
Y2399489D01*
Y2440505D02*
X2426660D01*
X2408194Y2420974D02*
X2419557D01*
X2408194Y2399489D02*
X2426660D01*
X2439444Y2440505D02*
Y2399489D01*
Y2440505D02*
X2452228D01*
X2456489Y2438552*
X2457910Y2436599*
X2459330Y2432693*
Y2428786*
X2457910Y2424880*
X2456489Y2422927*
X2452228Y2420974*
X2439444*
X2449387D02*
X2459330Y2399489D01*
X2483478Y2440505D02*
X2472114Y2399489D01*
X2483478Y2440505D02*
X2494842Y2399489D01*
X2476376Y2413161D02*
X2490580D01*
X633194Y2617458D02*
X630353Y2621364D01*
X626092Y2623318*
X620410*
X616148Y2621364*
X613307Y2617458*
Y2613552*
X614728Y2609646*
X616148Y2607693*
X618989Y2605739*
X627512Y2601833*
X630353Y2599880*
X631773Y2597927*
X633194Y2594021*
Y2588161*
X630353Y2584255*
X626092Y2582302*
X620410*
X616148Y2584255*
X613307Y2588161*
X645978Y2623318D02*
Y2582302D01*
Y2623318D02*
X664444D01*
X645978Y2603786D02*
X657342D01*
X645978Y2582302D02*
X664444D01*
X677228Y2623318D02*
Y2582302D01*
Y2623318D02*
X690012D01*
X694273Y2621364*
X695694Y2619411*
X697114Y2615505*
Y2611599*
X695694Y2607693*
X694273Y2605739*
X690012Y2603786*
X677228*
X687171D02*
X697114Y2582302D01*
X709898Y2623318D02*
X721262Y2582302D01*
X732626Y2623318D02*
X721262Y2582302D01*
X753932Y2623318D02*
X751092Y2621364D01*
X748251Y2617458*
X746830Y2613552*
X745410Y2607693*
Y2597927*
X746830Y2592068*
X748251Y2588161*
X751092Y2584255*
X753932Y2582302*
X759614*
X762455Y2584255*
X765296Y2588161*
X766717Y2592068*
X768137Y2597927*
Y2607693*
X766717Y2613552*
X765296Y2617458*
X762455Y2621364*
X759614Y2623318*
X753932*
X780921Y2599880D02*
X806489D01*
X819273Y2623318D02*
Y2582302D01*
Y2623318D02*
X832057D01*
X836319Y2621364*
X837739Y2619411*
X839160Y2615505*
Y2611599*
X837739Y2607693*
X836319Y2605739*
X832057Y2603786*
X819273*
X829217D02*
X839160Y2582302D01*
X851944Y2623318D02*
Y2582302D01*
Y2623318D02*
X870410D01*
X851944Y2603786D02*
X863307D01*
X851944Y2582302D02*
X870410D01*
X903080Y2617458D02*
X900239Y2621364D01*
X895978Y2623318*
X890296*
X886035Y2621364*
X883194Y2617458*
Y2613552*
X884614Y2609646*
X886035Y2607693*
X888876Y2605739*
X897398Y2601833*
X900239Y2599880*
X901660Y2597927*
X903080Y2594021*
Y2588161*
X900239Y2584255*
X895978Y2582302*
X890296*
X886035Y2584255*
X883194Y2588161*
X1466432Y895876D02*
Y865114D01*
Y895876D02*
X1474955Y865114D01*
X1483478Y895876D02*
X1474955Y865114D01*
X1483478Y895876D02*
Y865114D01*
X1499458Y895876D02*
X1497327Y894411D01*
X1495197Y891482*
X1494131Y888552*
X1493066Y884157*
Y876833*
X1494131Y872439*
X1495197Y869509*
X1497327Y866579*
X1499458Y865114*
X1503719*
X1505850Y866579*
X1507981Y869509*
X1509046Y872439*
X1510111Y876833*
Y884157*
X1509046Y888552*
X1507981Y891482*
X1505850Y894411*
X1503719Y895876*
X1499458*
X1527157D02*
Y865114D01*
X1519700Y895876D02*
X1534614D01*
X1550594D02*
X1548464Y894411D01*
X1546333Y891482*
X1545268Y888552*
X1544202Y884157*
Y876833*
X1545268Y872439*
X1546333Y869509*
X1548464Y866579*
X1550594Y865114*
X1554856*
X1556986Y866579*
X1559117Y869509*
X1560182Y872439*
X1561248Y876833*
Y884157*
X1560182Y888552*
X1559117Y891482*
X1556986Y894411*
X1554856Y895876*
X1550594*
X1570836D02*
Y865114D01*
Y895876D02*
X1580424D01*
X1583620Y894411*
X1584685Y892946*
X1585751Y890017*
Y887087*
X1584685Y884157*
X1583620Y882693*
X1580424Y881228*
X1570836*
X1578293D02*
X1585751Y865114D01*
X1595339Y878298D02*
X1614515D01*
X1630495Y895876D02*
X1628364Y894411D01*
X1626234Y891482*
X1625168Y888552*
X1624103Y884157*
Y876833*
X1625168Y872439*
X1626234Y869509*
X1628364Y866579*
X1630495Y865114*
X1634756*
X1636887Y866579*
X1639018Y869509*
X1640083Y872439*
X1641148Y876833*
Y884157*
X1640083Y888552*
X1639018Y891482*
X1636887Y894411*
X1634756Y895876*
X1630495*
X1650736D02*
Y873903D01*
X1651802Y869509*
X1653932Y866579*
X1657129Y865114*
X1659259*
X1662455Y866579*
X1664586Y869509*
X1665651Y873903*
Y895876*
X1682697D02*
Y865114D01*
X1675239Y895876D02*
X1690154D01*
X2428932Y864626D02*
Y833864D01*
Y864626D02*
X2437455Y833864D01*
X2445978Y864626D02*
X2437455Y833864D01*
X2445978Y864626D02*
Y833864D01*
X2461958Y864626D02*
X2459827Y863161D01*
X2457697Y860232*
X2456631Y857302*
X2455566Y852907*
Y845583*
X2456631Y841189*
X2457697Y838259*
X2459827Y835329*
X2461958Y833864*
X2466219*
X2468350Y835329*
X2470481Y838259*
X2471546Y841189*
X2472611Y845583*
Y852907*
X2471546Y857302*
X2470481Y860232*
X2468350Y863161*
X2466219Y864626*
X2461958*
X2489657D02*
Y833864D01*
X2482200Y864626D02*
X2497114D01*
X2513094D02*
X2510964Y863161D01*
X2508833Y860232*
X2507768Y857302*
X2506702Y852907*
Y845583*
X2507768Y841189*
X2508833Y838259*
X2510964Y835329*
X2513094Y833864*
X2517356*
X2519486Y835329*
X2521617Y838259*
X2522682Y841189*
X2523748Y845583*
Y852907*
X2522682Y857302*
X2521617Y860232*
X2519486Y863161*
X2517356Y864626*
X2513094*
X2533336D02*
Y833864D01*
Y864626D02*
X2542924D01*
X2546120Y863161*
X2547185Y861696*
X2548251Y858767*
Y855837*
X2547185Y852907*
X2546120Y851443*
X2542924Y849978*
X2533336*
X2540793D02*
X2548251Y833864D01*
X2557839Y847048D02*
X2577015D01*
X2601518Y860232D02*
X2599387Y863161D01*
X2596191Y864626*
X2591930*
X2588734Y863161*
X2586603Y860232*
Y857302*
X2587668Y854372*
X2588734Y852907*
X2590864Y851443*
X2597256Y848513*
X2599387Y847048*
X2600452Y845583*
X2601518Y842653*
Y838259*
X2599387Y835329*
X2596191Y833864*
X2591930*
X2588734Y835329*
X2586603Y838259*
X2611106Y864626D02*
Y833864D01*
X2636674Y857302D02*
X2635609Y860232D01*
X2633478Y863161*
X2631347Y864626*
X2627086*
X2624955Y863161*
X2622825Y860232*
X2621759Y857302*
X2620694Y852907*
Y845583*
X2621759Y841189*
X2622825Y838259*
X2624955Y835329*
X2627086Y833864*
X2631347*
X2633478Y835329*
X2635609Y838259*
X2636674Y841189*
Y845583*
X2631347D02*
X2636674D01*
X2646262Y864626D02*
Y833864D01*
Y864626D02*
X2661177Y833864D01*
Y864626D02*
Y833864D01*
X2679288Y864626D02*
X2670765Y833864D01*
X2679288Y864626D02*
X2687810Y833864D01*
X2673961Y844118D02*
X2684614D01*
X2697398Y864626D02*
Y833864D01*
X2710182*
X1913307Y1197439D02*
Y1166677D01*
Y1197439D02*
X1927157D01*
X1913307Y1182790D02*
X1921830D01*
X1913307Y1166677D02*
X1927157D01*
X1936745Y1197439D02*
Y1166677D01*
Y1197439D02*
X1951660Y1166677D01*
Y1197439D02*
Y1166677D01*
X1977228Y1190114D02*
X1976163Y1193044D01*
X1974032Y1195974*
X1971901Y1197439*
X1967640*
X1965509Y1195974*
X1963379Y1193044*
X1962313Y1190114*
X1961248Y1185720*
Y1178396*
X1962313Y1174001*
X1963379Y1171071*
X1965509Y1168142*
X1967640Y1166677*
X1971901*
X1974032Y1168142*
X1976163Y1171071*
X1977228Y1174001*
X1993208Y1197439D02*
X1991077Y1195974D01*
X1988947Y1193044*
X1987881Y1190114*
X1986816Y1185720*
Y1178396*
X1987881Y1174001*
X1988947Y1171071*
X1991077Y1168142*
X1993208Y1166677*
X1997469*
X1999600Y1168142*
X2001731Y1171071*
X2002796Y1174001*
X2003861Y1178396*
Y1185720*
X2002796Y1190114*
X2001731Y1193044*
X1999600Y1195974*
X1997469Y1197439*
X1993208*
X2013450D02*
Y1166677D01*
Y1197439D02*
X2020907D01*
X2024103Y1195974*
X2026234Y1193044*
X2027299Y1190114*
X2028364Y1185720*
Y1178396*
X2027299Y1174001*
X2026234Y1171071*
X2024103Y1168142*
X2020907Y1166677*
X2013450*
X2037952Y1197439D02*
Y1166677D01*
Y1197439D02*
X2051802D01*
X2037952Y1182790D02*
X2046475D01*
X2037952Y1166677D02*
X2051802D01*
X2061390Y1197439D02*
Y1166677D01*
Y1197439D02*
X2070978D01*
X2074174Y1195974*
X2075239Y1194509*
X2076305Y1191579*
Y1188650*
X2075239Y1185720*
X2074174Y1184255*
X2070978Y1182790*
X2061390*
X2068847D02*
X2076305Y1166677D01*
X2085893Y1191579D02*
X2088023Y1193044D01*
X2091219Y1197439*
Y1166677*
X1914870Y858376D02*
Y827614D01*
Y858376D02*
X1928719D01*
X1914870Y843728D02*
X1923393D01*
X1914870Y827614D02*
X1928719D01*
X1938307Y858376D02*
Y827614D01*
Y858376D02*
X1953222Y827614D01*
Y858376D02*
Y827614D01*
X1978790Y851052D02*
X1977725Y853982D01*
X1975594Y856911*
X1973464Y858376*
X1969202*
X1967072Y856911*
X1964941Y853982*
X1963876Y851052*
X1962810Y846657*
Y839333*
X1963876Y834939*
X1964941Y832009*
X1967072Y829079*
X1969202Y827614*
X1973464*
X1975594Y829079*
X1977725Y832009*
X1978790Y834939*
X1994771Y858376D02*
X1992640Y856911D01*
X1990509Y853982*
X1989444Y851052*
X1988379Y846657*
Y839333*
X1989444Y834939*
X1990509Y832009*
X1992640Y829079*
X1994771Y827614*
X1999032*
X2001163Y829079*
X2003293Y832009*
X2004359Y834939*
X2005424Y839333*
Y846657*
X2004359Y851052*
X2003293Y853982*
X2001163Y856911*
X1999032Y858376*
X1994771*
X2015012D02*
Y827614D01*
Y858376D02*
X2022469D01*
X2025665Y856911*
X2027796Y853982*
X2028861Y851052*
X2029927Y846657*
Y839333*
X2028861Y834939*
X2027796Y832009*
X2025665Y829079*
X2022469Y827614*
X2015012*
X2039515Y858376D02*
Y827614D01*
Y858376D02*
X2053364D01*
X2039515Y843728D02*
X2048038D01*
X2039515Y827614D02*
X2053364D01*
X2062952Y858376D02*
Y827614D01*
Y858376D02*
X2072540D01*
X2075736Y856911*
X2076802Y855446*
X2077867Y852517*
Y849587*
X2076802Y846657*
X2075736Y845193*
X2072540Y843728*
X2062952*
X2070410D02*
X2077867Y827614D01*
X2088521Y851052D02*
Y852517D01*
X2089586Y855446*
X2090651Y856911*
X2092782Y858376*
X2097043*
X2099174Y856911*
X2100239Y855446*
X2101305Y852517*
Y849587*
X2100239Y846657*
X2098109Y842263*
X2087455Y827614*
X2102370*
X3257057Y1200564D02*
Y1169802D01*
Y1200564D02*
X3270907D01*
X3257057Y1185915D02*
X3265580D01*
X3257057Y1169802D02*
X3270907D01*
X3280495Y1200564D02*
Y1169802D01*
Y1200564D02*
X3295410Y1169802D01*
Y1200564D02*
Y1169802D01*
X3320978Y1193239D02*
X3319913Y1196169D01*
X3317782Y1199099*
X3315651Y1200564*
X3311390*
X3309259Y1199099*
X3307129Y1196169*
X3306063Y1193239*
X3304998Y1188845*
Y1181521*
X3306063Y1177126*
X3307129Y1174196*
X3309259Y1171267*
X3311390Y1169802*
X3315651*
X3317782Y1171267*
X3319913Y1174196*
X3320978Y1177126*
X3336958Y1200564D02*
X3334827Y1199099D01*
X3332697Y1196169*
X3331631Y1193239*
X3330566Y1188845*
Y1181521*
X3331631Y1177126*
X3332697Y1174196*
X3334827Y1171267*
X3336958Y1169802*
X3341219*
X3343350Y1171267*
X3345481Y1174196*
X3346546Y1177126*
X3347611Y1181521*
Y1188845*
X3346546Y1193239*
X3345481Y1196169*
X3343350Y1199099*
X3341219Y1200564*
X3336958*
X3357200D02*
Y1169802D01*
Y1200564D02*
X3364657D01*
X3367853Y1199099*
X3369984Y1196169*
X3371049Y1193239*
X3372114Y1188845*
Y1181521*
X3371049Y1177126*
X3369984Y1174196*
X3367853Y1171267*
X3364657Y1169802*
X3357200*
X3381702Y1200564D02*
Y1169802D01*
Y1200564D02*
X3395552D01*
X3381702Y1185915D02*
X3390225D01*
X3381702Y1169802D02*
X3395552D01*
X3405140Y1200564D02*
Y1169802D01*
Y1200564D02*
X3414728D01*
X3417924Y1199099*
X3418989Y1197634*
X3420055Y1194704*
Y1191775*
X3418989Y1188845*
X3417924Y1187380*
X3414728Y1185915*
X3405140*
X3412597D02*
X3420055Y1169802D01*
X3431773Y1200564D02*
X3443492D01*
X3437100Y1188845*
X3440296*
X3442427Y1187380*
X3443492Y1185915*
X3444557Y1181521*
Y1178591*
X3443492Y1174196*
X3441361Y1171267*
X3438165Y1169802*
X3434969*
X3431773Y1171267*
X3430708Y1172732*
X3429643Y1175661*
X3247682Y855251D02*
Y824489D01*
Y855251D02*
X3261532D01*
X3247682Y840603D02*
X3256205D01*
X3247682Y824489D02*
X3261532D01*
X3271120Y855251D02*
Y824489D01*
Y855251D02*
X3286035Y824489D01*
Y855251D02*
Y824489D01*
X3311603Y847927D02*
X3310538Y850857D01*
X3308407Y853786*
X3306276Y855251*
X3302015*
X3299884Y853786*
X3297754Y850857*
X3296688Y847927*
X3295623Y843532*
Y836208*
X3296688Y831814*
X3297754Y828884*
X3299884Y825954*
X3302015Y824489*
X3306276*
X3308407Y825954*
X3310538Y828884*
X3311603Y831814*
X3327583Y855251D02*
X3325452Y853786D01*
X3323322Y850857*
X3322256Y847927*
X3321191Y843532*
Y836208*
X3322256Y831814*
X3323322Y828884*
X3325452Y825954*
X3327583Y824489*
X3331844*
X3333975Y825954*
X3336106Y828884*
X3337171Y831814*
X3338236Y836208*
Y843532*
X3337171Y847927*
X3336106Y850857*
X3333975Y853786*
X3331844Y855251*
X3327583*
X3347825D02*
Y824489D01*
Y855251D02*
X3355282D01*
X3358478Y853786*
X3360609Y850857*
X3361674Y847927*
X3362739Y843532*
Y836208*
X3361674Y831814*
X3360609Y828884*
X3358478Y825954*
X3355282Y824489*
X3347825*
X3372327Y855251D02*
Y824489D01*
Y855251D02*
X3386177D01*
X3372327Y840603D02*
X3380850D01*
X3372327Y824489D02*
X3386177D01*
X3395765Y855251D02*
Y824489D01*
Y855251D02*
X3405353D01*
X3408549Y853786*
X3409614Y852321*
X3410680Y849392*
Y846462*
X3409614Y843532*
X3408549Y842068*
X3405353Y840603*
X3395765*
X3403222D02*
X3410680Y824489D01*
X3430921Y855251D02*
X3420268Y834743D01*
X3436248*
X3430921Y855251D02*
Y824489D01*
X1197256Y2604958D02*
X1194415Y2608864D01*
X1190154Y2610818*
X1184472*
X1180211Y2608864*
X1177370Y2604958*
Y2601052*
X1178790Y2597146*
X1180211Y2595193*
X1183052Y2593239*
X1191575Y2589333*
X1194415Y2587380*
X1195836Y2585427*
X1197256Y2581521*
Y2575661*
X1194415Y2571755*
X1190154Y2569802*
X1184472*
X1180211Y2571755*
X1177370Y2575661*
X1210040Y2610818D02*
Y2569802D01*
Y2610818D02*
X1228506D01*
X1210040Y2591286D02*
X1221404D01*
X1210040Y2569802D02*
X1228506D01*
X1241290Y2610818D02*
Y2569802D01*
Y2610818D02*
X1254075D01*
X1258336Y2608864*
X1259756Y2606911*
X1261177Y2603005*
Y2599099*
X1259756Y2595193*
X1258336Y2593239*
X1254075Y2591286*
X1241290*
X1251234D02*
X1261177Y2569802D01*
X1273961Y2610818D02*
X1285325Y2569802D01*
X1296688Y2610818D02*
X1285325Y2569802D01*
X1317995Y2610818D02*
X1315154Y2608864D01*
X1312313Y2604958*
X1310893Y2601052*
X1309472Y2595193*
Y2585427*
X1310893Y2579568*
X1312313Y2575661*
X1315154Y2571755*
X1317995Y2569802*
X1323677*
X1326518Y2571755*
X1329359Y2575661*
X1330779Y2579568*
X1332200Y2585427*
Y2595193*
X1330779Y2601052*
X1329359Y2604958*
X1326518Y2608864*
X1323677Y2610818*
X1317995*
X1483975Y846560D02*
Y802614D01*
X1467995Y824587D02*
X1499955D01*
X1173038Y973122D02*
Y929177D01*
X1157057Y951150D02*
X1189018D01*
X1485538Y2518435D02*
Y2474489D01*
X1469557Y2496462D02*
X1501518D01*
X3668066Y1307302D02*
X3666290Y1312185D01*
X3662739Y1317068*
X3659188Y1319509*
X3652086*
X3648535Y1317068*
X3644984Y1312185*
X3643208Y1307302*
X3641432Y1299978*
Y1287771*
X3643208Y1280446*
X3644984Y1275564*
X3648535Y1270681*
X3652086Y1268239*
X3659188*
X3662739Y1270681*
X3666290Y1275564*
X3668066Y1280446*
X3687597Y1319509D02*
X3707129D01*
X3696475Y1299978*
X3701802*
X3705353Y1297536*
X3707129Y1295095*
X3708904Y1287771*
Y1282888*
X3707129Y1275564*
X3703577Y1270681*
X3698251Y1268239*
X3692924*
X3687597Y1270681*
X3685822Y1273122*
X3684046Y1278005*
X3724884Y1309743D02*
X3728435Y1312185D01*
X3733762Y1319509*
Y1268239*
X3666504Y1219802D02*
X3664728Y1224685D01*
X3661177Y1229568*
X3657626Y1232009*
X3650523*
X3646972Y1229568*
X3643421Y1224685*
X3641646Y1219802*
X3639870Y1212478*
Y1200271*
X3641646Y1192946*
X3643421Y1188064*
X3646972Y1183181*
X3650523Y1180739*
X3657626*
X3661177Y1183181*
X3664728Y1188064*
X3666504Y1192946*
X3684259Y1219802D02*
Y1222243D01*
X3686035Y1227126*
X3687810Y1229568*
X3691361Y1232009*
X3698464*
X3702015Y1229568*
X3703790Y1227126*
X3705566Y1222243*
Y1217361*
X3703790Y1212478*
X3700239Y1205153*
X3682484Y1180739*
X3707342*
X3748180Y1232009D02*
X3730424Y1180739D01*
X3723322Y1232009D02*
X3748180D01*
X3666504Y1126052D02*
X3664728Y1130935D01*
X3661177Y1135818*
X3657626Y1138259*
X3650523*
X3646972Y1135818*
X3643421Y1130935*
X3641646Y1126052*
X3639870Y1118728*
Y1106521*
X3641646Y1099196*
X3643421Y1094314*
X3646972Y1089431*
X3650523Y1086989*
X3657626*
X3661177Y1089431*
X3664728Y1094314*
X3666504Y1099196*
X3686035Y1138259D02*
X3705566D01*
X3694913Y1118728*
X3700239*
X3703790Y1116286*
X3705566Y1113845*
X3707342Y1106521*
Y1101638*
X3705566Y1094314*
X3702015Y1089431*
X3696688Y1086989*
X3691361*
X3686035Y1089431*
X3684259Y1091872*
X3682484Y1096755*
X3744629Y1130935D02*
X3742853Y1135818D01*
X3737526Y1138259*
X3733975*
X3728648Y1135818*
X3725097Y1128493*
X3723322Y1116286*
Y1104079*
X3725097Y1094314*
X3728648Y1089431*
X3733975Y1086989*
X3735751*
X3741077Y1089431*
X3744629Y1094314*
X3746404Y1101638*
Y1104079*
X3744629Y1111403*
X3741077Y1116286*
X3735751Y1118728*
X3733975*
X3728648Y1116286*
X3725097Y1111403*
X3723322Y1104079*
X3669629Y1044802D02*
X3667853Y1049685D01*
X3664302Y1054568*
X3660751Y1057009*
X3653648*
X3650097Y1054568*
X3646546Y1049685*
X3644771Y1044802*
X3642995Y1037478*
Y1025271*
X3644771Y1017946*
X3646546Y1013064*
X3650097Y1008181*
X3653648Y1005739*
X3660751*
X3664302Y1008181*
X3667853Y1013064*
X3669629Y1017946*
X3703364Y1057009D02*
X3685609Y1022829D01*
X3712242*
X3703364Y1057009D02*
Y1005739D01*
X3492995Y2328884D02*
Y2277614D01*
Y2328884D02*
X3505424D01*
X3510751Y2326443*
X3514302Y2321560*
X3516077Y2316677*
X3517853Y2309353*
Y2297146*
X3516077Y2289821*
X3514302Y2284939*
X3510751Y2280056*
X3505424Y2277614*
X3492995*
X3551589Y2328884D02*
X3533833Y2294704D01*
X3560467*
X3551589Y2328884D02*
Y2277614D01*
X3627370Y2332009D02*
Y2280739D01*
Y2332009D02*
X3639799D01*
X3645126Y2329568*
X3648677Y2324685*
X3650452Y2319802*
X3652228Y2312478*
Y2300271*
X3650452Y2292946*
X3648677Y2288064*
X3645126Y2283181*
X3639799Y2280739*
X3627370*
X3669984Y2319802D02*
Y2322243D01*
X3671759Y2327126*
X3673535Y2329568*
X3677086Y2332009*
X3684188*
X3687739Y2329568*
X3689515Y2327126*
X3691290Y2322243*
Y2317361*
X3689515Y2312478*
X3685964Y2305153*
X3668208Y2280739*
X3693066*
X3733904Y2332009D02*
X3716148Y2280739D01*
X3709046Y2332009D02*
X3733904D01*
X1240864Y2538552D02*
X1239444Y2542458D01*
X1236603Y2546364*
X1233762Y2548318*
X1228080*
X1225239Y2546364*
X1222398Y2542458*
X1220978Y2538552*
X1219557Y2532693*
Y2522927*
X1220978Y2517068*
X1222398Y2513161*
X1225239Y2509255*
X1228080Y2507302*
X1233762*
X1236603Y2509255*
X1239444Y2513161*
X1240864Y2517068*
X1256489Y2548318D02*
X1272114D01*
X1263592Y2532693*
X1267853*
X1270694Y2530739*
X1272114Y2528786*
X1273535Y2522927*
Y2519021*
X1272114Y2513161*
X1269273Y2509255*
X1265012Y2507302*
X1260751*
X1256489Y2509255*
X1255069Y2511208*
X1253648Y2515114*
X1294842Y2548318D02*
X1290580Y2546364D01*
X1287739Y2540505*
X1286319Y2530739*
Y2524880*
X1287739Y2515114*
X1290580Y2509255*
X1294842Y2507302*
X1297682*
X1301944Y2509255*
X1304785Y2515114*
X1306205Y2524880*
Y2530739*
X1304785Y2540505*
X1301944Y2546364*
X1297682Y2548318*
X1294842*
X2598890Y967751D02*
Y936989D01*
X2591432Y967751D02*
X2606347D01*
X2615935D02*
Y936989D01*
Y967751D02*
X2629785D01*
X2615935Y953103D02*
X2624458D01*
X2646830Y967751D02*
Y936989D01*
X2639373Y967751D02*
X2654288D01*
X2683052Y973611D02*
X2663876Y926735D01*
X2692640Y967751D02*
Y936989D01*
X2702228Y967751D02*
Y936989D01*
Y967751D02*
X2711816D01*
X2715012Y966286*
X2716077Y964821*
X2717143Y961892*
Y957497*
X2716077Y954568*
X2715012Y953103*
X2711816Y951638*
X2702228*
X2741646Y963357D02*
X2739515Y966286D01*
X2736319Y967751*
X2732057*
X2728861Y966286*
X2726731Y963357*
Y960427*
X2727796Y957497*
X2728861Y956032*
X2730992Y954568*
X2737384Y951638*
X2739515Y950173*
X2740580Y948708*
X2741646Y945778*
Y941384*
X2739515Y938454*
X2736319Y936989*
X2732057*
X2728861Y938454*
X2726731Y941384*
X1721120Y2440505D02*
Y2399489D01*
Y2440505D02*
X1733904D01*
X1738165Y2438552*
X1739586Y2436599*
X1741006Y2432693*
Y2428786*
X1739586Y2424880*
X1738165Y2422927*
X1733904Y2420974*
X1721120D02*
X1733904D01*
X1738165Y2419021*
X1739586Y2417068*
X1741006Y2413161*
Y2407302*
X1739586Y2403396*
X1738165Y2401443*
X1733904Y2399489*
X1721120*
X1753790Y2440505D02*
Y2399489D01*
X1770836*
X1783620Y2440505D02*
Y2411208D01*
X1785040Y2405349*
X1787881Y2401443*
X1792143Y2399489*
X1794984*
X1799245Y2401443*
X1802086Y2405349*
X1803506Y2411208*
Y2440505*
X1816290D02*
Y2399489D01*
Y2440505D02*
X1834756D01*
X1816290Y2420974D02*
X1827654D01*
X1816290Y2399489D02*
X1834756D01*
X1857484Y2440505D02*
Y2399489D01*
X1847540Y2440505D02*
X1867427D01*
X1888734D02*
X1885893Y2438552D01*
X1883052Y2434646*
X1881631Y2430739*
X1880211Y2424880*
Y2415114*
X1881631Y2409255*
X1883052Y2405349*
X1885893Y2401443*
X1888734Y2399489*
X1894415*
X1897256Y2401443*
X1900097Y2405349*
X1901518Y2409255*
X1902938Y2415114*
Y2424880*
X1901518Y2430739*
X1900097Y2434646*
X1897256Y2438552*
X1894415Y2440505*
X1888734*
X1924245D02*
X1921404Y2438552D01*
X1918563Y2434646*
X1917143Y2430739*
X1915722Y2424880*
Y2415114*
X1917143Y2409255*
X1918563Y2405349*
X1921404Y2401443*
X1924245Y2399489*
X1929927*
X1932768Y2401443*
X1935609Y2405349*
X1937029Y2409255*
X1938450Y2415114*
Y2424880*
X1937029Y2430739*
X1935609Y2434646*
X1932768Y2438552*
X1929927Y2440505*
X1924245*
X1961177D02*
Y2399489D01*
X1951234Y2440505D02*
X1971120D01*
X1983904D02*
Y2399489D01*
X2003790Y2440505D02*
Y2399489D01*
X1983904Y2420974D02*
X2003790D01*
G54D146*
X3360820Y1484963D02*
X3440790D01*
Y1524948*
X3360820*
Y1484963*
X1960326Y1591360D02*
X1880356D01*
Y1551374*
X1960326*
Y1591360*
X1908620Y1532763D02*
X1880354D01*
Y1492778*
X1908620*
X1932057Y1532763D02*
X1960323D01*
Y1492778*
X1932057*
X1908620Y1649950D02*
X1880354D01*
Y1609966*
X1908620*
X1932057Y1649950D02*
X1960323D01*
Y1609966*
X1932057*
X2209865Y2523564D02*
Y2603535D01*
X2169880*
Y2523564*
X2209865*
X2222198Y2525166D02*
X2259107D01*
Y2579179D02*
Y2609750D01*
X2222198*
Y2579179*
Y2555742D02*
Y2516677D01*
X2259107*
Y2555742*
X2270976Y1832619D02*
X2350946D01*
Y1872605*
X2270976*
Y1832619*
Y1887307D02*
X2350946D01*
Y1927292*
X2270976*
Y1887307*
Y1941994D02*
X2350946D01*
Y1981980*
X2270976*
Y1941994*
X2916896Y2519658D02*
Y2599628D01*
X2876911*
Y2519658*
X2916896*
X2929229Y2521260D02*
X2966138D01*
Y2575273D02*
Y2605844D01*
X2929229*
Y2575273*
Y2551836D02*
Y2512771D01*
X2966138*
Y2551836*
X3248928Y2375127D02*
Y2455097D01*
X3208942*
Y2375127*
X3248928*
X3360820Y1578713D02*
X3440790D01*
Y1618698*
X3360820*
Y1578713*
Y1664650D02*
X3440790D01*
X3440790D02*
Y1704636D01*
X3360820*
Y1664650*
Y1750588D02*
X3440790D01*
Y1790573*
X3360820*
Y1750588*
X3364726Y1965432D02*
X3444696D01*
Y2005417*
X3364726*
Y1965432*
Y2074807D02*
X3444696D01*
Y2114792*
X3364726*
Y2074807*
X1760646Y1043095D02*
Y1123066D01*
X1720661*
Y1043095*
X1760646*
X1741112Y2110427D02*
Y2138693D01*
X1701128*
Y2110427*
X1741112Y2086989D02*
Y2058724D01*
X1701128*
Y2086989*
X1741112Y1836989D02*
Y1865255D01*
X1701128*
Y1836989*
X1741112Y1813552D02*
Y1785286D01*
X1701128*
Y1813552*
X1737206Y1571364D02*
Y1599630D01*
X1697222*
Y1571364*
X1737206Y1547927D02*
Y1519661D01*
X1697222*
Y1547927*
X1663604Y1044697D02*
X1700513D01*
Y1098711D02*
Y1129282D01*
X1663604*
Y1098711*
Y1075273D02*
Y1036208D01*
X1700513*
Y1075273*
X1569240Y2414189D02*
Y2494160D01*
X1529255*
Y2414189*
X1569240*
X1448143Y2106521D02*
Y2134786D01*
X1408159*
Y2106521*
X1448143Y2083083D02*
Y2054818D01*
X1408159*
Y2083083*
X1448143Y1840896D02*
Y1869161D01*
X1408159*
Y1840896*
X1448143Y1817458D02*
Y1789193D01*
X1408159*
Y1817458*
X1448143Y1571364D02*
Y1599630D01*
X1408159*
Y1571364*
X1448143Y1547927D02*
Y1519661D01*
X1408159*
Y1547927*
X1613714Y2507696D02*
X1519964D01*
X1446698D02*
X1363714D01*
X1613714Y2658409D02*
X1363714D01*
X1358300Y2157302D02*
Y2185568D01*
X1318315*
Y2157302*
X1358300Y2133864D02*
Y2105599D01*
X1318315*
Y2133864*
X1350487Y1501052D02*
Y1529318D01*
X1310503*
Y1501052*
X1350487Y1477614D02*
Y1449349D01*
X1310503*
Y1477614*
X1290355Y2078500D02*
X1253445D01*
Y2024487D02*
Y1993916D01*
X1290355*
Y2024487*
Y2047924D02*
Y2086989D01*
X1253445*
Y2047924*
X1290355Y1426157D02*
X1253445D01*
Y1372143D02*
Y1341572D01*
X1290355*
Y1372143*
Y1395581D02*
Y1434646D01*
X1253445*
Y1395581*
X1291896Y2101689D02*
Y2181660D01*
X1251911*
Y2101689*
X1291896*
Y1449345D02*
Y1529316D01*
X1251911*
Y1449345*
X1291896*
X1123464Y2258403D02*
X1151729D01*
Y2298388*
X1123464*
X1100026Y2258403D02*
X1071761D01*
Y2298388*
X1100026*
X1123464Y1578716D02*
X1151729D01*
Y1618700*
X1123464*
X1100026Y1578716D02*
X1071761D01*
Y1618700*
X1100026*
X1071757Y1629494D02*
X1151728D01*
Y1669480*
X1071757*
Y1629494*
X1106740Y2122783D02*
Y2202753D01*
X1066755*
Y2122783*
X1106740*
X1104396Y1484502D02*
Y1564472D01*
X1064411*
Y1484502*
X1104396*
X1104858Y2349172D02*
X1024887D01*
Y2309187*
X1104858*
Y2349172*
Y1718703D02*
X1024887D01*
Y1678718*
X1104858*
Y1718703*
X1017995Y2125591D02*
X1046261D01*
Y2165575*
X1017995*
X994557Y2125591D02*
X966292D01*
Y2165575*
X994557*
X1017995Y1484966D02*
X1046261D01*
Y1524950*
X1017995*
X994557Y1484966D02*
X966292D01*
Y1524950*
X994557*
X1072682Y2489333D02*
X1010182D01*
X1041432Y2520583D02*
Y2458083D01*
X931132Y2309182D02*
X1011103D01*
Y2349167*
X931132*
Y2309182*
Y1678713D02*
X1011103D01*
Y1718698*
X931132*
Y1678713*
X920800Y2149489D02*
Y2177755D01*
X880815*
Y2149489*
X920800Y2126052D02*
Y2097786D01*
X880815*
Y2126052*
X920800Y1508864D02*
Y1537130D01*
X880815*
Y1508864*
X920800Y1485427D02*
Y1457161D01*
X880815*
Y1485427*
X866112Y2149489D02*
Y2177755D01*
X826128*
Y2149489*
X866112Y2126052D02*
Y2097786D01*
X826128*
Y2126052*
X866112Y1508864D02*
Y1537130D01*
X826128*
Y1508864*
X866112Y1485427D02*
Y1457161D01*
X826128*
Y1485427*
X709865Y1394658D02*
Y1474628D01*
X669880*
Y1394658*
X709865*
X3339233Y1524953D02*
X3259262D01*
Y1484968*
X3339233*
Y1524953*
Y1790578D02*
X3259262D01*
Y1750593*
X3339233*
Y1790578*
Y1704641D02*
X3259262D01*
Y1664656*
X3259262D02*
X3339233D01*
X3339233D02*
Y1704641D01*
Y1618703D02*
X3259262D01*
Y1578718*
X3339233*
Y1618703*
G54D147*
X1543524Y2154072D02*
G03X1543524I-3845J0D01*
G01X2290325Y1818135D02*
G03X2290325I-3845J0D01*
G01X1543524Y1888447D02*
G03X1543524I-3845J0D01*
G01Y1615010D02*
G03X1543524I-3845J0D01*
G01X1056986Y2290109D02*
G03X1056986I-3845J0D01*
G01Y1649484D02*
G03X1056986I-3845J0D01*
G54D148*
G01X1564286Y2146383D02*
X1588892D01*
Y2051033*
X1564286*
Y2146383*
X2318776Y1808907D02*
X2340307D01*
Y1784301*
X2318776Y1716634D02*
X2340307D01*
Y1741240*
X2975026Y1141677D02*
Y985427D01*
X2350026*
Y1141677*
X2975026*
X2692300Y2602614D02*
Y2665114D01*
X2312440*
Y2602614*
X2692300Y2524489D02*
Y2497146D01*
X2629800*
X2312440Y2524489D02*
Y2497146D01*
X2374940*
X3395425Y2602614D02*
Y2665114D01*
X3015565*
Y2602614*
X3395425Y2524489D02*
Y2497146D01*
X3332925*
X3015565Y2524489D02*
Y2497146D01*
X3078065*
X1929453Y2614333D02*
X1701589D01*
Y2458083*
X2014089*
Y2614333*
X1779714*
X1564286Y1880758D02*
X1588892D01*
Y1785408*
X1564286*
Y1880758*
Y1607320D02*
X1588892D01*
Y1511971*
X1564286*
Y1607320*
X1363714Y2658409D02*
Y2507696D01*
X1613714Y2658409D02*
Y2507696D01*
X1519964D02*
Y2529718D01*
X1446698*
Y2507696*
X954685Y2223703D02*
X1050035D01*
Y2254953*
X954685*
Y2223703*
Y1583078D02*
X1050035D01*
Y1614328*
X954685*
Y1583078*
X3721120Y1946364D02*
Y2254958D01*
X3510182*
Y1946364*
X3721120*
X489870Y1985771D02*
Y2022927D01*
X692995*
Y1985771*
G54D149*
X1635182Y2083083D02*
Y2040114D01*
X1689870*
Y2083083*
X1635182Y2114333D02*
Y2153396D01*
X1642995Y2161208*
X1670339*
X1682057*
X1689870Y2153396*
Y2114333*
X1635182Y1809646D02*
Y1766677D01*
X1689870*
Y1809646*
X1635182Y1840896D02*
Y1879958D01*
X1642995Y1887771*
X1670339*
X1682057*
X1689870Y1879958*
Y1840896*
X1635182Y1544021D02*
Y1501052D01*
X1689870*
Y1544021*
X1635182Y1575271D02*
Y1614333D01*
X1642995Y1622146*
X1670339*
X1682057*
X1689870Y1614333*
Y1575271*
X1463307Y2083083D02*
Y2040114D01*
X1517995*
Y2083083*
X1463307Y2114333D02*
Y2153396D01*
X1471120Y2161208*
X1498464*
X1510182*
X1517995Y2153396*
Y2114333*
X1463307Y1817458D02*
Y1774489D01*
X1517995*
Y1817458*
X1463307Y1848708D02*
Y1887771D01*
X1471120Y1895583*
X1498464*
X1510182*
X1517995Y1887771*
Y1848708*
X1463307Y1547927D02*
Y1504958D01*
X1517995*
Y1547927*
X1463307Y1579177D02*
Y1618239D01*
X1471120Y1626052*
X1498464*
X1510182*
X1517995Y1618239*
Y1579177*
G54D150*
X1917995Y1512771D02*
X1920339D01*
X1922682*
X1920339Y1519802D02*
Y1505739D01*
X1917995Y1629958D02*
X1920339D01*
X1922682*
X1920339Y1636989D02*
Y1622927D01*
X1721120Y2101052D02*
Y2098708D01*
Y2096364*
X1728151Y2098708D02*
X1714089D01*
X1721120Y1827614D02*
Y1825271D01*
Y1822927*
X1728151Y1825271D02*
X1714089D01*
X1717214Y1561989D02*
Y1559646D01*
Y1557302*
X1724245Y1559646D02*
X1710182D01*
X1428151Y2097146D02*
Y2094802D01*
Y2092458*
X1435182Y2094802D02*
X1421120D01*
X1428151Y1831521D02*
Y1829177D01*
Y1826833*
X1435182Y1829177D02*
X1421120D01*
X1428151Y1561989D02*
Y1559646D01*
Y1557302*
X1435182Y1559646D02*
X1421120D01*
X1338307Y2147927D02*
Y2145583D01*
Y2143239*
X1345339Y2145583D02*
X1331276D01*
X1330495Y1491677D02*
Y1489333D01*
Y1486989*
X1337526Y1489333D02*
X1323464D01*
X1368972Y2242161D02*
Y2223708D01*
X1359745Y2233060D02*
X1378323D01*
X1368972Y1582005D02*
Y1563552D01*
X1359745Y1572903D02*
X1378323D01*
X1114089Y2278396D02*
X1111745D01*
X1109401*
X1111745Y2271364D02*
Y2285427D01*
X1114089Y1598708D02*
X1111745D01*
X1109401*
X1111745Y1591677D02*
Y1605739D01*
X1008620Y2145583D02*
X1006276D01*
X1003932*
X1006276Y2138552D02*
Y2152614D01*
X1008620Y1504958D02*
X1006276D01*
X1003932*
X1006276Y1497927D02*
Y1511989D01*
X900807Y2140114D02*
Y2137771D01*
Y2135427*
X907839Y2137771D02*
X893776D01*
X900807Y1499489D02*
Y1497146D01*
Y1494802*
X907839Y1497146D02*
X893776D01*
X846120Y2140114D02*
Y2137771D01*
Y2135427*
X853151Y2137771D02*
X839089D01*
X846120Y1499489D02*
Y1497146D01*
Y1494802*
X853151Y1497146D02*
X839089D01*
X888503Y2242161D02*
Y2223708D01*
X879276Y2233060D02*
X897854D01*
X884597Y1582005D02*
Y1563552D01*
X875370Y1572903D02*
X893948D01*
G54D151*
X2623236Y2532794D02*
G03X2623236I-5524J0D01*
G01X3326361D02*
G03X3326361I-5524J0D01*
G01X710865Y2104958D02*
G03X710865I-6151J0D01*
G54D152*
G01X1363714Y2572287D02*
X1381553D01*
Y2556908*
X1363714*
X1613714Y2572287D02*
X1595874D01*
Y2556908*
X1613714*
X794877Y590803D02*
X507291D01*
Y1067550*
X794877*
X917909Y590803D02*
X1067085D01*
Y656933*
Y995269D02*
Y1067550D01*
X917909*
G54D153*
X1380511Y2329177D02*
G03X1380511I-96891J0D01*
G01Y1669021D02*
G03X1380511I-96891J0D01*
G01X900042Y2329177D02*
G03X900042I-96891J0D01*
G01X896136Y1669021D02*
G03X896136I-96891J0D01*
G54D154*
G01X3639088Y2106521D02*
X3670338D01*
X3639088Y2153396D02*
X3670338D01*
Y2044021*
X3639088*
Y2153396*
X3560963Y2106521D02*
X3592213D01*
X3560963Y2153396D02*
X3592213D01*
Y2044021*
X3560963*
Y2153396*
X588307Y2182937D02*
Y2164626D01*
X589195Y2160964*
X590971Y2158523*
X593634Y2157302*
X595410*
X598073Y2158523*
X599849Y2160964*
X600736Y2164626*
Y2182937*
X608727Y2178054D02*
X610502Y2179275D01*
X613165Y2182937*
Y2157302*
X3275807Y1557937D02*
Y1532302D01*
Y1557937D02*
X3283798D01*
X3286461Y1556716*
X3287349Y1555495*
X3288236Y1553054*
Y1550612*
X3287349Y1548171*
X3286461Y1546950*
X3283798Y1545730*
X3275807*
X3282022D02*
X3288236Y1532302D01*
X3297114Y1551833D02*
Y1553054D01*
X3298002Y1555495*
X3298890Y1556716*
X3300665Y1557937*
X3304217*
X3305992Y1556716*
X3306880Y1555495*
X3307768Y1553054*
Y1550612*
X3306880Y1548171*
X3305104Y1544509*
X3296227Y1532302*
X3308656*
X3325523Y1557937D02*
X3316646Y1540847D01*
X3329962*
X3325523Y1557937D02*
Y1532302D01*
X3271901Y1823562D02*
Y1797927D01*
Y1823562D02*
X3279891D01*
X3282555Y1822341*
X3283442Y1821120*
X3284330Y1818679*
Y1816237*
X3283442Y1813796*
X3282555Y1812575*
X3279891Y1811355*
X3271901*
X3278116D02*
X3284330Y1797927D01*
X3293208Y1817458D02*
Y1818679D01*
X3294096Y1821120*
X3294984Y1822341*
X3296759Y1823562*
X3300310*
X3302086Y1822341*
X3302974Y1821120*
X3303861Y1818679*
Y1816237*
X3302974Y1813796*
X3301198Y1810134*
X3292320Y1797927*
X3304749*
X3312739Y1818679D02*
X3314515Y1819900D01*
X3317178Y1823562*
Y1797927*
X3271901Y1737624D02*
Y1711989D01*
Y1737624D02*
X3279891D01*
X3282555Y1736403*
X3283442Y1735183*
X3284330Y1732741*
Y1730300*
X3283442Y1727859*
X3282555Y1726638*
X3279891Y1725417*
X3271901*
X3278116D02*
X3284330Y1711989D01*
X3293208Y1731521D02*
Y1732741D01*
X3294096Y1735183*
X3294984Y1736403*
X3296759Y1737624*
X3300310*
X3302086Y1736403*
X3302974Y1735183*
X3303861Y1732741*
Y1730300*
X3302974Y1727859*
X3301198Y1724196*
X3292320Y1711989*
X3304749*
X3313627Y1731521D02*
Y1732741D01*
X3314515Y1735183*
X3315403Y1736403*
X3317178Y1737624*
X3320729*
X3322505Y1736403*
X3323393Y1735183*
X3324281Y1732741*
Y1730300*
X3323393Y1727859*
X3321617Y1724196*
X3312739Y1711989*
X3325168*
X3271901Y1651687D02*
Y1626052D01*
Y1651687D02*
X3279891D01*
X3282555Y1650466*
X3283442Y1649245*
X3284330Y1646804*
Y1644362*
X3283442Y1641921*
X3282555Y1640700*
X3279891Y1639480*
X3271901*
X3278116D02*
X3284330Y1626052D01*
X3293208Y1645583D02*
Y1646804D01*
X3294096Y1649245*
X3294984Y1650466*
X3296759Y1651687*
X3300310*
X3302086Y1650466*
X3302974Y1649245*
X3303861Y1646804*
Y1644362*
X3302974Y1641921*
X3301198Y1638259*
X3292320Y1626052*
X3304749*
X3314515Y1651687D02*
X3324281D01*
X3318954Y1641921*
X3321617*
X3323393Y1640700*
X3324281Y1639480*
X3325168Y1635818*
Y1633376*
X3324281Y1629714*
X3322505Y1627273*
X3319842Y1626052*
X3317178*
X3314515Y1627273*
X3313627Y1628493*
X3312739Y1630935*
G74*
X0Y0D02*
M02*
