*
*
G04 PADS VX.2.13 Build Number: 22185787 generated Gerber (RS-274-X) file*
G04 PC Version=2.1*
*
%IN "CAR-BOARD.pcb"*%
*
%MOIN*%
*
%FSLAX35Y35*%
*
*
*
*
G04 PC Standard Apertures*
*
*
G04 Thermal Relief Aperture macro.*
%AMTER*
1,1,$1,0,0*
1,0,$1-$2,0,0*
21,0,$3,$4,0,0,45*
21,0,$3,$4,0,0,135*
%
*
*
G04 Annular Aperture macro.*
%AMANN*
1,1,$1,0,0*
1,0,$2,0,0*
%
*
*
G04 Odd Aperture macro.*
%AMODD*
1,1,$1,0,0*
1,0,$1-0.005,0,0*
%
*
*
G04 PC Custom Aperture Macros*
*
*
*
*
*
*
G04 PC Aperture Table*
*
%ADD010C,0.001*%
%ADD011R,0.03346X0.02362*%
%ADD012R,0.05118X0.04331*%
%ADD013R,0.03X0.03*%
%ADD016C,0.01*%
%ADD019R,0.05118X0.02362*%
%ADD022R,0.07087X0.08661*%
%ADD023R,0.01181X0.05118*%
%ADD024R,0.07874X0.05906*%
%ADD029R,0.03937X0.1063*%
%ADD030O,0.03937X0.1063*%
%ADD031R,0.017X0.0385*%
%ADD032R,0.07874X0.07874*%
%ADD035R,0.06X0.11*%
%ADD036R,0.23X0.245*%
*
*
*
*
G04 PC Circuitry*
G04 Layer Name CAR-BOARD.pcb - circuitry*
%LPD*%
*
*
G04 PC Custom Flashes*
G04 Layer Name CAR-BOARD.pcb - flashes*
%LPD*%
*
*
G04 PC Circuitry*
G04 Layer Name CAR-BOARD.pcb - circuitry*
%LPD*%
*
G54D10*
G01X999000Y601000D02*
Y388642D01*
X967228Y356870D02*
G75*
G03X999000Y388642I0J31772D01*
G01X967228Y356870D02*
X597630D01*
X597630*
X565929Y388571D02*
G03X597630Y356870I31701J0D01*
G01X565929Y388571D02*
Y603500D01*
X594890Y632461D02*
G03X565929Y603500I-0J-28961D01*
G01X594890Y632461D02*
X969969D01*
X969969*
X999000Y601000D02*
G03X969969Y632461I-30246J1215D01*
G01X999000Y601000D02*
X999000D01*
X682874Y389764D02*
G03X682874I-7874J0D01*
G01X901874D02*
G03X901874I-7874J0D01*
G01X979874Y605764D02*
G03X979874I-7874J0D01*
G01X597874D02*
G03X597874I-7874J0D01*
G54D11*
G01X709776Y562240D03*
Y558500D03*
Y554760D03*
X719224D03*
Y562240D03*
X709776Y528240D03*
Y524500D03*
Y520760D03*
X719224D03*
Y528240D03*
X709776Y493240D03*
Y489500D03*
Y485760D03*
X719224D03*
Y493240D03*
G54D12*
X703500Y528831D03*
Y520169D03*
X725500Y562831D03*
Y554169D03*
Y527831D03*
Y519169D03*
Y493831D03*
Y485169D03*
X703500Y562831D03*
Y554169D03*
Y494331D03*
Y485669D03*
G54D13*
X601100Y456141D03*
Y461259D03*
X945441Y482500D03*
X950559D03*
X761059Y491000D03*
X755941D03*
X695600Y555441D03*
Y560559D03*
X761059Y498500D03*
X755941D03*
X793000Y615441D03*
Y620559D03*
X799500Y621559D03*
X805941Y527000D03*
X811059D03*
X805941Y534000D03*
X811059D03*
X805941Y541000D03*
X811059D03*
X883500Y614941D03*
Y620059D03*
X890000Y621059D03*
X926000Y596441D03*
Y601559D03*
X945441Y494500D03*
X950559D03*
X945441Y505500D03*
X950559D03*
X945441Y516500D03*
X950559D03*
X945941Y544000D03*
X951059D03*
X945941Y558000D03*
X951059D03*
X735500Y425941D03*
Y431059D03*
X733000Y555941D03*
Y561059D03*
Y520941D03*
Y526059D03*
X695600Y521541D03*
Y526659D03*
X728000Y432059D03*
X711000Y601441D03*
Y606559D03*
X761059Y484000D03*
X755941D03*
X732400Y486941D03*
Y492059D03*
X695500Y486941D03*
Y492059D03*
X684000Y561941D03*
Y567059D03*
X683000Y478041D03*
Y483159D03*
X675500Y547441D03*
Y463941D03*
Y561441D03*
Y566559D03*
Y477941D03*
Y483059D03*
X652441Y581500D03*
X657559D03*
X652441Y494500D03*
X657559D03*
X652441Y501000D03*
X657559D03*
X651800Y564141D03*
Y569259D03*
X651500Y482441D03*
Y487559D03*
X651559Y588000D03*
X646441D03*
X651559Y507300D03*
X646441D03*
X638941Y564500D03*
X644059D03*
X638941Y482500D03*
X644059D03*
X634441Y588000D03*
X639559D03*
X634441Y507300D03*
X639559D03*
X621600Y478841D03*
Y483959D03*
X628000Y478941D03*
Y484059D03*
X621600Y560841D03*
Y565959D03*
X628000Y561041D03*
Y566159D03*
X937559Y482500D03*
X932441D03*
X937559Y516500D03*
X932441D03*
X937559Y505500D03*
X932441D03*
X937559Y494500D03*
X932441D03*
G54D16*
X798500Y614898D02*
Y615984D01*
X798957Y616441*
X800043*
X800500Y615984*
Y614898*
X800043Y614441*
X798957*
X798500Y614898*
X798957Y614441D02*
X800043D01*
X798500Y615441D02*
X800500D01*
X798957Y616441D02*
X800043D01*
X798500Y614898D02*
Y615984D01*
X799500Y614441D02*
Y616441D01*
X800500Y614898D02*
Y615984D01*
X889000Y614398D02*
Y615484D01*
X889457Y615941*
X890543*
X891000Y615484*
Y614398*
X890543Y613941*
X889457*
X889000Y614398*
X889457Y613941D02*
X890543D01*
X889000Y614941D02*
X891000D01*
X889457Y615941D02*
X890543D01*
X889000Y614398D02*
Y615484D01*
X890000Y613941D02*
Y615941D01*
X891000Y614398D02*
Y615484D01*
X727000Y425398D02*
Y426484D01*
X727457Y426941*
X728543*
X729000Y426484*
Y425398*
X728543Y424941*
X727457*
X727000Y425398*
X727457Y424941D02*
X728543D01*
X727000Y425941D02*
X729000D01*
X727457Y426941D02*
X728543D01*
X727000Y425398D02*
Y426484D01*
X728000Y424941D02*
Y426941D01*
X729000Y425398D02*
Y426484D01*
X674500Y553016D02*
Y554102D01*
X674957Y554559*
X676043*
X676500Y554102*
Y553016*
X676043Y552559*
X674957*
X674500Y553016*
X674957Y552559D02*
X676043D01*
X674500Y553559D02*
X676500D01*
X674957Y554559D02*
X676043D01*
X674500Y553016D02*
Y554102D01*
X675500Y552559D02*
Y554559D01*
X676500Y553016D02*
Y554102D01*
X674500Y469516D02*
Y470602D01*
X674957Y471059*
X676043*
X676500Y470602*
Y469516*
X676043Y469059*
X674957*
X674500Y469516*
X674957Y469059D02*
X676043D01*
X674500Y470059D02*
X676500D01*
X674957Y471059D02*
X676043D01*
X674500Y469516D02*
Y470602D01*
X675500Y469059D02*
Y471059D01*
X676500Y469516D02*
Y470602D01*
G54D19*
X805366Y519240D03*
Y511760D03*
X813634Y515500D03*
G54D22*
X811740Y618000D03*
X854260D03*
X901740D03*
X944260D03*
G54D23*
X847764Y608169D03*
X845795D03*
X843827D03*
X841858D03*
X839890D03*
X837921D03*
X835953D03*
X833984D03*
X832016D03*
X830047D03*
X828079D03*
X826110D03*
X824142D03*
X822173D03*
X820205D03*
X818236D03*
X937764D03*
X935795D03*
X933827D03*
X931858D03*
X929890D03*
X927921D03*
X925953D03*
X923984D03*
X922016D03*
X920047D03*
X918079D03*
X916110D03*
X914142D03*
X912173D03*
X910205D03*
X908236D03*
G54D24*
X959269Y473921D03*
X990500Y474000D03*
X959269Y490921D03*
X990500Y491000D03*
X959269Y507921D03*
X990500Y508000D03*
X959269Y524921D03*
X990500Y525000D03*
G54D29*
X677000Y576189D03*
Y491689D03*
X615500Y576189D03*
X615000Y491689D03*
G54D30*
X677000Y599811D03*
Y515311D03*
X615500Y599811D03*
X615000Y515311D03*
G54D31*
X644839Y581875D03*
X642280D03*
X639720D03*
X637161D03*
Y571125D03*
X639720D03*
X642280D03*
X644839D03*
Y499875D03*
X642280D03*
X639720D03*
X637161D03*
Y489125D03*
X639720D03*
X642280D03*
X644839D03*
G54D32*
X632000Y544500D03*
X662000D03*
X632000Y461500D03*
X662000D03*
G54D35*
X581245Y526223D03*
X599045Y526123D03*
G54D36*
X590200Y554735D03*
G74*
X0Y0D02*
M02*
