*
*
G04 PADS VX.2.13 Build Number: 22185787 generated Gerber (RS-274-X) file*
G04 PC Version=2.1*
*
%IN "CAR-BOARD.pcb"*%
*
%MOIN*%
*
%FSLAX35Y35*%
*
*
*
*
G04 PC Standard Apertures*
*
*
G04 Thermal Relief Aperture macro.*
%AMTER*
1,1,$1,0,0*
1,0,$1-$2,0,0*
21,0,$3,$4,0,0,45*
21,0,$3,$4,0,0,135*
%
*
*
G04 Annular Aperture macro.*
%AMANN*
1,1,$1,0,0*
1,0,$2,0,0*
%
*
*
G04 Odd Aperture macro.*
%AMODD*
1,1,$1,0,0*
1,0,$1-0.005,0,0*
%
*
*
G04 PC Custom Aperture Macros*
*
*
*
*
*
*
G04 PC Aperture Table*
*
%ADD081C,0.00831*%
%ADD087C,0.0831*%
%ADD116R,0.3612X0.27941*%
%ADD117R,0.50842X0.44302*%
%ADD118R,0.33241X0.33241*%
%ADD119R,0.60658X0.60658*%
%ADD120C,0.60658*%
%ADD121R,0.6393X0.6393*%
%ADD122C,0.6393*%
%ADD123R,0.50843X0.27941*%
%ADD124R,0.67202X0.67202*%
%ADD125C,0.67202*%
%ADD126R,0.67202X0.80289*%
%ADD127R,0.18125X0.50843*%
%ADD128R,0.73745X0.57387*%
%ADD129C,0.57387*%
%ADD130R,1.06463X1.06463*%
%ADD131C,1.06463*%
%ADD132R,0.57387X0.57387*%
%ADD133R,0.41028X0.96648*%
%ADD134O,0.41028X0.96648*%
%ADD135R,0.22438X0.40305*%
%ADD136R,0.73745X0.73745*%
%ADD137C,1.40816*%
%ADD138C,0.96648*%
%ADD139R,0.58172X0.99723*%
%ADD140R,1.99446X2.11911*%
%ADD141C,0.86832*%
%ADD142C,0.73745*%
%ADD143R,0.6393X0.6393*%
*
*
*
*
G04 PC Circuitry*
G04 Layer Name CAR-BOARD.pcb - circuitry*
%LPD*%
*
*
G04 PC Custom Flashes*
G04 Layer Name CAR-BOARD.pcb - flashes*
%LPD*%
*
*
G04 PC Circuitry*
G04 Layer Name CAR-BOARD.pcb - circuitry*
%LPD*%
*
G54D81*
G01X3799362Y2483667D02*
Y718917D01*
X3535332Y454887D02*
G75*
G03X3799362Y718917I-0J264030D01*
G01X3535332Y454887D02*
X463877D01*
X463877*
X200435Y718328D02*
G03X463877Y454887I263444J3D01*
G01X200435Y718328D02*
Y2504443D01*
X441105Y2745113D02*
G03X200435Y2504443I0J-240670D01*
G01X441105Y2745113D02*
X3558103D01*
X3558103*
X3799362Y2483667D02*
G03X3558103Y2745113I-251352J10094D01*
G01X3799362Y2483667D02*
X3799362D01*
X1204994Y728242D02*
G03X1204994I-98153J0D01*
G01X3024938D02*
G03X3024938I-98152J0D01*
G01X3673138Y2523256D02*
G03X3673138I-98153J0D01*
G01X498622Y2523257D02*
G03X498622I-98152J0D01*
G54D87*
G01X2129003Y2597443D02*
Y2609908D01*
X2135236Y2616141*
X2147701*
X2153934Y2609908*
Y2597443*
X2147701Y2591210*
X2135236*
X2129003Y2597443*
X2135236Y2591210D02*
X2147701D01*
X2129003Y2599520D02*
X2153934D01*
X2129003Y2607830D02*
X2153934D01*
X2135236Y2616141D02*
X2147701D01*
X2129003Y2597443D02*
Y2609908D01*
X2137314Y2591210D02*
Y2616141D01*
X2145624Y2591210D02*
Y2616141D01*
X2153934Y2597443D02*
Y2609908D01*
X2881081Y2593287D02*
Y2605753D01*
X2887314Y2611985*
X2899779*
X2906012Y2605753*
Y2593287*
X2899779Y2587055*
X2887314*
X2881081Y2593287*
X2887314Y2587055D02*
X2899779D01*
X2881081Y2595365D02*
X2906012D01*
X2881081Y2603675D02*
X2906012D01*
X2887314Y2611985D02*
X2899779D01*
X2881081Y2593287D02*
Y2605753D01*
X2889391Y2587055D02*
Y2611985D01*
X2897701Y2587055D02*
Y2611985D01*
X2906012Y2593287D02*
Y2605753D01*
X1534820Y1022650D02*
Y1035116D01*
X1541053Y1041348*
X1553519*
X1559751Y1035116*
Y1022650*
X1553519Y1016418*
X1541053*
X1534820Y1022650*
X1541053Y1016418D02*
X1553519D01*
X1534820Y1024728D02*
X1559751D01*
X1534820Y1033038D02*
X1559751D01*
X1541053Y1041348D02*
X1553519D01*
X1534820Y1022650D02*
Y1035116D01*
X1543131Y1016418D02*
Y1041348D01*
X1551441Y1016418D02*
Y1041348D01*
X1559751Y1022650D02*
Y1035116D01*
X1098530Y2083189D02*
Y2095654D01*
X1104762Y2101887*
X1117228*
X1123460Y2095654*
Y2083189*
X1117228Y2076956*
X1104762*
X1098530Y2083189*
X1104762Y2076956D02*
X1117228D01*
X1098530Y2085266D02*
X1123460D01*
X1098530Y2093576D02*
X1123460D01*
X1104762Y2101887D02*
X1117228D01*
X1098530Y2083189D02*
Y2095654D01*
X1106840Y2076956D02*
Y2101887D01*
X1115150Y2076956D02*
Y2101887D01*
X1123460Y2083189D02*
Y2095654D01*
X1098530Y1393438D02*
Y1405903D01*
X1104762Y1412136*
X1117228*
X1123460Y1405903*
Y1393438*
X1117228Y1387205*
X1104762*
X1098530Y1393438*
X1104762Y1387205D02*
X1117228D01*
X1098530Y1395516D02*
X1123460D01*
X1098530Y1403826D02*
X1123460D01*
X1104762Y1412136D02*
X1117228D01*
X1098530Y1393438D02*
Y1405903D01*
X1106840Y1387205D02*
Y1412136D01*
X1115150Y1387205D02*
Y1412136D01*
X1123460Y1393438D02*
Y1405903D01*
G54D116*
X1395835Y2161563D03*
Y2130482D03*
Y2099400D03*
X1474357D03*
Y2161563D03*
X1395835Y1879015D03*
Y1847933D03*
Y1816852D03*
X1474357D03*
Y1879015D03*
X1395835Y1588156D03*
Y1557075D03*
Y1525993D03*
X1474357D03*
Y1588156D03*
G54D117*
X1526509Y2166473D03*
Y2094490D03*
Y1875615D03*
Y1803631D03*
Y1593066D03*
Y1521083D03*
X1343683Y2166473D03*
Y2094490D03*
Y1883925D03*
Y1811942D03*
Y1597221D03*
Y1525238D03*
G54D118*
X1822016Y1569543D03*
X1779483D03*
X1822013Y1507213D03*
X1779481D03*
X1822013Y1631867D03*
X1779481D03*
X2087453Y2603673D03*
Y2646205D03*
X2141469Y2654518D03*
X2194990Y1868706D03*
X2237523D03*
X2194990Y1926878D03*
X2237523D03*
X2194990Y1985050D03*
X2237523D03*
X2839531Y2599517D03*
Y2642050D03*
X2893546Y2650363D03*
X3192717Y2445778D03*
Y2488311D03*
X3354270Y1498900D03*
X3396803D03*
X3354270Y1598623D03*
X3396803D03*
X3354270Y1690036D03*
X3396803D03*
X3354270Y1781449D03*
X3396803D03*
X3358425Y2009981D03*
X3400958D03*
X3358425Y2126324D03*
X3400958D03*
X1609614Y1028880D03*
Y1071413D03*
X1588836Y2109216D03*
Y2151748D03*
Y1818357D03*
Y1860889D03*
X1584681Y1535809D03*
Y1578341D03*
X1547286Y1079726D03*
X1406013Y2487329D03*
Y2529862D03*
X1277201Y2105061D03*
Y2147593D03*
Y1822512D03*
Y1865044D03*
Y1535809D03*
Y1578341D03*
X1181634Y2159077D03*
Y2201609D03*
X1173323Y1469327D03*
Y1511859D03*
X1110995Y2038578D03*
Y1348828D03*
X1110999Y2154919D03*
Y2197452D03*
Y1465168D03*
Y1507701D03*
X919370Y2321618D03*
X961902D03*
X919370Y1598626D03*
X961902D03*
X919367Y1652640D03*
X961900D03*
X914046Y2177357D03*
Y2219890D03*
X911553Y1498409D03*
Y1540942D03*
X912044Y2375637D03*
X869511D03*
X912044Y1705000D03*
X869511D03*
X807182Y2180343D03*
X849714D03*
X807182Y1498903D03*
X849714D03*
X769783Y2375632D03*
X812316D03*
X769783Y1704994D03*
X812316D03*
X716260Y2150767D03*
Y2193299D03*
Y1477637D03*
Y1520169D03*
X658088Y2150767D03*
Y2193299D03*
Y1477637D03*
Y1520169D03*
X550052Y1445380D03*
Y1402847D03*
X491886Y1402842D03*
Y1445374D03*
G54D119*
X1817368Y929651D03*
X2881080Y1070925D03*
X3234265Y572310D03*
Y929651D03*
X1817368Y576465D03*
X1858919Y2637407D03*
G54D120*
X1817368Y1012753D03*
X1900470Y929651D03*
Y1012753D03*
X1983573Y929651D03*
Y1012753D03*
X2881080Y987823D03*
X2797977Y1070925D03*
Y987823D03*
X2714875Y1070925D03*
Y987823D03*
X2631772Y1070925D03*
Y987823D03*
X2548670Y1070925D03*
Y987823D03*
X2465567Y1070925D03*
Y987823D03*
X2382465Y1070925D03*
Y987823D03*
X2299362Y1070925D03*
Y987823D03*
X3234265Y655413D03*
X3317368Y572310D03*
Y655413D03*
X3400470Y572310D03*
Y655413D03*
X3234265Y1012753D03*
X3317368Y929651D03*
Y1012753D03*
X3400470Y929651D03*
Y1012753D03*
X1817368Y659568D03*
X1900470Y576465D03*
Y659568D03*
X1983573Y576465D03*
Y659568D03*
X1858919Y2554305D03*
X1775816Y2637407D03*
Y2554305D03*
X1692714Y2637407D03*
Y2554305D03*
X1609611Y2637407D03*
Y2554305D03*
X947638Y2545994D03*
X865844Y2464200D03*
X784050Y2545994D03*
G54D121*
X2286897Y738515D03*
G54D122*
X2369999D03*
X2453102D03*
X2536204D03*
X2619307D03*
X2702409D03*
X3645622Y2009983D03*
Y2259291D03*
X3562520D03*
G54D123*
X2190216Y1804223D03*
Y1742060D03*
X2258923Y1773141D03*
G54D124*
X2457257Y1958813D03*
G54D125*
Y1795225D03*
G54D126*
X2243186Y2624942D03*
X2596536D03*
X2991108D03*
X3344458D03*
G54D127*
X2542552Y2543246D03*
X2526193D03*
X2509834D03*
X2493475D03*
X2477117D03*
X2460758D03*
X2444399D03*
X2428040D03*
X2411682D03*
X2395323D03*
X2378964D03*
X2362605D03*
X2346247D03*
X2329888D03*
X2313529D03*
X2297170D03*
X3290474D03*
X3274115D03*
X3257757D03*
X3241398D03*
X3225039D03*
X3208680D03*
X3192322D03*
X3175963D03*
X3159604D03*
X3143245D03*
X3126887D03*
X3110528D03*
X3094169D03*
X3077810D03*
X3061451D03*
X3045093D03*
G54D128*
X3469185Y1427613D03*
X3728725Y1428266D03*
X3469185Y1568887D03*
X3728725Y1569540D03*
X3469185Y1710161D03*
X3728725Y1710814D03*
X3469185Y1851436D03*
X3728725Y1852088D03*
G54D129*
X1688559Y1262061D03*
Y1345163D03*
X1771661Y1262061D03*
Y1345163D03*
X1854764Y1262061D03*
Y1345163D03*
X1937866Y1262061D03*
Y1345163D03*
X2020969Y1262061D03*
Y1345163D03*
X2104071Y1262061D03*
Y1345163D03*
X2187174Y1262061D03*
Y1345163D03*
X2270276Y1262061D03*
Y1345163D03*
X2353379Y1262061D03*
Y1345163D03*
X2436481Y1262061D03*
Y1345163D03*
X2519584Y1262061D03*
Y1345163D03*
X2602686Y1262061D03*
Y1345163D03*
X2685789Y1262061D03*
Y1345163D03*
X2768891Y1262061D03*
Y1345163D03*
X2851994Y1262061D03*
Y1345163D03*
X2935096Y1262061D03*
Y1345163D03*
X3018199Y1262061D03*
Y1345163D03*
X3101301Y1262061D03*
Y1345163D03*
X3184404Y1262061D03*
Y1345163D03*
X3267506Y1262061D03*
Y1345163D03*
X3184404Y1428266D03*
X3267506D03*
Y2176188D03*
X3184404D03*
X3267506Y2259291D03*
Y2342393D03*
X3184404Y2259291D03*
Y2342393D03*
X3101301Y2259291D03*
Y2342393D03*
X3018199Y2259291D03*
Y2342393D03*
X2935096Y2259291D03*
Y2342393D03*
X2851994Y2259291D03*
Y2342393D03*
X2768891Y2259291D03*
Y2342393D03*
X2685789Y2259291D03*
Y2342393D03*
X2602686Y2259291D03*
Y2342393D03*
X2519584Y2259291D03*
Y2342393D03*
X2436481Y2259291D03*
Y2342393D03*
X2353379Y2259291D03*
Y2342393D03*
X2270276Y2259291D03*
Y2342393D03*
X2187174Y2259291D03*
Y2342393D03*
X2104071Y2259291D03*
Y2342393D03*
X2020969Y2259291D03*
Y2342393D03*
X1937866Y2259291D03*
Y2342393D03*
X1854764Y2259291D03*
Y2342393D03*
X1771661Y2259291D03*
Y2342393D03*
X1688559Y2259291D03*
Y2342393D03*
X1339528Y2624942D03*
X1274093D03*
G54D130*
X1347839Y605551D03*
G54D131*
X1514044D03*
G54D132*
X1404963Y2624942D03*
G54D133*
X1123462Y2277482D03*
Y1575266D03*
X612381Y2277482D03*
X608226Y1575266D03*
G54D134*
X1123462Y2473787D03*
Y1771570D03*
X612381Y2473787D03*
X608226Y1771570D03*
G54D135*
X856192Y2324734D03*
X834926D03*
X813660D03*
X792393D03*
Y2235399D03*
X813660D03*
X834926D03*
X856192D03*
Y1643293D03*
X834926D03*
X813660D03*
X792393D03*
Y1553958D03*
X813660D03*
X834926D03*
X856192D03*
G54D136*
X749501Y2014138D03*
X998808D03*
X749501Y1332698D03*
X998808D03*
G54D137*
X832603Y662283D03*
Y897849D03*
G54D138*
X636298Y1000910D03*
Y559223D03*
G54D139*
X458269Y2134447D03*
X310346Y2135278D03*
G54D140*
X383850Y1897500D03*
G54D141*
X400470Y1172284D03*
Y1584525D03*
G54D142*
Y1280252D03*
Y1378404D03*
Y1476557D03*
G54D143*
X3562520Y2009983D03*
G74*
X0Y0D02*
M02*
