*
*
G04 PADS VX.2.13 Build Number: 22185787 generated Gerber (RS-274-X) file*
G04 PC Version=2.1*
*
%IN "CAR-BOARD.pcb"*%
*
%MOIN*%
*
%FSLAX35Y35*%
*
*
*
*
G04 PC Standard Apertures*
*
*
G04 Thermal Relief Aperture macro.*
%AMTER*
1,1,$1,0,0*
1,0,$1-$2,0,0*
21,0,$3,$4,0,0,45*
21,0,$3,$4,0,0,135*
%
*
*
G04 Annular Aperture macro.*
%AMANN*
1,1,$1,0,0*
1,0,$2,0,0*
%
*
*
G04 Odd Aperture macro.*
%AMODD*
1,1,$1,0,0*
1,0,$1-0.005,0,0*
%
*
*
G04 PC Custom Aperture Macros*
*
*
*
*
*
*
G04 PC Aperture Table*
*
%ADD010C,0.001*%
%ADD016C,0.01*%
%ADD045R,0.04346X0.03362*%
%ADD046R,0.06118X0.05331*%
%ADD047R,0.04X0.04*%
%ADD048R,0.07299X0.07299*%
%ADD049C,0.07299*%
%ADD050R,0.07693X0.07693*%
%ADD051C,0.07693*%
%ADD052R,0.06118X0.03362*%
%ADD053R,0.08087X0.08087*%
%ADD054C,0.08087*%
%ADD055R,0.08087X0.09661*%
%ADD056R,0.02181X0.06118*%
%ADD057R,0.08874X0.06906*%
%ADD058C,0.06906*%
%ADD059R,0.12811X0.12811*%
%ADD060C,0.12811*%
%ADD061R,0.06906X0.06906*%
%ADD062R,0.04937X0.1163*%
%ADD063O,0.04937X0.1163*%
%ADD064R,0.027X0.0485*%
%ADD065R,0.08874X0.08874*%
%ADD066C,0.16945*%
%ADD067C,0.1163*%
%ADD068R,0.07X0.12*%
%ADD069R,0.24X0.255*%
%ADD070C,0.10449*%
%ADD071C,0.08874*%
%ADD072R,0.07693X0.07693*%
*
*
*
*
G04 PC Circuitry*
G04 Layer Name CAR-BOARD.pcb - circuitry*
%LPD*%
*
*
G04 PC Custom Flashes*
G04 Layer Name CAR-BOARD.pcb - flashes*
%LPD*%
*
*
G04 PC Circuitry*
G04 Layer Name CAR-BOARD.pcb - circuitry*
%LPD*%
*
G54D10*
G01X999000Y601000D02*
Y388642D01*
X967228Y356870D02*
G75*
G03X999000Y388642I0J31772D01*
G01X967228Y356870D02*
X597630D01*
X597630*
X565929Y388571D02*
G03X597630Y356870I31701J0D01*
G01X565929Y388571D02*
Y603500D01*
X594890Y632461D02*
G03X565929Y603500I-0J-28961D01*
G01X594890Y632461D02*
X969969D01*
X969969*
X999000Y601000D02*
G03X969969Y632461I-30246J1215D01*
G01X999000Y601000D02*
X999000D01*
X682874Y389764D02*
G03X682874I-7874J0D01*
G01X901874D02*
G03X901874I-7874J0D01*
G01X979874Y605764D02*
G03X979874I-7874J0D01*
G01X597874D02*
G03X597874I-7874J0D01*
G01X693600Y593800D02*
X735200D01*
Y573300*
X693600*
Y593800*
G54D16*
X798000Y614691D02*
Y616191D01*
X798750Y616941*
X800250*
X801000Y616191*
Y614691*
X800250Y613941*
X798750*
X798000Y614691*
X798750Y613941D02*
X800250D01*
X798000Y614941D02*
X801000D01*
X798000Y615941D02*
X801000D01*
X798750Y616941D02*
X800250D01*
X798000Y614691D02*
Y616191D01*
X799000Y613941D02*
Y616941D01*
X800000Y613941D02*
Y616941D01*
X801000Y614691D02*
Y616191D01*
X888500Y614191D02*
Y615691D01*
X889250Y616441*
X890750*
X891500Y615691*
Y614191*
X890750Y613441*
X889250*
X888500Y614191*
X889250Y613441D02*
X890750D01*
X888500Y614441D02*
X891500D01*
X888500Y615441D02*
X891500D01*
X889250Y616441D02*
X890750D01*
X888500Y614191D02*
Y615691D01*
X889500Y613441D02*
Y616441D01*
X890500Y613441D02*
Y616441D01*
X891500Y614191D02*
Y615691D01*
X726500Y425191D02*
Y426691D01*
X727250Y427441*
X728750*
X729500Y426691*
Y425191*
X728750Y424441*
X727250*
X726500Y425191*
X727250Y424441D02*
X728750D01*
X726500Y425441D02*
X729500D01*
X726500Y426441D02*
X729500D01*
X727250Y427441D02*
X728750D01*
X726500Y425191D02*
Y426691D01*
X727500Y424441D02*
Y427441D01*
X728500Y424441D02*
Y427441D01*
X729500Y425191D02*
Y426691D01*
X674000Y552809D02*
Y554309D01*
X674750Y555059*
X676250*
X677000Y554309*
Y552809*
X676250Y552059*
X674750*
X674000Y552809*
X674750Y552059D02*
X676250D01*
X674000Y553059D02*
X677000D01*
X674000Y554059D02*
X677000D01*
X674750Y555059D02*
X676250D01*
X674000Y552809D02*
Y554309D01*
X675000Y552059D02*
Y555059D01*
X676000Y552059D02*
Y555059D01*
X677000Y552809D02*
Y554309D01*
X674000Y469309D02*
Y470809D01*
X674750Y471559*
X676250*
X677000Y470809*
Y469309*
X676250Y468559*
X674750*
X674000Y469309*
X674750Y468559D02*
X676250D01*
X674000Y469559D02*
X677000D01*
X674000Y470559D02*
X677000D01*
X674750Y471559D02*
X676250D01*
X674000Y469309D02*
Y470809D01*
X675000Y468559D02*
Y471559D01*
X676000Y468559D02*
Y471559D01*
X677000Y469309D02*
Y470809D01*
X693500Y596000D02*
Y572500D01*
X736000*
Y596000*
X693500*
Y595899D02*
X736000D01*
X693500Y594999D02*
X736000D01*
X693500Y594099D02*
X736000D01*
X693500Y593199D02*
X736000D01*
X693500Y592299D02*
X736000D01*
X693500Y591399D02*
X736000D01*
X693500Y590499D02*
X736000D01*
X693500Y589599D02*
X736000D01*
X693500Y588699D02*
X736000D01*
X693500Y587799D02*
X736000D01*
X693500Y586899D02*
X736000D01*
X693500Y585999D02*
X736000D01*
X693500Y585099D02*
X736000D01*
X693500Y584199D02*
X736000D01*
X693500Y583299D02*
X736000D01*
X693500Y582399D02*
X736000D01*
X693500Y581499D02*
X736000D01*
X693500Y580599D02*
X736000D01*
X693500Y579699D02*
X736000D01*
X693500Y578799D02*
X736000D01*
X693500Y577899D02*
X736000D01*
X693500Y576999D02*
X736000D01*
X693500Y576099D02*
X736000D01*
X693500Y575199D02*
X736000D01*
X693500Y574299D02*
X736000D01*
X693500Y573399D02*
X736000D01*
G54D45*
X709776Y562240D03*
Y558500D03*
Y554760D03*
X719224D03*
Y562240D03*
X709776Y528240D03*
Y524500D03*
Y520760D03*
X719224D03*
Y528240D03*
X709776Y493240D03*
Y489500D03*
Y485760D03*
X719224D03*
Y493240D03*
G54D46*
X703500Y528831D03*
Y520169D03*
X725500Y562831D03*
Y554169D03*
Y527831D03*
Y519169D03*
Y493831D03*
Y485169D03*
X703500Y562831D03*
Y554169D03*
Y494331D03*
Y485669D03*
G54D47*
X601100Y456141D03*
Y461259D03*
X945441Y482500D03*
X950559D03*
X761059Y491000D03*
X755941D03*
X695600Y555441D03*
Y560559D03*
X761059Y498500D03*
X755941D03*
X793000Y615441D03*
Y620559D03*
X799500Y621559D03*
X805941Y527000D03*
X811059D03*
X805941Y534000D03*
X811059D03*
X805941Y541000D03*
X811059D03*
X883500Y614941D03*
Y620059D03*
X890000Y621059D03*
X926000Y596441D03*
Y601559D03*
X945441Y494500D03*
X950559D03*
X945441Y505500D03*
X950559D03*
X945441Y516500D03*
X950559D03*
X945941Y544000D03*
X951059D03*
X945941Y558000D03*
X951059D03*
X735500Y425941D03*
Y431059D03*
X733000Y555941D03*
Y561059D03*
Y520941D03*
Y526059D03*
X695600Y521541D03*
Y526659D03*
X728000Y432059D03*
X711000Y601441D03*
Y606559D03*
X761059Y484000D03*
X755941D03*
X732400Y486941D03*
Y492059D03*
X695500Y486941D03*
Y492059D03*
X684000Y561941D03*
Y567059D03*
X683000Y477941D03*
Y483059D03*
X675500Y547441D03*
Y463941D03*
Y561441D03*
Y566559D03*
Y477941D03*
Y483059D03*
X652441Y581500D03*
X657559D03*
X652441Y494500D03*
X657559D03*
X652441Y501000D03*
X657559D03*
X651800Y564141D03*
Y569259D03*
X651500Y482441D03*
Y487559D03*
X651559Y588000D03*
X646441D03*
X651559Y507300D03*
X646441D03*
X638941Y564500D03*
X644059D03*
X638941Y482500D03*
X644059D03*
X634441Y588000D03*
X639559D03*
X634441Y507300D03*
X639559D03*
X628000Y560941D03*
Y566059D03*
Y478941D03*
Y484059D03*
X621000Y560941D03*
Y566059D03*
Y478941D03*
Y484059D03*
X937559Y482500D03*
X932441D03*
X937559Y516500D03*
X932441D03*
X937559Y505500D03*
X932441D03*
X937559Y494500D03*
X932441D03*
G54D48*
X931000Y414000D03*
X888500Y431000D03*
X760500Y414000D03*
X931000Y371000D03*
X760500Y371500D03*
X765500Y619500D03*
G54D49*
X931000Y424000D03*
X941000Y414000D03*
Y424000D03*
X951000Y414000D03*
Y424000D03*
X888500Y421000D03*
X878500Y431000D03*
Y421000D03*
X868500Y431000D03*
Y421000D03*
X858500Y431000D03*
Y421000D03*
X848500Y431000D03*
Y421000D03*
X838500Y431000D03*
Y421000D03*
X828500Y431000D03*
Y421000D03*
X818500Y431000D03*
Y421000D03*
X760500Y424000D03*
X770500Y414000D03*
Y424000D03*
X780500Y414000D03*
Y424000D03*
X931000Y381000D03*
X941000Y371000D03*
Y381000D03*
X951000Y371000D03*
Y381000D03*
X760500Y381500D03*
X770500Y371500D03*
Y381500D03*
X780500Y371500D03*
Y381500D03*
X765500Y609500D03*
X755500Y619500D03*
Y609500D03*
X745500Y619500D03*
Y609500D03*
X735500Y619500D03*
Y609500D03*
X655843Y608500D03*
X646000Y598657D03*
X636157Y608500D03*
G54D50*
X817000Y391000D03*
G54D51*
X827000D03*
X837000D03*
X847000D03*
X857000D03*
X867000D03*
X980500Y544000D03*
Y574000D03*
X970500D03*
G54D52*
X805366Y519240D03*
Y511760D03*
X813634Y515500D03*
G54D53*
X837500Y537843D03*
G54D54*
Y518157D03*
G54D55*
X811740Y618000D03*
X854260D03*
X901740D03*
X944260D03*
G54D56*
X847764Y608169D03*
X845795D03*
X843827D03*
X841858D03*
X839890D03*
X837921D03*
X835953D03*
X833984D03*
X832016D03*
X830047D03*
X828079D03*
X826110D03*
X824142D03*
X822173D03*
X820205D03*
X818236D03*
X937764D03*
X935795D03*
X933827D03*
X931858D03*
X929890D03*
X927921D03*
X925953D03*
X923984D03*
X922016D03*
X920047D03*
X918079D03*
X916110D03*
X914142D03*
X912173D03*
X910205D03*
X908236D03*
G54D57*
X959269Y473921D03*
X990500Y474000D03*
X959269Y490921D03*
X990500Y491000D03*
X959269Y507921D03*
X990500Y508000D03*
X959269Y524921D03*
X990500Y525000D03*
G54D58*
X745000Y454000D03*
Y464000D03*
X755000Y454000D03*
Y464000D03*
X765000Y454000D03*
Y464000D03*
X775000Y454000D03*
Y464000D03*
X785000Y454000D03*
Y464000D03*
X795000Y454000D03*
Y464000D03*
X805000Y454000D03*
Y464000D03*
X815000Y454000D03*
Y464000D03*
X825000Y454000D03*
Y464000D03*
X835000Y454000D03*
Y464000D03*
X845000Y454000D03*
Y464000D03*
X855000Y454000D03*
Y464000D03*
X865000Y454000D03*
Y464000D03*
X875000Y454000D03*
Y464000D03*
X885000Y454000D03*
Y464000D03*
X895000Y454000D03*
Y464000D03*
X905000Y454000D03*
Y464000D03*
X915000Y454000D03*
Y464000D03*
X925000Y454000D03*
Y464000D03*
X935000Y454000D03*
Y464000D03*
X925000Y474000D03*
X935000D03*
Y564000D03*
X925000D03*
X935000Y574000D03*
Y584000D03*
X925000Y574000D03*
Y584000D03*
X915000Y574000D03*
Y584000D03*
X905000Y574000D03*
Y584000D03*
X895000Y574000D03*
Y584000D03*
X885000Y574000D03*
Y584000D03*
X875000Y574000D03*
Y584000D03*
X865000Y574000D03*
Y584000D03*
X855000Y574000D03*
Y584000D03*
X845000Y574000D03*
Y584000D03*
X835000Y574000D03*
Y584000D03*
X825000Y574000D03*
Y584000D03*
X815000Y574000D03*
Y584000D03*
X805000Y574000D03*
Y584000D03*
X795000Y574000D03*
Y584000D03*
X785000Y574000D03*
Y584000D03*
X775000Y574000D03*
Y584000D03*
X765000Y574000D03*
Y584000D03*
X755000Y574000D03*
Y584000D03*
X745000Y574000D03*
Y584000D03*
X703000Y618000D03*
X695126D03*
G54D59*
X704000Y375000D03*
G54D60*
X724000D03*
G54D61*
X710874Y618000D03*
G54D62*
X677000Y576189D03*
Y491689D03*
X615500Y576189D03*
X615000Y491689D03*
G54D63*
X677000Y599811D03*
Y515311D03*
X615500Y599811D03*
X615000Y515311D03*
G54D64*
X644839Y581875D03*
X642280D03*
X639720D03*
X637161D03*
Y571125D03*
X639720D03*
X642280D03*
X644839D03*
Y499875D03*
X642280D03*
X639720D03*
X637161D03*
Y489125D03*
X639720D03*
X642280D03*
X644839D03*
G54D65*
X632000Y544500D03*
X662000D03*
X632000Y461500D03*
X662000D03*
G54D66*
X642000Y381827D03*
Y410173D03*
G54D67*
X618378Y422575D03*
Y369425D03*
G54D68*
X581245Y526223D03*
X599045Y526123D03*
G54D69*
X590200Y554735D03*
G54D70*
X590000Y443197D03*
Y492803D03*
G54D71*
Y456189D03*
Y468000D03*
Y479811D03*
G54D72*
X970500Y544000D03*
G74*
X0Y0D02*
M02*
