*
*
G04 PADS VX.2.13 Build Number: 22185787 generated Gerber (RS-274-X) file*
G04 PC Version=2.1*
*
%IN "CAR-BOARD.pcb"*%
*
%MOIN*%
*
%FSLAX35Y35*%
*
*
*
*
G04 PC Standard Apertures*
*
*
G04 Thermal Relief Aperture macro.*
%AMTER*
1,1,$1,0,0*
1,0,$1-$2,0,0*
21,0,$3,$4,0,0,45*
21,0,$3,$4,0,0,135*
%
*
*
G04 Annular Aperture macro.*
%AMANN*
1,1,$1,0,0*
1,0,$2,0,0*
%
*
*
G04 Odd Aperture macro.*
%AMODD*
1,1,$1,0,0*
1,0,$1-0.005,0,0*
%
*
*
G04 PC Custom Aperture Macros*
*
*
*
*
*
*
G04 PC Aperture Table*
*
%ADD010C,0.001*%
%ADD016C,0.01*%
%ADD041C,0.008*%
%ADD073C,0.00984*%
%ADD074C,0.00787*%
%ADD075C,0.00591*%
%ADD076C,0.006*%
%ADD077C,0.01969*%
%ADD078C,0.00394*%
%ADD079C,0.00787*%
%ADD080C,0.005*%
*
*
*
*
G04 PC Circuitry*
G04 Layer Name CAR-BOARD.pcb - circuitry*
%LPD*%
*
*
G04 PC Custom Flashes*
G04 Layer Name CAR-BOARD.pcb - flashes*
%LPD*%
*
*
G04 PC Circuitry*
G04 Layer Name CAR-BOARD.pcb - circuitry*
%LPD*%
*
G54D10*
G01X999000Y601000D02*
Y388642D01*
X967228Y356870D02*
G75*
G03X999000Y388642I0J31772D01*
G01X967228Y356870D02*
X597630D01*
X597630*
X565929Y388571D02*
G03X597630Y356870I31701J0D01*
G01X565929Y388571D02*
Y603500D01*
X594890Y632461D02*
G03X565929Y603500I-0J-28961D01*
G01X594890Y632461D02*
X969969D01*
X969969*
X999000Y601000D02*
G03X969969Y632461I-30246J1215D01*
G01X999000Y601000D02*
X999000D01*
X682874Y389764D02*
G03X682874I-7874J0D01*
G01X901874D02*
G03X901874I-7874J0D01*
G01X979874Y605764D02*
G03X979874I-7874J0D01*
G01X597874D02*
G03X597874I-7874J0D01*
G54D16*
G01X566378Y456189D02*
X538819D01*
Y468000*
X566378*
X590000Y443394D02*
X566378D01*
Y492606*
X590000*
X596890*
Y443394*
X595906*
X590000*
X951000Y401677D02*
Y404000D01*
X931000*
Y401677*
X910941D02*
Y436323D01*
X971059*
Y401677*
X910941*
X987159Y469400D02*
Y466520D01*
X962356*
Y469400*
X987159Y478200D02*
Y481480D01*
X962356*
Y478200*
X982000Y476100D02*
Y479000D01*
X968000*
Y476100*
X972000Y470000D02*
X977900D01*
X975000Y472000D02*
Y474600D01*
Y476400D02*
Y479000D01*
X944000Y584500D02*
G03X936500Y592000I-7500J0D01*
G01X743500*
G03X736000Y584500I0J-7500*
G01Y453500*
G03X743500Y446000I7500J0*
G01X936500*
G03X944000Y453500I0J7500*
G01Y584500*
X780500Y401677D02*
Y404000D01*
X760500*
Y401677*
X740441D02*
Y436323D01*
X800559*
Y401677*
X740441*
X853000Y387000D02*
X861000D01*
Y391000*
X863000*
Y387000*
X871000*
Y391000*
X877000*
Y361512*
X865000*
Y371291*
X857000*
Y361465*
X827000*
Y371087*
X819000*
Y361362*
X806409*
X806307Y361465*
Y387197*
X807819Y388709*
X810110Y391000*
X813165*
Y387134*
X813220Y387079*
X820921*
X820866Y387134*
Y391000*
X823118*
Y387055*
X830465*
X830520Y387110*
X830567Y391000*
X832976*
X833055Y387079*
X840882*
X840906Y387102*
Y391000*
X843110*
Y387055*
X851000*
Y391000*
X853000*
Y387000*
X855520Y527500D02*
G03X855520I-18111J0D01*
G01X842500Y527000D02*
X832500D01*
Y529000*
X842500*
Y527000*
Y525302D02*
X832500Y525303D01*
X842500Y530791D02*
X832500D01*
X837500Y524802D02*
Y522500D01*
Y533500D02*
Y530791D01*
X828500Y540500D02*
Y535500D01*
X831000Y538000D02*
X826000D01*
X951000Y358677D02*
Y361000D01*
X931000*
Y358677*
X910941D02*
Y393323D01*
X971059*
Y358677*
X910941*
X987159Y486400D02*
Y483520D01*
X962356*
Y486400*
X987159Y495200D02*
Y498480D01*
X962356*
Y495200*
X982000Y493100D02*
Y496000D01*
X968000*
Y493100*
X972000Y487000D02*
X977900D01*
X975000Y489000D02*
Y491600D01*
Y493400D02*
Y496000D01*
X987159Y503400D02*
Y500520D01*
X962356*
Y503400*
X987159Y512200D02*
Y515480D01*
X962356*
Y512200*
X982000Y510100D02*
Y513000D01*
X968000*
Y510100*
X972000Y504000D02*
X977900D01*
X975000Y506000D02*
Y508600D01*
Y510400D02*
Y513000D01*
X987159Y520400D02*
Y517520D01*
X962356*
Y520400*
X987159Y529200D02*
Y532480D01*
X962356*
Y529200*
X982000Y527100D02*
Y530000D01*
X968000*
Y527100*
X972000Y521000D02*
X977900D01*
X975000Y523000D02*
Y525600D01*
Y527400D02*
Y530000D01*
X780500Y359177D02*
Y361500D01*
X760500*
Y359177*
X740441D02*
Y393823D01*
X800559*
Y359177*
X740441*
X713843Y366732D02*
G03X733685I9921J9922D01*
G01X694000D02*
G03X713843I9921J9922D01*
G01X694000Y387598D02*
X733921D01*
X694000Y391535D02*
X734000D01*
Y358465*
X694000*
Y391535*
X689992Y600992D02*
Y581110D01*
X683890Y575008*
X669717*
X664008Y580717*
Y600992*
X689992*
Y516492D02*
Y496610D01*
X683890Y490508*
X669717*
X664008Y496217*
Y516492*
X689992*
X651500Y608500D02*
G03X651500I-5500J0D01*
G01X660000Y622500D02*
Y594500D01*
X632000*
Y622500*
X660000*
X657000Y550500D02*
G03X637000I-10000J-6032D01*
G01X662000Y549500D02*
Y556500D01*
G03X659000Y559500I-3000J0*
G01X635000*
G03X632000Y556500I0J-3000*
G01Y549500*
Y539500D02*
Y532500D01*
G03X635000Y529500I3000J0*
G01X659000*
G03X662000Y532500I0J3000*
G01Y539500*
X637000Y538500D02*
G03X657000I10000J6032D01*
G01Y544500D02*
X653000D01*
G03X649000I-2000J0*
X645000I-2000J0*
X641000I-2000J0*
G01X637000*
X657000Y467500D02*
G03X637000I-10000J-6032D01*
G01X662000Y466500D02*
Y473500D01*
G03X659000Y476500I-3000J0*
G01X635000*
G03X632000Y473500I0J-3000*
G01Y466500*
Y456500D02*
Y449500D01*
G03X635000Y446500I3000J0*
G01X659000*
G03X662000Y449500I0J3000*
G01Y456500*
X637000Y455500D02*
G03X657000I10000J6032D01*
G01Y461500D02*
X653000D01*
G03X649000I-2000J0*
X645000I-2000J0*
X641000I-2000J0*
G01X637000*
X628492Y600992D02*
Y581110D01*
X622390Y575008*
X608217*
X602508Y580717*
Y600992*
X628492*
X627992Y516492D02*
Y496610D01*
X621890Y490508*
X607717*
X602008Y496217*
Y516492*
X627992*
X972318Y569938D02*
X972045Y569750D01*
X971773Y569375*
X971636Y569000*
X971500Y568438*
X971500D02*
Y567500D01*
X971636Y566938*
X971636D02*
X971773Y566563D01*
X971773D02*
X972045Y566188D01*
X972045D02*
X972318Y566000D01*
X972864*
X973136Y566188*
X973136D02*
X973409Y566563D01*
X973409D02*
X973545Y566938D01*
X973545D02*
X973682Y567500D01*
Y568438*
X973682D02*
X973545Y569000D01*
X973409Y569375*
X973136Y569750*
X972864Y569938*
X972864D02*
X972318D01*
X974909D02*
Y566000D01*
Y569938D02*
X976818Y566000D01*
Y569938D02*
Y566000D01*
X873527Y600600D02*
X873345Y601100D01*
X872982Y601600*
X872618Y601850*
X871891*
X871527Y601600*
X871164Y601100*
X870982Y600600*
X870800Y599850*
Y598600*
X870982Y597850*
X871164Y597350*
X871527Y596850*
X871891Y596600*
X872618*
X872982Y596850*
X873345Y597350*
X873527Y597850*
X877709Y601100D02*
X877345Y601600D01*
X876800Y601850*
X876073*
X875527Y601600*
X875164Y601100*
Y600600*
X875345Y600100*
X875527Y599850*
X875891Y599600*
X876982Y599100*
X877345Y598850*
X877527Y598600*
X877709Y598100*
Y597350*
X877345Y596850*
X876800Y596600*
X876073*
X875527Y596850*
X875164Y597350*
X879345Y601850D02*
Y596600D01*
X880982Y598850D02*
X884255D01*
X888618Y600600D02*
X888436Y601100D01*
X888073Y601600*
X887709Y601850*
X886982*
X886618Y601600*
X886255Y601100*
X886073Y600600*
X885891Y599850*
Y598600*
X886073Y597850*
X886255Y597350*
X886618Y596850*
X886982Y596600*
X887709*
X888073Y596850*
X888436Y597350*
X888618Y597850*
X891709Y601850D02*
X890255Y596600D01*
X891709Y601850D02*
X893164Y596600D01*
X890800Y598350D02*
X892618D01*
X894800Y601850D02*
Y596600D01*
Y601850D02*
X896255Y596600D01*
X897709Y601850D02*
X896255Y596600D01*
X897709Y601850D02*
Y596600D01*
X899345Y601850D02*
Y596600D01*
Y601850D02*
X901709D01*
X899345Y599350D02*
X900800D01*
X899345Y596600D02*
X901709D01*
X903345Y601850D02*
Y596600D01*
Y601850D02*
X904982D01*
X905527Y601600*
X905709Y601350*
X905891Y600850*
Y600350*
X905709Y599850*
X905527Y599600*
X904982Y599350*
X903345*
X904618D02*
X905891Y596600D01*
X908982Y601850D02*
X907527Y596600D01*
X908982Y601850D02*
X910436Y596600D01*
X908073Y598350D02*
X909891D01*
X780400Y602250D02*
Y597000D01*
Y602250D02*
X782764D01*
X780400Y599750D02*
X781855D01*
X784400Y602250D02*
Y597000D01*
X786582*
X788218Y602250D02*
Y597000D01*
Y602250D02*
X790582D01*
X788218Y599750D02*
X789673D01*
X788218Y597000D02*
X790582D01*
X792218Y602250D02*
X794764Y597000D01*
Y602250D02*
X792218Y597000D01*
X796400Y602250D02*
Y597000D01*
X799127Y602250D02*
X798764Y602000D01*
X798400Y601500*
X798218Y601000*
X798036Y600250*
Y599000*
X798218Y598250*
X798400Y597750*
X798764Y597250*
X799127Y597000*
X799855*
X800218Y597250*
X800582Y597750*
X800764Y598250*
X800945Y599000*
Y600250*
X800764Y601000*
X800582Y601500*
X800218Y602000*
X799855Y602250*
X799127*
X802582Y599250D02*
X805855D01*
X810218Y601000D02*
X810036Y601500D01*
X809673Y602000*
X809309Y602250*
X808582*
X808218Y602000*
X807855Y601500*
X807673Y601000*
X807491Y600250*
Y599000*
X807673Y598250*
X807855Y597750*
X808218Y597250*
X808582Y597000*
X809309*
X809673Y597250*
X810036Y597750*
X810218Y598250*
X813309Y602250D02*
X811855Y597000D01*
X813309Y602250D02*
X814764Y597000D01*
X812400Y598750D02*
X814218D01*
X816400Y602250D02*
Y597000D01*
Y602250D02*
X817855Y597000D01*
X819309Y602250D02*
X817855Y597000D01*
X819309Y602250D02*
Y597000D01*
X820945Y602250D02*
Y597000D01*
Y602250D02*
X823309D01*
X820945Y599750D02*
X822400D01*
X820945Y597000D02*
X823309D01*
X824945Y602250D02*
Y597000D01*
Y602250D02*
X826582D01*
X827127Y602000*
X827309Y601750*
X827491Y601250*
Y600750*
X827309Y600250*
X827127Y600000*
X826582Y599750*
X824945*
X826218D02*
X827491Y597000D01*
X830582Y602250D02*
X829127Y597000D01*
X830582Y602250D02*
X832036Y597000D01*
X829673Y598750D02*
X831491D01*
X593745Y624900D02*
X593382Y625400D01*
X592836Y625650*
X592109*
X591564Y625400*
X591200Y624900*
Y624400*
X591382Y623900*
X591564Y623650*
X591927Y623400*
X593018Y622900*
X593382Y622650*
X593564Y622400*
X593745Y621900*
Y621150*
X593382Y620650*
X592836Y620400*
X592109*
X591564Y620650*
X591200Y621150*
X595382Y625650D02*
Y620400D01*
Y625650D02*
X597745D01*
X595382Y623150D02*
X596836D01*
X595382Y620400D02*
X597745D01*
X599382Y625650D02*
Y620400D01*
Y625650D02*
X601018D01*
X601564Y625400*
X601745Y625150*
X601927Y624650*
Y624150*
X601745Y623650*
X601564Y623400*
X601018Y623150*
X599382*
X600655D02*
X601927Y620400D01*
X603564Y625650D02*
X605018Y620400D01*
X606473Y625650D02*
X605018Y620400D01*
X609200Y625650D02*
X608836Y625400D01*
X608473Y624900*
X608291Y624400*
X608109Y623650*
Y622400*
X608291Y621650*
X608473Y621150*
X608836Y620650*
X609200Y620400*
X609927*
X610291Y620650*
X610655Y621150*
X610836Y621650*
X611018Y622400*
Y623650*
X610836Y624400*
X610655Y624900*
X610291Y625400*
X609927Y625650*
X609200*
X612655Y622650D02*
X615927D01*
X617564Y625650D02*
Y620400D01*
Y625650D02*
X619200D01*
X619745Y625400*
X619927Y625150*
X620109Y624650*
Y624150*
X619927Y623650*
X619745Y623400*
X619200Y623150*
X617564*
X618836D02*
X620109Y620400D01*
X621745Y625650D02*
Y620400D01*
Y625650D02*
X624109D01*
X621745Y623150D02*
X623200D01*
X621745Y620400D02*
X624109D01*
X628291Y624900D02*
X627927Y625400D01*
X627382Y625650*
X626655*
X626109Y625400*
X625745Y624900*
Y624400*
X625927Y623900*
X626109Y623650*
X626473Y623400*
X627564Y622900*
X627927Y622650*
X628109Y622400*
X628291Y621900*
Y621150*
X627927Y620650*
X627382Y620400*
X626655*
X626109Y620650*
X625745Y621150*
X700400Y404538D02*
Y400600D01*
Y404538D02*
X701491Y400600D01*
X702582Y404538D02*
X701491Y400600D01*
X702582Y404538D02*
Y400600D01*
X704627Y404538D02*
X704355Y404350D01*
X704082Y403975*
X703945Y403600*
X703809Y403038*
X703809D02*
Y402100D01*
X703945Y401538*
X703945D02*
X704082Y401163D01*
X704082D02*
X704355Y400788D01*
X704355D02*
X704627Y400600D01*
X705173*
X705445Y400788*
X705445D02*
X705718Y401163D01*
X705718D02*
X705855Y401538D01*
X705855D02*
X705991Y402100D01*
Y403038*
X705991D02*
X705855Y403600D01*
X705718Y403975*
X705445Y404350*
X705173Y404538*
X705173D02*
X704627D01*
X708173D02*
Y400600D01*
X707218Y404538D02*
X709127D01*
X711173D02*
X710900Y404350D01*
X710627Y403975*
X710491Y403600*
X710355Y403038*
X710355D02*
Y402100D01*
X710491Y401538*
X710491D02*
X710627Y401163D01*
X710627D02*
X710900Y400788D01*
X710900D02*
X711173Y400600D01*
X711718*
X711991Y400788*
X711991D02*
X712264Y401163D01*
X712264D02*
X712400Y401538D01*
X712400D02*
X712536Y402100D01*
Y403038*
X712536D02*
X712400Y403600D01*
X712264Y403975*
X711991Y404350*
X711718Y404538*
X711718D02*
X711173D01*
X713764D02*
Y400600D01*
Y404538D02*
X714991D01*
X714991D02*
X715400Y404350D01*
X715536Y404163*
X715536D02*
X715673Y403788D01*
X715673D02*
Y403413D01*
X715673D02*
X715536Y403038D01*
X715536D02*
X715400Y402850D01*
X714991Y402663*
X714991D02*
X713764D01*
X714718D02*
X715673Y400600D01*
X716900Y402288D02*
X719355D01*
X721400Y404538D02*
X721127Y404350D01*
X720855Y403975*
X720718Y403600*
X720582Y403038*
X720582D02*
Y402100D01*
X720718Y401538*
X720718D02*
X720855Y401163D01*
X720855D02*
X721127Y400788D01*
X721127D02*
X721400Y400600D01*
X721945*
X722218Y400788*
X722218D02*
X722491Y401163D01*
X722491D02*
X722627Y401538D01*
X722627D02*
X722764Y402100D01*
Y403038*
X722764D02*
X722627Y403600D01*
X722491Y403975*
X722218Y404350*
X721945Y404538*
X721945D02*
X721400D01*
X723991D02*
Y401725D01*
X724127Y401163*
X724127D02*
X724400Y400788D01*
X724400D02*
X724809Y400600D01*
X725082*
X725491Y400788*
X725491D02*
X725764Y401163D01*
X725764D02*
X725900Y401725D01*
Y404538*
X728082D02*
Y400600D01*
X727127Y404538D02*
X729036D01*
X823600Y400538D02*
Y396600D01*
Y400538D02*
X824691Y396600D01*
X825782Y400538D02*
X824691Y396600D01*
X825782Y400538D02*
Y396600D01*
X827827Y400538D02*
X827555Y400350D01*
X827282Y399975*
X827145Y399600*
X827009Y399038*
X827009D02*
Y398100D01*
X827145Y397538*
X827145D02*
X827282Y397163D01*
X827282D02*
X827555Y396788D01*
X827555D02*
X827827Y396600D01*
X828373*
X828645Y396788*
X828645D02*
X828918Y397163D01*
X828918D02*
X829055Y397538D01*
X829055D02*
X829191Y398100D01*
Y399038*
X829191D02*
X829055Y399600D01*
X828918Y399975*
X828645Y400350*
X828373Y400538*
X828373D02*
X827827D01*
X831373D02*
Y396600D01*
X830418Y400538D02*
X832327D01*
X834373D02*
X834100Y400350D01*
X833827Y399975*
X833691Y399600*
X833555Y399038*
X833555D02*
Y398100D01*
X833691Y397538*
X833691D02*
X833827Y397163D01*
X833827D02*
X834100Y396788D01*
X834100D02*
X834373Y396600D01*
X834918*
X835191Y396788*
X835191D02*
X835464Y397163D01*
X835464D02*
X835600Y397538D01*
X835600D02*
X835736Y398100D01*
Y399038*
X835736D02*
X835600Y399600D01*
X835464Y399975*
X835191Y400350*
X834918Y400538*
X834918D02*
X834373D01*
X836964D02*
Y396600D01*
Y400538D02*
X838191D01*
X838191D02*
X838600Y400350D01*
X838736Y400163*
X838736D02*
X838873Y399788D01*
X838873D02*
Y399413D01*
X838873D02*
X838736Y399038D01*
X838736D02*
X838600Y398850D01*
X838191Y398663*
X838191D02*
X836964D01*
X837918D02*
X838873Y396600D01*
X840100Y398288D02*
X842555D01*
X845691Y399975D02*
X845418Y400350D01*
X845009Y400538*
X845009D02*
X844464D01*
X844464D02*
X844055Y400350D01*
X843782Y399975*
Y399600*
X843918Y399225*
X844055Y399038*
X844055D02*
X844327Y398850D01*
X845145Y398475*
X845418Y398288*
X845418D02*
X845555Y398100D01*
X845691Y397725*
Y397163*
X845691D02*
X845418Y396788D01*
X845418D02*
X845009Y396600D01*
X844464*
X844055Y396788*
X844055D02*
X843782Y397163D01*
X846918Y400538D02*
Y396600D01*
X850191Y399600D02*
X850055Y399975D01*
X849782Y400350*
X849509Y400538*
X849509D02*
X848964D01*
X848964D02*
X848691Y400350D01*
X848418Y399975*
X848282Y399600*
X848145Y399038*
X848145D02*
Y398100D01*
X848282Y397538*
X848282D02*
X848418Y397163D01*
X848418D02*
X848691Y396788D01*
X848691D02*
X848964Y396600D01*
X849509*
X849782Y396788*
X849782D02*
X850055Y397163D01*
X850055D02*
X850191Y397538D01*
X850191D02*
Y398100D01*
X849509D02*
X850191D01*
X851418Y400538D02*
Y396600D01*
Y400538D02*
X853327Y396600D01*
Y400538D02*
Y396600D01*
X855645Y400538D02*
X854555Y396600D01*
X855645Y400538D02*
X856736Y396600D01*
X854964Y397913D02*
X856327D01*
X857964Y400538D02*
Y396600D01*
X859600*
X757600Y443138D02*
Y439200D01*
Y443138D02*
X759373D01*
X757600Y441263D02*
X758691D01*
X757600Y439200D02*
X759373D01*
X760600Y443138D02*
Y439200D01*
Y443138D02*
X762509Y439200D01*
Y443138D02*
Y439200D01*
X765782Y442200D02*
X765645Y442575D01*
X765373Y442950*
X765100Y443138*
X765100D02*
X764555D01*
X764555D02*
X764282Y442950D01*
X764009Y442575*
X763873Y442200*
X763736Y441638*
X763736D02*
Y440700D01*
X763873Y440138*
X763873D02*
X764009Y439763D01*
X764009D02*
X764282Y439388D01*
X764282D02*
X764555Y439200D01*
X765100*
X765373Y439388*
X765373D02*
X765645Y439763D01*
X765645D02*
X765782Y440138D01*
X767827Y443138D02*
X767555Y442950D01*
X767282Y442575*
X767145Y442200*
X767009Y441638*
X767009D02*
Y440700D01*
X767145Y440138*
X767145D02*
X767282Y439763D01*
X767282D02*
X767555Y439388D01*
X767555D02*
X767827Y439200D01*
X768373*
X768645Y439388*
X768645D02*
X768918Y439763D01*
X768918D02*
X769055Y440138D01*
X769055D02*
X769191Y440700D01*
Y441638*
X769191D02*
X769055Y442200D01*
X768918Y442575*
X768645Y442950*
X768373Y443138*
X768373D02*
X767827D01*
X770418D02*
Y439200D01*
Y443138D02*
X771373D01*
X771373D02*
X771782Y442950D01*
X772055Y442575*
X772191Y442200*
X772327Y441638*
X772327D02*
Y440700D01*
X772191Y440138*
X772191D02*
X772055Y439763D01*
X772055D02*
X771782Y439388D01*
X771782D02*
X771373Y439200D01*
X770418*
X773555Y443138D02*
Y439200D01*
Y443138D02*
X775327D01*
X773555Y441263D02*
X774645D01*
X773555Y439200D02*
X775327D01*
X776555Y443138D02*
Y439200D01*
Y443138D02*
X777782D01*
X777782D02*
X778191Y442950D01*
X778327Y442763*
X778327D02*
X778464Y442388D01*
X778464D02*
Y442013D01*
X778464D02*
X778327Y441638D01*
X778327D02*
X778191Y441450D01*
X777782Y441263*
X777782D02*
X776555D01*
X777509D02*
X778464Y439200D01*
X779691Y442388D02*
X779964Y442575D01*
X780373Y443138*
X780373D02*
Y439200D01*
X757800Y399738D02*
Y395800D01*
Y399738D02*
X759573D01*
X757800Y397863D02*
X758891D01*
X757800Y395800D02*
X759573D01*
X760800Y399738D02*
Y395800D01*
Y399738D02*
X762709Y395800D01*
Y399738D02*
Y395800D01*
X765982Y398800D02*
X765845Y399175D01*
X765573Y399550*
X765300Y399738*
X765300D02*
X764755D01*
X764755D02*
X764482Y399550D01*
X764209Y399175*
X764073Y398800*
X763936Y398238*
X763936D02*
Y397300D01*
X764073Y396738*
X764073D02*
X764209Y396363D01*
X764209D02*
X764482Y395988D01*
X764482D02*
X764755Y395800D01*
X765300*
X765573Y395988*
X765573D02*
X765845Y396363D01*
X765845D02*
X765982Y396738D01*
X768027Y399738D02*
X767755Y399550D01*
X767482Y399175*
X767345Y398800*
X767209Y398238*
X767209D02*
Y397300D01*
X767345Y396738*
X767345D02*
X767482Y396363D01*
X767482D02*
X767755Y395988D01*
X767755D02*
X768027Y395800D01*
X768573*
X768845Y395988*
X768845D02*
X769118Y396363D01*
X769118D02*
X769255Y396738D01*
X769255D02*
X769391Y397300D01*
Y398238*
X769391D02*
X769255Y398800D01*
X769118Y399175*
X768845Y399550*
X768573Y399738*
X768573D02*
X768027D01*
X770618D02*
Y395800D01*
Y399738D02*
X771573D01*
X771573D02*
X771982Y399550D01*
X772255Y399175*
X772391Y398800*
X772527Y398238*
X772527D02*
Y397300D01*
X772391Y396738*
X772391D02*
X772255Y396363D01*
X772255D02*
X771982Y395988D01*
X771982D02*
X771573Y395800D01*
X770618*
X773755Y399738D02*
Y395800D01*
Y399738D02*
X775527D01*
X773755Y397863D02*
X774845D01*
X773755Y395800D02*
X775527D01*
X776755Y399738D02*
Y395800D01*
Y399738D02*
X777982D01*
X777982D02*
X778391Y399550D01*
X778527Y399363*
X778527D02*
X778664Y398988D01*
X778664D02*
Y398613D01*
X778664D02*
X778527Y398238D01*
X778527D02*
X778391Y398050D01*
X777982Y397863*
X777982D02*
X776755D01*
X777709D02*
X778664Y395800D01*
X780027Y398800D02*
Y398988D01*
X780027D02*
X780164Y399363D01*
X780164D02*
X780300Y399550D01*
X780573Y399738*
X780573D02*
X781118D01*
X781118D02*
X781391Y399550D01*
X781527Y399363*
X781527D02*
X781664Y398988D01*
X781664D02*
Y398613D01*
X781664D02*
X781527Y398238D01*
X781527D02*
X781255Y397675D01*
X779891Y395800*
X781800*
X929600Y443538D02*
Y439600D01*
Y443538D02*
X931373D01*
X929600Y441663D02*
X930691D01*
X929600Y439600D02*
X931373D01*
X932600Y443538D02*
Y439600D01*
Y443538D02*
X934509Y439600D01*
Y443538D02*
Y439600D01*
X937782Y442600D02*
X937645Y442975D01*
X937373Y443350*
X937100Y443538*
X937100D02*
X936555D01*
X936555D02*
X936282Y443350D01*
X936009Y442975*
X935873Y442600*
X935736Y442038*
X935736D02*
Y441100D01*
X935873Y440538*
X935873D02*
X936009Y440163D01*
X936009D02*
X936282Y439788D01*
X936282D02*
X936555Y439600D01*
X937100*
X937373Y439788*
X937373D02*
X937645Y440163D01*
X937645D02*
X937782Y440538D01*
X939827Y443538D02*
X939555Y443350D01*
X939282Y442975*
X939145Y442600*
X939009Y442038*
X939009D02*
Y441100D01*
X939145Y440538*
X939145D02*
X939282Y440163D01*
X939282D02*
X939555Y439788D01*
X939555D02*
X939827Y439600D01*
X940373*
X940645Y439788*
X940645D02*
X940918Y440163D01*
X940918D02*
X941055Y440538D01*
X941055D02*
X941191Y441100D01*
Y442038*
X941191D02*
X941055Y442600D01*
X940918Y442975*
X940645Y443350*
X940373Y443538*
X940373D02*
X939827D01*
X942418D02*
Y439600D01*
Y443538D02*
X943373D01*
X943373D02*
X943782Y443350D01*
X944055Y442975*
X944191Y442600*
X944327Y442038*
X944327D02*
Y441100D01*
X944191Y440538*
X944191D02*
X944055Y440163D01*
X944055D02*
X943782Y439788D01*
X943782D02*
X943373Y439600D01*
X942418*
X945555Y443538D02*
Y439600D01*
Y443538D02*
X947327D01*
X945555Y441663D02*
X946645D01*
X945555Y439600D02*
X947327D01*
X948555Y443538D02*
Y439600D01*
Y443538D02*
X949782D01*
X949782D02*
X950191Y443350D01*
X950327Y443163*
X950327D02*
X950464Y442788D01*
X950464D02*
Y442413D01*
X950464D02*
X950327Y442038D01*
X950327D02*
X950191Y441850D01*
X949782Y441663*
X949782D02*
X948555D01*
X949509D02*
X950464Y439600D01*
X951964Y443538D02*
X953464D01*
X953464D02*
X952645Y442038D01*
X952645D02*
X953055D01*
X953055D02*
X953327Y441850D01*
X953464Y441663*
X953464D02*
X953600Y441100D01*
Y440725*
X953464Y440163*
X953464D02*
X953191Y439788D01*
X953191D02*
X952782Y439600D01*
X952373*
X951964Y439788*
X951964D02*
X951827Y439975D01*
X951691Y440350*
X928400Y399338D02*
Y395400D01*
Y399338D02*
X930173D01*
X928400Y397463D02*
X929491D01*
X928400Y395400D02*
X930173D01*
X931400Y399338D02*
Y395400D01*
Y399338D02*
X933309Y395400D01*
Y399338D02*
Y395400D01*
X936582Y398400D02*
X936445Y398775D01*
X936173Y399150*
X935900Y399338*
X935900D02*
X935355D01*
X935355D02*
X935082Y399150D01*
X934809Y398775*
X934673Y398400*
X934536Y397838*
X934536D02*
Y396900D01*
X934673Y396338*
X934673D02*
X934809Y395963D01*
X934809D02*
X935082Y395588D01*
X935082D02*
X935355Y395400D01*
X935900*
X936173Y395588*
X936173D02*
X936445Y395963D01*
X936445D02*
X936582Y396338D01*
X938627Y399338D02*
X938355Y399150D01*
X938082Y398775*
X937945Y398400*
X937809Y397838*
X937809D02*
Y396900D01*
X937945Y396338*
X937945D02*
X938082Y395963D01*
X938082D02*
X938355Y395588D01*
X938355D02*
X938627Y395400D01*
X939173*
X939445Y395588*
X939445D02*
X939718Y395963D01*
X939718D02*
X939855Y396338D01*
X939855D02*
X939991Y396900D01*
Y397838*
X939991D02*
X939855Y398400D01*
X939718Y398775*
X939445Y399150*
X939173Y399338*
X939173D02*
X938627D01*
X941218D02*
Y395400D01*
Y399338D02*
X942173D01*
X942173D02*
X942582Y399150D01*
X942855Y398775*
X942991Y398400*
X943127Y397838*
X943127D02*
Y396900D01*
X942991Y396338*
X942991D02*
X942855Y395963D01*
X942855D02*
X942582Y395588D01*
X942582D02*
X942173Y395400D01*
X941218*
X944355Y399338D02*
Y395400D01*
Y399338D02*
X946127D01*
X944355Y397463D02*
X945445D01*
X944355Y395400D02*
X946127D01*
X947355Y399338D02*
Y395400D01*
Y399338D02*
X948582D01*
X948582D02*
X948991Y399150D01*
X949127Y398963*
X949127D02*
X949264Y398588D01*
X949264D02*
Y398213D01*
X949264D02*
X949127Y397838D01*
X949127D02*
X948991Y397650D01*
X948582Y397463*
X948582D02*
X947355D01*
X948309D02*
X949264Y395400D01*
X951855Y399338D02*
X950491Y396713D01*
X950491D02*
X952536D01*
X951855Y399338D02*
Y395400D01*
X665945Y623300D02*
X665582Y623800D01*
X665036Y624050*
X664309*
X663764Y623800*
X663400Y623300*
Y622800*
X663582Y622300*
X663764Y622050*
X664127Y621800*
X665218Y621300*
X665582Y621050*
X665764Y620800*
X665945Y620300*
Y619550*
X665582Y619050*
X665036Y618800*
X664309*
X663764Y619050*
X663400Y619550*
X667582Y624050D02*
Y618800D01*
Y624050D02*
X669945D01*
X667582Y621550D02*
X669036D01*
X667582Y618800D02*
X669945D01*
X671582Y624050D02*
Y618800D01*
Y624050D02*
X673218D01*
X673764Y623800*
X673945Y623550*
X674127Y623050*
Y622550*
X673945Y622050*
X673764Y621800*
X673218Y621550*
X671582*
X672855D02*
X674127Y618800D01*
X675764Y624050D02*
X677218Y618800D01*
X678673Y624050D02*
X677218Y618800D01*
X681400Y624050D02*
X681036Y623800D01*
X680673Y623300*
X680491Y622800*
X680309Y622050*
Y620800*
X680491Y620050*
X680673Y619550*
X681036Y619050*
X681400Y618800*
X682127*
X682491Y619050*
X682855Y619550*
X683036Y620050*
X683218Y620800*
Y622050*
X683036Y622800*
X682855Y623300*
X682491Y623800*
X682127Y624050*
X681400*
X702645Y398225D02*
Y392600D01*
X700600Y395413D02*
X704691D01*
X662845Y414425D02*
Y408800D01*
X660800Y411613D02*
X664891D01*
X702845Y612225D02*
Y606600D01*
X700800Y609413D02*
X704891D01*
X982209Y457200D02*
X981982Y457825D01*
X981527Y458450*
X981073Y458763*
X981073D02*
X980164D01*
X980164D02*
X979709Y458450D01*
X979255Y457825*
X979027Y457200*
X978800Y456263*
X978800D02*
Y454700D01*
X979027Y453763*
X979027D02*
X979255Y453138D01*
X979255D02*
X979709Y452513D01*
X979709D02*
X980164Y452200D01*
X981073*
X981527Y452513*
X981527D02*
X981982Y453138D01*
X981982D02*
X982209Y453763D01*
X984709Y458763D02*
X987209D01*
X987209D02*
X985845Y456263D01*
X985845D02*
X986527D01*
X986527D02*
X986982Y455950D01*
X987209Y455638*
X987209D02*
X987436Y454700D01*
Y454075*
X987209Y453138*
X987209D02*
X986755Y452513D01*
X986755D02*
X986073Y452200D01*
X985391*
X984709Y452513*
X984709D02*
X984482Y452825D01*
X984255Y453450*
X989482Y457513D02*
X989936Y457825D01*
X990618Y458763*
X990618D02*
Y452200D01*
X982009Y446000D02*
X981782Y446625D01*
X981327Y447250*
X980873Y447563*
X980873D02*
X979964D01*
X979964D02*
X979509Y447250D01*
X979055Y446625*
X978827Y446000*
X978600Y445063*
X978600D02*
Y443500D01*
X978827Y442563*
X978827D02*
X979055Y441938D01*
X979055D02*
X979509Y441313D01*
X979509D02*
X979964Y441000D01*
X980873*
X981327Y441313*
X981327D02*
X981782Y441938D01*
X981782D02*
X982009Y442563D01*
X984282Y446000D02*
Y446313D01*
X984282D02*
X984509Y446938D01*
X984509D02*
X984736Y447250D01*
X985191Y447563*
X985191D02*
X986100D01*
X986100D02*
X986555Y447250D01*
X986782Y446938*
X986782D02*
X987009Y446313D01*
X987009D02*
Y445688D01*
X987009D02*
X986782Y445063D01*
X986782D02*
X986327Y444125D01*
X984055Y441000*
X987236*
X992464Y447563D02*
X990191Y441000D01*
X989282Y447563D02*
X992464D01*
X982009Y434000D02*
X981782Y434625D01*
X981327Y435250*
X980873Y435563*
X980873D02*
X979964D01*
X979964D02*
X979509Y435250D01*
X979055Y434625*
X978827Y434000*
X978600Y433063*
X978600D02*
Y431500D01*
X978827Y430563*
X978827D02*
X979055Y429938D01*
X979055D02*
X979509Y429313D01*
X979509D02*
X979964Y429000D01*
X980873*
X981327Y429313*
X981327D02*
X981782Y429938D01*
X981782D02*
X982009Y430563D01*
X984509Y435563D02*
X987009D01*
X987009D02*
X985645Y433063D01*
X985645D02*
X986327D01*
X986327D02*
X986782Y432750D01*
X987009Y432438*
X987009D02*
X987236Y431500D01*
Y430875*
X987009Y429938*
X987009D02*
X986555Y429313D01*
X986555D02*
X985873Y429000D01*
X985191*
X984509Y429313*
X984509D02*
X984282Y429625D01*
X984055Y430250*
X992009Y434625D02*
X991782Y435250D01*
X991100Y435563*
X991100D02*
X990645D01*
X990645D02*
X989964Y435250D01*
X989509Y434313*
X989509D02*
X989282Y432750D01*
Y431188*
X989282D02*
X989509Y429938D01*
X989509D02*
X989964Y429313D01*
X989964D02*
X990645Y429000D01*
X990873*
X991555Y429313*
X991555D02*
X992009Y429938D01*
X992009D02*
X992236Y430875D01*
Y431188*
X992236D02*
X992009Y432125D01*
X991555Y432750*
X990873Y433063*
X990873D02*
X990645D01*
X990645D02*
X989964Y432750D01*
X989509Y432125*
X989282Y431188*
X982409Y423600D02*
X982182Y424225D01*
X981727Y424850*
X981273Y425163*
X981273D02*
X980364D01*
X980364D02*
X979909Y424850D01*
X979455Y424225*
X979227Y423600*
X979000Y422663*
X979000D02*
Y421100D01*
X979227Y420163*
X979227D02*
X979455Y419538D01*
X979455D02*
X979909Y418913D01*
X979909D02*
X980364Y418600D01*
X981273*
X981727Y418913*
X981727D02*
X982182Y419538D01*
X982182D02*
X982409Y420163D01*
X986727Y425163D02*
X984455Y420788D01*
X984455D02*
X987864D01*
X986727Y425163D02*
Y418600D01*
X959800Y587963D02*
Y581400D01*
Y587963D02*
X961391D01*
X961391D02*
X962073Y587650D01*
X962527Y587025*
X962755Y586400*
X962982Y585463*
X962982D02*
Y583900D01*
X962755Y582963*
X962755D02*
X962527Y582338D01*
X962527D02*
X962073Y581713D01*
X962073D02*
X961391Y581400D01*
X959800*
X967300Y587963D02*
X965027Y583588D01*
X965027D02*
X968436D01*
X967300Y587963D02*
Y581400D01*
X977000Y588363D02*
Y581800D01*
Y588363D02*
X978591D01*
X978591D02*
X979273Y588050D01*
X979727Y587425*
X979955Y586800*
X980182Y585863*
X980182D02*
Y584300D01*
X979955Y583363*
X979955D02*
X979727Y582738D01*
X979727D02*
X979273Y582113D01*
X979273D02*
X978591Y581800D01*
X977000*
X982455Y586800D02*
Y587113D01*
X982455D02*
X982682Y587738D01*
X982682D02*
X982909Y588050D01*
X983364Y588363*
X983364D02*
X984273D01*
X984273D02*
X984727Y588050D01*
X984955Y587738*
X984955D02*
X985182Y587113D01*
X985182D02*
Y586488D01*
X985182D02*
X984955Y585863D01*
X984955D02*
X984500Y584925D01*
X982227Y581800*
X985409*
X990636Y588363D02*
X988364Y581800D01*
X987455Y588363D02*
X990636D01*
X671527Y614800D02*
X671345Y615300D01*
X670982Y615800*
X670618Y616050*
X669891*
X669527Y615800*
X669164Y615300*
X668982Y614800*
X668800Y614050*
Y612800*
X668982Y612050*
X669164Y611550*
X669527Y611050*
X669891Y610800*
X670618*
X670982Y611050*
X671345Y611550*
X671527Y612050*
X673527Y616050D02*
X675527D01*
X674436Y614050*
X674982*
X675345Y613800*
X675527Y613550*
X675709Y612800*
Y612300*
X675527Y611550*
X675164Y611050*
X674618Y610800*
X674073*
X673527Y611050*
X673345Y611300*
X673164Y611800*
X678436Y616050D02*
X677891Y615800D01*
X677527Y615050*
X677345Y613800*
Y613050*
X677527Y611800*
X677891Y611050*
X678436Y610800*
X678800*
X679345Y611050*
X679709Y611800*
X679891Y613050*
Y613800*
X679709Y615050*
X679345Y615800*
X678800Y616050*
X678436*
X845355Y413738D02*
Y409800D01*
X844400Y413738D02*
X846309D01*
X847536D02*
Y409800D01*
Y413738D02*
X849309D01*
X847536Y411863D02*
X848627D01*
X851491Y413738D02*
Y409800D01*
X850536Y413738D02*
X852445D01*
X856127Y414488D02*
X853673Y408487D01*
X857355Y413738D02*
Y409800D01*
X858582Y413738D02*
Y409800D01*
Y413738D02*
X859809D01*
X859809D02*
X860218Y413550D01*
X860355Y413363*
X860355D02*
X860491Y412988D01*
X860491D02*
Y412425D01*
X860355Y412050*
X860218Y411863*
X860218D02*
X859809Y411675D01*
X858582*
X863627Y413175D02*
X863355Y413550D01*
X862945Y413738*
X862945D02*
X862400D01*
X862400D02*
X861991Y413550D01*
X861718Y413175*
Y412800*
X861855Y412425*
X861991Y412238*
X861991D02*
X862264Y412050D01*
X863082Y411675*
X863355Y411488*
X863355D02*
X863491Y411300D01*
X863627Y410925*
Y410363*
X863627D02*
X863355Y409988D01*
X863355D02*
X862945Y409800D01*
X862400*
X861991Y409988*
X861991D02*
X861718Y410363D01*
X733000Y602250D02*
Y597000D01*
Y602250D02*
X734636D01*
X735182Y602000*
X735364Y601750*
X735545Y601250*
Y600750*
X735364Y600250*
X735182Y600000*
X734636Y599750*
X733000D02*
X734636D01*
X735182Y599500*
X735364Y599250*
X735545Y598750*
Y598000*
X735364Y597500*
X735182Y597250*
X734636Y597000*
X733000*
X737182Y602250D02*
Y597000D01*
X739364*
X741000Y602250D02*
Y598500D01*
X741182Y597750*
X741545Y597250*
X742091Y597000*
X742455*
X743000Y597250*
X743364Y597750*
X743545Y598500*
Y602250*
X745182D02*
Y597000D01*
Y602250D02*
X747545D01*
X745182Y599750D02*
X746636D01*
X745182Y597000D02*
X747545D01*
X750455Y602250D02*
Y597000D01*
X749182Y602250D02*
X751727D01*
X754455D02*
X754091Y602000D01*
X753727Y601500*
X753545Y601000*
X753364Y600250*
Y599000*
X753545Y598250*
X753727Y597750*
X754091Y597250*
X754455Y597000*
X755182*
X755545Y597250*
X755909Y597750*
X756091Y598250*
X756273Y599000*
Y600250*
X756091Y601000*
X755909Y601500*
X755545Y602000*
X755182Y602250*
X754455*
X759000D02*
X758636Y602000D01*
X758273Y601500*
X758091Y601000*
X757909Y600250*
Y599000*
X758091Y598250*
X758273Y597750*
X758636Y597250*
X759000Y597000*
X759727*
X760091Y597250*
X760455Y597750*
X760636Y598250*
X760818Y599000*
Y600250*
X760636Y601000*
X760455Y601500*
X760091Y602000*
X759727Y602250*
X759000*
X763727D02*
Y597000D01*
X762455Y602250D02*
X765000D01*
X766636D02*
Y597000D01*
X769182Y602250D02*
Y597000D01*
X766636Y599750D02*
X769182D01*
G54D41*
X602359Y453682D02*
Y463918D01*
X597241*
Y453682*
X602359*
X942882Y479941D02*
X953118D01*
Y485059*
X942882*
Y479941*
X763618Y493559D02*
X753382D01*
Y488441*
X763618*
Y493559*
X698159Y559500D02*
Y563118D01*
X693041*
Y559500*
X698159Y556500D02*
Y552882D01*
X693041*
Y556500*
X757000Y501059D02*
X753382D01*
Y495941*
X757000*
X760000Y501059D02*
X763618D01*
Y495941*
X760000*
X795559Y612882D02*
Y623118D01*
X790441*
Y612882*
X795559*
X797138Y613087D02*
X801862D01*
Y620000D02*
Y623913D01*
X797138*
Y620000*
Y617000D02*
Y612000D01*
X801862*
Y617000*
X803382Y524441D02*
X813618D01*
Y529559*
X803382*
Y524441*
Y531441D02*
X813618D01*
Y536559*
X803382*
Y531441*
Y538441D02*
X813618D01*
Y543559*
X803382*
Y538441*
X886059Y612382D02*
Y622618D01*
X880941*
Y612382*
X886059*
X887638Y612587D02*
X892362D01*
Y619500D02*
Y623413D01*
X887638*
Y619500*
Y616500D02*
Y611500D01*
X892362*
Y616500*
X928559Y593882D02*
Y604118D01*
X923441*
Y593882*
X928559*
X942882Y491941D02*
X953118D01*
Y497059*
X942882*
Y491941*
Y502941D02*
X953118D01*
Y508059*
X942882*
Y502941*
Y513941D02*
X953118D01*
Y519059*
X942882*
Y513941*
X943382Y541441D02*
X953618D01*
Y546559*
X943382*
Y541441*
Y555441D02*
X953618D01*
Y560559*
X943382*
Y555441*
X738059Y423382D02*
Y433618D01*
X732941*
Y423382*
X738059*
X735559Y560000D02*
Y563618D01*
X730441*
Y560000*
X735559Y557000D02*
Y553382D01*
X730441*
Y557000*
X735559Y525000D02*
Y528618D01*
X730441*
Y525000*
X735559Y522000D02*
Y518382D01*
X730441*
Y522000*
X698159Y525600D02*
Y529218D01*
X693041*
Y525600*
X698159Y522600D02*
Y518982D01*
X693041*
Y522600*
X725638Y423587D02*
X730362D01*
Y430500D02*
Y434413D01*
X725638*
Y430500*
Y427500D02*
Y422500D01*
X730362*
Y427500*
X713559Y598882D02*
Y609118D01*
X708441*
Y598882*
X713559*
X757000Y486559D02*
X753382D01*
Y481441*
X757000*
X760000Y486559D02*
X763618D01*
Y481441*
X760000*
X734959Y491000D02*
Y494618D01*
X729841*
Y491000*
X734959Y488000D02*
Y484382D01*
X729841*
Y488000*
X698059Y491000D02*
Y494618D01*
X692941*
Y491000*
X698059Y488000D02*
Y484382D01*
X692941*
Y488000*
X719252Y610850D02*
X707252D01*
X697874D02*
X687252D01*
X719252Y630142D02*
X687252D01*
X686559Y566000D02*
Y569618D01*
X681441*
Y566000*
X686559Y563000D02*
Y559382D01*
X681441*
Y563000*
X685559Y482000D02*
Y485618D01*
X680441*
Y482000*
X685559Y479000D02*
Y475382D01*
X680441*
Y479000*
X677862Y555913D02*
X673138D01*
Y549000D02*
Y545087D01*
X677862*
Y549000*
Y552000D02*
Y557000D01*
X673138*
Y552000*
X677862Y472413D02*
X673138D01*
Y465500D02*
Y461587D01*
X677862*
Y465500*
Y468500D02*
Y473500D01*
X673138*
Y468500*
X678059Y558882D02*
Y569118D01*
X672941*
Y558882*
X678059*
Y475382D02*
Y485618D01*
X672941*
Y475382*
X678059*
X656500Y578941D02*
X660118D01*
Y584059*
X656500*
X653500Y578941D02*
X649882D01*
Y584059*
X653500*
X656500Y491941D02*
X660118D01*
Y497059*
X656500*
X653500Y491941D02*
X649882D01*
Y497059*
X653500*
X649882Y498441D02*
X660118D01*
Y503559*
X649882*
Y498441*
X654359Y561582D02*
Y571818D01*
X649241*
Y561582*
X654359*
X654059Y479882D02*
Y490118D01*
X648941*
Y479882*
X654059*
X654118Y590559D02*
X643882D01*
Y585441*
X654118*
Y590559*
Y509859D02*
X643882D01*
Y504741*
X654118*
Y509859*
X643000Y561941D02*
X646618D01*
Y567059*
X643000*
X640000Y561941D02*
X636382D01*
Y567059*
X640000*
X643000Y479941D02*
X646618D01*
Y485059*
X643000*
X640000Y479941D02*
X636382D01*
Y485059*
X640000*
X650000Y608500D02*
X642000D01*
X646000Y612500D02*
Y604500D01*
X631882Y585441D02*
X642118D01*
Y590559*
X631882*
Y585441*
Y504741D02*
X642118D01*
Y509859*
X631882*
Y504741*
X630559Y565000D02*
Y568618D01*
X625441*
Y565000*
X630559Y562000D02*
Y558382D01*
X625441*
Y562000*
X630559Y483000D02*
Y486618D01*
X625441*
Y483000*
X630559Y480000D02*
Y476382D01*
X625441*
Y480000*
X623559Y565000D02*
Y568618D01*
X618441*
Y565000*
X623559Y562000D02*
Y558382D01*
X618441*
Y562000*
X623559Y483000D02*
Y486618D01*
X618441*
Y483000*
X623559Y480000D02*
Y476382D01*
X618441*
Y480000*
X940118Y485059D02*
X929882D01*
Y479941*
X940118*
Y485059*
Y519059D02*
X929882D01*
Y513941*
X940118*
Y519059*
Y508059D02*
X929882D01*
Y502941*
X940118*
Y508059*
Y497059D02*
X929882D01*
Y491941*
X940118*
Y497059*
G54D73*
X710268Y565587D02*
G03X710268I-492J0D01*
G01X805858Y522587D02*
G03X805858I-492J0D01*
G01X710268Y531587D02*
G03X710268I-492J0D01*
G01Y496587D02*
G03X710268I-492J0D01*
G01X647991Y582999D02*
G03X647991I-492J0D01*
G01Y500999D02*
G03X647991I-492J0D01*
G54D74*
G01X893500Y436000D02*
Y416000D01*
X813500*
Y436000*
X893500*
X603200Y540956D02*
Y536200D01*
X577200*
Y540956*
X712925Y564602D02*
X716075D01*
Y552398*
X712925*
Y564602*
X809500Y521406D02*
X812256D01*
Y518256*
X809500Y509594D02*
X812256D01*
Y512744*
X857311Y623000D02*
Y631000D01*
X808689*
Y623000*
X857311Y613000D02*
Y609500D01*
X849311*
X808689Y613000D02*
Y609500D01*
X816689*
X947311Y623000D02*
Y631000D01*
X898689*
Y623000*
X947311Y613000D02*
Y609500D01*
X939311*
X898689Y613000D02*
Y609500D01*
X906689*
X759667Y624500D02*
X730500D01*
Y604500*
X770500*
Y624500*
X740500*
X712925Y530602D02*
X716075D01*
Y518398*
X712925*
Y530602*
Y495602D02*
X716075D01*
Y483398*
X712925*
Y495602*
X687252Y630142D02*
Y610850D01*
X719252Y630142D02*
Y610850D01*
X707252D02*
Y613669D01*
X697874*
Y610850*
X634896Y574499D02*
X647101D01*
Y578499*
X634896*
Y574499*
Y492499D02*
X647101D01*
Y496499*
X634896*
Y492499*
X989000Y539000D02*
Y578500D01*
X962000*
Y539000*
X989000*
G54D75*
X700000Y522500D02*
Y517000D01*
X707000*
Y522500*
X700000Y526500D02*
Y531500D01*
X701000Y532500*
X704500*
X706000*
X707000Y531500*
Y526500*
X722000Y556500D02*
Y551000D01*
X729000*
Y556500*
X722000Y560500D02*
Y565500D01*
X723000Y566500*
X726500*
X728000*
X729000Y565500*
Y560500*
X722000Y521500D02*
Y516000D01*
X729000*
Y521500*
X722000Y525500D02*
Y530500D01*
X723000Y531500*
X726500*
X728000*
X729000Y530500*
Y525500*
X722000Y487500D02*
Y482000D01*
X729000*
Y487500*
X722000Y491500D02*
Y496500D01*
X723000Y497500*
X726500*
X728000*
X729000Y496500*
Y491500*
X700000Y556500D02*
Y551000D01*
X707000*
Y556500*
X700000Y560500D02*
Y565500D01*
X701000Y566500*
X704500*
X706000*
X707000Y565500*
Y560500*
X700000Y488000D02*
Y482500D01*
X707000*
Y488000*
X700000Y492000D02*
Y497000D01*
X701000Y498000*
X704500*
X706000*
X707000Y497000*
Y492000*
G54D76*
X695600Y558300D02*
Y558000D01*
Y557700*
X696500Y558000D02*
X694700D01*
X758200Y498500D02*
X758500D01*
X758800*
X758500Y499400D02*
Y497600D01*
X733000Y558800D02*
Y558500D01*
Y558200*
X733900Y558500D02*
X732100D01*
X733000Y523800D02*
Y523500D01*
Y523200*
X733900Y523500D02*
X732100D01*
X695600Y524400D02*
Y524100D01*
Y523800*
X696500Y524100D02*
X694700D01*
X758200Y484000D02*
X758500D01*
X758800*
X758500Y484900D02*
Y483100D01*
X732400Y489800D02*
Y489500D01*
Y489200*
X733300Y489500D02*
X731500D01*
X695500Y489800D02*
Y489500D01*
Y489200*
X696400Y489500D02*
X694600D01*
X684000Y564800D02*
Y564500D01*
Y564200*
X684900Y564500D02*
X683100D01*
X683000Y480800D02*
Y480500D01*
Y480200*
X683900Y480500D02*
X682100D01*
X687925Y576862D02*
Y574500D01*
X686744Y575697D02*
X689122D01*
X687925Y492362D02*
Y490000D01*
X686744Y491197D02*
X689122D01*
X655300Y581500D02*
X655000D01*
X654700*
X655000Y580600D02*
Y582400D01*
X655300Y494500D02*
X655000D01*
X654700*
X655000Y493600D02*
Y495400D01*
X641800Y564500D02*
X641500D01*
X641200*
X641500Y563600D02*
Y565400D01*
X641800Y482500D02*
X641500D01*
X641200*
X641500Y481600D02*
Y483400D01*
X628000Y563800D02*
Y563500D01*
Y563200*
X628900Y563500D02*
X627100D01*
X628000Y481800D02*
Y481500D01*
Y481200*
X628900Y481500D02*
X627100D01*
X621000Y563800D02*
Y563500D01*
Y563200*
X621900Y563500D02*
X620100D01*
X621000Y481800D02*
Y481500D01*
Y481200*
X621900Y481500D02*
X620100D01*
X626425Y576862D02*
Y574500D01*
X625244Y575697D02*
X627622D01*
X625925Y492362D02*
Y490000D01*
X624744Y491197D02*
X627122D01*
X577573Y498059D02*
X577345Y498372D01*
X577005Y498528*
X576550*
X576209Y498372*
X575982Y498059*
Y497747*
X576095Y497434*
X576209Y497278*
X576436Y497122*
X577118Y496809*
X577345Y496653*
X577459Y496497*
X577573Y496184*
Y495716*
X577345Y495403*
X577005Y495247*
X576550*
X576209Y495403*
X575982Y495716*
X578595Y497903D02*
X578823Y498059D01*
X579164Y498528*
Y495247*
X597882Y468528D02*
Y465247D01*
Y468528D02*
X598905D01*
X599245Y468372*
X599359Y468216*
X599473Y467903*
Y467591*
X599359Y467278*
X599245Y467122*
X598905Y466966*
X597882*
X598677D02*
X599473Y465247D01*
X600495Y467903D02*
X600723Y468059D01*
X601064Y468528*
Y465247*
X909434Y441328D02*
Y438828D01*
X909320Y438359*
X909207Y438203*
X908980Y438047*
X908752*
X908525Y438203*
X908411Y438359*
X908298Y438828*
Y439141*
X912048Y441328D02*
X910911Y438047D01*
X910457Y441328D02*
X912048D01*
X813777Y441528D02*
Y439028D01*
X813664Y438559*
X813550Y438403*
X813323Y438247*
X813095*
X812868Y438403*
X812755Y438559*
X812641Y439028*
Y439341*
X816277Y441528D02*
X815141D01*
X815027Y440122*
X815141Y440278*
X815482Y440434*
X815823*
X816164Y440278*
X816391Y439966*
X816505Y439497*
X816391Y439184*
X816277Y438716*
X816050Y438403*
X815709Y438247*
X815368*
X815027Y438403*
X814914Y438559*
X814800Y438872*
X701880Y536247D02*
X701766Y536559D01*
X701539Y536872*
X701311Y537028*
X700857*
X700630Y536872*
X700402Y536559*
X700289Y536247*
X700175Y535778*
Y534997*
X700289Y534528*
X700402Y534216*
X700630Y533903*
X700857Y533747*
X701311*
X701539Y533903*
X701766Y534216*
X701880Y534528*
X702902Y536403D02*
X703130Y536559D01*
X703470Y537028*
Y533747*
X705970Y535934D02*
X705857Y535466D01*
X705630Y535153*
X705289Y534997*
X705175*
X704834Y535153*
X704607Y535466*
X704493Y535934*
Y536091*
X704607Y536559*
X704834Y536872*
X705175Y537028*
X705289*
X705630Y536872*
X705857Y536559*
X705970Y535934*
Y535153*
X705857Y534372*
X705630Y533903*
X705289Y533747*
X705061*
X704720Y533903*
X704607Y534216*
X958318Y482859D02*
X958091Y483172D01*
X957750Y483328*
X957295*
X956955Y483172*
X956727Y482859*
Y482547*
X956841Y482234*
X956955Y482078*
X957182Y481922*
X957864Y481609*
X958091Y481453*
X958205Y481297*
X958318Y480984*
Y480516*
X958091Y480203*
X957750Y480047*
X957295*
X956955Y480203*
X956727Y480516*
X960705Y482859D02*
X960591Y483172D01*
X960250Y483328*
X960023*
X959682Y483172*
X959455Y482703*
X959341Y481922*
Y481141*
X959455Y480516*
X959682Y480203*
X960023Y480047*
X960136*
X960477Y480203*
X960705Y480516*
X960818Y480984*
Y481141*
X960705Y481609*
X960477Y481922*
X960136Y482078*
X960023*
X959682Y481922*
X959455Y481609*
X959341Y481141*
X944864Y489328D02*
Y486047D01*
Y489328D02*
X945886D01*
X946227Y489172*
X946341Y489016*
X946455Y488703*
Y488391*
X946341Y488078*
X946227Y487922*
X945886Y487766*
X944864*
X945659D02*
X946455Y486047D01*
X947705Y489328D02*
X948955D01*
X948273Y488078*
X948614*
X948841Y487922*
X948955Y487766*
X949068Y487297*
Y486984*
X948955Y486516*
X948727Y486203*
X948386Y486047*
X948045*
X947705Y486203*
X947591Y486359*
X947477Y486672*
X950773Y489328D02*
X950432Y489172D01*
X950205Y488703*
X950091Y487922*
Y487453*
X950205Y486672*
X950432Y486203*
X950773Y486047*
X951000*
X951341Y486203*
X951568Y486672*
X951682Y487453*
Y487922*
X951568Y488703*
X951341Y489172*
X951000Y489328*
X950773*
X712614Y569528D02*
Y567184D01*
X712727Y566716*
X712955Y566403*
X713295Y566247*
X713523*
X713864Y566403*
X714091Y566716*
X714205Y567184*
Y569528*
X716364D02*
X715227Y567341D01*
X716932*
X716364Y569528D02*
Y566247D01*
X722223Y570247D02*
X722109Y570559D01*
X721882Y570872*
X721655Y571028*
X721200*
X720973Y570872*
X720745Y570559*
X720632Y570247*
X720518Y569778*
Y568997*
X720632Y568528*
X720745Y568216*
X720973Y567903*
X721200Y567747*
X721655*
X721882Y567903*
X722109Y568216*
X722223Y568528*
X723359Y570247D02*
Y570403D01*
X723473Y570716*
X723586Y570872*
X723814Y571028*
X724268*
X724495Y570872*
X724609Y570716*
X724723Y570403*
Y570091*
X724609Y569778*
X724382Y569309*
X723245Y567747*
X724836*
X725859Y570403D02*
X726086Y570559D01*
X726427Y571028*
Y567747*
X745118Y492128D02*
Y488847D01*
Y492128D02*
X746141D01*
X746482Y491972*
X746595Y491816*
X746709Y491503*
Y491191*
X746595Y490878*
X746482Y490722*
X746141Y490566*
X745118*
X745914D02*
X746709Y488847D01*
X747732Y491503D02*
X747959Y491659D01*
X748300Y492128*
Y488847*
X750459Y492128D02*
X749323Y489941D01*
X751027*
X750459Y492128D02*
Y488847D01*
X696447Y569734D02*
X696759Y569848D01*
X697072Y570075*
X697228Y570302*
Y570757*
X697072Y570984*
X696759Y571211*
X696447Y571325*
X695978Y571439*
X695197*
X694728Y571325*
X694416Y571211*
X694103Y570984*
X693947Y570757*
Y570302*
X694103Y570075*
X694416Y569848*
X694728Y569734*
X696603Y568711D02*
X696759Y568484D01*
X697228Y568143*
X693947*
X697228Y565643D02*
Y566780D01*
X695822Y566893*
X695978Y566780*
X696134Y566439*
Y566098*
X695978Y565757*
X695666Y565530*
X695197Y565416*
X694884Y565530*
X694416Y565643*
X694103Y565870*
X693947Y566211*
Y566552*
X694103Y566893*
X694259Y567007*
X694572Y567120*
X746011Y499347D02*
X745898Y499659D01*
X745670Y499972*
X745443Y500128*
X744989*
X744761Y499972*
X744534Y499659*
X744420Y499347*
X744307Y498878*
Y498097*
X744420Y497628*
X744534Y497316*
X744761Y497003*
X744989Y496847*
X745443*
X745670Y497003*
X745898Y497316*
X746011Y497628*
X747148Y499347D02*
Y499503D01*
X747261Y499816*
X747375Y499972*
X747602Y500128*
X748057*
X748284Y499972*
X748398Y499816*
X748511Y499503*
Y499191*
X748398Y498878*
X748170Y498409*
X747034Y496847*
X748625*
X751239Y500128D02*
X750102Y496847D01*
X749648Y500128D02*
X751239D01*
X753634Y421328D02*
Y418828D01*
X753520Y418359*
X753407Y418203*
X753180Y418047*
X752952*
X752725Y418203*
X752611Y418359*
X752498Y418828*
Y419141*
X754770Y420547D02*
Y420703D01*
X754884Y421016*
X754998Y421172*
X755225Y421328*
X755680*
X755907Y421172*
X756020Y421016*
X756134Y420703*
Y420391*
X756020Y420078*
X755793Y419609*
X754657Y418047*
X756248*
X788918Y628628D02*
Y625347D01*
Y628628D02*
X789941D01*
X790282Y628472*
X790395Y628316*
X790509Y628003*
Y627691*
X790395Y627378*
X790282Y627222*
X789941Y627066*
X788918*
X789714D02*
X790509Y625347D01*
X791532Y628003D02*
X791759Y628159D01*
X792100Y628628*
Y625347*
X794600Y628628D02*
X793464D01*
X793350Y627222*
X793464Y627378*
X793805Y627534*
X794145*
X794486Y627378*
X794714Y627066*
X794827Y626597*
X794714Y626284*
X794600Y625816*
X794373Y625503*
X794032Y625347*
X793691*
X793350Y625503*
X793236Y625659*
X793123Y625972*
X797114Y628628D02*
Y625347D01*
Y628628D02*
X797909D01*
X798250Y628472*
X798477Y628159*
X798591Y627847*
X798705Y627378*
Y626597*
X798591Y626128*
X798477Y625816*
X798250Y625503*
X797909Y625347*
X797114*
X800864Y628628D02*
X799727Y626441D01*
X801432*
X800864Y628628D02*
Y625347D01*
X803675Y397528D02*
X805266Y394247D01*
Y397528D02*
X803675Y394247D01*
X806289Y397528D02*
Y394247D01*
X807880Y397528D02*
Y394247D01*
X806289Y395966D02*
X807880D01*
X808902Y396903D02*
X809130Y397059D01*
X809470Y397528*
Y394247*
X796275Y528328D02*
Y525047D01*
Y528328D02*
X797298D01*
X797639Y528172*
X797752Y528016*
X797866Y527703*
Y527391*
X797752Y527078*
X797639Y526922*
X797298Y526766*
X796275*
X797070D02*
X797866Y525047D01*
X798889Y527703D02*
X799116Y527859D01*
X799457Y528328*
Y525047*
X801048Y528328D02*
X800707Y528172D01*
X800593Y527859*
Y527547*
X800707Y527234*
X800934Y527078*
X801389Y526922*
X801730Y526766*
X801957Y526453*
X802070Y526141*
Y525672*
X801957Y525359*
X801843Y525203*
X801502Y525047*
X801048*
X800707Y525203*
X800593Y525359*
X800480Y525672*
Y526141*
X800593Y526453*
X800820Y526766*
X801161Y526922*
X801616Y527078*
X801843Y527234*
X801957Y527547*
Y527859*
X801843Y528172*
X801502Y528328*
X801048*
X796275Y535528D02*
Y532247D01*
Y535528D02*
X797298D01*
X797639Y535372*
X797752Y535216*
X797866Y534903*
Y534591*
X797752Y534278*
X797639Y534122*
X797298Y533966*
X796275*
X797070D02*
X797866Y532247D01*
X798889Y534903D02*
X799116Y535059D01*
X799457Y535528*
Y532247*
X802070Y535528D02*
X800934Y532247D01*
X800480Y535528D02*
X802070D01*
X796132Y542128D02*
Y538847D01*
Y542128D02*
X797155D01*
X797495Y541972*
X797609Y541816*
X797723Y541503*
Y541191*
X797609Y540878*
X797495Y540722*
X797155Y540566*
X796132*
X796927D02*
X797723Y538847D01*
X798745Y541503D02*
X798973Y541659D01*
X799314Y542128*
Y538847*
X801700Y541659D02*
X801586Y541972D01*
X801245Y542128*
X801018*
X800677Y541972*
X800450Y541503*
X800336Y540722*
Y539941*
X800450Y539316*
X800677Y539003*
X801018Y538847*
X801132*
X801473Y539003*
X801700Y539316*
X801814Y539784*
Y539941*
X801700Y540409*
X801473Y540722*
X801132Y540878*
X801018*
X800677Y540722*
X800450Y540409*
X800336Y539941*
X797250Y517328D02*
X797023Y517172D01*
X796795Y516859*
X796682Y516547*
X796568Y516078*
Y515297*
X796682Y514828*
X796795Y514516*
X797023Y514203*
X797250Y514047*
X797705*
X797932Y514203*
X798159Y514516*
X798273Y514828*
X798386Y515297*
Y516078*
X798273Y516547*
X798159Y516859*
X797932Y517172*
X797705Y517328*
X797250*
X797591Y514672D02*
X798273Y513734D01*
X799409Y516703D02*
X799636Y516859D01*
X799977Y517328*
Y514047*
X820782Y546928D02*
Y543647D01*
Y546928D02*
X821805D01*
X822145Y546772*
X822259Y546616*
X822373Y546303*
Y545991*
X822259Y545678*
X822145Y545522*
X821805Y545366*
X820782D02*
X821805D01*
X822145Y545209*
X822259Y545053*
X822373Y544741*
Y544272*
X822259Y543959*
X822145Y543803*
X821805Y543647*
X820782*
X823395Y546303D02*
X823623Y546459D01*
X823964Y546928*
Y543647*
X804977Y608528D02*
Y606028D01*
X804864Y605559*
X804750Y605403*
X804523Y605247*
X804295*
X804068Y605403*
X803955Y605559*
X803841Y606028*
Y606341*
X807136Y608528D02*
X806000Y606341D01*
X807705*
X807136Y608528D02*
Y605247D01*
X879432Y628028D02*
Y624747D01*
Y628028D02*
X880455D01*
X880795Y627872*
X880909Y627716*
X881023Y627403*
Y627091*
X880909Y626778*
X880795Y626622*
X880455Y626466*
X879432*
X880227D02*
X881023Y624747D01*
X882045Y627403D02*
X882273Y627559D01*
X882614Y628028*
Y624747*
X885114Y626934D02*
X885000Y626466D01*
X884773Y626153*
X884432Y625997*
X884318*
X883977Y626153*
X883750Y626466*
X883636Y626934*
Y627091*
X883750Y627559*
X883977Y627872*
X884318Y628028*
X884432*
X884773Y627872*
X885000Y627559*
X885114Y626934*
Y626153*
X885000Y625372*
X884773Y624903*
X884432Y624747*
X884205*
X883864Y624903*
X883750Y625216*
X887914Y628428D02*
Y625147D01*
Y628428D02*
X888709D01*
X889050Y628272*
X889277Y627959*
X889391Y627647*
X889505Y627178*
Y626397*
X889391Y625928*
X889277Y625616*
X889050Y625303*
X888709Y625147*
X887914*
X892005Y628428D02*
X890868D01*
X890755Y627022*
X890868Y627178*
X891209Y627334*
X891550*
X891891Y627178*
X892118Y626866*
X892232Y626397*
X892118Y626084*
X892005Y625616*
X891777Y625303*
X891436Y625147*
X891095*
X890755Y625303*
X890641Y625459*
X890527Y625772*
X929264Y600428D02*
Y597147D01*
Y600428D02*
X930286D01*
X930627Y600272*
X930741Y600116*
X930855Y599803*
Y599491*
X930741Y599178*
X930627Y599022*
X930286Y598866*
X929264*
X930059D02*
X930855Y597147D01*
X931991Y599647D02*
Y599803D01*
X932105Y600116*
X932218Y600272*
X932445Y600428*
X932900*
X933127Y600272*
X933241Y600116*
X933355Y599803*
Y599491*
X933241Y599178*
X933014Y598709*
X931877Y597147*
X933468*
X935173Y600428D02*
X934832Y600272D01*
X934605Y599803*
X934491Y599022*
Y598553*
X934605Y597772*
X934832Y597303*
X935173Y597147*
X935400*
X935741Y597303*
X935968Y597772*
X936082Y598553*
Y599022*
X935968Y599803*
X935741Y600272*
X935400Y600428*
X935173*
X909234Y398728D02*
Y396228D01*
X909120Y395759*
X909007Y395603*
X908780Y395447*
X908552*
X908325Y395603*
X908211Y395759*
X908098Y396228*
Y396541*
X910825Y398728D02*
X910484Y398572D01*
X910370Y398259*
Y397947*
X910484Y397634*
X910711Y397478*
X911166Y397322*
X911507Y397166*
X911734Y396853*
X911848Y396541*
Y396072*
X911734Y395759*
X911620Y395603*
X911280Y395447*
X910825*
X910484Y395603*
X910370Y395759*
X910257Y396072*
Y396541*
X910370Y396853*
X910598Y397166*
X910939Y397322*
X911393Y397478*
X911620Y397634*
X911734Y397947*
Y398259*
X911620Y398572*
X911280Y398728*
X910825*
X897891Y607928D02*
Y605428D01*
X897777Y604959*
X897664Y604803*
X897436Y604647*
X897209*
X896982Y604803*
X896868Y604959*
X896755Y605428*
Y605741*
X900277Y607459D02*
X900164Y607772D01*
X899823Y607928*
X899595*
X899255Y607772*
X899027Y607303*
X898914Y606522*
Y605741*
X899027Y605116*
X899255Y604803*
X899595Y604647*
X899709*
X900050Y604803*
X900277Y605116*
X900391Y605584*
Y605741*
X900277Y606209*
X900050Y606522*
X899709Y606678*
X899595*
X899255Y606522*
X899027Y606209*
X898914Y605741*
X944420Y501328D02*
Y498047D01*
Y501328D02*
X945443D01*
X945784Y501172*
X945898Y501016*
X946011Y500703*
Y500391*
X945898Y500078*
X945784Y499922*
X945443Y499766*
X944420*
X945216D02*
X946011Y498047D01*
X947148Y500547D02*
Y500703D01*
X947261Y501016*
X947375Y501172*
X947602Y501328*
X948057*
X948284Y501172*
X948398Y501016*
X948511Y500703*
Y500391*
X948398Y500078*
X948170Y499609*
X947034Y498047*
X948625*
X951125Y500234D02*
X951011Y499766D01*
X950784Y499453*
X950443Y499297*
X950330*
X949989Y499453*
X949761Y499766*
X949648Y500234*
Y500391*
X949761Y500859*
X949989Y501172*
X950330Y501328*
X950443*
X950784Y501172*
X951011Y500859*
X951125Y500234*
Y499453*
X951011Y498672*
X950784Y498203*
X950443Y498047*
X950216*
X949875Y498203*
X949761Y498516*
X944364Y512828D02*
Y509547D01*
Y512828D02*
X945386D01*
X945727Y512672*
X945841Y512516*
X945955Y512203*
Y511891*
X945841Y511578*
X945727Y511422*
X945386Y511266*
X944364*
X945159D02*
X945955Y509547D01*
X947091Y512047D02*
Y512203D01*
X947205Y512516*
X947318Y512672*
X947545Y512828*
X948000*
X948227Y512672*
X948341Y512516*
X948455Y512203*
Y511891*
X948341Y511578*
X948114Y511109*
X946977Y509547*
X948568*
X950159Y512828D02*
X949818Y512672D01*
X949705Y512359*
Y512047*
X949818Y511734*
X950045Y511578*
X950500Y511422*
X950841Y511266*
X951068Y510953*
X951182Y510641*
Y510172*
X951068Y509859*
X950955Y509703*
X950614Y509547*
X950159*
X949818Y509703*
X949705Y509859*
X949591Y510172*
Y510641*
X949705Y510953*
X949932Y511266*
X950273Y511422*
X950727Y511578*
X950955Y511734*
X951068Y512047*
Y512359*
X950955Y512672*
X950614Y512828*
X950159*
X944864Y523828D02*
Y520547D01*
Y523828D02*
X945886D01*
X946227Y523672*
X946341Y523516*
X946455Y523203*
Y522891*
X946341Y522578*
X946227Y522422*
X945886Y522266*
X944864*
X945659D02*
X946455Y520547D01*
X947591Y523047D02*
Y523203D01*
X947705Y523516*
X947818Y523672*
X948045Y523828*
X948500*
X948727Y523672*
X948841Y523516*
X948955Y523203*
Y522891*
X948841Y522578*
X948614Y522109*
X947477Y520547*
X949068*
X951682Y523828D02*
X950545Y520547D01*
X950091Y523828D02*
X951682D01*
X944920Y550828D02*
Y547547D01*
Y550828D02*
X945943D01*
X946284Y550672*
X946398Y550516*
X946511Y550203*
Y549891*
X946398Y549578*
X946284Y549422*
X945943Y549266*
X944920*
X945716D02*
X946511Y547547D01*
X947648Y550047D02*
Y550203D01*
X947761Y550516*
X947875Y550672*
X948102Y550828*
X948557*
X948784Y550672*
X948898Y550516*
X949011Y550203*
Y549891*
X948898Y549578*
X948670Y549109*
X947534Y547547*
X949125*
X951511Y550359D02*
X951398Y550672D01*
X951057Y550828*
X950830*
X950489Y550672*
X950261Y550203*
X950148Y549422*
Y548641*
X950261Y548016*
X950489Y547703*
X950830Y547547*
X950943*
X951284Y547703*
X951511Y548016*
X951625Y548484*
Y548641*
X951511Y549109*
X951284Y549422*
X950943Y549578*
X950830*
X950489Y549422*
X950261Y549109*
X950148Y548641*
X945307Y564828D02*
Y561547D01*
Y564828D02*
X946330D01*
X946670Y564672*
X946784Y564516*
X946898Y564203*
Y563891*
X946784Y563578*
X946670Y563422*
X946330Y563266*
X945307*
X946102D02*
X946898Y561547D01*
X948034Y564047D02*
Y564203D01*
X948148Y564516*
X948261Y564672*
X948489Y564828*
X948943*
X949170Y564672*
X949284Y564516*
X949398Y564203*
Y563891*
X949284Y563578*
X949057Y563109*
X947920Y561547*
X949511*
X952011Y564828D02*
X950875D01*
X950761Y563422*
X950875Y563578*
X951216Y563734*
X951557*
X951898Y563578*
X952125Y563266*
X952239Y562797*
X952125Y562484*
X952011Y562016*
X951784Y561703*
X951443Y561547*
X951102*
X950761Y561703*
X950648Y561859*
X950534Y562172*
X957705Y498359D02*
X957477Y498672D01*
X957136Y498828*
X956682*
X956341Y498672*
X956114Y498359*
Y498047*
X956227Y497734*
X956341Y497578*
X956568Y497422*
X957250Y497109*
X957477Y496953*
X957591Y496797*
X957705Y496484*
Y496016*
X957477Y495703*
X957136Y495547*
X956682*
X956341Y495703*
X956114Y496016*
X960205Y498828D02*
X959068D01*
X958955Y497422*
X959068Y497578*
X959409Y497734*
X959750*
X960091Y497578*
X960318Y497266*
X960432Y496797*
X960318Y496484*
X960205Y496016*
X959977Y495703*
X959636Y495547*
X959295*
X958955Y495703*
X958841Y495859*
X958727Y496172*
X958205Y514859D02*
X957977Y515172D01*
X957636Y515328*
X957182*
X956841Y515172*
X956614Y514859*
Y514547*
X956727Y514234*
X956841Y514078*
X957068Y513922*
X957750Y513609*
X957977Y513453*
X958091Y513297*
X958205Y512984*
Y512516*
X957977Y512203*
X957636Y512047*
X957182*
X956841Y512203*
X956614Y512516*
X960364Y515328D02*
X959227Y513141D01*
X960932*
X960364Y515328D02*
Y512047D01*
X958261Y532359D02*
X958034Y532672D01*
X957693Y532828*
X957239*
X956898Y532672*
X956670Y532359*
Y532047*
X956784Y531734*
X956898Y531578*
X957125Y531422*
X957807Y531109*
X958034Y530953*
X958148Y530797*
X958261Y530484*
Y530016*
X958034Y529703*
X957693Y529547*
X957239*
X956898Y529703*
X956670Y530016*
X959511Y532828D02*
X960761D01*
X960080Y531578*
X960420*
X960648Y531422*
X960761Y531266*
X960875Y530797*
Y530484*
X960761Y530016*
X960534Y529703*
X960193Y529547*
X959852*
X959511Y529703*
X959398Y529859*
X959284Y530172*
X737234Y398928D02*
Y396428D01*
X737120Y395959*
X737007Y395803*
X736780Y395647*
X736552*
X736325Y395803*
X736211Y395959*
X736098Y396428*
Y396741*
X738484Y398928D02*
X739734D01*
X739052Y397678*
X739393*
X739620Y397522*
X739734Y397366*
X739848Y396897*
Y396584*
X739734Y396116*
X739507Y395803*
X739166Y395647*
X738825*
X738484Y395803*
X738370Y395959*
X738257Y396272*
X732775Y440028D02*
Y436747D01*
Y440028D02*
X733798D01*
X734139Y439872*
X734252Y439716*
X734366Y439403*
Y439091*
X734252Y438778*
X734139Y438622*
X733798Y438466*
X732775*
X733570D02*
X734366Y436747D01*
X735389Y439403D02*
X735616Y439559D01*
X735957Y440028*
Y436747*
X737207Y440028D02*
X738457D01*
X737775Y438778*
X738116*
X738343Y438622*
X738457Y438466*
X738570Y437997*
Y437684*
X738457Y437216*
X738230Y436903*
X737889Y436747*
X737548*
X737207Y436903*
X737093Y437059*
X736980Y437372*
X726545Y615528D02*
Y613028D01*
X726432Y612559*
X726318Y612403*
X726091Y612247*
X725864*
X725636Y612403*
X725523Y612559*
X725409Y613028*
Y613341*
X727568Y614903D02*
X727795Y615059D01*
X728136Y615528*
Y612247*
X730155Y569847D02*
X730041Y570159D01*
X729814Y570472*
X729586Y570628*
X729132*
X728905Y570472*
X728677Y570159*
X728564Y569847*
X728450Y569378*
Y568597*
X728564Y568128*
X728677Y567816*
X728905Y567503*
X729132Y567347*
X729586*
X729814Y567503*
X730041Y567816*
X730155Y568128*
X731291Y569847D02*
Y570003D01*
X731405Y570316*
X731518Y570472*
X731745Y570628*
X732200*
X732427Y570472*
X732541Y570316*
X732655Y570003*
Y569691*
X732541Y569378*
X732314Y568909*
X731177Y567347*
X732768*
X734927Y570628D02*
X733791Y568441D01*
X735495*
X734927Y570628D02*
Y567347D01*
X731855Y534447D02*
X731741Y534759D01*
X731514Y535072*
X731286Y535228*
X730832*
X730605Y535072*
X730377Y534759*
X730264Y534447*
X730150Y533978*
Y533197*
X730264Y532728*
X730377Y532416*
X730605Y532103*
X730832Y531947*
X731286*
X731514Y532103*
X731741Y532416*
X731855Y532728*
X732991Y534447D02*
Y534603D01*
X733105Y534916*
X733218Y535072*
X733445Y535228*
X733900*
X734127Y535072*
X734241Y534916*
X734355Y534603*
Y534291*
X734241Y533978*
X734014Y533509*
X732877Y531947*
X734468*
X736968Y535228D02*
X735832D01*
X735718Y533822*
X735832Y533978*
X736173Y534134*
X736514*
X736855Y533978*
X737082Y533666*
X737195Y533197*
X737082Y532884*
X736968Y532416*
X736741Y532103*
X736400Y531947*
X736059*
X735718Y532103*
X735605Y532259*
X735491Y532572*
X695180Y535647D02*
X695066Y535959D01*
X694839Y536272*
X694611Y536428*
X694157*
X693930Y536272*
X693702Y535959*
X693589Y535647*
X693475Y535178*
Y534397*
X693589Y533928*
X693702Y533616*
X693930Y533303*
X694157Y533147*
X694611*
X694839Y533303*
X695066Y533616*
X695180Y533928*
X696202Y535803D02*
X696430Y535959D01*
X696770Y536428*
Y533147*
X699157Y535959D02*
X699043Y536272D01*
X698702Y536428*
X698475*
X698134Y536272*
X697907Y535803*
X697793Y535022*
Y534241*
X697907Y533616*
X698134Y533303*
X698475Y533147*
X698589*
X698930Y533303*
X699157Y533616*
X699270Y534084*
Y534241*
X699157Y534709*
X698930Y535022*
X698589Y535178*
X698475*
X698134Y535022*
X697907Y534709*
X697793Y534241*
X725370Y439728D02*
Y436447D01*
Y439728D02*
X726166D01*
X726507Y439572*
X726734Y439259*
X726848Y438947*
X726961Y438478*
Y437697*
X726848Y437228*
X726734Y436916*
X726507Y436603*
X726166Y436447*
X725370*
X728211Y439728D02*
X729461D01*
X728780Y438478*
X729120*
X729348Y438322*
X729461Y438166*
X729575Y437697*
Y437384*
X729461Y436916*
X729234Y436603*
X728893Y436447*
X728552*
X728211Y436603*
X728098Y436759*
X727984Y437072*
X723211Y534747D02*
X723098Y535059D01*
X722870Y535372*
X722643Y535528*
X722189*
X721961Y535372*
X721734Y535059*
X721620Y534747*
X721507Y534278*
Y533497*
X721620Y533028*
X721734Y532716*
X721961Y532403*
X722189Y532247*
X722643*
X722870Y532403*
X723098Y532716*
X723211Y533028*
X724348Y534747D02*
Y534903D01*
X724461Y535216*
X724575Y535372*
X724802Y535528*
X725257*
X725484Y535372*
X725598Y535216*
X725711Y534903*
Y534591*
X725598Y534278*
X725370Y533809*
X724234Y532247*
X725825*
X726961Y534747D02*
Y534903D01*
X727075Y535216*
X727189Y535372*
X727416Y535528*
X727870*
X728098Y535372*
X728211Y535216*
X728325Y534903*
Y534591*
X728211Y534278*
X727984Y533809*
X726848Y532247*
X728439*
X723111Y500847D02*
X722998Y501159D01*
X722770Y501472*
X722543Y501628*
X722089*
X721861Y501472*
X721634Y501159*
X721520Y500847*
X721407Y500378*
Y499597*
X721520Y499128*
X721634Y498816*
X721861Y498503*
X722089Y498347*
X722543*
X722770Y498503*
X722998Y498816*
X723111Y499128*
X724248Y500847D02*
Y501003D01*
X724361Y501316*
X724475Y501472*
X724702Y501628*
X725157*
X725384Y501472*
X725498Y501316*
X725611Y501003*
Y500691*
X725498Y500378*
X725270Y499909*
X724134Y498347*
X725725*
X726975Y501628D02*
X728225D01*
X727543Y500378*
X727884*
X728111Y500222*
X728225Y500066*
X728339Y499597*
Y499284*
X728225Y498816*
X727998Y498503*
X727657Y498347*
X727316*
X726975Y498503*
X726861Y498659*
X726748Y498972*
X700575Y604228D02*
Y600947D01*
Y604228D02*
X701598D01*
X701939Y604072*
X702052Y603916*
X702166Y603603*
Y603291*
X702052Y602978*
X701939Y602822*
X701598Y602666*
X700575*
X701370D02*
X702166Y600947D01*
X703189Y603603D02*
X703416Y603759D01*
X703757Y604228*
Y600947*
X704893Y603447D02*
Y603603D01*
X705007Y603916*
X705120Y604072*
X705348Y604228*
X705802*
X706030Y604072*
X706143Y603916*
X706257Y603603*
Y603291*
X706143Y602978*
X705916Y602509*
X704780Y600947*
X706370*
X712614Y534728D02*
Y532384D01*
X712727Y531916*
X712955Y531603*
X713295Y531447*
X713523*
X713864Y531603*
X714091Y531916*
X714205Y532384*
Y534728*
X716705D02*
X715568D01*
X715455Y533322*
X715568Y533478*
X715909Y533634*
X716250*
X716591Y533478*
X716818Y533166*
X716932Y532697*
X716818Y532384*
X716705Y531916*
X716477Y531603*
X716136Y531447*
X715795*
X715455Y531603*
X715341Y531759*
X715227Y532072*
X712727Y499928D02*
Y497584D01*
X712841Y497116*
X713068Y496803*
X713409Y496647*
X713636*
X713977Y496803*
X714205Y497116*
X714318Y497584*
Y499928*
X716705Y499459D02*
X716591Y499772D01*
X716250Y499928*
X716023*
X715682Y499772*
X715455Y499303*
X715341Y498522*
Y497741*
X715455Y497116*
X715682Y496803*
X716023Y496647*
X716136*
X716477Y496803*
X716705Y497116*
X716818Y497584*
Y497741*
X716705Y498209*
X716477Y498522*
X716136Y498678*
X716023*
X715682Y498522*
X715455Y498209*
X715341Y497741*
X701723Y570247D02*
X701609Y570559D01*
X701382Y570872*
X701155Y571028*
X700700*
X700473Y570872*
X700245Y570559*
X700132Y570247*
X700018Y569778*
Y568997*
X700132Y568528*
X700245Y568216*
X700473Y567903*
X700700Y567747*
X701155*
X701382Y567903*
X701609Y568216*
X701723Y568528*
X702745Y570403D02*
X702973Y570559D01*
X703314Y571028*
Y567747*
X704905Y571028D02*
X704564Y570872D01*
X704450Y570559*
Y570247*
X704564Y569934*
X704791Y569778*
X705245Y569622*
X705586Y569466*
X705814Y569153*
X705927Y568841*
Y568372*
X705814Y568059*
X705700Y567903*
X705359Y567747*
X704905*
X704564Y567903*
X704450Y568059*
X704336Y568372*
Y568841*
X704450Y569153*
X704677Y569466*
X705018Y569622*
X705473Y569778*
X705700Y569934*
X705814Y570247*
Y570559*
X705700Y570872*
X705359Y571028*
X704905*
X701311Y501247D02*
X701198Y501559D01*
X700970Y501872*
X700743Y502028*
X700289*
X700061Y501872*
X699834Y501559*
X699720Y501247*
X699607Y500778*
Y499997*
X699720Y499528*
X699834Y499216*
X700061Y498903*
X700289Y498747*
X700743*
X700970Y498903*
X701198Y499216*
X701311Y499528*
X702448Y501247D02*
Y501403D01*
X702561Y501716*
X702675Y501872*
X702902Y502028*
X703357*
X703584Y501872*
X703698Y501716*
X703811Y501403*
Y501091*
X703698Y500778*
X703470Y500309*
X702334Y498747*
X703925*
X705630Y502028D02*
X705289Y501872D01*
X705061Y501403*
X704948Y500622*
Y500153*
X705061Y499372*
X705289Y498903*
X705630Y498747*
X705857*
X706198Y498903*
X706425Y499372*
X706539Y500153*
Y500622*
X706425Y501403*
X706198Y501872*
X705857Y502028*
X705630*
X711523Y396147D02*
X711409Y396459D01*
X711182Y396772*
X710955Y396928*
X710500*
X710273Y396772*
X710045Y396459*
X709932Y396147*
X709818Y395678*
Y394897*
X709932Y394428*
X710045Y394116*
X710273Y393803*
X710500Y393647*
X710955*
X711182Y393803*
X711409Y394116*
X711523Y394428*
X714136Y396928D02*
X712545Y393647D01*
Y396928D02*
X714136D01*
X712545Y393647D02*
X714136D01*
X715159Y396303D02*
X715386Y396459D01*
X715727Y396928*
Y393647*
X748053Y482411D02*
X747741Y482298D01*
X747428Y482070*
X747272Y481843*
Y481389*
X747428Y481161*
X747741Y480934*
X748053Y480820*
X748522Y480707*
X749303*
X749772Y480820*
X750084Y480934*
X750397Y481161*
X750553Y481389*
Y481843*
X750397Y482070*
X750084Y482298*
X749772Y482411*
X748053Y483548D02*
X747897D01*
X747584Y483661*
X747428Y483775*
X747272Y484002*
Y484457*
X747428Y484684*
X747584Y484798*
X747897Y484911*
X748209*
X748522Y484798*
X748991Y484570*
X750553Y483434*
Y485025*
X747272Y486616D02*
X747428Y486275D01*
X747741Y486161*
X748053*
X748366Y486275*
X748522Y486502*
X748678Y486957*
X748834Y487298*
X749147Y487525*
X749459Y487639*
X749928*
X750241Y487525*
X750397Y487411*
X750553Y487070*
Y486616*
X750397Y486275*
X750241Y486161*
X749928Y486048*
X749459*
X749147Y486161*
X748834Y486389*
X748678Y486730*
X748522Y487184*
X748366Y487411*
X748053Y487525*
X747741*
X747428Y487411*
X747272Y487070*
Y486616*
X729868Y498747D02*
X729755Y499059D01*
X729527Y499372*
X729300Y499528*
X728845*
X728618Y499372*
X728391Y499059*
X728277Y498747*
X728164Y498278*
Y497497*
X728277Y497028*
X728391Y496716*
X728618Y496403*
X728845Y496247*
X729300*
X729527Y496403*
X729755Y496716*
X729868Y497028*
X731005Y498747D02*
Y498903D01*
X731118Y499216*
X731232Y499372*
X731459Y499528*
X731914*
X732141Y499372*
X732255Y499216*
X732368Y498903*
Y498591*
X732255Y498278*
X732027Y497809*
X730891Y496247*
X732482*
X734868Y499059D02*
X734755Y499372D01*
X734414Y499528*
X734186*
X733845Y499372*
X733618Y498903*
X733505Y498122*
Y497341*
X733618Y496716*
X733845Y496403*
X734186Y496247*
X734300*
X734641Y496403*
X734868Y496716*
X734982Y497184*
Y497341*
X734868Y497809*
X734641Y498122*
X734300Y498278*
X734186*
X733845Y498122*
X733618Y497809*
X733505Y497341*
X693623Y498847D02*
X693509Y499159D01*
X693282Y499472*
X693055Y499628*
X692600*
X692373Y499472*
X692145Y499159*
X692032Y498847*
X691918Y498378*
Y497597*
X692032Y497128*
X692145Y496816*
X692373Y496503*
X692600Y496347*
X693055*
X693282Y496503*
X693509Y496816*
X693623Y497128*
X694645Y499003D02*
X694873Y499159D01*
X695214Y499628*
Y496347*
X697827Y499628D02*
X696691Y496347D01*
X696236Y499628D02*
X697827D01*
X678075Y629528D02*
Y626247D01*
Y629528D02*
X679098D01*
X679439Y629372*
X679552Y629216*
X679666Y628903*
Y628434*
X679552Y628122*
X679439Y627966*
X679098Y627809*
X678075*
X680689Y629528D02*
Y626247D01*
X682280Y629528D02*
Y626247D01*
X680689Y627966D02*
X682280D01*
X683302Y628903D02*
X683530Y629059D01*
X683870Y629528*
Y626247*
X688023Y572847D02*
X687909Y573159D01*
X687682Y573472*
X687455Y573628*
X687000*
X686773Y573472*
X686545Y573159*
X686432Y572847*
X686318Y572378*
Y571597*
X686432Y571128*
X686545Y570816*
X686773Y570503*
X687000Y570347*
X687455*
X687682Y570503*
X687909Y570816*
X688023Y571128*
X689045Y573003D02*
X689273Y573159D01*
X689614Y573628*
Y570347*
X690864Y573628D02*
X692114D01*
X691432Y572378*
X691773*
X692000Y572222*
X692114Y572066*
X692227Y571597*
Y571284*
X692114Y570816*
X691886Y570503*
X691545Y570347*
X691205*
X690864Y570503*
X690750Y570659*
X690636Y570972*
X688166Y482047D02*
X688052Y482359D01*
X687825Y482672*
X687598Y482828*
X687143*
X686916Y482672*
X686689Y482359*
X686575Y482047*
X686461Y481578*
Y480797*
X686575Y480328*
X686689Y480016*
X686916Y479703*
X687143Y479547*
X687598*
X687825Y479703*
X688052Y480016*
X688166Y480328*
X689189Y482203D02*
X689416Y482359D01*
X689757Y482828*
Y479547*
X691916Y482828D02*
X690780Y480641D01*
X692484*
X691916Y482828D02*
Y479547D01*
X667882Y552628D02*
Y549347D01*
Y552628D02*
X668677D01*
X669018Y552472*
X669245Y552159*
X669359Y551847*
X669473Y551378*
Y550597*
X669359Y550128*
X669245Y549816*
X669018Y549503*
X668677Y549347*
X667882*
X670495Y552003D02*
X670723Y552159D01*
X671064Y552628*
Y549347*
X667770Y468728D02*
Y465447D01*
Y468728D02*
X668566D01*
X668907Y468572*
X669134Y468259*
X669248Y467947*
X669361Y467478*
Y466697*
X669248Y466228*
X669134Y465916*
X668907Y465603*
X668566Y465447*
X667770*
X670498Y467947D02*
Y468103D01*
X670611Y468416*
X670725Y468572*
X670952Y468728*
X671407*
X671634Y468572*
X671748Y468416*
X671861Y468103*
Y467791*
X671748Y467478*
X671520Y467009*
X670384Y465447*
X671975*
X665975Y565828D02*
Y562547D01*
Y565828D02*
X666998D01*
X667339Y565672*
X667452Y565516*
X667566Y565203*
Y564891*
X667452Y564578*
X667339Y564422*
X666998Y564266*
X665975*
X666770D02*
X667566Y562547D01*
X668589Y565203D02*
X668816Y565359D01*
X669157Y565828*
Y562547*
X670861Y565828D02*
X670520Y565672D01*
X670293Y565203*
X670180Y564422*
Y563953*
X670293Y563172*
X670520Y562703*
X670861Y562547*
X671089*
X671430Y562703*
X671657Y563172*
X671770Y563953*
Y564422*
X671657Y565203*
X671430Y565672*
X671089Y565828*
X670861*
X666486Y482528D02*
Y479247D01*
Y482528D02*
X667509D01*
X667850Y482372*
X667964Y482216*
X668077Y481903*
Y481591*
X667964Y481278*
X667850Y481122*
X667509Y480966*
X666486*
X667282D02*
X668077Y479247D01*
X669100Y481903D02*
X669327Y482059D01*
X669668Y482528*
Y479247*
X670691Y481903D02*
X670918Y482059D01*
X671259Y482528*
Y479247*
X670334Y605247D02*
X670220Y605559D01*
X669993Y605872*
X669766Y606028*
X669311*
X669084Y605872*
X668857Y605559*
X668743Y605247*
X668630Y604778*
Y603997*
X668743Y603528*
X668857Y603216*
X669084Y602903*
X669311Y602747*
X669766*
X669993Y602903*
X670220Y603216*
X670334Y603528*
X671357Y605403D02*
X671584Y605559D01*
X671925Y606028*
Y602747*
X672948Y605403D02*
X673175Y605559D01*
X673516Y606028*
Y602747*
X667423Y521047D02*
X667309Y521359D01*
X667082Y521672*
X666855Y521828*
X666400*
X666173Y521672*
X665945Y521359*
X665832Y521047*
X665718Y520578*
Y519797*
X665832Y519328*
X665945Y519016*
X666173Y518703*
X666400Y518547*
X666855*
X667082Y518703*
X667309Y519016*
X667423Y519328*
X668445Y521203D02*
X668673Y521359D01*
X669014Y521828*
Y518547*
X670150Y521047D02*
Y521203D01*
X670264Y521516*
X670377Y521672*
X670605Y521828*
X671059*
X671286Y521672*
X671400Y521516*
X671514Y521203*
Y520891*
X671400Y520578*
X671173Y520109*
X670036Y518547*
X671627*
X657375Y588047D02*
X657261Y588359D01*
X657034Y588672*
X656807Y588828*
X656352*
X656125Y588672*
X655898Y588359*
X655784Y588047*
X655670Y587578*
Y586797*
X655784Y586328*
X655898Y586016*
X656125Y585703*
X656352Y585547*
X656807*
X657034Y585703*
X657261Y586016*
X657375Y586328*
X659875Y587734D02*
X659761Y587266D01*
X659534Y586953*
X659193Y586797*
X659080*
X658739Y586953*
X658511Y587266*
X658398Y587734*
Y587891*
X658511Y588359*
X658739Y588672*
X659080Y588828*
X659193*
X659534Y588672*
X659761Y588359*
X659875Y587734*
Y586953*
X659761Y586172*
X659534Y585703*
X659193Y585547*
X658966*
X658625Y585703*
X658511Y586016*
X661323Y489747D02*
X661209Y490059D01*
X660982Y490372*
X660755Y490528*
X660300*
X660073Y490372*
X659845Y490059*
X659732Y489747*
X659618Y489278*
Y488497*
X659732Y488028*
X659845Y487716*
X660073Y487403*
X660300Y487247*
X660755*
X660982Y487403*
X661209Y487716*
X661323Y488028*
X662345Y489903D02*
X662573Y490059D01*
X662914Y490528*
Y487247*
X664618Y490528D02*
X664277Y490372D01*
X664050Y489903*
X663936Y489122*
Y488653*
X664050Y487872*
X664277Y487403*
X664618Y487247*
X664845*
X665186Y487403*
X665414Y487872*
X665527Y488653*
Y489122*
X665414Y489903*
X665186Y490372*
X664845Y490528*
X664618*
X656727Y508828D02*
Y505547D01*
Y508828D02*
X657750D01*
X658091Y508672*
X658205Y508516*
X658318Y508203*
Y507891*
X658205Y507578*
X658091Y507422*
X657750Y507266*
X656727*
X657523D02*
X658318Y505547D01*
X660818Y507734D02*
X660705Y507266D01*
X660477Y506953*
X660136Y506797*
X660023*
X659682Y506953*
X659455Y507266*
X659341Y507734*
Y507891*
X659455Y508359*
X659682Y508672*
X660023Y508828*
X660136*
X660477Y508672*
X660705Y508359*
X660818Y507734*
Y506953*
X660705Y506172*
X660477Y505703*
X660136Y505547*
X659909*
X659568Y505703*
X659455Y506016*
X649427Y576828D02*
Y573547D01*
Y576828D02*
X650450D01*
X650791Y576672*
X650905Y576516*
X651018Y576203*
Y575891*
X650905Y575578*
X650791Y575422*
X650450Y575266*
X649427*
X650223D02*
X651018Y573547D01*
X653405Y576359D02*
X653291Y576672D01*
X652950Y576828*
X652723*
X652382Y576672*
X652155Y576203*
X652041Y575422*
Y574641*
X652155Y574016*
X652382Y573703*
X652723Y573547*
X652836*
X653177Y573703*
X653405Y574016*
X653518Y574484*
Y574641*
X653405Y575109*
X653177Y575422*
X652836Y575578*
X652723*
X652382Y575422*
X652155Y575109*
X652041Y574641*
X654970Y487028D02*
Y483747D01*
Y487028D02*
X655993D01*
X656334Y486872*
X656448Y486716*
X656561Y486403*
Y486091*
X656448Y485778*
X656334Y485622*
X655993Y485466*
X654970*
X655766D02*
X656561Y483747D01*
X658152Y487028D02*
X657811Y486872D01*
X657698Y486559*
Y486247*
X657811Y485934*
X658039Y485778*
X658493Y485622*
X658834Y485466*
X659061Y485153*
X659175Y484841*
Y484372*
X659061Y484059*
X658948Y483903*
X658607Y483747*
X658152*
X657811Y483903*
X657698Y484059*
X657584Y484372*
Y484841*
X657698Y485153*
X657925Y485466*
X658266Y485622*
X658720Y485778*
X658948Y485934*
X659061Y486247*
Y486559*
X658948Y486872*
X658607Y487028*
X658152*
X655014Y593328D02*
Y590047D01*
Y593328D02*
X656036D01*
X656377Y593172*
X656491Y593016*
X656605Y592703*
Y592391*
X656491Y592078*
X656377Y591922*
X656036Y591766*
X655014*
X655809D02*
X656605Y590047D01*
X659105Y593328D02*
X657968D01*
X657855Y591922*
X657968Y592078*
X658309Y592234*
X658650*
X658991Y592078*
X659218Y591766*
X659332Y591297*
X659218Y590984*
X659105Y590516*
X658877Y590203*
X658536Y590047*
X658195*
X657855Y590203*
X657741Y590359*
X657627Y590672*
X646570Y514328D02*
Y511047D01*
Y514328D02*
X647593D01*
X647934Y514172*
X648048Y514016*
X648161Y513703*
Y513391*
X648048Y513078*
X647934Y512922*
X647593Y512766*
X646570*
X647366D02*
X648161Y511047D01*
X650775Y514328D02*
X649639Y511047D01*
X649184Y514328D02*
X650775D01*
X632918Y564947D02*
X632805Y565259D01*
X632577Y565572*
X632350Y565728*
X631895*
X631668Y565572*
X631441Y565259*
X631327Y564947*
X631214Y564478*
Y563697*
X631327Y563228*
X631441Y562916*
X631668Y562603*
X631895Y562447*
X632350*
X632577Y562603*
X632805Y562916*
X632918Y563228*
X635532Y565728D02*
X634395Y562447D01*
X633941Y565728D02*
X635532D01*
X633118Y483347D02*
X633005Y483659D01*
X632777Y483972*
X632550Y484128*
X632095*
X631868Y483972*
X631641Y483659*
X631527Y483347*
X631414Y482878*
Y482097*
X631527Y481628*
X631641Y481316*
X631868Y481003*
X632095Y480847*
X632550*
X632777Y481003*
X633005Y481316*
X633118Y481628*
X634709Y484128D02*
X634368Y483972D01*
X634255Y483659*
Y483347*
X634368Y483034*
X634595Y482878*
X635050Y482722*
X635391Y482566*
X635618Y482253*
X635732Y481941*
Y481472*
X635618Y481159*
X635505Y481003*
X635164Y480847*
X634709*
X634368Y481003*
X634255Y481159*
X634141Y481472*
Y481941*
X634255Y482253*
X634482Y482566*
X634823Y482722*
X635277Y482878*
X635505Y483034*
X635618Y483347*
Y483659*
X635505Y483972*
X635164Y484128*
X634709*
X629770Y578428D02*
Y576084D01*
X629884Y575616*
X630111Y575303*
X630452Y575147*
X630680*
X631020Y575303*
X631248Y575616*
X631361Y576084*
Y578428*
X632498Y577647D02*
Y577803D01*
X632611Y578116*
X632725Y578272*
X632952Y578428*
X633407*
X633634Y578272*
X633748Y578116*
X633861Y577803*
Y577491*
X633748Y577178*
X633520Y576709*
X632384Y575147*
X633975*
X629970Y495628D02*
Y493284D01*
X630084Y492816*
X630311Y492503*
X630652Y492347*
X630880*
X631220Y492503*
X631448Y492816*
X631561Y493284*
Y495628*
X632811D02*
X634061D01*
X633380Y494378*
X633720*
X633948Y494222*
X634061Y494066*
X634175Y493597*
Y493284*
X634061Y492816*
X633834Y492503*
X633493Y492347*
X633152*
X632811Y492503*
X632698Y492659*
X632584Y492972*
X624914Y610828D02*
Y607547D01*
Y610828D02*
X625936D01*
X626277Y610672*
X626391Y610516*
X626505Y610203*
Y609891*
X626391Y609578*
X626277Y609422*
X625936Y609266*
X624914*
X625709D02*
X626505Y607547D01*
X628664Y610828D02*
X627527Y608641D01*
X629232*
X628664Y610828D02*
Y607547D01*
X619095Y545328D02*
Y542047D01*
X620459*
X621482Y544703D02*
X621709Y544859D01*
X622050Y545328*
Y542047*
X620584Y462928D02*
Y459647D01*
X621948*
X623084Y462147D02*
Y462303D01*
X623198Y462616*
X623311Y462772*
X623539Y462928*
X623993*
X624220Y462772*
X624334Y462616*
X624448Y462303*
Y461991*
X624334Y461678*
X624107Y461209*
X622970Y459647*
X624561*
X630170Y584328D02*
Y581047D01*
Y584328D02*
X631193D01*
X631534Y584172*
X631648Y584016*
X631761Y583703*
Y583391*
X631648Y583078*
X631534Y582922*
X631193Y582766*
X630170*
X630966D02*
X631761Y581047D01*
X632898Y583547D02*
Y583703D01*
X633011Y584016*
X633125Y584172*
X633352Y584328*
X633807*
X634034Y584172*
X634148Y584016*
X634261Y583703*
Y583391*
X634148Y583078*
X633920Y582609*
X632784Y581047*
X634375*
X635670Y514328D02*
Y511047D01*
Y514328D02*
X636693D01*
X637034Y514172*
X637148Y514016*
X637261Y513703*
Y513391*
X637148Y513078*
X637034Y512922*
X636693Y512766*
X635670*
X636466D02*
X637261Y511047D01*
X638511Y514328D02*
X639761D01*
X639080Y513078*
X639420*
X639648Y512922*
X639761Y512766*
X639875Y512297*
Y511984*
X639761Y511516*
X639534Y511203*
X639193Y511047*
X638852*
X638511Y511203*
X638398Y511359*
X638284Y511672*
X627161Y572047D02*
X627048Y572359D01*
X626820Y572672*
X626593Y572828*
X626139*
X625911Y572672*
X625684Y572359*
X625570Y572047*
X625457Y571578*
Y570797*
X625570Y570328*
X625684Y570016*
X625911Y569703*
X626139Y569547*
X626593*
X626820Y569703*
X627048Y570016*
X627161Y570328*
X629661Y572828D02*
X628525D01*
X628411Y571422*
X628525Y571578*
X628866Y571734*
X629207*
X629548Y571578*
X629775Y571266*
X629889Y570797*
X629775Y570484*
X629661Y570016*
X629434Y569703*
X629093Y569547*
X628752*
X628411Y569703*
X628298Y569859*
X628184Y570172*
X627075Y474347D02*
X626961Y474659D01*
X626734Y474972*
X626507Y475128*
X626052*
X625825Y474972*
X625598Y474659*
X625484Y474347*
X625370Y473878*
Y473097*
X625484Y472628*
X625598Y472316*
X625825Y472003*
X626052Y471847*
X626507*
X626734Y472003*
X626961Y472316*
X627075Y472628*
X629461Y474659D02*
X629348Y474972D01*
X629007Y475128*
X628780*
X628439Y474972*
X628211Y474503*
X628098Y473722*
Y472941*
X628211Y472316*
X628439Y472003*
X628780Y471847*
X628893*
X629234Y472003*
X629461Y472316*
X629575Y472784*
Y472941*
X629461Y473409*
X629234Y473722*
X628893Y473878*
X628780*
X628439Y473722*
X628211Y473409*
X628098Y472941*
X620418Y572047D02*
X620305Y572359D01*
X620077Y572672*
X619850Y572828*
X619395*
X619168Y572672*
X618941Y572359*
X618827Y572047*
X618714Y571578*
Y570797*
X618827Y570328*
X618941Y570016*
X619168Y569703*
X619395Y569547*
X619850*
X620077Y569703*
X620305Y570016*
X620418Y570328*
X621668Y572828D02*
X622918D01*
X622236Y571578*
X622577*
X622805Y571422*
X622918Y571266*
X623032Y570797*
Y570484*
X622918Y570016*
X622691Y569703*
X622350Y569547*
X622009*
X621668Y569703*
X621555Y569859*
X621441Y570172*
X619961Y474347D02*
X619848Y474659D01*
X619620Y474972*
X619393Y475128*
X618939*
X618711Y474972*
X618484Y474659*
X618370Y474347*
X618257Y473878*
Y473097*
X618370Y472628*
X618484Y472316*
X618711Y472003*
X618939Y471847*
X619393*
X619620Y472003*
X619848Y472316*
X619961Y472628*
X622120Y475128D02*
X620984Y472941D01*
X622689*
X622120Y475128D02*
Y471847D01*
X597730Y587847D02*
X597616Y588159D01*
X597389Y588472*
X597161Y588628*
X596707*
X596480Y588472*
X596252Y588159*
X596139Y587847*
X596025Y587378*
Y586597*
X596139Y586128*
X596252Y585816*
X596480Y585503*
X596707Y585347*
X597161*
X597389Y585503*
X597616Y585816*
X597730Y586128*
X598752Y588003D02*
X598980Y588159D01*
X599320Y588628*
Y585347*
X606018Y521447D02*
X605905Y521759D01*
X605677Y522072*
X605450Y522228*
X604995*
X604768Y522072*
X604541Y521759*
X604427Y521447*
X604314Y520978*
Y520197*
X604427Y519728*
X604541Y519416*
X604768Y519103*
X604995Y518947*
X605450*
X605677Y519103*
X605905Y519416*
X606018Y519728*
X607155Y521447D02*
Y521603D01*
X607268Y521916*
X607382Y522072*
X607609Y522228*
X608064*
X608291Y522072*
X608405Y521916*
X608518Y521603*
Y521291*
X608405Y520978*
X608177Y520509*
X607041Y518947*
X608632*
X587575Y433228D02*
X589166Y429947D01*
Y433228D02*
X587575Y429947D01*
X590984Y433228D02*
Y429947D01*
X590189Y433228D02*
X591780D01*
X592802Y432603D02*
X593030Y432759D01*
X593370Y433228*
Y429947*
X960761Y559859D02*
X960534Y560172D01*
X960193Y560328*
X959739*
X959398Y560172*
X959170Y559859*
Y559547*
X959284Y559234*
X959398Y559078*
X959625Y558922*
X960307Y558609*
X960534Y558453*
X960648Y558297*
X960761Y557984*
Y557516*
X960534Y557203*
X960193Y557047*
X959739*
X959398Y557203*
X959170Y557516*
X961898Y559547D02*
Y559703D01*
X962011Y560016*
X962125Y560172*
X962352Y560328*
X962807*
X963034Y560172*
X963148Y560016*
X963261Y559703*
Y559391*
X963148Y559078*
X962920Y558609*
X961784Y557047*
X963375*
G54D77*
X576487Y525700D02*
G03X576487I-787J0D01*
G01X848471Y614063D02*
G03X848471I-707J0D01*
G01X938471D02*
G03X938471I-707J0D01*
G54D78*
G01X687252Y619118D02*
X689535D01*
Y617150*
X687252*
X719252Y619118D02*
X716969D01*
Y617150*
X719252*
X614441Y365488D02*
X577630D01*
Y426512*
X614441*
X630189Y365488D02*
X649283D01*
Y373953*
Y417260D02*
Y426512D01*
X630189*
G54D79*
X689402Y588000D02*
G03X689402I-12402J0D01*
G01Y503500D02*
G03X689402I-12402J0D01*
G01X627902Y588000D02*
G03X627902I-12402J0D01*
G01X627402Y503500D02*
G03X627402I-12402J0D01*
G54D80*
G01X978500Y559500D02*
X982500D01*
X978500Y565500D02*
X982500D01*
Y551500*
X978500*
Y565500*
X968500Y559500D02*
X972500D01*
X968500Y565500D02*
X972500D01*
Y551500*
X968500*
Y565500*
X590600Y515719D02*
Y518062D01*
X590600D02*
X590486Y518531D01*
X590259Y518844*
X589918Y519000*
X589691*
X589350Y518844*
X589123Y518531*
X589009Y518062*
X589009D02*
Y515719D01*
X587986Y516344D02*
X587759Y516187D01*
X587759D02*
X587418Y515719D01*
Y519000*
X932000Y489281D02*
Y486000D01*
Y489281D02*
X933023D01*
X933364Y489125*
X933477Y488969*
X933591Y488656*
Y488344*
X933477Y488031*
X933364Y487875*
X933023Y487719*
X932000*
X932795D02*
X933591Y486000D01*
X934727Y488500D02*
Y488656D01*
X934841Y488969*
X934955Y489125*
X935182Y489281*
X935636*
X935864Y489125*
X935977Y488969*
X936091Y488656*
Y488344*
X935977Y488031*
X935750Y487562*
X935750D02*
X934614Y486000D01*
X936205*
X938364Y489281D02*
X937227Y487094D01*
X938932*
X938364Y489281D02*
Y486000D01*
X931500Y523281D02*
Y520000D01*
Y523281D02*
X932523D01*
X932864Y523125*
X932977Y522969*
X933091Y522656*
Y522344*
X932977Y522031*
X932864Y521875*
X932523Y521719*
X931500*
X932295D02*
X933091Y520000D01*
X934227Y522500D02*
Y522656D01*
X934341Y522969*
X934455Y523125*
X934682Y523281*
X935136*
X935364Y523125*
X935477Y522969*
X935591Y522656*
Y522344*
X935477Y522031*
X935250Y521562*
X935250D02*
X934114Y520000D01*
X935705*
X936727Y522656D02*
X936955Y522812D01*
X936955D02*
X937295Y523281D01*
Y520000*
X931500Y512281D02*
Y509000D01*
Y512281D02*
X932523D01*
X932864Y512125*
X932977Y511969*
X933091Y511656*
Y511344*
X932977Y511031*
X932864Y510875*
X932523Y510719*
X931500*
X932295D02*
X933091Y509000D01*
X934227Y511500D02*
Y511656D01*
X934341Y511969*
X934455Y512125*
X934682Y512281*
X935136*
X935364Y512125*
X935477Y511969*
X935591Y511656*
Y511344*
X935477Y511031*
X935250Y510562*
X935250D02*
X934114Y509000D01*
X935705*
X936841Y511500D02*
Y511656D01*
X936955Y511969*
X937068Y512125*
X937295Y512281*
X937750*
X937977Y512125*
X938091Y511969*
X938205Y511656*
Y511344*
X938091Y511031*
X937864Y510562*
X937864D02*
X936727Y509000D01*
X938318*
X931500Y501281D02*
Y498000D01*
Y501281D02*
X932523D01*
X932864Y501125*
X932977Y500969*
X933091Y500656*
Y500344*
X932977Y500031*
X932864Y499875*
X932523Y499719*
X931500*
X932295D02*
X933091Y498000D01*
X934227Y500500D02*
Y500656D01*
X934341Y500969*
X934455Y501125*
X934682Y501281*
X935136*
X935364Y501125*
X935477Y500969*
X935591Y500656*
Y500344*
X935477Y500031*
X935250Y499562*
X935250D02*
X934114Y498000D01*
X935705*
X936955Y501281D02*
X938205D01*
X937523Y500031*
X937864*
X938091Y499875*
X938205Y499719*
X938318Y499250*
Y498937*
X938318D02*
X938205Y498469D01*
X937977Y498156*
X937636Y498000*
X937295*
X936955Y498156*
X936841Y498312*
X936841D02*
X936727Y498625D01*
G74*
X0Y0D02*
M02*
